<?xml version="1.0" encoding="utf-8" standalone="no"?>
<!DOCTYPE svg PUBLIC "-//W3C//DTD SVG 1.1//EN"
  "http://www.w3.org/Graphics/SVG/1.1/DTD/svg11.dtd">
<svg xmlns:xlink="http://www.w3.org/1999/xlink" width="245.0808pt" height="151.46856pt" viewBox="0 0 245.0808 151.46856" xmlns="http://www.w3.org/2000/svg" version="1.1">
 <metadata>
  <rdf:RDF xmlns:dc="http://purl.org/dc/elements/1.1/" xmlns:cc="http://creativecommons.org/ns#" xmlns:rdf="http://www.w3.org/1999/02/22-rdf-syntax-ns#">
   <cc:Work>
    <dc:type rdf:resource="http://purl.org/dc/dcmitype/StillImage"/>
    <dc:date>2025-09-12T14:49:07.658575</dc:date>
    <dc:format>image/svg+xml</dc:format>
    <dc:creator>
     <cc:Agent>
      <dc:title>Matplotlib v3.10.1, https://matplotlib.org/</dc:title>
     </cc:Agent>
    </dc:creator>
   </cc:Work>
  </rdf:RDF>
 </metadata>
 <defs>
  <style type="text/css">*{stroke-linejoin: round; stroke-linecap: butt}</style>
 </defs>
 <g id="figure_1">
  <g id="patch_1">
   <path d="M 0 151.46856 
L 245.0808 151.46856 
L 245.0808 0 
L 0 0 
L 0 151.46856 
z
" style="fill: none"/>
  </g>
  <g id="axes_1">
   <g id="patch_2">
    <path d="M 43.256043 125.561734 
L 242.08056 125.561734 
L 242.08056 3.00024 
L 43.256043 3.00024 
L 43.256043 125.561734 
z
" style="fill: none"/>
   </g>
   <g id="matplotlib.axis_1">
    <g id="xtick_1">
     <g id="line2d_1">
      <defs>
       <path id="mb9411c37cf" d="M 0 0 
L 0 2 
" style="stroke: #000000; stroke-width: 0.5"/>
      </defs>
      <g>
       <use xlink:href="#mb9411c37cf" x="43.256043" y="125.561734" style="stroke: #000000; stroke-width: 0.5"/>
      </g>
     </g>
     <g id="text_1">
      <!-- $\mathdefault{0}$ -->
      <g transform="translate(40.952198 135.788384) scale(0.09 -0.09)">
       <defs>
        <path id="CMR17-30" d="M 2688 2025 
C 2688 2416 2682 3080 2413 3591 
C 2176 4039 1798 4198 1466 4198 
C 1158 4198 768 4058 525 3597 
C 269 3118 243 2524 243 2025 
C 243 1661 250 1106 448 619 
C 723 -39 1216 -128 1466 -128 
C 1760 -128 2208 -7 2470 600 
C 2662 1042 2688 1559 2688 2025 
z
M 1466 -26 
C 1056 -26 813 325 723 812 
C 653 1188 653 1738 653 2096 
C 653 2588 653 2997 736 3387 
C 858 3929 1216 4096 1466 4096 
C 1728 4096 2067 3923 2189 3400 
C 2272 3036 2278 2607 2278 2096 
C 2278 1680 2278 1169 2202 792 
C 2067 95 1690 -26 1466 -26 
z
" transform="scale(0.015625)"/>
       </defs>
       <use xlink:href="#CMR17-30" transform="scale(0.996264)"/>
      </g>
     </g>
    </g>
    <g id="xtick_2">
     <g id="line2d_2">
      <g>
       <use xlink:href="#mb9411c37cf" x="76.955114" y="125.561734" style="stroke: #000000; stroke-width: 0.5"/>
      </g>
     </g>
     <g id="text_2">
      <!-- $\mathdefault{1}$ -->
      <g transform="translate(74.651268 135.788384) scale(0.09 -0.09)">
       <defs>
        <path id="CMR17-31" d="M 1702 4058 
C 1702 4192 1696 4192 1606 4192 
C 1357 3916 979 3827 621 3827 
C 602 3827 570 3827 563 3808 
C 557 3795 557 3782 557 3648 
C 755 3648 1088 3686 1344 3839 
L 1344 461 
C 1344 236 1331 160 781 160 
L 589 160 
L 589 0 
C 896 0 1216 0 1523 0 
C 1830 0 2150 0 2458 0 
L 2458 160 
L 2266 160 
C 1715 160 1702 230 1702 458 
L 1702 4058 
z
" transform="scale(0.015625)"/>
       </defs>
       <use xlink:href="#CMR17-31" transform="scale(0.996264)"/>
      </g>
     </g>
    </g>
    <g id="xtick_3">
     <g id="line2d_3">
      <g>
       <use xlink:href="#mb9411c37cf" x="110.654184" y="125.561734" style="stroke: #000000; stroke-width: 0.5"/>
      </g>
     </g>
     <g id="text_3">
      <!-- $\mathdefault{2}$ -->
      <g transform="translate(108.350339 135.788384) scale(0.09 -0.09)">
       <defs>
        <path id="CMR17-32" d="M 2669 989 
L 2554 989 
C 2490 536 2438 459 2413 420 
C 2381 369 1920 369 1830 369 
L 602 369 
C 832 619 1280 1072 1824 1597 
C 2214 1967 2669 2402 2669 3035 
C 2669 3790 2067 4224 1395 4224 
C 691 4224 262 3604 262 3030 
C 262 2780 448 2748 525 2748 
C 589 2748 781 2787 781 3010 
C 781 3207 614 3264 525 3264 
C 486 3264 448 3258 422 3245 
C 544 3790 915 4058 1306 4058 
C 1862 4058 2227 3617 2227 3035 
C 2227 2479 1901 2000 1536 1584 
L 262 146 
L 262 0 
L 2515 0 
L 2669 989 
z
" transform="scale(0.015625)"/>
       </defs>
       <use xlink:href="#CMR17-32" transform="scale(0.996264)"/>
      </g>
     </g>
    </g>
    <g id="xtick_4">
     <g id="line2d_4">
      <g>
       <use xlink:href="#mb9411c37cf" x="144.353255" y="125.561734" style="stroke: #000000; stroke-width: 0.5"/>
      </g>
     </g>
     <g id="text_4">
      <!-- $\mathdefault{3}$ -->
      <g transform="translate(142.04941 135.788384) scale(0.09 -0.09)">
       <defs>
        <path id="CMR17-33" d="M 1414 2157 
C 1984 2157 2234 1662 2234 1090 
C 2234 320 1824 25 1453 25 
C 1114 25 563 194 390 693 
C 422 680 454 680 486 680 
C 640 680 755 782 755 948 
C 755 1133 614 1216 486 1216 
C 378 1216 211 1165 211 926 
C 211 335 787 -128 1466 -128 
C 2176 -128 2720 430 2720 1085 
C 2720 1707 2208 2157 1600 2227 
C 2086 2328 2554 2756 2554 3329 
C 2554 3820 2048 4179 1472 4179 
C 890 4179 378 3829 378 3329 
C 378 3110 544 3072 627 3072 
C 762 3072 877 3155 877 3321 
C 877 3486 762 3569 627 3569 
C 602 3569 570 3569 544 3557 
C 730 3959 1235 4032 1459 4032 
C 1683 4032 2106 3925 2106 3320 
C 2106 3143 2080 2828 1862 2550 
C 1670 2304 1453 2304 1242 2284 
C 1210 2284 1062 2269 1037 2269 
C 992 2263 966 2257 966 2208 
C 966 2163 973 2157 1101 2157 
L 1414 2157 
z
" transform="scale(0.015625)"/>
       </defs>
       <use xlink:href="#CMR17-33" transform="scale(0.996264)"/>
      </g>
     </g>
    </g>
    <g id="xtick_5">
     <g id="line2d_5">
      <g>
       <use xlink:href="#mb9411c37cf" x="178.052326" y="125.561734" style="stroke: #000000; stroke-width: 0.5"/>
      </g>
     </g>
     <g id="text_5">
      <!-- $\mathdefault{4}$ -->
      <g transform="translate(175.74848 135.788384) scale(0.09 -0.09)">
       <defs>
        <path id="CMR17-34" d="M 2150 4122 
C 2150 4256 2144 4256 2029 4256 
L 128 1254 
L 128 1088 
L 1779 1088 
L 1779 457 
C 1779 224 1766 160 1318 160 
L 1197 160 
L 1197 0 
C 1402 0 1747 0 1965 0 
C 2182 0 2528 0 2733 0 
L 2733 160 
L 2611 160 
C 2163 160 2150 224 2150 457 
L 2150 1088 
L 2803 1088 
L 2803 1254 
L 2150 1254 
L 2150 4122 
z
M 1798 3703 
L 1798 1254 
L 256 1254 
L 1798 3703 
z
" transform="scale(0.015625)"/>
       </defs>
       <use xlink:href="#CMR17-34" transform="scale(0.996264)"/>
      </g>
     </g>
    </g>
    <g id="xtick_6">
     <g id="line2d_6">
      <g>
       <use xlink:href="#mb9411c37cf" x="211.751396" y="125.561734" style="stroke: #000000; stroke-width: 0.5"/>
      </g>
     </g>
     <g id="text_6">
      <!-- $\mathdefault{5}$ -->
      <g transform="translate(209.447551 135.788384) scale(0.09 -0.09)">
       <defs>
        <path id="CMR17-35" d="M 730 3692 
C 794 3666 1056 3584 1325 3584 
C 1920 3584 2246 3911 2432 4100 
C 2432 4157 2432 4192 2394 4192 
C 2387 4192 2374 4192 2323 4163 
C 2099 4058 1837 3973 1517 3973 
C 1325 3973 1037 3999 723 4139 
C 653 4171 640 4171 634 4171 
C 602 4171 595 4164 595 4037 
L 595 2203 
C 595 2089 595 2057 659 2057 
C 691 2057 704 2070 736 2114 
C 941 2401 1222 2522 1542 2522 
C 1766 2522 2246 2382 2246 1289 
C 2246 1085 2246 715 2054 421 
C 1894 159 1645 25 1370 25 
C 947 25 518 320 403 814 
C 429 807 480 795 506 795 
C 589 795 749 840 749 1038 
C 749 1210 627 1280 506 1280 
C 358 1280 262 1190 262 1011 
C 262 454 704 -128 1382 -128 
C 2042 -128 2669 440 2669 1264 
C 2669 2030 2170 2624 1549 2624 
C 1222 2624 947 2503 730 2274 
L 730 3692 
z
" transform="scale(0.015625)"/>
       </defs>
       <use xlink:href="#CMR17-35" transform="scale(0.996264)"/>
      </g>
     </g>
    </g>
    <g id="text_7">
     <!-- $r\;[{\rm \AA}] $ -->
     <g transform="translate(133.940031 146.475792) scale(0.08 -0.08)">
      <defs>
       <path id="CMMI12-72" d="M 2490 2612 
C 2291 2574 2189 2433 2189 2293 
C 2189 2139 2310 2088 2400 2088 
C 2579 2088 2726 2242 2726 2433 
C 2726 2638 2528 2816 2208 2816 
C 1952 2816 1658 2701 1389 2312 
C 1344 2650 1088 2816 832 2816 
C 582 2816 454 2625 378 2484 
C 269 2254 173 1871 173 1839 
C 173 1814 198 1782 243 1782 
C 294 1782 301 1788 339 1935 
C 435 2318 557 2689 813 2689 
C 966 2689 1011 2580 1011 2395 
C 1011 2254 947 2005 902 1807 
L 723 1118 
C 698 996 627 709 595 594 
C 550 428 480 128 480 96 
C 480 6 550 -64 646 -64 
C 717 -64 838 -19 877 109 
C 896 160 1133 1124 1171 1271 
C 1203 1411 1242 1546 1274 1686 
C 1299 1775 1325 1878 1344 1961 
C 1363 2018 1536 2331 1696 2472 
C 1773 2542 1939 2689 2202 2689 
C 2304 2689 2406 2670 2490 2612 
z
" transform="scale(0.015625)"/>
       <path id="CMR17-5b" d="M 1504 -1600 
L 1504 -1377 
L 902 -1377 
L 902 4544 
L 1504 4544 
L 1504 4767 
L 678 4767 
L 678 -1600 
L 1504 -1600 
z
" transform="scale(0.015625)"/>
       <path id="CMR17-17" d="M 2771 3955 
C 2771 4275 2515 4518 2214 4518 
C 1914 4518 1658 4275 1658 3955 
C 1658 3635 1914 3392 2214 3392 
C 2515 3392 2771 3635 2771 3955 
z
M 2214 3494 
C 1946 3494 1773 3660 1773 3956 
C 1773 4256 1952 4416 2214 4416 
C 2483 4416 2656 4250 2656 3956 
C 2656 3654 2477 3494 2214 3494 
z
" transform="scale(0.015625)"/>
       <path id="CMR17-41" d="M 2323 4378 
C 2291 4461 2278 4480 2214 4480 
C 2150 4480 2138 4461 2106 4378 
L 749 566 
C 627 223 371 153 147 153 
L 147 -13 
C 262 0 518 0 640 0 
C 800 0 1056 0 1210 -13 
L 1210 153 
C 909 153 864 361 864 439 
C 864 497 877 530 890 569 
L 1229 1536 
L 2906 1536 
L 3290 442 
C 3322 365 3322 352 3322 327 
C 3322 153 3046 153 2925 153 
L 2925 0 
C 3110 0 3443 0 3642 0 
C 3808 0 4128 0 4282 -13 
L 4282 153 
C 3942 153 3827 153 3744 387 
L 2323 4378 
z
M 2067 3893 
L 2848 1702 
L 1286 1702 
L 2067 3893 
z
" transform="scale(0.015625)"/>
       <path id="CMR17-5d" d="M 915 4767 
L 90 4767 
L 90 4544 
L 691 4544 
L 691 -1377 
L 90 -1377 
L 90 -1600 
L 915 -1600 
L 915 4767 
z
" transform="scale(0.015625)"/>
      </defs>
      <use xlink:href="#CMMI12-72" transform="scale(0.996264)"/>
      <use xlink:href="#CMR17-5b" transform="translate(74.344621 0) scale(0.996264)"/>
      <use xlink:href="#CMR17-17" transform="translate(99.215679 17.618744) scale(0.996264)"/>
      <use xlink:href="#CMR17-41" transform="translate(99.215679 0) scale(0.996264)"/>
      <use xlink:href="#CMR17-5d" transform="translate(168.288109 0) scale(0.996264)"/>
     </g>
    </g>
   </g>
   <g id="matplotlib.axis_2">
    <g id="ytick_1">
     <g id="line2d_7">
      <defs>
       <path id="m018f9d902e" d="M 0 0 
L -2 0 
" style="stroke: #000000; stroke-width: 0.5"/>
      </defs>
      <g>
       <use xlink:href="#m018f9d902e" x="43.256043" y="119.990757" style="stroke: #000000; stroke-width: 0.5"/>
      </g>
     </g>
     <g id="text_8">
      <!-- $\mathdefault{0.0000}$ -->
      <g transform="translate(13.657761 123.104082) scale(0.09 -0.09)">
       <defs>
        <path id="CMMI12-3a" d="M 1178 307 
C 1178 492 1024 619 870 619 
C 685 619 557 466 557 313 
C 557 128 710 0 864 0 
C 1050 0 1178 153 1178 307 
z
" transform="scale(0.015625)"/>
       </defs>
       <use xlink:href="#CMR17-30" transform="scale(0.996264)"/>
       <use xlink:href="#CMMI12-3a" transform="translate(45.690477 0) scale(0.996264)"/>
       <use xlink:href="#CMR17-30" transform="translate(72.787654 0) scale(0.996264)"/>
       <use xlink:href="#CMR17-30" transform="translate(118.478131 0) scale(0.996264)"/>
       <use xlink:href="#CMR17-30" transform="translate(164.168608 0) scale(0.996264)"/>
       <use xlink:href="#CMR17-30" transform="translate(209.859086 0) scale(0.996264)"/>
      </g>
     </g>
    </g>
    <g id="ytick_2">
     <g id="line2d_8">
      <g>
       <use xlink:href="#m018f9d902e" x="43.256043" y="99.061935" style="stroke: #000000; stroke-width: 0.5"/>
      </g>
     </g>
     <g id="text_9">
      <!-- $\mathdefault{0.0005}$ -->
      <g transform="translate(13.657761 102.17526) scale(0.09 -0.09)">
       <use xlink:href="#CMR17-30" transform="scale(0.996264)"/>
       <use xlink:href="#CMMI12-3a" transform="translate(45.690477 0) scale(0.996264)"/>
       <use xlink:href="#CMR17-30" transform="translate(72.787654 0) scale(0.996264)"/>
       <use xlink:href="#CMR17-30" transform="translate(118.478131 0) scale(0.996264)"/>
       <use xlink:href="#CMR17-30" transform="translate(164.168608 0) scale(0.996264)"/>
       <use xlink:href="#CMR17-35" transform="translate(209.859086 0) scale(0.996264)"/>
      </g>
     </g>
    </g>
    <g id="ytick_3">
     <g id="line2d_9">
      <g>
       <use xlink:href="#m018f9d902e" x="43.256043" y="78.133112" style="stroke: #000000; stroke-width: 0.5"/>
      </g>
     </g>
     <g id="text_10">
      <!-- $\mathdefault{0.0010}$ -->
      <g transform="translate(13.657761 81.246438) scale(0.09 -0.09)">
       <use xlink:href="#CMR17-30" transform="scale(0.996264)"/>
       <use xlink:href="#CMMI12-3a" transform="translate(45.690477 0) scale(0.996264)"/>
       <use xlink:href="#CMR17-30" transform="translate(72.787654 0) scale(0.996264)"/>
       <use xlink:href="#CMR17-30" transform="translate(118.478131 0) scale(0.996264)"/>
       <use xlink:href="#CMR17-31" transform="translate(164.168608 0) scale(0.996264)"/>
       <use xlink:href="#CMR17-30" transform="translate(209.859086 0) scale(0.996264)"/>
      </g>
     </g>
    </g>
    <g id="ytick_4">
     <g id="line2d_10">
      <g>
       <use xlink:href="#m018f9d902e" x="43.256043" y="57.20429" style="stroke: #000000; stroke-width: 0.5"/>
      </g>
     </g>
     <g id="text_11">
      <!-- $\mathdefault{0.0015}$ -->
      <g transform="translate(13.657761 60.317615) scale(0.09 -0.09)">
       <use xlink:href="#CMR17-30" transform="scale(0.996264)"/>
       <use xlink:href="#CMMI12-3a" transform="translate(45.690477 0) scale(0.996264)"/>
       <use xlink:href="#CMR17-30" transform="translate(72.787654 0) scale(0.996264)"/>
       <use xlink:href="#CMR17-30" transform="translate(118.478131 0) scale(0.996264)"/>
       <use xlink:href="#CMR17-31" transform="translate(164.168608 0) scale(0.996264)"/>
       <use xlink:href="#CMR17-35" transform="translate(209.859086 0) scale(0.996264)"/>
      </g>
     </g>
    </g>
    <g id="ytick_5">
     <g id="line2d_11">
      <g>
       <use xlink:href="#m018f9d902e" x="43.256043" y="36.275468" style="stroke: #000000; stroke-width: 0.5"/>
      </g>
     </g>
     <g id="text_12">
      <!-- $\mathdefault{0.0020}$ -->
      <g transform="translate(13.657761 39.388793) scale(0.09 -0.09)">
       <use xlink:href="#CMR17-30" transform="scale(0.996264)"/>
       <use xlink:href="#CMMI12-3a" transform="translate(45.690477 0) scale(0.996264)"/>
       <use xlink:href="#CMR17-30" transform="translate(72.787654 0) scale(0.996264)"/>
       <use xlink:href="#CMR17-30" transform="translate(118.478131 0) scale(0.996264)"/>
       <use xlink:href="#CMR17-32" transform="translate(164.168608 0) scale(0.996264)"/>
       <use xlink:href="#CMR17-30" transform="translate(209.859086 0) scale(0.996264)"/>
      </g>
     </g>
    </g>
    <g id="ytick_6">
     <g id="line2d_12">
      <g>
       <use xlink:href="#m018f9d902e" x="43.256043" y="15.346646" style="stroke: #000000; stroke-width: 0.5"/>
      </g>
     </g>
     <g id="text_13">
      <!-- $\mathdefault{0.0025}$ -->
      <g transform="translate(13.657761 18.459971) scale(0.09 -0.09)">
       <use xlink:href="#CMR17-30" transform="scale(0.996264)"/>
       <use xlink:href="#CMMI12-3a" transform="translate(45.690477 0) scale(0.996264)"/>
       <use xlink:href="#CMR17-30" transform="translate(72.787654 0) scale(0.996264)"/>
       <use xlink:href="#CMR17-30" transform="translate(118.478131 0) scale(0.996264)"/>
       <use xlink:href="#CMR17-32" transform="translate(164.168608 0) scale(0.996264)"/>
       <use xlink:href="#CMR17-35" transform="translate(209.859086 0) scale(0.996264)"/>
      </g>
     </g>
    </g>
    <g id="text_14">
     <!-- $|\psi(r)|^2$ -->
     <g transform="translate(9.665233 76.691737) rotate(-90) scale(0.08 -0.08)">
      <defs>
       <path id="CMSY10-6a" d="M 1018 4570 
C 1018 4685 1018 4800 890 4800 
C 762 4800 762 4685 762 4570 
L 762 -1370 
C 762 -1485 762 -1600 890 -1600 
C 1018 -1600 1018 -1485 1018 -1370 
L 1018 4570 
z
" transform="scale(0.015625)"/>
       <path id="CMMI12-20" d="M 3008 4294 
C 3008 4301 3034 4384 3034 4391 
C 3034 4448 2982 4448 2963 4448 
C 2906 4448 2899 4416 2874 4320 
L 1818 77 
C 1286 141 1088 410 1088 794 
C 1088 934 1088 1082 1389 1875 
C 1472 2105 1504 2188 1504 2303 
C 1504 2591 1299 2821 998 2821 
C 410 2821 173 1894 173 1843 
C 173 1817 198 1785 243 1785 
C 301 1785 307 1811 333 1900 
C 486 2453 742 2688 979 2688 
C 1037 2688 1146 2688 1146 2483 
C 1146 2457 1146 2316 1037 2035 
C 691 1126 691 985 691 838 
C 691 223 1203 -14 1779 -58 
C 1728 -253 1683 -453 1632 -647 
C 1530 -1022 1485 -1198 1485 -1223 
C 1485 -1280 1536 -1280 1555 -1280 
C 1568 -1280 1594 -1280 1606 -1254 
C 1632 -1230 1894 -176 1920 -64 
C 2157 -64 2662 -64 3238 531 
C 3450 761 3642 1056 3750 1331 
C 3814 1498 3968 2067 3968 2393 
C 3968 2777 3776 2821 3712 2821 
C 3558 2821 3418 2668 3418 2540 
C 3418 2463 3462 2418 3488 2393 
C 3546 2335 3718 2162 3718 1830 
C 3718 1600 3590 1126 3181 666 
C 2643 64 2150 64 1958 64 
L 3008 4294 
z
" transform="scale(0.015625)"/>
       <path id="CMR17-28" d="M 1958 -1561 
C 1958 -1555 1958 -1542 1939 -1523 
C 1645 -1224 858 -407 858 1581 
C 858 3569 1632 4379 1946 4697 
C 1946 4704 1958 4717 1958 4736 
C 1958 4755 1939 4768 1914 4768 
C 1843 4768 1299 4296 986 3594 
C 666 2887 576 2199 576 1588 
C 576 1128 621 351 1005 -471 
C 1312 -1135 1837 -1600 1914 -1600 
C 1946 -1600 1958 -1587 1958 -1561 
z
" transform="scale(0.015625)"/>
       <path id="CMR17-29" d="M 1683 1581 
C 1683 2040 1638 2817 1254 3639 
C 947 4303 422 4768 346 4768 
C 326 4768 301 4761 301 4729 
C 301 4717 307 4710 314 4697 
C 621 4378 1402 3568 1402 1584 
C 1402 -407 627 -1217 314 -1537 
C 307 -1549 301 -1556 301 -1568 
C 301 -1600 326 -1600 346 -1600 
C 416 -1600 960 -1128 1274 -426 
C 1594 281 1683 969 1683 1581 
z
" transform="scale(0.015625)"/>
      </defs>
      <use xlink:href="#CMSY10-6a" transform="scale(0.996264)"/>
      <use xlink:href="#CMMI12-20" transform="translate(27.674085 0) scale(0.996264)"/>
      <use xlink:href="#CMR17-28" transform="translate(94.667564 0) scale(0.996264)"/>
      <use xlink:href="#CMMI12-72" transform="translate(129.948332 0) scale(0.996264)"/>
      <use xlink:href="#CMR17-29" transform="translate(176.618944 0) scale(0.996264)"/>
      <use xlink:href="#CMSY10-6a" transform="translate(211.899712 0) scale(0.996264)"/>
      <use xlink:href="#CMR17-32" transform="translate(239.573797 36.153639) scale(0.697382)"/>
     </g>
    </g>
   </g>
   <g id="patch_3">
    <path d="M 43.256043 125.561734 
L 43.256043 3.00024 
" style="fill: none; stroke: #000000; stroke-width: 0.5; stroke-linejoin: miter; stroke-linecap: square"/>
   </g>
   <g id="patch_4">
    <path d="M 242.08056 125.561734 
L 242.08056 3.00024 
" style="fill: none; stroke: #000000; stroke-width: 0.5; stroke-linejoin: miter; stroke-linecap: square"/>
   </g>
   <g id="patch_5">
    <path d="M 43.256043 125.561734 
L 242.08056 125.561734 
" style="fill: none; stroke: #000000; stroke-width: 0.5; stroke-linejoin: miter; stroke-linecap: square"/>
   </g>
   <g id="patch_6">
    <path d="M 43.256043 3.00024 
L 242.08056 3.00024 
" style="fill: none; stroke: #000000; stroke-width: 0.5; stroke-linejoin: miter; stroke-linecap: square"/>
   </g>
   <g id="text_15">
    <!-- Cs: $R = 8.0\,$${\rm \AA}$ -->
    <g transform="translate(186.238112 14.663116) scale(0.08 -0.08)">
     <defs>
      <path id="CMR17-43" d="M 3974 4289 
C 3974 4403 3968 4410 3930 4410 
C 3904 4410 3898 4403 3853 4327 
L 3571 3792 
C 3258 4187 2874 4416 2381 4416 
C 1286 4416 294 3456 294 2148 
C 294 826 1286 -128 2387 -128 
C 3366 -128 3974 730 3974 1461 
C 3974 1524 3974 1550 3917 1550 
C 3866 1550 3866 1531 3859 1474 
C 3808 585 3168 38 2477 38 
C 1824 38 781 495 781 2147 
C 781 3805 1843 4250 2464 4250 
C 3187 4250 3712 3628 3834 2745 
C 3846 2668 3846 2655 3904 2655 
C 3974 2655 3974 2668 3974 2783 
L 3974 4289 
z
" transform="scale(0.015625)"/>
      <path id="CMR17-73" d="M 1978 2697 
C 1978 2813 1971 2819 1933 2819 
C 1907 2819 1901 2813 1824 2717 
C 1805 2691 1747 2626 1728 2601 
C 1523 2819 1235 2819 1126 2819 
C 416 2819 160 2447 160 2076 
C 160 1498 813 1365 998 1325 
C 1402 1243 1542 1217 1677 1101 
C 1760 1025 1901 884 1901 654 
C 1901 384 1747 38 1158 38 
C 602 38 403 460 288 1021 
C 269 1110 269 1117 218 1117 
C 166 1117 160 1110 160 983 
L 160 63 
C 160 -51 166 -58 205 -58 
C 237 -58 243 -51 275 0 
C 314 57 410 211 448 276 
C 576 103 800 -64 1158 -64 
C 1792 -64 2131 283 2131 784 
C 2131 1112 1958 1285 1875 1362 
C 1683 1561 1459 1606 1190 1657 
C 838 1735 390 1825 390 2217 
C 390 2383 480 2737 1126 2737 
C 1811 2737 1850 2094 1862 1888 
C 1869 1856 1901 1849 1920 1849 
C 1978 1849 1978 1869 1978 1978 
L 1978 2697 
z
" transform="scale(0.015625)"/>
      <path id="CMR17-3a" d="M 1062 2491 
C 1062 2650 934 2752 800 2752 
C 672 2752 538 2650 538 2491 
C 538 2332 666 2230 800 2230 
C 928 2230 1062 2332 1062 2491 
z
M 1062 261 
C 1062 420 934 522 800 522 
C 672 522 538 420 538 261 
C 538 102 666 0 800 0 
C 928 0 1062 102 1062 261 
z
" transform="scale(0.015625)"/>
      <path id="CMMI12-52" d="M 2355 3924 
C 2413 4160 2438 4160 2688 4160 
L 3149 4160 
C 3699 4160 4109 3995 4109 3499 
C 4109 3175 3942 2240 2656 2240 
L 1933 2240 
L 2355 3924 
z
M 3245 2169 
C 4038 2341 4659 2851 4659 3398 
C 4659 3894 4154 4352 3264 4352 
L 1530 4352 
C 1402 4352 1344 4352 1344 4226 
C 1344 4160 1389 4160 1510 4160 
C 1894 4160 1894 4112 1894 4045 
C 1894 4033 1894 3994 1869 3899 
L 1005 479 
C 947 256 934 192 493 192 
C 346 192 301 192 301 71 
C 301 7 371 7 390 7 
C 506 7 640 7 762 7 
L 1517 7 
C 1632 7 1766 7 1882 7 
C 1933 7 2003 7 2003 128 
C 2003 192 1946 192 1850 192 
C 1459 192 1459 243 1459 306 
C 1459 313 1459 357 1472 407 
L 1901 2112 
L 2669 2112 
C 3277 2112 3392 1731 3392 1522 
C 3392 1427 3328 1179 3283 1014 
C 3213 723 3194 652 3194 532 
C 3194 82 3565 -128 3994 -128 
C 4512 -128 4736 501 4736 591 
C 4736 635 4704 654 4666 654 
C 4614 654 4602 616 4589 565 
C 4435 114 4173 0 4013 0 
C 3853 0 3750 70 3750 356 
C 3750 509 3827 1088 3834 1120 
C 3866 1355 3866 1380 3866 1432 
C 3866 1896 3488 2093 3245 2169 
z
" transform="scale(0.015625)"/>
      <path id="CMR17-3d" d="M 4115 2017 
C 4211 2017 4307 2017 4307 2125 
C 4307 2240 4198 2240 4090 2240 
L 512 2240 
C 403 2240 294 2240 294 2125 
C 294 2017 390 2017 486 2017 
L 4115 2017 
z
M 4090 896 
C 4198 896 4307 896 4307 1011 
C 4307 1119 4211 1119 4115 1119 
L 486 1119 
C 390 1119 294 1119 294 1011 
C 294 896 403 896 512 896 
L 4090 896 
z
" transform="scale(0.015625)"/>
      <path id="CMR17-38" d="M 1741 2264 
C 2144 2467 2554 2773 2554 3263 
C 2554 3841 1990 4179 1472 4179 
C 890 4179 378 3759 378 3180 
C 378 3021 416 2747 666 2505 
C 730 2442 998 2251 1171 2130 
C 883 1983 211 1634 211 934 
C 211 279 838 -128 1459 -128 
C 2144 -128 2720 362 2720 1010 
C 2720 1590 2330 1857 2074 2029 
L 1741 2264 
z
M 902 2822 
C 851 2854 595 3051 595 3351 
C 595 3739 998 4032 1459 4032 
C 1965 4032 2336 3676 2336 3262 
C 2336 2669 1670 2331 1638 2331 
C 1632 2331 1626 2331 1574 2370 
L 902 2822 
z
M 2080 1519 
C 2176 1449 2483 1240 2483 851 
C 2483 381 2010 25 1472 25 
C 890 25 448 438 448 940 
C 448 1443 838 1862 1280 2060 
L 2080 1519 
z
" transform="scale(0.015625)"/>
     </defs>
     <use xlink:href="#CMR17-43" transform="scale(0.996264)"/>
     <use xlink:href="#CMR17-73" transform="translate(66.509881 0) scale(0.996264)"/>
     <use xlink:href="#CMR17-3a" transform="translate(102.311218 0) scale(0.996264)"/>
     <use xlink:href="#CMMI12-52" transform="translate(167.667937 0) scale(0.996264)"/>
     <use xlink:href="#CMR17-3d" transform="translate(270.412908 0) scale(0.996264)"/>
     <use xlink:href="#CMR17-38" transform="translate(369.801705 0) scale(0.996264)"/>
     <use xlink:href="#CMMI12-3a" transform="translate(415.492182 0) scale(0.996264)"/>
     <use xlink:href="#CMR17-30" transform="translate(442.589359 0) scale(0.996264)"/>
     <use xlink:href="#CMR17-17" transform="translate(504.884241 17.618744) scale(0.996264)"/>
     <use xlink:href="#CMR17-41" transform="translate(504.884241 0) scale(0.996264)"/>
    </g>
   </g>
   <g id="legend_1">
    <g id="line2d_13">
     <path d="M 51.356043 81.687886 
L 55.856043 81.687886 
L 60.356043 81.687886 
" style="fill: none; stroke: #5e4fa2; stroke-width: 1.5; stroke-linecap: square"/>
    </g>
    <g id="text_16">
     <!-- Relaxation $T=0$ -->
     <g transform="translate(64.856043 84.837886) scale(0.09 -0.09)">
      <defs>
       <path id="CMR17-52" d="M 2509 2146 
C 3117 2268 3629 2676 3629 3186 
C 3629 3785 2950 4326 2054 4326 
L 333 4326 
L 333 4160 
C 774 4160 845 4160 845 3873 
L 845 415 
C 845 128 774 128 333 128 
L 333 -26 
C 518 -26 851 -26 1050 -26 
C 1248 -26 1581 -26 1766 -26 
L 1766 128 
C 1325 128 1254 128 1254 417 
L 1254 2112 
L 2003 2112 
C 2368 2112 2573 1964 2662 1881 
C 2918 1632 2918 1459 2918 1024 
C 2918 595 2918 377 3110 160 
C 3354 -102 3680 -128 3821 -128 
C 4294 -128 4365 396 4365 503 
C 4365 540 4365 585 4307 585 
C 4256 585 4250 547 4250 522 
C 4218 112 4032 -26 3834 -26 
C 3482 -26 3443 375 3405 764 
C 3386 898 3373 993 3360 1133 
C 3322 1452 3270 1917 2509 2146 
z
M 1984 2214 
L 1254 2214 
L 1254 3913 
C 1254 4129 1267 4160 1523 4160 
L 1990 4160 
C 2522 4160 3142 3977 3142 3190 
C 3142 2372 2464 2214 1984 2214 
z
" transform="scale(0.015625)"/>
       <path id="CMR17-65" d="M 2438 1472 
C 2464 1498 2464 1511 2464 1576 
C 2464 2238 2118 2816 1389 2816 
C 710 2816 173 2169 173 1383 
C 173 551 781 -64 1459 -64 
C 2176 -64 2458 607 2458 740 
C 2458 784 2419 784 2406 784 
C 2362 784 2355 771 2330 696 
C 2189 265 1837 51 1504 51 
C 1229 51 954 203 781 480 
C 582 803 582 1176 582 1472 
L 2438 1472 
z
M 589 1568 
C 634 2505 1126 2714 1382 2714 
C 1818 2714 2112 2297 2118 1568 
L 589 1568 
z
" transform="scale(0.015625)"/>
       <path id="CMR17-6c" d="M 979 4396 
L 218 4326 
L 218 4160 
C 595 4160 653 4122 653 3817 
L 653 426 
C 653 184 627 153 218 153 
L 218 -13 
C 371 0 653 0 813 0 
C 979 0 1261 0 1414 -13 
L 1414 153 
C 1005 153 979 178 979 426 
L 979 4396 
z
" transform="scale(0.015625)"/>
       <path id="CMR17-61" d="M 2304 1653 
C 2304 2072 2304 2294 2035 2543 
C 1798 2752 1523 2816 1306 2816 
C 800 2816 435 2407 435 1971 
C 435 1728 627 1728 666 1728 
C 749 1728 896 1778 896 1954 
C 896 2112 774 2181 666 2181 
C 640 2181 608 2174 589 2168 
C 723 2592 1069 2714 1293 2714 
C 1613 2714 1965 2429 1965 1885 
L 1965 1600 
C 1587 1600 1133 1549 774 1357 
C 371 1133 256 813 256 570 
C 256 77 832 -64 1171 -64 
C 1523 -64 1850 139 1990 511 
C 2003 233 2182 -18 2464 -18 
C 2598 -18 2938 70 2938 567 
L 2938 920 
L 2822 920 
L 2822 562 
C 2822 178 2650 128 2566 128 
C 2304 128 2304 458 2304 738 
L 2304 1653 
z
M 1965 870 
C 1965 317 1568 38 1216 38 
C 896 38 646 275 646 570 
C 646 761 730 1100 1101 1305 
C 1408 1478 1760 1504 1965 1504 
L 1965 870 
z
" transform="scale(0.015625)"/>
       <path id="CMR17-78" d="M 1664 1477 
C 1856 1726 2074 2006 2253 2216 
C 2464 2458 2707 2560 2989 2560 
L 2989 2726 
C 2880 2726 2656 2726 2541 2726 
C 2368 2726 2170 2726 2022 2732 
L 2022 2566 
C 2112 2553 2163 2489 2163 2400 
C 2163 2285 2099 2215 2067 2171 
L 1594 1573 
L 1030 2306 
C 973 2376 973 2388 973 2420 
C 973 2497 1037 2560 1146 2560 
L 1146 2732 
C 992 2726 717 2726 557 2726 
C 384 2726 179 2726 38 2732 
L 38 2560 
C 384 2560 461 2534 614 2343 
L 1350 1395 
C 1363 1382 1395 1344 1395 1325 
C 1395 1299 838 619 768 530 
C 480 185 179 160 6 160 
L 6 0 
C 115 0 339 0 454 0 
C 582 0 864 0 979 -6 
L 979 160 
C 941 166 838 179 838 325 
C 838 440 890 510 947 586 
L 1478 1236 
L 2035 512 
C 2086 442 2163 346 2163 301 
C 2163 211 2086 160 1984 160 
L 1984 -6 
C 2138 0 2413 0 2573 0 
C 2746 0 2950 0 3091 -6 
L 3091 160 
C 2771 160 2675 172 2522 370 
L 1664 1477 
z
" transform="scale(0.015625)"/>
       <path id="CMR17-74" d="M 966 2560 
L 1862 2560 
L 1862 2725 
L 966 2725 
L 966 3904 
L 851 3904 
C 838 3245 614 2668 70 2668 
L 70 2560 
L 627 2560 
L 627 771 
C 627 650 627 -64 1370 -64 
C 1747 -64 1965 306 1965 777 
L 1965 1140 
L 1850 1140 
L 1850 783 
C 1850 344 1677 51 1408 51 
C 1222 51 966 178 966 758 
L 966 2560 
z
" transform="scale(0.015625)"/>
       <path id="CMR17-69" d="M 992 3909 
C 992 4049 877 4170 730 4170 
C 589 4170 467 4056 467 3909 
C 467 3769 582 3648 730 3648 
C 870 3648 992 3763 992 3909 
z
M 243 2706 
L 243 2541 
C 602 2541 653 2502 653 2197 
L 653 427 
C 653 184 627 153 218 153 
L 218 -13 
C 371 0 646 0 806 0 
C 960 0 1222 0 1370 -13 
L 1370 153 
C 992 153 979 191 979 420 
L 979 2776 
L 243 2706 
z
" transform="scale(0.015625)"/>
       <path id="CMR17-6f" d="M 2758 1356 
C 2758 2176 2163 2816 1466 2816 
C 768 2816 173 2176 173 1356 
C 173 551 768 -64 1466 -64 
C 2163 -64 2758 551 2758 1356 
z
M 1466 51 
C 1165 51 909 230 762 480 
C 602 767 582 1126 582 1408 
C 582 1677 595 2010 762 2298 
C 890 2509 1139 2714 1466 2714 
C 1754 2714 1997 2554 2150 2330 
C 2349 2029 2349 1607 2349 1408 
C 2349 1158 2336 775 2163 467 
C 1984 173 1709 51 1466 51 
z
" transform="scale(0.015625)"/>
       <path id="CMR17-6e" d="M 2656 1933 
C 2656 2259 2592 2790 1837 2790 
C 1331 2790 1069 2400 973 2144 
L 966 2144 
L 966 2790 
L 211 2720 
L 211 2554 
C 589 2554 646 2515 646 2208 
L 646 428 
C 646 184 621 153 211 153 
L 211 -13 
C 365 0 646 0 813 0 
C 979 0 1267 0 1421 -13 
L 1421 153 
C 1011 153 986 178 986 428 
L 986 1658 
C 986 2247 1344 2688 1792 2688 
C 2266 2688 2317 2266 2317 1958 
L 2317 428 
C 2317 184 2291 153 1882 153 
L 1882 -13 
C 2035 0 2317 0 2483 0 
C 2650 0 2938 0 3091 -13 
L 3091 153 
C 2682 153 2656 178 2656 428 
L 2656 1933 
z
" transform="scale(0.015625)"/>
       <path id="CMMI12-54" d="M 2669 3910 
C 2707 4064 2720 4121 2816 4147 
C 2867 4160 3078 4160 3213 4160 
C 3853 4160 4154 4134 4154 3634 
C 4154 3537 4128 3295 4090 3057 
L 4083 2980 
C 4083 2954 4109 2916 4147 2916 
C 4211 2916 4211 2948 4230 3050 
L 4416 4184 
C 4429 4243 4429 4256 4429 4275 
C 4429 4345 4390 4345 4262 4345 
L 762 4345 
C 614 4345 608 4339 570 4224 
L 179 3070 
C 173 3056 154 2986 154 2980 
C 154 2948 179 2916 218 2916 
C 269 2916 282 2941 307 3024 
C 576 3801 710 4160 1562 4160 
L 1990 4160 
C 2144 4160 2208 4160 2208 4089 
C 2208 4069 2208 4057 2176 3941 
L 1318 499 
C 1254 249 1242 185 563 185 
C 403 185 358 185 358 64 
C 358 0 429 0 461 0 
C 621 0 787 0 947 0 
L 1946 0 
C 2106 0 2278 0 2438 0 
C 2509 0 2573 0 2573 121 
C 2573 185 2528 185 2362 185 
C 1786 185 1786 243 1786 339 
C 1786 346 1786 391 1811 494 
L 2669 3910 
z
" transform="scale(0.015625)"/>
      </defs>
      <use xlink:href="#CMR17-52" transform="scale(0.996264)"/>
      <use xlink:href="#CMR17-65" transform="translate(67.791102 0) scale(0.996264)"/>
      <use xlink:href="#CMR17-6c" transform="translate(108.276762 0) scale(0.996264)"/>
      <use xlink:href="#CMR17-61" transform="translate(133.147821 0) scale(0.996264)"/>
      <use xlink:href="#CMR17-78" transform="translate(178.838298 0) scale(0.996264)"/>
      <use xlink:href="#CMR17-61" transform="translate(227.131214 0) scale(0.996264)"/>
      <use xlink:href="#CMR17-74" transform="translate(272.821691 0) scale(0.996264)"/>
      <use xlink:href="#CMR17-69" transform="translate(308.102459 0) scale(0.996264)"/>
      <use xlink:href="#CMR17-6f" transform="translate(332.973517 0) scale(0.996264)"/>
      <use xlink:href="#CMR17-6e" transform="translate(378.663994 0) scale(0.996264)"/>
      <use xlink:href="#CMMI12-54" transform="translate(459.635331 0) scale(0.996264)"/>
      <use xlink:href="#CMR17-3d" transform="translate(558.032971 0) scale(0.996264)"/>
      <use xlink:href="#CMR17-30" transform="translate(657.421769 0) scale(0.996264)"/>
     </g>
    </g>
    <g id="LineCollection_1">
     <path d="M 55.856043 96.481348 
L 55.856043 87.481348 
" style="fill: none; stroke: #6d60ab; stroke-width: 1.5"/>
    </g>
    <g id="line2d_14">
     <path d="M 51.356043 91.981348 
L 60.356043 91.981348 
" style="fill: none; stroke-dasharray: 1.5,2.475; stroke-dashoffset: 0; stroke: #6d60ab; stroke-width: 1.5"/>
    </g>
    <g id="line2d_15">
     <defs>
      <path id="m276962161a" d="M 0 1.25 
C 0.331504 1.25 0.649475 1.118292 0.883883 0.883883 
C 1.118292 0.649475 1.25 0.331504 1.25 0 
C 1.25 -0.331504 1.118292 -0.649475 0.883883 -0.883883 
C 0.649475 -1.118292 0.331504 -1.25 0 -1.25 
C -0.331504 -1.25 -0.649475 -1.118292 -0.883883 -0.883883 
C -1.118292 -0.649475 -1.25 -0.331504 -1.25 0 
C -1.25 0.331504 -1.118292 0.649475 -0.883883 0.883883 
C -0.649475 1.118292 -0.331504 1.25 0 1.25 
z
" style="stroke: #6d60ab"/>
     </defs>
     <g>
      <use xlink:href="#m276962161a" x="55.856043" y="91.981348" style="fill: #6d60ab; stroke: #6d60ab"/>
     </g>
    </g>
    <g id="text_17">
     <!-- QMC $T=0.5~{\rm K}$ -->
     <g transform="translate(64.856043 95.131348) scale(0.09 -0.09)">
      <defs>
       <path id="CMR17-51" d="M 3027 83 
C 3789 408 4307 1236 4307 2193 
C 4307 3499 3366 4480 2304 4480 
C 1216 4480 294 3488 294 2199 
C 294 928 1216 -64 2304 -64 
C 2451 -64 2656 -45 2899 38 
C 3008 -747 3078 -1216 3629 -1216 
C 4307 -1216 4339 -213 4339 -33 
C 4339 32 4339 76 4294 76 
C 4262 76 4256 31 4256 18 
C 4211 -603 3866 -732 3661 -732 
C 3283 -732 3149 -394 3027 83 
z
M 1958 100 
C 1293 310 768 1017 768 2199 
C 768 3711 1606 4365 2298 4365 
C 3014 4365 3834 3686 3834 2198 
C 3834 1124 3405 527 2976 254 
C 2880 579 2726 960 2310 960 
C 2003 960 1830 692 1830 450 
C 1830 304 1888 183 1958 100 
z
M 2874 192 
C 2618 57 2413 57 2304 57 
C 2016 57 1933 315 1933 454 
C 1933 650 2067 858 2310 858 
C 2720 858 2822 493 2874 192 
z
" transform="scale(0.015625)"/>
       <path id="CMR17-4d" d="M 1338 4224 
C 1299 4320 1293 4320 1158 4320 
L 339 4320 
L 339 4160 
C 781 4160 851 4160 851 3875 
L 851 610 
C 851 451 851 153 339 153 
L 339 -13 
C 486 0 755 0 915 0 
C 1075 0 1344 0 1491 -13 
L 1491 153 
C 979 153 979 451 979 610 
L 979 4135 
L 986 4135 
L 2490 89 
C 2515 25 2528 -13 2579 -13 
C 2630 -13 2643 25 2669 89 
L 4186 4166 
L 4192 4166 
L 4192 438 
C 4192 153 4122 153 3680 153 
L 3680 -13 
C 3853 0 4198 0 4384 0 
C 4570 0 4922 0 5094 -13 
L 5094 153 
C 4653 153 4582 153 4582 438 
L 4582 3875 
C 4582 4160 4653 4160 5094 4160 
L 5094 4320 
L 4282 4320 
C 4147 4320 4141 4314 4102 4218 
L 2720 502 
L 1338 4224 
z
" transform="scale(0.015625)"/>
       <path id="CMR17-4b" d="M 2362 2675 
L 3469 3782 
C 3699 4006 3942 4186 4301 4186 
L 4301 4352 
C 4173 4352 4013 4352 3885 4352 
C 3712 4352 3411 4352 3245 4358 
L 3245 4192 
C 3411 4180 3437 4065 3437 4019 
C 3437 3975 3411 3905 3386 3867 
L 1261 1738 
L 1261 3900 
C 1261 4186 1331 4186 1773 4186 
L 1773 4352 
C 1587 4352 1248 4352 1050 4352 
C 851 4352 512 4352 326 4352 
L 326 4186 
C 768 4186 838 4186 838 3899 
L 838 446 
C 838 160 768 160 326 160 
L 326 0 
C 512 0 851 0 1050 0 
C 1248 0 1587 0 1773 0 
L 1773 160 
C 1331 160 1261 160 1261 447 
L 1261 1579 
L 2080 2390 
L 3290 537 
C 3328 473 3373 390 3373 326 
C 3373 160 3194 160 3110 160 
L 3110 0 
C 3315 0 3610 0 3821 0 
C 3974 0 4237 0 4384 -6 
L 4384 160 
C 4077 160 3981 198 3789 493 
L 2362 2675 
z
" transform="scale(0.015625)"/>
      </defs>
      <use xlink:href="#CMR17-51" transform="scale(0.996264)"/>
      <use xlink:href="#CMR17-4d" transform="translate(71.714788 0) scale(0.996264)"/>
      <use xlink:href="#CMR17-43" transform="translate(156.401729 0) scale(0.996264)"/>
      <use xlink:href="#CMMI12-54" transform="translate(252.987576 0) scale(0.996264)"/>
      <use xlink:href="#CMR17-3d" transform="translate(351.385217 0) scale(0.996264)"/>
      <use xlink:href="#CMR17-30" transform="translate(450.774014 0) scale(0.996264)"/>
      <use xlink:href="#CMMI12-3a" transform="translate(496.464491 0) scale(0.996264)"/>
      <use xlink:href="#CMR17-35" transform="translate(523.561668 0) scale(0.996264)"/>
      <use xlink:href="#CMR17-4b" transform="translate(599.328112 0) scale(0.996264)"/>
     </g>
    </g>
    <g id="LineCollection_2">
     <path d="M 55.856043 106.77481 
L 55.856043 97.77481 
" style="fill: none; stroke: #9e95c6; stroke-width: 1.5"/>
    </g>
    <g id="line2d_16">
     <path d="M 51.356043 102.27481 
L 60.356043 102.27481 
" style="fill: none; stroke-dasharray: 1.5,2.475; stroke-dashoffset: 0; stroke: #9e95c6; stroke-width: 1.5"/>
    </g>
    <g id="line2d_17">
     <defs>
      <path id="md16bc7c90c" d="M 0 1.25 
C 0.331504 1.25 0.649475 1.118292 0.883883 0.883883 
C 1.118292 0.649475 1.25 0.331504 1.25 0 
C 1.25 -0.331504 1.118292 -0.649475 0.883883 -0.883883 
C 0.649475 -1.118292 0.331504 -1.25 0 -1.25 
C -0.331504 -1.25 -0.649475 -1.118292 -0.883883 -0.883883 
C -1.118292 -0.649475 -1.25 -0.331504 -1.25 0 
C -1.25 0.331504 -1.118292 0.649475 -0.883883 0.883883 
C -0.649475 1.118292 -0.331504 1.25 0 1.25 
z
" style="stroke: #9e95c6"/>
     </defs>
     <g>
      <use xlink:href="#md16bc7c90c" x="55.856043" y="102.27481" style="fill: #9e95c6; stroke: #9e95c6"/>
     </g>
    </g>
    <g id="text_18">
     <!-- QMC $T=1.0~{\rm K}$ -->
     <g transform="translate(64.856043 105.42481) scale(0.09 -0.09)">
      <use xlink:href="#CMR17-51" transform="scale(0.996264)"/>
      <use xlink:href="#CMR17-4d" transform="translate(71.714788 0) scale(0.996264)"/>
      <use xlink:href="#CMR17-43" transform="translate(156.401729 0) scale(0.996264)"/>
      <use xlink:href="#CMMI12-54" transform="translate(252.987576 0) scale(0.996264)"/>
      <use xlink:href="#CMR17-3d" transform="translate(351.385217 0) scale(0.996264)"/>
      <use xlink:href="#CMR17-31" transform="translate(450.774014 0) scale(0.996264)"/>
      <use xlink:href="#CMMI12-3a" transform="translate(496.464491 0) scale(0.996264)"/>
      <use xlink:href="#CMR17-30" transform="translate(523.561668 0) scale(0.996264)"/>
      <use xlink:href="#CMR17-4b" transform="translate(599.328112 0) scale(0.996264)"/>
     </g>
    </g>
    <g id="LineCollection_3">
     <path d="M 55.856043 117.068272 
L 55.856043 108.068272 
" style="fill: none; stroke: #beb8d9; stroke-width: 1.5"/>
    </g>
    <g id="line2d_18">
     <path d="M 51.356043 112.568272 
L 60.356043 112.568272 
" style="fill: none; stroke-dasharray: 1.5,2.475; stroke-dashoffset: 0; stroke: #beb8d9; stroke-width: 1.5"/>
    </g>
    <g id="line2d_19">
     <defs>
      <path id="m1f7c9e4b40" d="M 0 1.25 
C 0.331504 1.25 0.649475 1.118292 0.883883 0.883883 
C 1.118292 0.649475 1.25 0.331504 1.25 0 
C 1.25 -0.331504 1.118292 -0.649475 0.883883 -0.883883 
C 0.649475 -1.118292 0.331504 -1.25 0 -1.25 
C -0.331504 -1.25 -0.649475 -1.118292 -0.883883 -0.883883 
C -1.118292 -0.649475 -1.25 -0.331504 -1.25 0 
C -1.25 0.331504 -1.118292 0.649475 -0.883883 0.883883 
C -0.649475 1.118292 -0.331504 1.25 0 1.25 
z
" style="stroke: #beb8d9"/>
     </defs>
     <g>
      <use xlink:href="#m1f7c9e4b40" x="55.856043" y="112.568272" style="fill: #beb8d9; stroke: #beb8d9"/>
     </g>
    </g>
    <g id="text_19">
     <!-- QMC $T=1.5~{\rm K}$ -->
     <g transform="translate(64.856043 115.718272) scale(0.09 -0.09)">
      <use xlink:href="#CMR17-51" transform="scale(0.996264)"/>
      <use xlink:href="#CMR17-4d" transform="translate(71.714788 0) scale(0.996264)"/>
      <use xlink:href="#CMR17-43" transform="translate(156.401729 0) scale(0.996264)"/>
      <use xlink:href="#CMMI12-54" transform="translate(252.987576 0) scale(0.996264)"/>
      <use xlink:href="#CMR17-3d" transform="translate(351.385217 0) scale(0.996264)"/>
      <use xlink:href="#CMR17-31" transform="translate(450.774014 0) scale(0.996264)"/>
      <use xlink:href="#CMMI12-3a" transform="translate(496.464491 0) scale(0.996264)"/>
      <use xlink:href="#CMR17-35" transform="translate(523.561668 0) scale(0.996264)"/>
      <use xlink:href="#CMR17-4b" transform="translate(599.328112 0) scale(0.996264)"/>
     </g>
    </g>
   </g>
   <g id="LineCollection_4">
    <path d="M 44.604006 42.214634 
L 44.604006 40.829819 
" clip-path="url(#p5383d72e2d)" style="fill: none; stroke: #beb8d9; stroke-width: 1.5"/>
    <path d="M 51.34382 41.98196 
L 51.34382 41.126162 
" clip-path="url(#p5383d72e2d)" style="fill: none; stroke: #beb8d9; stroke-width: 1.5"/>
    <path d="M 58.083634 40.670531 
L 58.083634 39.946166 
" clip-path="url(#p5383d72e2d)" style="fill: none; stroke: #beb8d9; stroke-width: 1.5"/>
    <path d="M 64.823448 38.714065 
L 64.823448 38.138355 
" clip-path="url(#p5383d72e2d)" style="fill: none; stroke: #beb8d9; stroke-width: 1.5"/>
    <path d="M 71.563262 35.727136 
L 71.563262 35.193595 
" clip-path="url(#p5383d72e2d)" style="fill: none; stroke: #beb8d9; stroke-width: 1.5"/>
    <path d="M 78.303076 33.182349 
L 78.303076 32.721456 
" clip-path="url(#p5383d72e2d)" style="fill: none; stroke: #beb8d9; stroke-width: 1.5"/>
    <path d="M 85.042891 30.118223 
L 85.042891 29.711651 
" clip-path="url(#p5383d72e2d)" style="fill: none; stroke: #beb8d9; stroke-width: 1.5"/>
    <path d="M 91.782705 27.394929 
L 91.782705 27.029008 
" clip-path="url(#p5383d72e2d)" style="fill: none; stroke: #beb8d9; stroke-width: 1.5"/>
    <path d="M 98.522519 25.194201 
L 98.522519 24.845512 
" clip-path="url(#p5383d72e2d)" style="fill: none; stroke: #beb8d9; stroke-width: 1.5"/>
    <path d="M 105.262333 24.259401 
L 105.262333 23.936778 
" clip-path="url(#p5383d72e2d)" style="fill: none; stroke: #beb8d9; stroke-width: 1.5"/>
    <path d="M 112.002147 24.601838 
L 112.002147 24.326059 
" clip-path="url(#p5383d72e2d)" style="fill: none; stroke: #beb8d9; stroke-width: 1.5"/>
    <path d="M 118.741961 26.670529 
L 118.741961 26.398454 
" clip-path="url(#p5383d72e2d)" style="fill: none; stroke: #beb8d9; stroke-width: 1.5"/>
    <path d="M 125.481775 30.699537 
L 125.481775 30.446975 
" clip-path="url(#p5383d72e2d)" style="fill: none; stroke: #beb8d9; stroke-width: 1.5"/>
    <path d="M 132.221589 37.254633 
L 132.221589 37.028175 
" clip-path="url(#p5383d72e2d)" style="fill: none; stroke: #beb8d9; stroke-width: 1.5"/>
    <path d="M 138.961404 46.03424 
L 138.961404 45.806285 
" clip-path="url(#p5383d72e2d)" style="fill: none; stroke: #beb8d9; stroke-width: 1.5"/>
    <path d="M 145.701218 56.721342 
L 145.701218 56.522712 
" clip-path="url(#p5383d72e2d)" style="fill: none; stroke: #beb8d9; stroke-width: 1.5"/>
    <path d="M 152.441032 68.451199 
L 152.441032 68.266423 
" clip-path="url(#p5383d72e2d)" style="fill: none; stroke: #beb8d9; stroke-width: 1.5"/>
    <path d="M 159.180846 80.833198 
L 159.180846 80.666367 
" clip-path="url(#p5383d72e2d)" style="fill: none; stroke: #beb8d9; stroke-width: 1.5"/>
    <path d="M 165.92066 92.407988 
L 165.92066 92.276632 
" clip-path="url(#p5383d72e2d)" style="fill: none; stroke: #beb8d9; stroke-width: 1.5"/>
    <path d="M 172.660474 102.379151 
L 172.660474 102.27813 
" clip-path="url(#p5383d72e2d)" style="fill: none; stroke: #beb8d9; stroke-width: 1.5"/>
    <path d="M 179.400288 110.037108 
L 179.400288 109.965813 
" clip-path="url(#p5383d72e2d)" style="fill: none; stroke: #beb8d9; stroke-width: 1.5"/>
    <path d="M 186.140103 115.205759 
L 186.140103 115.158673 
" clip-path="url(#p5383d72e2d)" style="fill: none; stroke: #beb8d9; stroke-width: 1.5"/>
    <path d="M 192.879917 118.127078 
L 192.879917 118.098216 
" clip-path="url(#p5383d72e2d)" style="fill: none; stroke: #beb8d9; stroke-width: 1.5"/>
    <path d="M 199.619731 119.424071 
L 199.619731 119.410312 
" clip-path="url(#p5383d72e2d)" style="fill: none; stroke: #beb8d9; stroke-width: 1.5"/>
    <path d="M 206.359545 119.874355 
L 206.359545 119.867069 
" clip-path="url(#p5383d72e2d)" style="fill: none; stroke: #beb8d9; stroke-width: 1.5"/>
    <path d="M 213.099359 119.976038 
L 213.099359 119.973798 
" clip-path="url(#p5383d72e2d)" style="fill: none; stroke: #beb8d9; stroke-width: 1.5"/>
    <path d="M 219.839173 119.990407 
L 219.839173 119.990031 
" clip-path="url(#p5383d72e2d)" style="fill: none; stroke: #beb8d9; stroke-width: 1.5"/>
    <path d="M 226.578987 119.990757 
L 226.578987 119.990757 
" clip-path="url(#p5383d72e2d)" style="fill: none; stroke: #beb8d9; stroke-width: 1.5"/>
    <path d="M 233.318802 119.990757 
L 233.318802 119.990757 
" clip-path="url(#p5383d72e2d)" style="fill: none; stroke: #beb8d9; stroke-width: 1.5"/>
    <path d="M 240.058616 119.990757 
L 240.058616 119.990757 
" clip-path="url(#p5383d72e2d)" style="fill: none; stroke: #beb8d9; stroke-width: 1.5"/>
    <path clip-path="url(#p5383d72e2d)" style="fill: none; stroke: #beb8d9; stroke-width: 1.5"/>
    <path clip-path="url(#p5383d72e2d)" style="fill: none; stroke: #beb8d9; stroke-width: 1.5"/>
    <path clip-path="url(#p5383d72e2d)" style="fill: none; stroke: #beb8d9; stroke-width: 1.5"/>
    <path clip-path="url(#p5383d72e2d)" style="fill: none; stroke: #beb8d9; stroke-width: 1.5"/>
    <path clip-path="url(#p5383d72e2d)" style="fill: none; stroke: #beb8d9; stroke-width: 1.5"/>
    <path clip-path="url(#p5383d72e2d)" style="fill: none; stroke: #beb8d9; stroke-width: 1.5"/>
    <path clip-path="url(#p5383d72e2d)" style="fill: none; stroke: #beb8d9; stroke-width: 1.5"/>
    <path clip-path="url(#p5383d72e2d)" style="fill: none; stroke: #beb8d9; stroke-width: 1.5"/>
    <path clip-path="url(#p5383d72e2d)" style="fill: none; stroke: #beb8d9; stroke-width: 1.5"/>
    <path clip-path="url(#p5383d72e2d)" style="fill: none; stroke: #beb8d9; stroke-width: 1.5"/>
   </g>
   <g id="line2d_20">
    <path d="M 44.604006 41.522227 
L 51.34382 41.554061 
L 58.083634 40.308348 
L 64.823448 38.42621 
L 71.563262 35.460365 
L 78.303076 32.951902 
L 85.042891 29.914937 
L 91.782705 27.211968 
L 98.522519 25.019856 
L 105.262333 24.09809 
L 112.002147 24.463949 
L 118.741961 26.534492 
L 125.481775 30.573256 
L 132.221589 37.141404 
L 138.961404 45.920263 
L 145.701218 56.622027 
L 152.441032 68.358811 
L 159.180846 80.749782 
L 165.92066 92.34231 
L 172.660474 102.328641 
L 179.400288 110.001461 
L 186.140103 115.182216 
L 192.879917 118.112647 
L 199.619731 119.417191 
L 206.359545 119.870712 
L 213.099359 119.974918 
L 219.839173 119.990219 
L 226.578987 119.990757 
L 233.318802 119.990757 
L 240.058616 119.990757 
L 246.0808 119.990757 
" clip-path="url(#p5383d72e2d)" style="fill: none; stroke-dasharray: 1.5,2.475; stroke-dashoffset: 0; stroke: #beb8d9; stroke-width: 1.5"/>
    <g clip-path="url(#p5383d72e2d)">
     <use xlink:href="#m1f7c9e4b40" x="44.604006" y="41.522227" style="fill: #beb8d9; stroke: #beb8d9"/>
     <use xlink:href="#m1f7c9e4b40" x="51.34382" y="41.554061" style="fill: #beb8d9; stroke: #beb8d9"/>
     <use xlink:href="#m1f7c9e4b40" x="58.083634" y="40.308348" style="fill: #beb8d9; stroke: #beb8d9"/>
     <use xlink:href="#m1f7c9e4b40" x="64.823448" y="38.42621" style="fill: #beb8d9; stroke: #beb8d9"/>
     <use xlink:href="#m1f7c9e4b40" x="71.563262" y="35.460365" style="fill: #beb8d9; stroke: #beb8d9"/>
     <use xlink:href="#m1f7c9e4b40" x="78.303076" y="32.951902" style="fill: #beb8d9; stroke: #beb8d9"/>
     <use xlink:href="#m1f7c9e4b40" x="85.042891" y="29.914937" style="fill: #beb8d9; stroke: #beb8d9"/>
     <use xlink:href="#m1f7c9e4b40" x="91.782705" y="27.211968" style="fill: #beb8d9; stroke: #beb8d9"/>
     <use xlink:href="#m1f7c9e4b40" x="98.522519" y="25.019856" style="fill: #beb8d9; stroke: #beb8d9"/>
     <use xlink:href="#m1f7c9e4b40" x="105.262333" y="24.09809" style="fill: #beb8d9; stroke: #beb8d9"/>
     <use xlink:href="#m1f7c9e4b40" x="112.002147" y="24.463949" style="fill: #beb8d9; stroke: #beb8d9"/>
     <use xlink:href="#m1f7c9e4b40" x="118.741961" y="26.534492" style="fill: #beb8d9; stroke: #beb8d9"/>
     <use xlink:href="#m1f7c9e4b40" x="125.481775" y="30.573256" style="fill: #beb8d9; stroke: #beb8d9"/>
     <use xlink:href="#m1f7c9e4b40" x="132.221589" y="37.141404" style="fill: #beb8d9; stroke: #beb8d9"/>
     <use xlink:href="#m1f7c9e4b40" x="138.961404" y="45.920263" style="fill: #beb8d9; stroke: #beb8d9"/>
     <use xlink:href="#m1f7c9e4b40" x="145.701218" y="56.622027" style="fill: #beb8d9; stroke: #beb8d9"/>
     <use xlink:href="#m1f7c9e4b40" x="152.441032" y="68.358811" style="fill: #beb8d9; stroke: #beb8d9"/>
     <use xlink:href="#m1f7c9e4b40" x="159.180846" y="80.749782" style="fill: #beb8d9; stroke: #beb8d9"/>
     <use xlink:href="#m1f7c9e4b40" x="165.92066" y="92.34231" style="fill: #beb8d9; stroke: #beb8d9"/>
     <use xlink:href="#m1f7c9e4b40" x="172.660474" y="102.328641" style="fill: #beb8d9; stroke: #beb8d9"/>
     <use xlink:href="#m1f7c9e4b40" x="179.400288" y="110.001461" style="fill: #beb8d9; stroke: #beb8d9"/>
     <use xlink:href="#m1f7c9e4b40" x="186.140103" y="115.182216" style="fill: #beb8d9; stroke: #beb8d9"/>
     <use xlink:href="#m1f7c9e4b40" x="192.879917" y="118.112647" style="fill: #beb8d9; stroke: #beb8d9"/>
     <use xlink:href="#m1f7c9e4b40" x="199.619731" y="119.417191" style="fill: #beb8d9; stroke: #beb8d9"/>
     <use xlink:href="#m1f7c9e4b40" x="206.359545" y="119.870712" style="fill: #beb8d9; stroke: #beb8d9"/>
     <use xlink:href="#m1f7c9e4b40" x="213.099359" y="119.974918" style="fill: #beb8d9; stroke: #beb8d9"/>
     <use xlink:href="#m1f7c9e4b40" x="219.839173" y="119.990219" style="fill: #beb8d9; stroke: #beb8d9"/>
     <use xlink:href="#m1f7c9e4b40" x="226.578987" y="119.990757" style="fill: #beb8d9; stroke: #beb8d9"/>
     <use xlink:href="#m1f7c9e4b40" x="233.318802" y="119.990757" style="fill: #beb8d9; stroke: #beb8d9"/>
     <use xlink:href="#m1f7c9e4b40" x="240.058616" y="119.990757" style="fill: #beb8d9; stroke: #beb8d9"/>
     <use xlink:href="#m1f7c9e4b40" x="246.79843" y="119.990757" style="fill: #beb8d9; stroke: #beb8d9"/>
     <use xlink:href="#m1f7c9e4b40" x="253.538244" y="119.990757" style="fill: #beb8d9; stroke: #beb8d9"/>
     <use xlink:href="#m1f7c9e4b40" x="260.278058" y="119.990757" style="fill: #beb8d9; stroke: #beb8d9"/>
     <use xlink:href="#m1f7c9e4b40" x="267.017872" y="119.990757" style="fill: #beb8d9; stroke: #beb8d9"/>
     <use xlink:href="#m1f7c9e4b40" x="273.757686" y="119.990757" style="fill: #beb8d9; stroke: #beb8d9"/>
     <use xlink:href="#m1f7c9e4b40" x="280.497501" y="119.990757" style="fill: #beb8d9; stroke: #beb8d9"/>
     <use xlink:href="#m1f7c9e4b40" x="287.237315" y="119.990757" style="fill: #beb8d9; stroke: #beb8d9"/>
     <use xlink:href="#m1f7c9e4b40" x="293.977129" y="119.990757" style="fill: #beb8d9; stroke: #beb8d9"/>
     <use xlink:href="#m1f7c9e4b40" x="300.716943" y="119.990757" style="fill: #beb8d9; stroke: #beb8d9"/>
     <use xlink:href="#m1f7c9e4b40" x="307.456757" y="119.990757" style="fill: #beb8d9; stroke: #beb8d9"/>
    </g>
   </g>
   <g id="LineCollection_5">
    <path d="M 44.604006 27.294758 
L 44.604006 25.919542 
" clip-path="url(#p5383d72e2d)" style="fill: none; stroke: #9e95c6; stroke-width: 1.5"/>
    <path d="M 51.34382 26.247103 
L 51.34382 25.460253 
" clip-path="url(#p5383d72e2d)" style="fill: none; stroke: #9e95c6; stroke-width: 1.5"/>
    <path d="M 58.083634 25.840555 
L 58.083634 25.167417 
" clip-path="url(#p5383d72e2d)" style="fill: none; stroke: #9e95c6; stroke-width: 1.5"/>
    <path d="M 64.823448 23.94734 
L 64.823448 23.388785 
" clip-path="url(#p5383d72e2d)" style="fill: none; stroke: #9e95c6; stroke-width: 1.5"/>
    <path d="M 71.563262 22.467376 
L 71.563262 21.960924 
" clip-path="url(#p5383d72e2d)" style="fill: none; stroke: #9e95c6; stroke-width: 1.5"/>
    <path d="M 78.303076 20.824898 
L 78.303076 20.363211 
" clip-path="url(#p5383d72e2d)" style="fill: none; stroke: #9e95c6; stroke-width: 1.5"/>
    <path d="M 85.042891 19.48305 
L 85.042891 19.098653 
" clip-path="url(#p5383d72e2d)" style="fill: none; stroke: #9e95c6; stroke-width: 1.5"/>
    <path d="M 91.782705 18.606729 
L 91.782705 18.263708 
" clip-path="url(#p5383d72e2d)" style="fill: none; stroke: #9e95c6; stroke-width: 1.5"/>
    <path d="M 98.522519 18.251095 
L 98.522519 17.919836 
" clip-path="url(#p5383d72e2d)" style="fill: none; stroke: #9e95c6; stroke-width: 1.5"/>
    <path d="M 105.262333 19.343394 
L 105.262333 19.056526 
" clip-path="url(#p5383d72e2d)" style="fill: none; stroke: #9e95c6; stroke-width: 1.5"/>
    <path d="M 112.002147 21.906064 
L 112.002147 21.65239 
" clip-path="url(#p5383d72e2d)" style="fill: none; stroke: #9e95c6; stroke-width: 1.5"/>
    <path d="M 118.741961 26.233525 
L 118.741961 25.974463 
" clip-path="url(#p5383d72e2d)" style="fill: none; stroke: #9e95c6; stroke-width: 1.5"/>
    <path d="M 125.481775 32.205197 
L 125.481775 31.989675 
" clip-path="url(#p5383d72e2d)" style="fill: none; stroke: #9e95c6; stroke-width: 1.5"/>
    <path d="M 132.221589 40.348897 
L 132.221589 40.12867 
" clip-path="url(#p5383d72e2d)" style="fill: none; stroke: #9e95c6; stroke-width: 1.5"/>
    <path d="M 138.961404 50.33984 
L 138.961404 50.142047 
" clip-path="url(#p5383d72e2d)" style="fill: none; stroke: #9e95c6; stroke-width: 1.5"/>
    <path d="M 145.701218 61.399872 
L 145.701218 61.20122 
" clip-path="url(#p5383d72e2d)" style="fill: none; stroke: #9e95c6; stroke-width: 1.5"/>
    <path d="M 152.441032 73.257381 
L 152.441032 73.068316 
" clip-path="url(#p5383d72e2d)" style="fill: none; stroke: #9e95c6; stroke-width: 1.5"/>
    <path d="M 159.180846 84.97598 
L 159.180846 84.817735 
" clip-path="url(#p5383d72e2d)" style="fill: none; stroke: #9e95c6; stroke-width: 1.5"/>
    <path d="M 165.92066 95.589653 
L 165.92066 95.467737 
" clip-path="url(#p5383d72e2d)" style="fill: none; stroke: #9e95c6; stroke-width: 1.5"/>
    <path d="M 172.660474 104.701348 
L 172.660474 104.610315 
" clip-path="url(#p5383d72e2d)" style="fill: none; stroke: #9e95c6; stroke-width: 1.5"/>
    <path d="M 179.400288 111.486092 
L 179.400288 111.422639 
" clip-path="url(#p5383d72e2d)" style="fill: none; stroke: #9e95c6; stroke-width: 1.5"/>
    <path d="M 186.140103 115.91788 
L 186.140103 115.87919 
" clip-path="url(#p5383d72e2d)" style="fill: none; stroke: #9e95c6; stroke-width: 1.5"/>
    <path d="M 192.879917 118.402879 
L 192.879917 118.378616 
" clip-path="url(#p5383d72e2d)" style="fill: none; stroke: #9e95c6; stroke-width: 1.5"/>
    <path d="M 199.619731 119.522443 
L 199.619731 119.511144 
" clip-path="url(#p5383d72e2d)" style="fill: none; stroke: #9e95c6; stroke-width: 1.5"/>
    <path d="M 206.359545 119.892938 
L 206.359545 119.888062 
" clip-path="url(#p5383d72e2d)" style="fill: none; stroke: #9e95c6; stroke-width: 1.5"/>
    <path d="M 213.099359 119.978117 
L 213.099359 119.976065 
" clip-path="url(#p5383d72e2d)" style="fill: none; stroke: #9e95c6; stroke-width: 1.5"/>
    <path d="M 219.839173 119.99028 
L 219.839173 119.989866 
" clip-path="url(#p5383d72e2d)" style="fill: none; stroke: #9e95c6; stroke-width: 1.5"/>
    <path d="M 226.578987 119.990757 
L 226.578987 119.990757 
" clip-path="url(#p5383d72e2d)" style="fill: none; stroke: #9e95c6; stroke-width: 1.5"/>
    <path d="M 233.318802 119.990757 
L 233.318802 119.990757 
" clip-path="url(#p5383d72e2d)" style="fill: none; stroke: #9e95c6; stroke-width: 1.5"/>
    <path d="M 240.058616 119.990757 
L 240.058616 119.990757 
" clip-path="url(#p5383d72e2d)" style="fill: none; stroke: #9e95c6; stroke-width: 1.5"/>
    <path clip-path="url(#p5383d72e2d)" style="fill: none; stroke: #9e95c6; stroke-width: 1.5"/>
    <path clip-path="url(#p5383d72e2d)" style="fill: none; stroke: #9e95c6; stroke-width: 1.5"/>
    <path clip-path="url(#p5383d72e2d)" style="fill: none; stroke: #9e95c6; stroke-width: 1.5"/>
    <path clip-path="url(#p5383d72e2d)" style="fill: none; stroke: #9e95c6; stroke-width: 1.5"/>
    <path clip-path="url(#p5383d72e2d)" style="fill: none; stroke: #9e95c6; stroke-width: 1.5"/>
    <path clip-path="url(#p5383d72e2d)" style="fill: none; stroke: #9e95c6; stroke-width: 1.5"/>
    <path clip-path="url(#p5383d72e2d)" style="fill: none; stroke: #9e95c6; stroke-width: 1.5"/>
    <path clip-path="url(#p5383d72e2d)" style="fill: none; stroke: #9e95c6; stroke-width: 1.5"/>
    <path clip-path="url(#p5383d72e2d)" style="fill: none; stroke: #9e95c6; stroke-width: 1.5"/>
    <path clip-path="url(#p5383d72e2d)" style="fill: none; stroke: #9e95c6; stroke-width: 1.5"/>
   </g>
   <g id="line2d_21">
    <path d="M 44.604006 26.60715 
L 51.34382 25.853678 
L 58.083634 25.503986 
L 64.823448 23.668063 
L 71.563262 22.21415 
L 78.303076 20.594055 
L 85.042891 19.290852 
L 91.782705 18.435219 
L 98.522519 18.085465 
L 105.262333 19.19996 
L 112.002147 21.779227 
L 118.741961 26.103994 
L 125.481775 32.097436 
L 132.221589 40.238783 
L 138.961404 50.240944 
L 145.701218 61.300546 
L 152.441032 73.162849 
L 159.180846 84.896857 
L 165.92066 95.528695 
L 172.660474 104.655832 
L 179.400288 111.454366 
L 186.140103 115.898535 
L 192.879917 118.390747 
L 199.619731 119.516793 
L 206.359545 119.8905 
L 213.099359 119.977091 
L 219.839173 119.990073 
L 226.578987 119.990757 
L 233.318802 119.990757 
L 240.058616 119.990757 
L 246.0808 119.990757 
" clip-path="url(#p5383d72e2d)" style="fill: none; stroke-dasharray: 1.5,2.475; stroke-dashoffset: 0; stroke: #9e95c6; stroke-width: 1.5"/>
    <g clip-path="url(#p5383d72e2d)">
     <use xlink:href="#md16bc7c90c" x="44.604006" y="26.60715" style="fill: #9e95c6; stroke: #9e95c6"/>
     <use xlink:href="#md16bc7c90c" x="51.34382" y="25.853678" style="fill: #9e95c6; stroke: #9e95c6"/>
     <use xlink:href="#md16bc7c90c" x="58.083634" y="25.503986" style="fill: #9e95c6; stroke: #9e95c6"/>
     <use xlink:href="#md16bc7c90c" x="64.823448" y="23.668063" style="fill: #9e95c6; stroke: #9e95c6"/>
     <use xlink:href="#md16bc7c90c" x="71.563262" y="22.21415" style="fill: #9e95c6; stroke: #9e95c6"/>
     <use xlink:href="#md16bc7c90c" x="78.303076" y="20.594055" style="fill: #9e95c6; stroke: #9e95c6"/>
     <use xlink:href="#md16bc7c90c" x="85.042891" y="19.290852" style="fill: #9e95c6; stroke: #9e95c6"/>
     <use xlink:href="#md16bc7c90c" x="91.782705" y="18.435219" style="fill: #9e95c6; stroke: #9e95c6"/>
     <use xlink:href="#md16bc7c90c" x="98.522519" y="18.085465" style="fill: #9e95c6; stroke: #9e95c6"/>
     <use xlink:href="#md16bc7c90c" x="105.262333" y="19.19996" style="fill: #9e95c6; stroke: #9e95c6"/>
     <use xlink:href="#md16bc7c90c" x="112.002147" y="21.779227" style="fill: #9e95c6; stroke: #9e95c6"/>
     <use xlink:href="#md16bc7c90c" x="118.741961" y="26.103994" style="fill: #9e95c6; stroke: #9e95c6"/>
     <use xlink:href="#md16bc7c90c" x="125.481775" y="32.097436" style="fill: #9e95c6; stroke: #9e95c6"/>
     <use xlink:href="#md16bc7c90c" x="132.221589" y="40.238783" style="fill: #9e95c6; stroke: #9e95c6"/>
     <use xlink:href="#md16bc7c90c" x="138.961404" y="50.240944" style="fill: #9e95c6; stroke: #9e95c6"/>
     <use xlink:href="#md16bc7c90c" x="145.701218" y="61.300546" style="fill: #9e95c6; stroke: #9e95c6"/>
     <use xlink:href="#md16bc7c90c" x="152.441032" y="73.162849" style="fill: #9e95c6; stroke: #9e95c6"/>
     <use xlink:href="#md16bc7c90c" x="159.180846" y="84.896857" style="fill: #9e95c6; stroke: #9e95c6"/>
     <use xlink:href="#md16bc7c90c" x="165.92066" y="95.528695" style="fill: #9e95c6; stroke: #9e95c6"/>
     <use xlink:href="#md16bc7c90c" x="172.660474" y="104.655832" style="fill: #9e95c6; stroke: #9e95c6"/>
     <use xlink:href="#md16bc7c90c" x="179.400288" y="111.454366" style="fill: #9e95c6; stroke: #9e95c6"/>
     <use xlink:href="#md16bc7c90c" x="186.140103" y="115.898535" style="fill: #9e95c6; stroke: #9e95c6"/>
     <use xlink:href="#md16bc7c90c" x="192.879917" y="118.390747" style="fill: #9e95c6; stroke: #9e95c6"/>
     <use xlink:href="#md16bc7c90c" x="199.619731" y="119.516793" style="fill: #9e95c6; stroke: #9e95c6"/>
     <use xlink:href="#md16bc7c90c" x="206.359545" y="119.8905" style="fill: #9e95c6; stroke: #9e95c6"/>
     <use xlink:href="#md16bc7c90c" x="213.099359" y="119.977091" style="fill: #9e95c6; stroke: #9e95c6"/>
     <use xlink:href="#md16bc7c90c" x="219.839173" y="119.990073" style="fill: #9e95c6; stroke: #9e95c6"/>
     <use xlink:href="#md16bc7c90c" x="226.578987" y="119.990757" style="fill: #9e95c6; stroke: #9e95c6"/>
     <use xlink:href="#md16bc7c90c" x="233.318802" y="119.990757" style="fill: #9e95c6; stroke: #9e95c6"/>
     <use xlink:href="#md16bc7c90c" x="240.058616" y="119.990757" style="fill: #9e95c6; stroke: #9e95c6"/>
     <use xlink:href="#md16bc7c90c" x="246.79843" y="119.990757" style="fill: #9e95c6; stroke: #9e95c6"/>
     <use xlink:href="#md16bc7c90c" x="253.538244" y="119.990757" style="fill: #9e95c6; stroke: #9e95c6"/>
     <use xlink:href="#md16bc7c90c" x="260.278058" y="119.990757" style="fill: #9e95c6; stroke: #9e95c6"/>
     <use xlink:href="#md16bc7c90c" x="267.017872" y="119.990757" style="fill: #9e95c6; stroke: #9e95c6"/>
     <use xlink:href="#md16bc7c90c" x="273.757686" y="119.990757" style="fill: #9e95c6; stroke: #9e95c6"/>
     <use xlink:href="#md16bc7c90c" x="280.497501" y="119.990757" style="fill: #9e95c6; stroke: #9e95c6"/>
     <use xlink:href="#md16bc7c90c" x="287.237315" y="119.990757" style="fill: #9e95c6; stroke: #9e95c6"/>
     <use xlink:href="#md16bc7c90c" x="293.977129" y="119.990757" style="fill: #9e95c6; stroke: #9e95c6"/>
     <use xlink:href="#md16bc7c90c" x="300.716943" y="119.990757" style="fill: #9e95c6; stroke: #9e95c6"/>
     <use xlink:href="#md16bc7c90c" x="307.456757" y="119.990757" style="fill: #9e95c6; stroke: #9e95c6"/>
    </g>
   </g>
   <g id="LineCollection_6">
    <path d="M 44.604006 9.943925 
L 44.604006 8.781973 
" clip-path="url(#p5383d72e2d)" style="fill: none; stroke: #6d60ab; stroke-width: 1.5"/>
    <path d="M 51.34382 10.399072 
L 51.34382 9.710612 
" clip-path="url(#p5383d72e2d)" style="fill: none; stroke: #6d60ab; stroke-width: 1.5"/>
    <path d="M 58.083634 9.720686 
L 58.083634 9.14762 
" clip-path="url(#p5383d72e2d)" style="fill: none; stroke: #6d60ab; stroke-width: 1.5"/>
    <path d="M 64.823448 9.261399 
L 64.823448 8.803966 
" clip-path="url(#p5383d72e2d)" style="fill: none; stroke: #6d60ab; stroke-width: 1.5"/>
    <path d="M 71.563262 8.969698 
L 71.563262 8.571217 
" clip-path="url(#p5383d72e2d)" style="fill: none; stroke: #6d60ab; stroke-width: 1.5"/>
    <path d="M 78.303076 8.972734 
L 78.303076 8.627269 
" clip-path="url(#p5383d72e2d)" style="fill: none; stroke: #6d60ab; stroke-width: 1.5"/>
    <path d="M 85.042891 9.402762 
L 85.042891 9.102767 
" clip-path="url(#p5383d72e2d)" style="fill: none; stroke: #6d60ab; stroke-width: 1.5"/>
    <path d="M 91.782705 10.440348 
L 91.782705 10.166503 
" clip-path="url(#p5383d72e2d)" style="fill: none; stroke: #6d60ab; stroke-width: 1.5"/>
    <path d="M 98.522519 12.422301 
L 98.522519 12.170494 
" clip-path="url(#p5383d72e2d)" style="fill: none; stroke: #6d60ab; stroke-width: 1.5"/>
    <path d="M 105.262333 15.765054 
L 105.262333 15.546155 
" clip-path="url(#p5383d72e2d)" style="fill: none; stroke: #6d60ab; stroke-width: 1.5"/>
    <path d="M 112.002147 20.560815 
L 112.002147 20.363879 
" clip-path="url(#p5383d72e2d)" style="fill: none; stroke: #6d60ab; stroke-width: 1.5"/>
    <path d="M 118.741961 26.766109 
L 118.741961 26.588189 
" clip-path="url(#p5383d72e2d)" style="fill: none; stroke: #6d60ab; stroke-width: 1.5"/>
    <path d="M 125.481775 34.374938 
L 125.481775 34.200941 
" clip-path="url(#p5383d72e2d)" style="fill: none; stroke: #6d60ab; stroke-width: 1.5"/>
    <path d="M 132.221589 43.826841 
L 132.221589 43.648875 
" clip-path="url(#p5383d72e2d)" style="fill: none; stroke: #6d60ab; stroke-width: 1.5"/>
    <path d="M 138.961404 54.365299 
L 138.961404 54.219263 
" clip-path="url(#p5383d72e2d)" style="fill: none; stroke: #6d60ab; stroke-width: 1.5"/>
    <path d="M 145.701218 65.652712 
L 145.701218 65.490876 
" clip-path="url(#p5383d72e2d)" style="fill: none; stroke: #6d60ab; stroke-width: 1.5"/>
    <path d="M 152.441032 77.174456 
L 152.441032 77.053954 
" clip-path="url(#p5383d72e2d)" style="fill: none; stroke: #6d60ab; stroke-width: 1.5"/>
    <path d="M 159.180846 88.40704 
L 159.180846 88.301021 
" clip-path="url(#p5383d72e2d)" style="fill: none; stroke: #6d60ab; stroke-width: 1.5"/>
    <path d="M 165.92066 98.297508 
L 165.92066 98.198573 
" clip-path="url(#p5383d72e2d)" style="fill: none; stroke: #6d60ab; stroke-width: 1.5"/>
    <path d="M 172.660474 106.478946 
L 172.660474 106.41669 
" clip-path="url(#p5383d72e2d)" style="fill: none; stroke: #6d60ab; stroke-width: 1.5"/>
    <path d="M 179.400288 112.482798 
L 179.400288 112.43417 
" clip-path="url(#p5383d72e2d)" style="fill: none; stroke: #6d60ab; stroke-width: 1.5"/>
    <path d="M 186.140103 116.450514 
L 186.140103 116.42121 
" clip-path="url(#p5383d72e2d)" style="fill: none; stroke: #6d60ab; stroke-width: 1.5"/>
    <path d="M 192.879917 118.60677 
L 192.879917 118.590478 
" clip-path="url(#p5383d72e2d)" style="fill: none; stroke: #6d60ab; stroke-width: 1.5"/>
    <path d="M 199.619731 119.583706 
L 199.619731 119.574769 
" clip-path="url(#p5383d72e2d)" style="fill: none; stroke: #6d60ab; stroke-width: 1.5"/>
    <path d="M 206.359545 119.904999 
L 206.359545 119.901031 
" clip-path="url(#p5383d72e2d)" style="fill: none; stroke: #6d60ab; stroke-width: 1.5"/>
    <path d="M 213.099359 119.981247 
L 213.099359 119.979886 
" clip-path="url(#p5383d72e2d)" style="fill: none; stroke: #6d60ab; stroke-width: 1.5"/>
    <path d="M 219.839173 119.990296 
L 219.839173 119.990002 
" clip-path="url(#p5383d72e2d)" style="fill: none; stroke: #6d60ab; stroke-width: 1.5"/>
    <path d="M 226.578987 119.990757 
L 226.578987 119.990757 
" clip-path="url(#p5383d72e2d)" style="fill: none; stroke: #6d60ab; stroke-width: 1.5"/>
    <path d="M 233.318802 119.990757 
L 233.318802 119.990757 
" clip-path="url(#p5383d72e2d)" style="fill: none; stroke: #6d60ab; stroke-width: 1.5"/>
    <path d="M 240.058616 119.990757 
L 240.058616 119.990757 
" clip-path="url(#p5383d72e2d)" style="fill: none; stroke: #6d60ab; stroke-width: 1.5"/>
    <path clip-path="url(#p5383d72e2d)" style="fill: none; stroke: #6d60ab; stroke-width: 1.5"/>
    <path clip-path="url(#p5383d72e2d)" style="fill: none; stroke: #6d60ab; stroke-width: 1.5"/>
    <path clip-path="url(#p5383d72e2d)" style="fill: none; stroke: #6d60ab; stroke-width: 1.5"/>
    <path clip-path="url(#p5383d72e2d)" style="fill: none; stroke: #6d60ab; stroke-width: 1.5"/>
    <path clip-path="url(#p5383d72e2d)" style="fill: none; stroke: #6d60ab; stroke-width: 1.5"/>
    <path clip-path="url(#p5383d72e2d)" style="fill: none; stroke: #6d60ab; stroke-width: 1.5"/>
    <path clip-path="url(#p5383d72e2d)" style="fill: none; stroke: #6d60ab; stroke-width: 1.5"/>
    <path clip-path="url(#p5383d72e2d)" style="fill: none; stroke: #6d60ab; stroke-width: 1.5"/>
    <path clip-path="url(#p5383d72e2d)" style="fill: none; stroke: #6d60ab; stroke-width: 1.5"/>
    <path clip-path="url(#p5383d72e2d)" style="fill: none; stroke: #6d60ab; stroke-width: 1.5"/>
   </g>
   <g id="line2d_22">
    <path d="M 44.604006 9.362949 
L 51.34382 10.054842 
L 58.083634 9.434153 
L 64.823448 9.032682 
L 71.563262 8.770457 
L 78.303076 8.800002 
L 85.042891 9.252764 
L 91.782705 10.303426 
L 98.522519 12.296397 
L 105.262333 15.655604 
L 112.002147 20.462347 
L 118.741961 26.677149 
L 125.481775 34.28794 
L 132.221589 43.737858 
L 138.961404 54.292281 
L 145.701218 65.571794 
L 152.441032 77.114205 
L 159.180846 88.354031 
L 165.92066 98.24804 
L 172.660474 106.447818 
L 179.400288 112.458484 
L 186.140103 116.435862 
L 192.879917 118.598624 
L 199.619731 119.579237 
L 206.359545 119.903015 
L 213.099359 119.980566 
L 219.839173 119.990149 
L 226.578987 119.990757 
L 233.318802 119.990757 
L 240.058616 119.990757 
L 246.0808 119.990757 
" clip-path="url(#p5383d72e2d)" style="fill: none; stroke-dasharray: 1.5,2.475; stroke-dashoffset: 0; stroke: #6d60ab; stroke-width: 1.5"/>
    <g clip-path="url(#p5383d72e2d)">
     <use xlink:href="#m276962161a" x="44.604006" y="9.362949" style="fill: #6d60ab; stroke: #6d60ab"/>
     <use xlink:href="#m276962161a" x="51.34382" y="10.054842" style="fill: #6d60ab; stroke: #6d60ab"/>
     <use xlink:href="#m276962161a" x="58.083634" y="9.434153" style="fill: #6d60ab; stroke: #6d60ab"/>
     <use xlink:href="#m276962161a" x="64.823448" y="9.032682" style="fill: #6d60ab; stroke: #6d60ab"/>
     <use xlink:href="#m276962161a" x="71.563262" y="8.770457" style="fill: #6d60ab; stroke: #6d60ab"/>
     <use xlink:href="#m276962161a" x="78.303076" y="8.800002" style="fill: #6d60ab; stroke: #6d60ab"/>
     <use xlink:href="#m276962161a" x="85.042891" y="9.252764" style="fill: #6d60ab; stroke: #6d60ab"/>
     <use xlink:href="#m276962161a" x="91.782705" y="10.303426" style="fill: #6d60ab; stroke: #6d60ab"/>
     <use xlink:href="#m276962161a" x="98.522519" y="12.296397" style="fill: #6d60ab; stroke: #6d60ab"/>
     <use xlink:href="#m276962161a" x="105.262333" y="15.655604" style="fill: #6d60ab; stroke: #6d60ab"/>
     <use xlink:href="#m276962161a" x="112.002147" y="20.462347" style="fill: #6d60ab; stroke: #6d60ab"/>
     <use xlink:href="#m276962161a" x="118.741961" y="26.677149" style="fill: #6d60ab; stroke: #6d60ab"/>
     <use xlink:href="#m276962161a" x="125.481775" y="34.28794" style="fill: #6d60ab; stroke: #6d60ab"/>
     <use xlink:href="#m276962161a" x="132.221589" y="43.737858" style="fill: #6d60ab; stroke: #6d60ab"/>
     <use xlink:href="#m276962161a" x="138.961404" y="54.292281" style="fill: #6d60ab; stroke: #6d60ab"/>
     <use xlink:href="#m276962161a" x="145.701218" y="65.571794" style="fill: #6d60ab; stroke: #6d60ab"/>
     <use xlink:href="#m276962161a" x="152.441032" y="77.114205" style="fill: #6d60ab; stroke: #6d60ab"/>
     <use xlink:href="#m276962161a" x="159.180846" y="88.354031" style="fill: #6d60ab; stroke: #6d60ab"/>
     <use xlink:href="#m276962161a" x="165.92066" y="98.24804" style="fill: #6d60ab; stroke: #6d60ab"/>
     <use xlink:href="#m276962161a" x="172.660474" y="106.447818" style="fill: #6d60ab; stroke: #6d60ab"/>
     <use xlink:href="#m276962161a" x="179.400288" y="112.458484" style="fill: #6d60ab; stroke: #6d60ab"/>
     <use xlink:href="#m276962161a" x="186.140103" y="116.435862" style="fill: #6d60ab; stroke: #6d60ab"/>
     <use xlink:href="#m276962161a" x="192.879917" y="118.598624" style="fill: #6d60ab; stroke: #6d60ab"/>
     <use xlink:href="#m276962161a" x="199.619731" y="119.579237" style="fill: #6d60ab; stroke: #6d60ab"/>
     <use xlink:href="#m276962161a" x="206.359545" y="119.903015" style="fill: #6d60ab; stroke: #6d60ab"/>
     <use xlink:href="#m276962161a" x="213.099359" y="119.980566" style="fill: #6d60ab; stroke: #6d60ab"/>
     <use xlink:href="#m276962161a" x="219.839173" y="119.990149" style="fill: #6d60ab; stroke: #6d60ab"/>
     <use xlink:href="#m276962161a" x="226.578987" y="119.990757" style="fill: #6d60ab; stroke: #6d60ab"/>
     <use xlink:href="#m276962161a" x="233.318802" y="119.990757" style="fill: #6d60ab; stroke: #6d60ab"/>
     <use xlink:href="#m276962161a" x="240.058616" y="119.990757" style="fill: #6d60ab; stroke: #6d60ab"/>
     <use xlink:href="#m276962161a" x="246.79843" y="119.990757" style="fill: #6d60ab; stroke: #6d60ab"/>
     <use xlink:href="#m276962161a" x="253.538244" y="119.990757" style="fill: #6d60ab; stroke: #6d60ab"/>
     <use xlink:href="#m276962161a" x="260.278058" y="119.990757" style="fill: #6d60ab; stroke: #6d60ab"/>
     <use xlink:href="#m276962161a" x="267.017872" y="119.990757" style="fill: #6d60ab; stroke: #6d60ab"/>
     <use xlink:href="#m276962161a" x="273.757686" y="119.990757" style="fill: #6d60ab; stroke: #6d60ab"/>
     <use xlink:href="#m276962161a" x="280.497501" y="119.990757" style="fill: #6d60ab; stroke: #6d60ab"/>
     <use xlink:href="#m276962161a" x="287.237315" y="119.990757" style="fill: #6d60ab; stroke: #6d60ab"/>
     <use xlink:href="#m276962161a" x="293.977129" y="119.990757" style="fill: #6d60ab; stroke: #6d60ab"/>
     <use xlink:href="#m276962161a" x="300.716943" y="119.990757" style="fill: #6d60ab; stroke: #6d60ab"/>
     <use xlink:href="#m276962161a" x="307.456757" y="119.990757" style="fill: #6d60ab; stroke: #6d60ab"/>
    </g>
   </g>
   <g id="line2d_23">
    <path d="M 43.256043 10.400033 
L 53.846639 10.212632 
L 64.437235 9.526317 
L 75.027831 9.106848 
L 85.618428 9.557754 
L 96.209024 11.635886 
L 106.79962 15.767692 
L 117.390216 25.557551 
L 127.980812 36.432706 
L 138.571408 52.485421 
L 149.162005 70.673695 
L 159.752601 87.703223 
L 170.343197 102.833228 
L 180.933793 112.995025 
L 191.524389 118.102287 
L 202.114986 119.655023 
L 212.705582 119.977148 
L 223.296178 119.990396 
L 233.886774 119.990754 
L 244.47737 119.990757 
L 246.0808 119.990757 
" clip-path="url(#p5383d72e2d)" style="fill: none; stroke: #5e4fa2; stroke-width: 1.5; stroke-linecap: square"/>
   </g>
  </g>
 </g>
 <defs>
  <clipPath id="p5383d72e2d">
   <rect x="43.256043" y="3.00024" width="198.824517" height="122.561494"/>
  </clipPath>
 </defs>
</svg>
