<?xml version="1.0" encoding="utf-8" standalone="no"?>
<!DOCTYPE svg PUBLIC "-//W3C//DTD SVG 1.1//EN"
  "http://www.w3.org/Graphics/SVG/1.1/DTD/svg11.dtd">
<svg xmlns:xlink="http://www.w3.org/1999/xlink" width="244.17072pt" height="225.97128pt" viewBox="0 0 244.17072 225.97128" xmlns="http://www.w3.org/2000/svg" version="1.1">
 <metadata>
  <rdf:RDF xmlns:dc="http://purl.org/dc/elements/1.1/" xmlns:cc="http://creativecommons.org/ns#" xmlns:rdf="http://www.w3.org/1999/02/22-rdf-syntax-ns#">
   <cc:Work>
    <dc:type rdf:resource="http://purl.org/dc/dcmitype/StillImage"/>
    <dc:date>2025-09-12T14:49:55.050918</dc:date>
    <dc:format>image/svg+xml</dc:format>
    <dc:creator>
     <cc:Agent>
      <dc:title>Matplotlib v3.10.1, https://matplotlib.org/</dc:title>
     </cc:Agent>
    </dc:creator>
   </cc:Work>
  </rdf:RDF>
 </metadata>
 <defs>
  <style type="text/css">*{stroke-linejoin: round; stroke-linecap: butt}</style>
 </defs>
 <g id="figure_1">
  <g id="patch_1">
   <path d="M 0 225.97128 
L 244.17072 225.97128 
L 244.17072 0 
L 0 0 
L 0 225.97128 
z
" style="fill: none"/>
  </g>
  <g id="axes_1">
   <g id="patch_2">
    <path d="M 30.351347 131.157427 
L 243.81072 131.157427 
L 243.81072 0.36 
L 30.351347 0.36 
L 30.351347 131.157427 
z
" style="fill: none"/>
   </g>
   <g id="matplotlib.axis_1">
    <g id="xtick_1">
     <g id="line2d_1">
      <defs>
       <path id="m5e9b4629f2" d="M 0 0 
L 0 2 
" style="stroke: #000000; stroke-width: 0.35"/>
      </defs>
      <g>
       <use xlink:href="#m5e9b4629f2" x="40.054045" y="131.157427" style="stroke: #000000; stroke-width: 0.35"/>
      </g>
     </g>
    </g>
    <g id="xtick_2">
     <g id="line2d_2">
      <g>
       <use xlink:href="#m5e9b4629f2" x="78.864841" y="131.157427" style="stroke: #000000; stroke-width: 0.35"/>
      </g>
     </g>
    </g>
    <g id="xtick_3">
     <g id="line2d_3">
      <g>
       <use xlink:href="#m5e9b4629f2" x="117.675636" y="131.157427" style="stroke: #000000; stroke-width: 0.35"/>
      </g>
     </g>
    </g>
    <g id="xtick_4">
     <g id="line2d_4">
      <g>
       <use xlink:href="#m5e9b4629f2" x="156.486431" y="131.157427" style="stroke: #000000; stroke-width: 0.35"/>
      </g>
     </g>
    </g>
    <g id="xtick_5">
     <g id="line2d_5">
      <g>
       <use xlink:href="#m5e9b4629f2" x="195.297226" y="131.157427" style="stroke: #000000; stroke-width: 0.35"/>
      </g>
     </g>
    </g>
    <g id="xtick_6">
     <g id="line2d_6">
      <g>
       <use xlink:href="#m5e9b4629f2" x="234.108021" y="131.157427" style="stroke: #000000; stroke-width: 0.35"/>
      </g>
     </g>
    </g>
   </g>
   <g id="matplotlib.axis_2">
    <g id="ytick_1">
     <g id="line2d_7">
      <defs>
       <path id="m76f938c708" d="M 0 0 
L -2 0 
" style="stroke: #000000; stroke-width: 0.35"/>
      </defs>
      <g>
       <use xlink:href="#m76f938c708" x="30.351347" y="125.212089" style="stroke: #000000; stroke-width: 0.35"/>
      </g>
     </g>
     <g id="text_1">
      <!-- $\mathdefault{0.00}$ -->
      <g transform="translate(11.296474 127.97949) scale(0.08 -0.08)">
       <defs>
        <path id="CMR17-30" d="M 2688 2025 
C 2688 2416 2682 3080 2413 3591 
C 2176 4039 1798 4198 1466 4198 
C 1158 4198 768 4058 525 3597 
C 269 3118 243 2524 243 2025 
C 243 1661 250 1106 448 619 
C 723 -39 1216 -128 1466 -128 
C 1760 -128 2208 -7 2470 600 
C 2662 1042 2688 1559 2688 2025 
z
M 1466 -26 
C 1056 -26 813 325 723 812 
C 653 1188 653 1738 653 2096 
C 653 2588 653 2997 736 3387 
C 858 3929 1216 4096 1466 4096 
C 1728 4096 2067 3923 2189 3400 
C 2272 3036 2278 2607 2278 2096 
C 2278 1680 2278 1169 2202 792 
C 2067 95 1690 -26 1466 -26 
z
" transform="scale(0.015625)"/>
        <path id="CMMI12-3a" d="M 1178 307 
C 1178 492 1024 619 870 619 
C 685 619 557 466 557 313 
C 557 128 710 0 864 0 
C 1050 0 1178 153 1178 307 
z
" transform="scale(0.015625)"/>
       </defs>
       <use xlink:href="#CMR17-30" transform="scale(0.996264)"/>
       <use xlink:href="#CMMI12-3a" transform="translate(45.690477 0) scale(0.996264)"/>
       <use xlink:href="#CMR17-30" transform="translate(72.787654 0) scale(0.996264)"/>
       <use xlink:href="#CMR17-30" transform="translate(118.478131 0) scale(0.996264)"/>
      </g>
     </g>
    </g>
    <g id="ytick_2">
     <g id="line2d_8">
      <g>
       <use xlink:href="#m76f938c708" x="30.351347" y="105.131259" style="stroke: #000000; stroke-width: 0.35"/>
      </g>
     </g>
     <g id="text_2">
      <!-- $\mathdefault{0.05}$ -->
      <g transform="translate(11.296474 107.89866) scale(0.08 -0.08)">
       <defs>
        <path id="CMR17-35" d="M 730 3692 
C 794 3666 1056 3584 1325 3584 
C 1920 3584 2246 3911 2432 4100 
C 2432 4157 2432 4192 2394 4192 
C 2387 4192 2374 4192 2323 4163 
C 2099 4058 1837 3973 1517 3973 
C 1325 3973 1037 3999 723 4139 
C 653 4171 640 4171 634 4171 
C 602 4171 595 4164 595 4037 
L 595 2203 
C 595 2089 595 2057 659 2057 
C 691 2057 704 2070 736 2114 
C 941 2401 1222 2522 1542 2522 
C 1766 2522 2246 2382 2246 1289 
C 2246 1085 2246 715 2054 421 
C 1894 159 1645 25 1370 25 
C 947 25 518 320 403 814 
C 429 807 480 795 506 795 
C 589 795 749 840 749 1038 
C 749 1210 627 1280 506 1280 
C 358 1280 262 1190 262 1011 
C 262 454 704 -128 1382 -128 
C 2042 -128 2669 440 2669 1264 
C 2669 2030 2170 2624 1549 2624 
C 1222 2624 947 2503 730 2274 
L 730 3692 
z
" transform="scale(0.015625)"/>
       </defs>
       <use xlink:href="#CMR17-30" transform="scale(0.996264)"/>
       <use xlink:href="#CMMI12-3a" transform="translate(45.690477 0) scale(0.996264)"/>
       <use xlink:href="#CMR17-30" transform="translate(72.787654 0) scale(0.996264)"/>
       <use xlink:href="#CMR17-35" transform="translate(118.478131 0) scale(0.996264)"/>
      </g>
     </g>
    </g>
    <g id="ytick_3">
     <g id="line2d_9">
      <g>
       <use xlink:href="#m76f938c708" x="30.351347" y="85.050428" style="stroke: #000000; stroke-width: 0.35"/>
      </g>
     </g>
     <g id="text_3">
      <!-- $\mathdefault{0.10}$ -->
      <g transform="translate(11.296474 87.817829) scale(0.08 -0.08)">
       <defs>
        <path id="CMR17-31" d="M 1702 4058 
C 1702 4192 1696 4192 1606 4192 
C 1357 3916 979 3827 621 3827 
C 602 3827 570 3827 563 3808 
C 557 3795 557 3782 557 3648 
C 755 3648 1088 3686 1344 3839 
L 1344 461 
C 1344 236 1331 160 781 160 
L 589 160 
L 589 0 
C 896 0 1216 0 1523 0 
C 1830 0 2150 0 2458 0 
L 2458 160 
L 2266 160 
C 1715 160 1702 230 1702 458 
L 1702 4058 
z
" transform="scale(0.015625)"/>
       </defs>
       <use xlink:href="#CMR17-30" transform="scale(0.996264)"/>
       <use xlink:href="#CMMI12-3a" transform="translate(45.690477 0) scale(0.996264)"/>
       <use xlink:href="#CMR17-31" transform="translate(72.787654 0) scale(0.996264)"/>
       <use xlink:href="#CMR17-30" transform="translate(118.478131 0) scale(0.996264)"/>
      </g>
     </g>
    </g>
    <g id="ytick_4">
     <g id="line2d_10">
      <g>
       <use xlink:href="#m76f938c708" x="30.351347" y="64.969597" style="stroke: #000000; stroke-width: 0.35"/>
      </g>
     </g>
     <g id="text_4">
      <!-- $\mathdefault{0.15}$ -->
      <g transform="translate(11.296474 67.736998) scale(0.08 -0.08)">
       <use xlink:href="#CMR17-30" transform="scale(0.996264)"/>
       <use xlink:href="#CMMI12-3a" transform="translate(45.690477 0) scale(0.996264)"/>
       <use xlink:href="#CMR17-31" transform="translate(72.787654 0) scale(0.996264)"/>
       <use xlink:href="#CMR17-35" transform="translate(118.478131 0) scale(0.996264)"/>
      </g>
     </g>
    </g>
    <g id="ytick_5">
     <g id="line2d_11">
      <g>
       <use xlink:href="#m76f938c708" x="30.351347" y="44.888766" style="stroke: #000000; stroke-width: 0.35"/>
      </g>
     </g>
     <g id="text_5">
      <!-- $\mathdefault{0.20}$ -->
      <g transform="translate(11.296474 47.656167) scale(0.08 -0.08)">
       <defs>
        <path id="CMR17-32" d="M 2669 989 
L 2554 989 
C 2490 536 2438 459 2413 420 
C 2381 369 1920 369 1830 369 
L 602 369 
C 832 619 1280 1072 1824 1597 
C 2214 1967 2669 2402 2669 3035 
C 2669 3790 2067 4224 1395 4224 
C 691 4224 262 3604 262 3030 
C 262 2780 448 2748 525 2748 
C 589 2748 781 2787 781 3010 
C 781 3207 614 3264 525 3264 
C 486 3264 448 3258 422 3245 
C 544 3790 915 4058 1306 4058 
C 1862 4058 2227 3617 2227 3035 
C 2227 2479 1901 2000 1536 1584 
L 262 146 
L 262 0 
L 2515 0 
L 2669 989 
z
" transform="scale(0.015625)"/>
       </defs>
       <use xlink:href="#CMR17-30" transform="scale(0.996264)"/>
       <use xlink:href="#CMMI12-3a" transform="translate(45.690477 0) scale(0.996264)"/>
       <use xlink:href="#CMR17-32" transform="translate(72.787654 0) scale(0.996264)"/>
       <use xlink:href="#CMR17-30" transform="translate(118.478131 0) scale(0.996264)"/>
      </g>
     </g>
    </g>
    <g id="ytick_6">
     <g id="line2d_12">
      <g>
       <use xlink:href="#m76f938c708" x="30.351347" y="24.807936" style="stroke: #000000; stroke-width: 0.35"/>
      </g>
     </g>
     <g id="text_6">
      <!-- $\mathdefault{0.25}$ -->
      <g transform="translate(11.296474 27.575336) scale(0.08 -0.08)">
       <use xlink:href="#CMR17-30" transform="scale(0.996264)"/>
       <use xlink:href="#CMMI12-3a" transform="translate(45.690477 0) scale(0.996264)"/>
       <use xlink:href="#CMR17-32" transform="translate(72.787654 0) scale(0.996264)"/>
       <use xlink:href="#CMR17-35" transform="translate(118.478131 0) scale(0.996264)"/>
      </g>
     </g>
    </g>
    <g id="ytick_7">
     <g id="line2d_13">
      <g>
       <use xlink:href="#m76f938c708" x="30.351347" y="4.727105" style="stroke: #000000; stroke-width: 0.35"/>
      </g>
     </g>
     <g id="text_7">
      <!-- $\mathdefault{0.30}$ -->
      <g transform="translate(11.296474 7.494506) scale(0.08 -0.08)">
       <defs>
        <path id="CMR17-33" d="M 1414 2157 
C 1984 2157 2234 1662 2234 1090 
C 2234 320 1824 25 1453 25 
C 1114 25 563 194 390 693 
C 422 680 454 680 486 680 
C 640 680 755 782 755 948 
C 755 1133 614 1216 486 1216 
C 378 1216 211 1165 211 926 
C 211 335 787 -128 1466 -128 
C 2176 -128 2720 430 2720 1085 
C 2720 1707 2208 2157 1600 2227 
C 2086 2328 2554 2756 2554 3329 
C 2554 3820 2048 4179 1472 4179 
C 890 4179 378 3829 378 3329 
C 378 3110 544 3072 627 3072 
C 762 3072 877 3155 877 3321 
C 877 3486 762 3569 627 3569 
C 602 3569 570 3569 544 3557 
C 730 3959 1235 4032 1459 4032 
C 1683 4032 2106 3925 2106 3320 
C 2106 3143 2080 2828 1862 2550 
C 1670 2304 1453 2304 1242 2284 
C 1210 2284 1062 2269 1037 2269 
C 992 2263 966 2257 966 2208 
C 966 2163 973 2157 1101 2157 
L 1414 2157 
z
" transform="scale(0.015625)"/>
       </defs>
       <use xlink:href="#CMR17-30" transform="scale(0.996264)"/>
       <use xlink:href="#CMMI12-3a" transform="translate(45.690477 0) scale(0.996264)"/>
       <use xlink:href="#CMR17-33" transform="translate(72.787654 0) scale(0.996264)"/>
       <use xlink:href="#CMR17-30" transform="translate(118.478131 0) scale(0.996264)"/>
      </g>
     </g>
    </g>
    <g id="text_8">
     <!-- $\rho_{1D}$ [Å$^{-1}$] -->
     <g transform="translate(7.303946 84.971813) rotate(-90) scale(0.08 -0.08)">
      <defs>
       <path id="CMMI12-1a" d="M 198 -1107 
C 192 -1139 179 -1177 179 -1216 
C 179 -1312 256 -1376 352 -1376 
C 448 -1376 538 -1312 576 -1222 
C 602 -1164 781 -397 986 390 
C 1114 70 1350 -64 1600 -64 
C 2323 -64 3142 830 3142 1795 
C 3142 2478 2726 2816 2285 2816 
C 1722 2816 1037 2235 826 1385 
L 198 -1107 
z
M 1594 64 
C 1158 64 1050 569 1050 645 
C 1050 684 1210 1295 1229 1391 
C 1555 2670 2182 2670 2278 2670 
C 2566 2670 2726 2410 2726 2036 
C 2726 1712 2554 1084 2445 819 
C 2253 381 1920 64 1594 64 
z
" transform="scale(0.015625)"/>
       <path id="CMMI12-44" d="M 1005 472 
C 947 249 934 185 486 185 
C 365 185 301 185 301 70 
C 301 0 339 0 467 0 
L 2496 0 
C 3789 0 5050 1332 5050 2753 
C 5050 3671 4499 4352 3584 4352 
L 1530 4352 
C 1408 4352 1350 4352 1350 4231 
C 1350 4167 1408 4167 1504 4167 
C 1894 4167 1894 4116 1894 4046 
C 1894 4034 1894 3995 1869 3899 
L 1005 472 
z
M 2355 3931 
C 2413 4167 2438 4167 2688 4167 
L 3392 4167 
C 3994 4167 4544 3842 4544 2963 
C 4544 2644 4416 1536 3795 835 
C 3616 625 3130 185 2394 185 
L 1664 185 
C 1574 185 1562 185 1523 192 
C 1453 198 1446 211 1446 262 
C 1446 307 1459 345 1472 402 
L 2355 3931 
z
" transform="scale(0.015625)"/>
       <path id="CMR17-5b" d="M 1504 -1600 
L 1504 -1377 
L 902 -1377 
L 902 4544 
L 1504 4544 
L 1504 4767 
L 678 4767 
L 678 -1600 
L 1504 -1600 
z
" transform="scale(0.015625)"/>
       <path id="CMR17-17" d="M 2771 3955 
C 2771 4275 2515 4518 2214 4518 
C 1914 4518 1658 4275 1658 3955 
C 1658 3635 1914 3392 2214 3392 
C 2515 3392 2771 3635 2771 3955 
z
M 2214 3494 
C 1946 3494 1773 3660 1773 3956 
C 1773 4256 1952 4416 2214 4416 
C 2483 4416 2656 4250 2656 3956 
C 2656 3654 2477 3494 2214 3494 
z
" transform="scale(0.015625)"/>
       <path id="CMR17-41" d="M 2323 4378 
C 2291 4461 2278 4480 2214 4480 
C 2150 4480 2138 4461 2106 4378 
L 749 566 
C 627 223 371 153 147 153 
L 147 -13 
C 262 0 518 0 640 0 
C 800 0 1056 0 1210 -13 
L 1210 153 
C 909 153 864 361 864 439 
C 864 497 877 530 890 569 
L 1229 1536 
L 2906 1536 
L 3290 442 
C 3322 365 3322 352 3322 327 
C 3322 153 3046 153 2925 153 
L 2925 0 
C 3110 0 3443 0 3642 0 
C 3808 0 4128 0 4282 -13 
L 4282 153 
C 3942 153 3827 153 3744 387 
L 2323 4378 
z
M 2067 3893 
L 2848 1702 
L 1286 1702 
L 2067 3893 
z
" transform="scale(0.015625)"/>
       <path id="CMSY10-0" d="M 4218 1472 
C 4326 1472 4442 1472 4442 1600 
C 4442 1728 4326 1728 4218 1728 
L 755 1728 
C 646 1728 531 1728 531 1600 
C 531 1472 646 1472 755 1472 
L 4218 1472 
z
" transform="scale(0.015625)"/>
       <path id="CMR17-5d" d="M 915 4767 
L 90 4767 
L 90 4544 
L 691 4544 
L 691 -1377 
L 90 -1377 
L 90 -1600 
L 915 -1600 
L 915 4767 
z
" transform="scale(0.015625)"/>
      </defs>
      <use xlink:href="#CMMI12-1a" transform="scale(0.996264)"/>
      <use xlink:href="#CMR17-31" transform="translate(50.314373 -14.943915) scale(0.697382)"/>
      <use xlink:href="#CMMI12-44" transform="translate(82.297555 -14.943915) scale(0.697382)"/>
      <use xlink:href="#CMR17-5b" transform="translate(171.464157 0) scale(0.996264)"/>
      <use xlink:href="#CMR17-17" transform="translate(196.335215 17.618744) scale(0.996264)"/>
      <use xlink:href="#CMR17-41" transform="translate(196.335215 0) scale(0.996264)"/>
      <use xlink:href="#CMSY10-0" transform="translate(265.407645 36.153639) scale(0.697382)"/>
      <use xlink:href="#CMR17-31" transform="translate(319.648638 36.153639) scale(0.697382)"/>
      <use xlink:href="#CMR17-5d" transform="translate(352.129952 0) scale(0.996264)"/>
     </g>
    </g>
   </g>
   <g id="line2d_14">
    <path d="M 40.054045 125.212089 
L 47.565812 125.193266 
L 55.077579 125.105352 
L 60.085423 124.479854 
L 72.605035 123.203693 
L 85.124646 123.029147 
L 90.132491 122.881834 
L 97.644258 121.35589 
L 105.156024 101.124556 
L 115.171713 54.383478 
L 122.68348 32.113171 
L 130.195247 18.638372 
L 135.203092 14.429827 
L 140.210936 12.232848 
L 147.722703 15.995405 
L 155.23447 12.272026 
L 160.242314 15.593895 
L 165.250159 13.986704 
L 172.761926 12.640522 
L 177.76977 9.904759 
L 185.281537 6.305338 
L 190.289381 11.079624 
L 197.801148 11.144496 
L 202.808993 10.999506 
L 210.32076 11.137017 
L 215.328604 9.058698 
L 222.840371 10.790011 
L 230.352138 7.502914 
L 232.85606 8.908281 
L 234.108021 8.145938 
" clip-path="url(#p9e4ec00e74)" style="fill: none; stroke-dasharray: 0.5,0.825; stroke-dashoffset: 0; stroke: #d7414e; stroke-width: 0.5; stroke-linecap: round"/>
    <defs>
     <path id="m261b00b44d" d="M 0 1.75 
C 0.464105 1.75 0.909265 1.565609 1.237437 1.237437 
C 1.565609 0.909265 1.75 0.464105 1.75 0 
C 1.75 -0.464105 1.565609 -0.909265 1.237437 -1.237437 
C 0.909265 -1.565609 0.464105 -1.75 0 -1.75 
C -0.464105 -1.75 -0.909265 -1.565609 -1.237437 -1.237437 
C -1.565609 -0.909265 -1.75 -0.464105 -1.75 0 
C -1.75 0.464105 -1.565609 0.909265 -1.237437 1.237437 
C -0.909265 1.565609 -0.464105 1.75 0 1.75 
z
" style="stroke: #d7414e; stroke-width: 0.35"/>
    </defs>
    <g clip-path="url(#p9e4ec00e74)">
     <use xlink:href="#m261b00b44d" x="40.054045" y="125.212089" style="fill: #e27982; stroke: #d7414e; stroke-width: 0.35"/>
     <use xlink:href="#m261b00b44d" x="47.565812" y="125.193266" style="fill: #e27982; stroke: #d7414e; stroke-width: 0.35"/>
     <use xlink:href="#m261b00b44d" x="55.077579" y="125.105352" style="fill: #e27982; stroke: #d7414e; stroke-width: 0.35"/>
     <use xlink:href="#m261b00b44d" x="60.085423" y="124.479854" style="fill: #e27982; stroke: #d7414e; stroke-width: 0.35"/>
     <use xlink:href="#m261b00b44d" x="72.605035" y="123.203693" style="fill: #e27982; stroke: #d7414e; stroke-width: 0.35"/>
     <use xlink:href="#m261b00b44d" x="85.124646" y="123.029147" style="fill: #e27982; stroke: #d7414e; stroke-width: 0.35"/>
     <use xlink:href="#m261b00b44d" x="90.132491" y="122.881834" style="fill: #e27982; stroke: #d7414e; stroke-width: 0.35"/>
     <use xlink:href="#m261b00b44d" x="97.644258" y="121.35589" style="fill: #e27982; stroke: #d7414e; stroke-width: 0.35"/>
     <use xlink:href="#m261b00b44d" x="105.156024" y="101.124556" style="fill: #e27982; stroke: #d7414e; stroke-width: 0.35"/>
     <use xlink:href="#m261b00b44d" x="115.171713" y="54.383478" style="fill: #e27982; stroke: #d7414e; stroke-width: 0.35"/>
     <use xlink:href="#m261b00b44d" x="122.68348" y="32.113171" style="fill: #e27982; stroke: #d7414e; stroke-width: 0.35"/>
     <use xlink:href="#m261b00b44d" x="130.195247" y="18.638372" style="fill: #e27982; stroke: #d7414e; stroke-width: 0.35"/>
     <use xlink:href="#m261b00b44d" x="135.203092" y="14.429827" style="fill: #e27982; stroke: #d7414e; stroke-width: 0.35"/>
     <use xlink:href="#m261b00b44d" x="140.210936" y="12.232848" style="fill: #e27982; stroke: #d7414e; stroke-width: 0.35"/>
     <use xlink:href="#m261b00b44d" x="147.722703" y="15.995405" style="fill: #e27982; stroke: #d7414e; stroke-width: 0.35"/>
     <use xlink:href="#m261b00b44d" x="155.23447" y="12.272026" style="fill: #e27982; stroke: #d7414e; stroke-width: 0.35"/>
     <use xlink:href="#m261b00b44d" x="160.242314" y="15.593895" style="fill: #e27982; stroke: #d7414e; stroke-width: 0.35"/>
     <use xlink:href="#m261b00b44d" x="165.250159" y="13.986704" style="fill: #e27982; stroke: #d7414e; stroke-width: 0.35"/>
     <use xlink:href="#m261b00b44d" x="172.761926" y="12.640522" style="fill: #e27982; stroke: #d7414e; stroke-width: 0.35"/>
     <use xlink:href="#m261b00b44d" x="177.76977" y="9.904759" style="fill: #e27982; stroke: #d7414e; stroke-width: 0.35"/>
     <use xlink:href="#m261b00b44d" x="185.281537" y="6.305338" style="fill: #e27982; stroke: #d7414e; stroke-width: 0.35"/>
     <use xlink:href="#m261b00b44d" x="190.289381" y="11.079624" style="fill: #e27982; stroke: #d7414e; stroke-width: 0.35"/>
     <use xlink:href="#m261b00b44d" x="197.801148" y="11.144496" style="fill: #e27982; stroke: #d7414e; stroke-width: 0.35"/>
     <use xlink:href="#m261b00b44d" x="202.808993" y="10.999506" style="fill: #e27982; stroke: #d7414e; stroke-width: 0.35"/>
     <use xlink:href="#m261b00b44d" x="210.32076" y="11.137017" style="fill: #e27982; stroke: #d7414e; stroke-width: 0.35"/>
     <use xlink:href="#m261b00b44d" x="215.328604" y="9.058698" style="fill: #e27982; stroke: #d7414e; stroke-width: 0.35"/>
     <use xlink:href="#m261b00b44d" x="222.840371" y="10.790011" style="fill: #e27982; stroke: #d7414e; stroke-width: 0.35"/>
     <use xlink:href="#m261b00b44d" x="230.352138" y="7.502914" style="fill: #e27982; stroke: #d7414e; stroke-width: 0.35"/>
     <use xlink:href="#m261b00b44d" x="232.85606" y="8.908281" style="fill: #e27982; stroke: #d7414e; stroke-width: 0.35"/>
     <use xlink:href="#m261b00b44d" x="234.108021" y="8.145938" style="fill: #e27982; stroke: #d7414e; stroke-width: 0.35"/>
    </g>
   </g>
   <g id="line2d_15">
    <path d="M 40.054045 122.94831 
L 42.866422 122.683163 
L 45.678798 122.375463 
L 48.491175 122.02411 
L 51.303551 121.604947 
L 54.115928 121.127937 
L 55.522116 120.855082 
L 56.928304 120.561792 
L 58.334492 120.252115 
L 59.740681 119.918536 
L 61.146869 119.544942 
L 62.553057 119.12535 
L 63.959245 118.691356 
L 65.365433 118.192478 
L 66.771622 117.660044 
L 68.17781 117.070406 
L 69.583998 116.405736 
L 70.990186 115.673998 
L 72.396375 114.871462 
L 73.802563 113.875869 
L 75.208751 112.828656 
L 76.614939 111.602662 
L 78.021128 110.20804 
L 79.427316 108.618535 
L 80.833504 106.800511 
L 82.239692 104.644756 
L 83.64588 102.346228 
L 85.052069 99.651625 
L 86.458257 96.987235 
L 87.864445 94.01092 
L 89.270633 91.242084 
L 90.676822 88.340969 
L 92.08301 85.852 
L 93.489198 83.386317 
L 94.895386 81.532521 
L 96.301575 79.717003 
L 97.707763 78.01684 
L 99.113951 76.824959 
L 100.520139 75.716395 
L 101.926327 74.726216 
L 103.332516 73.911282 
L 104.738704 73.069474 
L 106.144892 72.405633 
L 107.55108 71.744155 
L 108.957269 71.183447 
L 110.363457 70.484702 
L 111.769645 70.13832 
L 113.175833 69.639554 
L 114.582022 69.11079 
L 115.98821 68.569259 
L 117.394398 67.910805 
L 118.800586 67.591355 
L 120.206774 66.985143 
L 121.612963 66.650503 
L 123.019151 66.231195 
L 124.425339 65.642861 
L 125.831527 65.441523 
L 127.237716 64.44195 
L 128.643904 63.982588 
L 130.050092 63.69452 
L 131.45628 62.932833 
L 132.862469 62.449005 
L 134.268657 62.393971 
L 135.674845 61.791666 
L 137.081033 60.630392 
L 138.487221 59.966864 
L 139.89341 59.648021 
L 141.299598 58.75727 
L 142.705786 58.544873 
L 144.111974 57.91759 
L 145.518163 57.012123 
L 146.924351 55.777295 
L 148.330539 54.811583 
L 149.736727 54.47506 
L 151.142916 53.839346 
L 152.549104 53.206923 
L 153.955292 52.438317 
L 155.36148 51.188769 
L 156.767669 50.913734 
L 158.173857 49.74876 
L 159.580045 48.570203 
L 160.986233 47.703346 
L 162.392421 47.054285 
L 163.79861 46.225729 
L 165.204798 45.203271 
L 166.610986 44.738132 
L 168.017174 43.718891 
L 169.423363 42.645287 
L 170.829551 42.237914 
L 172.235739 41.137615 
L 173.641927 39.64715 
L 175.048116 38.995394 
L 176.454304 38.070816 
L 177.860492 37.057942 
L 179.26668 35.35135 
L 180.672868 35.928652 
L 182.079057 34.660812 
L 183.485245 33.684656 
L 184.891433 32.261479 
L 186.297621 31.297506 
L 187.70381 29.472804 
L 189.109998 30.159999 
L 190.516186 29.363856 
L 191.922374 27.453856 
L 193.328563 27.127134 
L 196.140939 25.544607 
L 197.547127 25.639795 
L 198.953315 24.150131 
L 200.359504 23.631267 
L 201.765692 24.15655 
L 204.578068 22.755 
L 207.390445 23.047298 
L 210.202821 21.675555 
L 213.015198 21.629981 
L 215.827574 20.897141 
L 221.452327 20.20308 
L 224.264704 20.173777 
L 229.889457 20.037558 
L 234.108021 19.574065 
" clip-path="url(#p9e4ec00e74)" style="fill: none; stroke-dasharray: 0.5,0.825; stroke-dashoffset: 0; stroke: #5e4fa2; stroke-width: 0.5; stroke-linecap: round"/>
    <defs>
     <path id="m8fe18fa152" d="M 0 1.75 
C 0.464105 1.75 0.909265 1.565609 1.237437 1.237437 
C 1.565609 0.909265 1.75 0.464105 1.75 0 
C 1.75 -0.464105 1.565609 -0.909265 1.237437 -1.237437 
C 0.909265 -1.565609 0.464105 -1.75 0 -1.75 
C -0.464105 -1.75 -0.909265 -1.565609 -1.237437 -1.237437 
C -1.565609 -0.909265 -1.75 -0.464105 -1.75 0 
C -1.75 0.464105 -1.565609 0.909265 -1.237437 1.237437 
C -0.909265 1.565609 -0.464105 1.75 0 1.75 
z
" style="stroke: #5e4fa2; stroke-width: 0.35"/>
    </defs>
    <g clip-path="url(#p9e4ec00e74)">
     <use xlink:href="#m8fe18fa152" x="40.054045" y="122.94831" style="fill: #8e83bd; stroke: #5e4fa2; stroke-width: 0.35"/>
     <use xlink:href="#m8fe18fa152" x="42.866422" y="122.683163" style="fill: #8e83bd; stroke: #5e4fa2; stroke-width: 0.35"/>
     <use xlink:href="#m8fe18fa152" x="45.678798" y="122.375463" style="fill: #8e83bd; stroke: #5e4fa2; stroke-width: 0.35"/>
     <use xlink:href="#m8fe18fa152" x="48.491175" y="122.02411" style="fill: #8e83bd; stroke: #5e4fa2; stroke-width: 0.35"/>
     <use xlink:href="#m8fe18fa152" x="51.303551" y="121.604947" style="fill: #8e83bd; stroke: #5e4fa2; stroke-width: 0.35"/>
     <use xlink:href="#m8fe18fa152" x="54.115928" y="121.127937" style="fill: #8e83bd; stroke: #5e4fa2; stroke-width: 0.35"/>
     <use xlink:href="#m8fe18fa152" x="55.522116" y="120.855082" style="fill: #8e83bd; stroke: #5e4fa2; stroke-width: 0.35"/>
     <use xlink:href="#m8fe18fa152" x="56.928304" y="120.561792" style="fill: #8e83bd; stroke: #5e4fa2; stroke-width: 0.35"/>
     <use xlink:href="#m8fe18fa152" x="58.334492" y="120.252115" style="fill: #8e83bd; stroke: #5e4fa2; stroke-width: 0.35"/>
     <use xlink:href="#m8fe18fa152" x="59.740681" y="119.918536" style="fill: #8e83bd; stroke: #5e4fa2; stroke-width: 0.35"/>
     <use xlink:href="#m8fe18fa152" x="61.146869" y="119.544942" style="fill: #8e83bd; stroke: #5e4fa2; stroke-width: 0.35"/>
     <use xlink:href="#m8fe18fa152" x="62.553057" y="119.12535" style="fill: #8e83bd; stroke: #5e4fa2; stroke-width: 0.35"/>
     <use xlink:href="#m8fe18fa152" x="63.959245" y="118.691356" style="fill: #8e83bd; stroke: #5e4fa2; stroke-width: 0.35"/>
     <use xlink:href="#m8fe18fa152" x="65.365433" y="118.192478" style="fill: #8e83bd; stroke: #5e4fa2; stroke-width: 0.35"/>
     <use xlink:href="#m8fe18fa152" x="66.771622" y="117.660044" style="fill: #8e83bd; stroke: #5e4fa2; stroke-width: 0.35"/>
     <use xlink:href="#m8fe18fa152" x="68.17781" y="117.070406" style="fill: #8e83bd; stroke: #5e4fa2; stroke-width: 0.35"/>
     <use xlink:href="#m8fe18fa152" x="69.583998" y="116.405736" style="fill: #8e83bd; stroke: #5e4fa2; stroke-width: 0.35"/>
     <use xlink:href="#m8fe18fa152" x="70.990186" y="115.673998" style="fill: #8e83bd; stroke: #5e4fa2; stroke-width: 0.35"/>
     <use xlink:href="#m8fe18fa152" x="72.396375" y="114.871462" style="fill: #8e83bd; stroke: #5e4fa2; stroke-width: 0.35"/>
     <use xlink:href="#m8fe18fa152" x="73.802563" y="113.875869" style="fill: #8e83bd; stroke: #5e4fa2; stroke-width: 0.35"/>
     <use xlink:href="#m8fe18fa152" x="75.208751" y="112.828656" style="fill: #8e83bd; stroke: #5e4fa2; stroke-width: 0.35"/>
     <use xlink:href="#m8fe18fa152" x="76.614939" y="111.602662" style="fill: #8e83bd; stroke: #5e4fa2; stroke-width: 0.35"/>
     <use xlink:href="#m8fe18fa152" x="78.021128" y="110.20804" style="fill: #8e83bd; stroke: #5e4fa2; stroke-width: 0.35"/>
     <use xlink:href="#m8fe18fa152" x="79.427316" y="108.618535" style="fill: #8e83bd; stroke: #5e4fa2; stroke-width: 0.35"/>
     <use xlink:href="#m8fe18fa152" x="80.833504" y="106.800511" style="fill: #8e83bd; stroke: #5e4fa2; stroke-width: 0.35"/>
     <use xlink:href="#m8fe18fa152" x="82.239692" y="104.644756" style="fill: #8e83bd; stroke: #5e4fa2; stroke-width: 0.35"/>
     <use xlink:href="#m8fe18fa152" x="83.64588" y="102.346228" style="fill: #8e83bd; stroke: #5e4fa2; stroke-width: 0.35"/>
     <use xlink:href="#m8fe18fa152" x="85.052069" y="99.651625" style="fill: #8e83bd; stroke: #5e4fa2; stroke-width: 0.35"/>
     <use xlink:href="#m8fe18fa152" x="86.458257" y="96.987235" style="fill: #8e83bd; stroke: #5e4fa2; stroke-width: 0.35"/>
     <use xlink:href="#m8fe18fa152" x="87.864445" y="94.01092" style="fill: #8e83bd; stroke: #5e4fa2; stroke-width: 0.35"/>
     <use xlink:href="#m8fe18fa152" x="89.270633" y="91.242084" style="fill: #8e83bd; stroke: #5e4fa2; stroke-width: 0.35"/>
     <use xlink:href="#m8fe18fa152" x="90.676822" y="88.340969" style="fill: #8e83bd; stroke: #5e4fa2; stroke-width: 0.35"/>
     <use xlink:href="#m8fe18fa152" x="92.08301" y="85.852" style="fill: #8e83bd; stroke: #5e4fa2; stroke-width: 0.35"/>
     <use xlink:href="#m8fe18fa152" x="93.489198" y="83.386317" style="fill: #8e83bd; stroke: #5e4fa2; stroke-width: 0.35"/>
     <use xlink:href="#m8fe18fa152" x="94.895386" y="81.532521" style="fill: #8e83bd; stroke: #5e4fa2; stroke-width: 0.35"/>
     <use xlink:href="#m8fe18fa152" x="96.301575" y="79.717003" style="fill: #8e83bd; stroke: #5e4fa2; stroke-width: 0.35"/>
     <use xlink:href="#m8fe18fa152" x="97.707763" y="78.01684" style="fill: #8e83bd; stroke: #5e4fa2; stroke-width: 0.35"/>
     <use xlink:href="#m8fe18fa152" x="99.113951" y="76.824959" style="fill: #8e83bd; stroke: #5e4fa2; stroke-width: 0.35"/>
     <use xlink:href="#m8fe18fa152" x="100.520139" y="75.716395" style="fill: #8e83bd; stroke: #5e4fa2; stroke-width: 0.35"/>
     <use xlink:href="#m8fe18fa152" x="101.926327" y="74.726216" style="fill: #8e83bd; stroke: #5e4fa2; stroke-width: 0.35"/>
     <use xlink:href="#m8fe18fa152" x="103.332516" y="73.911282" style="fill: #8e83bd; stroke: #5e4fa2; stroke-width: 0.35"/>
     <use xlink:href="#m8fe18fa152" x="104.738704" y="73.069474" style="fill: #8e83bd; stroke: #5e4fa2; stroke-width: 0.35"/>
     <use xlink:href="#m8fe18fa152" x="106.144892" y="72.405633" style="fill: #8e83bd; stroke: #5e4fa2; stroke-width: 0.35"/>
     <use xlink:href="#m8fe18fa152" x="107.55108" y="71.744155" style="fill: #8e83bd; stroke: #5e4fa2; stroke-width: 0.35"/>
     <use xlink:href="#m8fe18fa152" x="108.957269" y="71.183447" style="fill: #8e83bd; stroke: #5e4fa2; stroke-width: 0.35"/>
     <use xlink:href="#m8fe18fa152" x="110.363457" y="70.484702" style="fill: #8e83bd; stroke: #5e4fa2; stroke-width: 0.35"/>
     <use xlink:href="#m8fe18fa152" x="111.769645" y="70.13832" style="fill: #8e83bd; stroke: #5e4fa2; stroke-width: 0.35"/>
     <use xlink:href="#m8fe18fa152" x="113.175833" y="69.639554" style="fill: #8e83bd; stroke: #5e4fa2; stroke-width: 0.35"/>
     <use xlink:href="#m8fe18fa152" x="114.582022" y="69.11079" style="fill: #8e83bd; stroke: #5e4fa2; stroke-width: 0.35"/>
     <use xlink:href="#m8fe18fa152" x="115.98821" y="68.569259" style="fill: #8e83bd; stroke: #5e4fa2; stroke-width: 0.35"/>
     <use xlink:href="#m8fe18fa152" x="117.394398" y="67.910805" style="fill: #8e83bd; stroke: #5e4fa2; stroke-width: 0.35"/>
     <use xlink:href="#m8fe18fa152" x="118.800586" y="67.591355" style="fill: #8e83bd; stroke: #5e4fa2; stroke-width: 0.35"/>
     <use xlink:href="#m8fe18fa152" x="120.206774" y="66.985143" style="fill: #8e83bd; stroke: #5e4fa2; stroke-width: 0.35"/>
     <use xlink:href="#m8fe18fa152" x="121.612963" y="66.650503" style="fill: #8e83bd; stroke: #5e4fa2; stroke-width: 0.35"/>
     <use xlink:href="#m8fe18fa152" x="123.019151" y="66.231195" style="fill: #8e83bd; stroke: #5e4fa2; stroke-width: 0.35"/>
     <use xlink:href="#m8fe18fa152" x="124.425339" y="65.642861" style="fill: #8e83bd; stroke: #5e4fa2; stroke-width: 0.35"/>
     <use xlink:href="#m8fe18fa152" x="125.831527" y="65.441523" style="fill: #8e83bd; stroke: #5e4fa2; stroke-width: 0.35"/>
     <use xlink:href="#m8fe18fa152" x="127.237716" y="64.44195" style="fill: #8e83bd; stroke: #5e4fa2; stroke-width: 0.35"/>
     <use xlink:href="#m8fe18fa152" x="128.643904" y="63.982588" style="fill: #8e83bd; stroke: #5e4fa2; stroke-width: 0.35"/>
     <use xlink:href="#m8fe18fa152" x="130.050092" y="63.69452" style="fill: #8e83bd; stroke: #5e4fa2; stroke-width: 0.35"/>
     <use xlink:href="#m8fe18fa152" x="131.45628" y="62.932833" style="fill: #8e83bd; stroke: #5e4fa2; stroke-width: 0.35"/>
     <use xlink:href="#m8fe18fa152" x="132.862469" y="62.449005" style="fill: #8e83bd; stroke: #5e4fa2; stroke-width: 0.35"/>
     <use xlink:href="#m8fe18fa152" x="134.268657" y="62.393971" style="fill: #8e83bd; stroke: #5e4fa2; stroke-width: 0.35"/>
     <use xlink:href="#m8fe18fa152" x="135.674845" y="61.791666" style="fill: #8e83bd; stroke: #5e4fa2; stroke-width: 0.35"/>
     <use xlink:href="#m8fe18fa152" x="137.081033" y="60.630392" style="fill: #8e83bd; stroke: #5e4fa2; stroke-width: 0.35"/>
     <use xlink:href="#m8fe18fa152" x="138.487221" y="59.966864" style="fill: #8e83bd; stroke: #5e4fa2; stroke-width: 0.35"/>
     <use xlink:href="#m8fe18fa152" x="139.89341" y="59.648021" style="fill: #8e83bd; stroke: #5e4fa2; stroke-width: 0.35"/>
     <use xlink:href="#m8fe18fa152" x="141.299598" y="58.75727" style="fill: #8e83bd; stroke: #5e4fa2; stroke-width: 0.35"/>
     <use xlink:href="#m8fe18fa152" x="142.705786" y="58.544873" style="fill: #8e83bd; stroke: #5e4fa2; stroke-width: 0.35"/>
     <use xlink:href="#m8fe18fa152" x="144.111974" y="57.91759" style="fill: #8e83bd; stroke: #5e4fa2; stroke-width: 0.35"/>
     <use xlink:href="#m8fe18fa152" x="145.518163" y="57.012123" style="fill: #8e83bd; stroke: #5e4fa2; stroke-width: 0.35"/>
     <use xlink:href="#m8fe18fa152" x="146.924351" y="55.777295" style="fill: #8e83bd; stroke: #5e4fa2; stroke-width: 0.35"/>
     <use xlink:href="#m8fe18fa152" x="148.330539" y="54.811583" style="fill: #8e83bd; stroke: #5e4fa2; stroke-width: 0.35"/>
     <use xlink:href="#m8fe18fa152" x="149.736727" y="54.47506" style="fill: #8e83bd; stroke: #5e4fa2; stroke-width: 0.35"/>
     <use xlink:href="#m8fe18fa152" x="151.142916" y="53.839346" style="fill: #8e83bd; stroke: #5e4fa2; stroke-width: 0.35"/>
     <use xlink:href="#m8fe18fa152" x="152.549104" y="53.206923" style="fill: #8e83bd; stroke: #5e4fa2; stroke-width: 0.35"/>
     <use xlink:href="#m8fe18fa152" x="153.955292" y="52.438317" style="fill: #8e83bd; stroke: #5e4fa2; stroke-width: 0.35"/>
     <use xlink:href="#m8fe18fa152" x="155.36148" y="51.188769" style="fill: #8e83bd; stroke: #5e4fa2; stroke-width: 0.35"/>
     <use xlink:href="#m8fe18fa152" x="156.767669" y="50.913734" style="fill: #8e83bd; stroke: #5e4fa2; stroke-width: 0.35"/>
     <use xlink:href="#m8fe18fa152" x="158.173857" y="49.74876" style="fill: #8e83bd; stroke: #5e4fa2; stroke-width: 0.35"/>
     <use xlink:href="#m8fe18fa152" x="159.580045" y="48.570203" style="fill: #8e83bd; stroke: #5e4fa2; stroke-width: 0.35"/>
     <use xlink:href="#m8fe18fa152" x="160.986233" y="47.703346" style="fill: #8e83bd; stroke: #5e4fa2; stroke-width: 0.35"/>
     <use xlink:href="#m8fe18fa152" x="162.392421" y="47.054285" style="fill: #8e83bd; stroke: #5e4fa2; stroke-width: 0.35"/>
     <use xlink:href="#m8fe18fa152" x="163.79861" y="46.225729" style="fill: #8e83bd; stroke: #5e4fa2; stroke-width: 0.35"/>
     <use xlink:href="#m8fe18fa152" x="165.204798" y="45.203271" style="fill: #8e83bd; stroke: #5e4fa2; stroke-width: 0.35"/>
     <use xlink:href="#m8fe18fa152" x="166.610986" y="44.738132" style="fill: #8e83bd; stroke: #5e4fa2; stroke-width: 0.35"/>
     <use xlink:href="#m8fe18fa152" x="168.017174" y="43.718891" style="fill: #8e83bd; stroke: #5e4fa2; stroke-width: 0.35"/>
     <use xlink:href="#m8fe18fa152" x="169.423363" y="42.645287" style="fill: #8e83bd; stroke: #5e4fa2; stroke-width: 0.35"/>
     <use xlink:href="#m8fe18fa152" x="170.829551" y="42.237914" style="fill: #8e83bd; stroke: #5e4fa2; stroke-width: 0.35"/>
     <use xlink:href="#m8fe18fa152" x="172.235739" y="41.137615" style="fill: #8e83bd; stroke: #5e4fa2; stroke-width: 0.35"/>
     <use xlink:href="#m8fe18fa152" x="173.641927" y="39.64715" style="fill: #8e83bd; stroke: #5e4fa2; stroke-width: 0.35"/>
     <use xlink:href="#m8fe18fa152" x="175.048116" y="38.995394" style="fill: #8e83bd; stroke: #5e4fa2; stroke-width: 0.35"/>
     <use xlink:href="#m8fe18fa152" x="176.454304" y="38.070816" style="fill: #8e83bd; stroke: #5e4fa2; stroke-width: 0.35"/>
     <use xlink:href="#m8fe18fa152" x="177.860492" y="37.057942" style="fill: #8e83bd; stroke: #5e4fa2; stroke-width: 0.35"/>
     <use xlink:href="#m8fe18fa152" x="179.26668" y="35.35135" style="fill: #8e83bd; stroke: #5e4fa2; stroke-width: 0.35"/>
     <use xlink:href="#m8fe18fa152" x="180.672868" y="35.928652" style="fill: #8e83bd; stroke: #5e4fa2; stroke-width: 0.35"/>
     <use xlink:href="#m8fe18fa152" x="182.079057" y="34.660812" style="fill: #8e83bd; stroke: #5e4fa2; stroke-width: 0.35"/>
     <use xlink:href="#m8fe18fa152" x="183.485245" y="33.684656" style="fill: #8e83bd; stroke: #5e4fa2; stroke-width: 0.35"/>
     <use xlink:href="#m8fe18fa152" x="184.891433" y="32.261479" style="fill: #8e83bd; stroke: #5e4fa2; stroke-width: 0.35"/>
     <use xlink:href="#m8fe18fa152" x="186.297621" y="31.297506" style="fill: #8e83bd; stroke: #5e4fa2; stroke-width: 0.35"/>
     <use xlink:href="#m8fe18fa152" x="187.70381" y="29.472804" style="fill: #8e83bd; stroke: #5e4fa2; stroke-width: 0.35"/>
     <use xlink:href="#m8fe18fa152" x="189.109998" y="30.159999" style="fill: #8e83bd; stroke: #5e4fa2; stroke-width: 0.35"/>
     <use xlink:href="#m8fe18fa152" x="190.516186" y="29.363856" style="fill: #8e83bd; stroke: #5e4fa2; stroke-width: 0.35"/>
     <use xlink:href="#m8fe18fa152" x="191.922374" y="27.453856" style="fill: #8e83bd; stroke: #5e4fa2; stroke-width: 0.35"/>
     <use xlink:href="#m8fe18fa152" x="193.328563" y="27.127134" style="fill: #8e83bd; stroke: #5e4fa2; stroke-width: 0.35"/>
     <use xlink:href="#m8fe18fa152" x="196.140939" y="25.544607" style="fill: #8e83bd; stroke: #5e4fa2; stroke-width: 0.35"/>
     <use xlink:href="#m8fe18fa152" x="197.547127" y="25.639795" style="fill: #8e83bd; stroke: #5e4fa2; stroke-width: 0.35"/>
     <use xlink:href="#m8fe18fa152" x="198.953315" y="24.150131" style="fill: #8e83bd; stroke: #5e4fa2; stroke-width: 0.35"/>
     <use xlink:href="#m8fe18fa152" x="200.359504" y="23.631267" style="fill: #8e83bd; stroke: #5e4fa2; stroke-width: 0.35"/>
     <use xlink:href="#m8fe18fa152" x="201.765692" y="24.15655" style="fill: #8e83bd; stroke: #5e4fa2; stroke-width: 0.35"/>
     <use xlink:href="#m8fe18fa152" x="204.578068" y="22.755" style="fill: #8e83bd; stroke: #5e4fa2; stroke-width: 0.35"/>
     <use xlink:href="#m8fe18fa152" x="207.390445" y="23.047298" style="fill: #8e83bd; stroke: #5e4fa2; stroke-width: 0.35"/>
     <use xlink:href="#m8fe18fa152" x="210.202821" y="21.675555" style="fill: #8e83bd; stroke: #5e4fa2; stroke-width: 0.35"/>
     <use xlink:href="#m8fe18fa152" x="213.015198" y="21.629981" style="fill: #8e83bd; stroke: #5e4fa2; stroke-width: 0.35"/>
     <use xlink:href="#m8fe18fa152" x="215.827574" y="20.897141" style="fill: #8e83bd; stroke: #5e4fa2; stroke-width: 0.35"/>
     <use xlink:href="#m8fe18fa152" x="221.452327" y="20.20308" style="fill: #8e83bd; stroke: #5e4fa2; stroke-width: 0.35"/>
     <use xlink:href="#m8fe18fa152" x="224.264704" y="20.173777" style="fill: #8e83bd; stroke: #5e4fa2; stroke-width: 0.35"/>
     <use xlink:href="#m8fe18fa152" x="229.889457" y="20.037558" style="fill: #8e83bd; stroke: #5e4fa2; stroke-width: 0.35"/>
     <use xlink:href="#m8fe18fa152" x="234.108021" y="19.574065" style="fill: #8e83bd; stroke: #5e4fa2; stroke-width: 0.35"/>
    </g>
   </g>
   <g id="patch_3">
    <path d="M 30.351347 131.157427 
L 30.351347 0.36 
" style="fill: none; stroke: #000000; stroke-width: 0.35; stroke-linejoin: miter; stroke-linecap: square"/>
   </g>
   <g id="patch_4">
    <path d="M 243.81072 131.157427 
L 243.81072 0.36 
" style="fill: none; stroke: #000000; stroke-width: 0.35; stroke-linejoin: miter; stroke-linecap: square"/>
   </g>
   <g id="patch_5">
    <path d="M 30.351347 131.157427 
L 243.81072 131.157427 
" style="fill: none; stroke: #000000; stroke-width: 0.35; stroke-linejoin: miter; stroke-linecap: square"/>
   </g>
   <g id="patch_6">
    <path d="M 30.351347 0.36 
L 243.81072 0.36 
" style="fill: none; stroke: #000000; stroke-width: 0.35; stroke-linejoin: miter; stroke-linecap: square"/>
   </g>
   <g id="text_9">
    <!-- (a) -->
    <g transform="translate(31.351347 9.36) scale(0.09 -0.09)">
     <defs>
      <path id="CMR17-28" d="M 1958 -1561 
C 1958 -1555 1958 -1542 1939 -1523 
C 1645 -1224 858 -407 858 1581 
C 858 3569 1632 4379 1946 4697 
C 1946 4704 1958 4717 1958 4736 
C 1958 4755 1939 4768 1914 4768 
C 1843 4768 1299 4296 986 3594 
C 666 2887 576 2199 576 1588 
C 576 1128 621 351 1005 -471 
C 1312 -1135 1837 -1600 1914 -1600 
C 1946 -1600 1958 -1587 1958 -1561 
z
" transform="scale(0.015625)"/>
      <path id="CMR17-61" d="M 2304 1653 
C 2304 2072 2304 2294 2035 2543 
C 1798 2752 1523 2816 1306 2816 
C 800 2816 435 2407 435 1971 
C 435 1728 627 1728 666 1728 
C 749 1728 896 1778 896 1954 
C 896 2112 774 2181 666 2181 
C 640 2181 608 2174 589 2168 
C 723 2592 1069 2714 1293 2714 
C 1613 2714 1965 2429 1965 1885 
L 1965 1600 
C 1587 1600 1133 1549 774 1357 
C 371 1133 256 813 256 570 
C 256 77 832 -64 1171 -64 
C 1523 -64 1850 139 1990 511 
C 2003 233 2182 -18 2464 -18 
C 2598 -18 2938 70 2938 567 
L 2938 920 
L 2822 920 
L 2822 562 
C 2822 178 2650 128 2566 128 
C 2304 128 2304 458 2304 738 
L 2304 1653 
z
M 1965 870 
C 1965 317 1568 38 1216 38 
C 896 38 646 275 646 570 
C 646 761 730 1100 1101 1305 
C 1408 1478 1760 1504 1965 1504 
L 1965 870 
z
" transform="scale(0.015625)"/>
      <path id="CMR17-29" d="M 1683 1581 
C 1683 2040 1638 2817 1254 3639 
C 947 4303 422 4768 346 4768 
C 326 4768 301 4761 301 4729 
C 301 4717 307 4710 314 4697 
C 621 4378 1402 3568 1402 1584 
C 1402 -407 627 -1217 314 -1537 
C 307 -1549 301 -1556 301 -1568 
C 301 -1600 326 -1600 346 -1600 
C 416 -1600 960 -1128 1274 -426 
C 1594 281 1683 969 1683 1581 
z
" transform="scale(0.015625)"/>
     </defs>
     <use xlink:href="#CMR17-28" transform="scale(0.996264)"/>
     <use xlink:href="#CMR17-61" transform="translate(35.280768 0) scale(0.996264)"/>
     <use xlink:href="#CMR17-29" transform="translate(80.971245 0) scale(0.996264)"/>
    </g>
   </g>
   <g id="legend_1">
    <g id="line2d_16">
     <path d="M 169.217033 108.457936 
L 173.217033 108.457936 
L 177.217033 108.457936 
" style="fill: none; stroke-dasharray: 0.5,0.825; stroke-dashoffset: 0; stroke: #d7414e; stroke-width: 0.5; stroke-linecap: round"/>
     <g>
      <use xlink:href="#m261b00b44d" x="173.217033" y="108.457936" style="fill: #e27982; stroke: #d7414e; stroke-width: 0.35"/>
     </g>
    </g>
    <g id="text_10">
     <!-- Ar: $R = 6.0\; \rm \AA$ -->
     <g transform="translate(183.617033 111.257936) scale(0.08 -0.08)">
      <defs>
       <path id="CMR17-72" d="M 960 1497 
C 960 2112 1222 2688 1702 2688 
C 1747 2688 1792 2682 1837 2662 
C 1837 2662 1696 2617 1696 2452 
C 1696 2298 1818 2234 1914 2234 
C 1990 2234 2131 2279 2131 2458 
C 2131 2663 1926 2790 1709 2790 
C 1222 2790 1011 2317 947 2093 
L 941 2093 
L 941 2790 
L 198 2720 
L 198 2554 
C 576 2554 634 2515 634 2208 
L 634 428 
C 634 184 608 153 198 153 
L 198 -13 
C 352 0 646 0 813 0 
C 998 0 1325 0 1498 -13 
L 1498 153 
C 1037 153 960 153 960 440 
L 960 1497 
z
" transform="scale(0.015625)"/>
       <path id="CMR17-3a" d="M 1062 2491 
C 1062 2650 934 2752 800 2752 
C 672 2752 538 2650 538 2491 
C 538 2332 666 2230 800 2230 
C 928 2230 1062 2332 1062 2491 
z
M 1062 261 
C 1062 420 934 522 800 522 
C 672 522 538 420 538 261 
C 538 102 666 0 800 0 
C 928 0 1062 102 1062 261 
z
" transform="scale(0.015625)"/>
       <path id="CMMI12-52" d="M 2355 3924 
C 2413 4160 2438 4160 2688 4160 
L 3149 4160 
C 3699 4160 4109 3995 4109 3499 
C 4109 3175 3942 2240 2656 2240 
L 1933 2240 
L 2355 3924 
z
M 3245 2169 
C 4038 2341 4659 2851 4659 3398 
C 4659 3894 4154 4352 3264 4352 
L 1530 4352 
C 1402 4352 1344 4352 1344 4226 
C 1344 4160 1389 4160 1510 4160 
C 1894 4160 1894 4112 1894 4045 
C 1894 4033 1894 3994 1869 3899 
L 1005 479 
C 947 256 934 192 493 192 
C 346 192 301 192 301 71 
C 301 7 371 7 390 7 
C 506 7 640 7 762 7 
L 1517 7 
C 1632 7 1766 7 1882 7 
C 1933 7 2003 7 2003 128 
C 2003 192 1946 192 1850 192 
C 1459 192 1459 243 1459 306 
C 1459 313 1459 357 1472 407 
L 1901 2112 
L 2669 2112 
C 3277 2112 3392 1731 3392 1522 
C 3392 1427 3328 1179 3283 1014 
C 3213 723 3194 652 3194 532 
C 3194 82 3565 -128 3994 -128 
C 4512 -128 4736 501 4736 591 
C 4736 635 4704 654 4666 654 
C 4614 654 4602 616 4589 565 
C 4435 114 4173 0 4013 0 
C 3853 0 3750 70 3750 356 
C 3750 509 3827 1088 3834 1120 
C 3866 1355 3866 1380 3866 1432 
C 3866 1896 3488 2093 3245 2169 
z
" transform="scale(0.015625)"/>
       <path id="CMR17-3d" d="M 4115 2017 
C 4211 2017 4307 2017 4307 2125 
C 4307 2240 4198 2240 4090 2240 
L 512 2240 
C 403 2240 294 2240 294 2125 
C 294 2017 390 2017 486 2017 
L 4115 2017 
z
M 4090 896 
C 4198 896 4307 896 4307 1011 
C 4307 1119 4211 1119 4115 1119 
L 486 1119 
C 390 1119 294 1119 294 1011 
C 294 896 403 896 512 896 
L 4090 896 
z
" transform="scale(0.015625)"/>
       <path id="CMR17-36" d="M 678 2176 
C 678 3690 1395 4032 1811 4032 
C 1946 4032 2272 4009 2400 3776 
C 2298 3776 2106 3776 2106 3553 
C 2106 3381 2246 3323 2336 3323 
C 2394 3323 2566 3348 2566 3560 
C 2566 3954 2246 4179 1805 4179 
C 1043 4179 243 3390 243 1984 
C 243 253 966 -128 1478 -128 
C 2099 -128 2688 427 2688 1283 
C 2688 2081 2170 2662 1517 2662 
C 1126 2662 838 2407 678 1960 
L 678 2176 
z
M 1478 25 
C 691 25 691 1200 691 1436 
C 691 1896 909 2560 1504 2560 
C 1613 2560 1926 2560 2138 2120 
C 2253 1870 2253 1609 2253 1289 
C 2253 944 2253 690 2118 434 
C 1978 171 1773 25 1478 25 
z
" transform="scale(0.015625)"/>
      </defs>
      <use xlink:href="#CMR17-41" transform="scale(0.996264)"/>
      <use xlink:href="#CMR17-72" transform="translate(69.07243 0) scale(0.996264)"/>
      <use xlink:href="#CMR17-3a" transform="translate(104.353198 0) scale(0.996264)"/>
      <use xlink:href="#CMMI12-52" transform="translate(169.709917 0) scale(0.996264)"/>
      <use xlink:href="#CMR17-3d" transform="translate(272.454887 0) scale(0.996264)"/>
      <use xlink:href="#CMR17-36" transform="translate(371.843684 0) scale(0.996264)"/>
      <use xlink:href="#CMMI12-3a" transform="translate(417.534161 0) scale(0.996264)"/>
      <use xlink:href="#CMR17-30" transform="translate(444.631339 0) scale(0.996264)"/>
      <use xlink:href="#CMR17-17" transform="translate(517.995824 17.618744) scale(0.996264)"/>
      <use xlink:href="#CMR17-41" transform="translate(517.995824 0) scale(0.996264)"/>
     </g>
    </g>
    <g id="line2d_17">
     <path d="M 169.217033 119.607681 
L 173.217033 119.607681 
L 177.217033 119.607681 
" style="fill: none; stroke-dasharray: 0.5,0.825; stroke-dashoffset: 0; stroke: #5e4fa2; stroke-width: 0.5; stroke-linecap: round"/>
     <g>
      <use xlink:href="#m8fe18fa152" x="173.217033" y="119.607681" style="fill: #8e83bd; stroke: #5e4fa2; stroke-width: 0.35"/>
     </g>
    </g>
    <g id="text_11">
     <!-- Cs: $R = 8.0\; \rm \AA$ -->
     <g transform="translate(183.617033 122.407681) scale(0.08 -0.08)">
      <defs>
       <path id="CMR17-43" d="M 3974 4289 
C 3974 4403 3968 4410 3930 4410 
C 3904 4410 3898 4403 3853 4327 
L 3571 3792 
C 3258 4187 2874 4416 2381 4416 
C 1286 4416 294 3456 294 2148 
C 294 826 1286 -128 2387 -128 
C 3366 -128 3974 730 3974 1461 
C 3974 1524 3974 1550 3917 1550 
C 3866 1550 3866 1531 3859 1474 
C 3808 585 3168 38 2477 38 
C 1824 38 781 495 781 2147 
C 781 3805 1843 4250 2464 4250 
C 3187 4250 3712 3628 3834 2745 
C 3846 2668 3846 2655 3904 2655 
C 3974 2655 3974 2668 3974 2783 
L 3974 4289 
z
" transform="scale(0.015625)"/>
       <path id="CMR17-73" d="M 1978 2697 
C 1978 2813 1971 2819 1933 2819 
C 1907 2819 1901 2813 1824 2717 
C 1805 2691 1747 2626 1728 2601 
C 1523 2819 1235 2819 1126 2819 
C 416 2819 160 2447 160 2076 
C 160 1498 813 1365 998 1325 
C 1402 1243 1542 1217 1677 1101 
C 1760 1025 1901 884 1901 654 
C 1901 384 1747 38 1158 38 
C 602 38 403 460 288 1021 
C 269 1110 269 1117 218 1117 
C 166 1117 160 1110 160 983 
L 160 63 
C 160 -51 166 -58 205 -58 
C 237 -58 243 -51 275 0 
C 314 57 410 211 448 276 
C 576 103 800 -64 1158 -64 
C 1792 -64 2131 283 2131 784 
C 2131 1112 1958 1285 1875 1362 
C 1683 1561 1459 1606 1190 1657 
C 838 1735 390 1825 390 2217 
C 390 2383 480 2737 1126 2737 
C 1811 2737 1850 2094 1862 1888 
C 1869 1856 1901 1849 1920 1849 
C 1978 1849 1978 1869 1978 1978 
L 1978 2697 
z
" transform="scale(0.015625)"/>
       <path id="CMR17-38" d="M 1741 2264 
C 2144 2467 2554 2773 2554 3263 
C 2554 3841 1990 4179 1472 4179 
C 890 4179 378 3759 378 3180 
C 378 3021 416 2747 666 2505 
C 730 2442 998 2251 1171 2130 
C 883 1983 211 1634 211 934 
C 211 279 838 -128 1459 -128 
C 2144 -128 2720 362 2720 1010 
C 2720 1590 2330 1857 2074 2029 
L 1741 2264 
z
M 902 2822 
C 851 2854 595 3051 595 3351 
C 595 3739 998 4032 1459 4032 
C 1965 4032 2336 3676 2336 3262 
C 2336 2669 1670 2331 1638 2331 
C 1632 2331 1626 2331 1574 2370 
L 902 2822 
z
M 2080 1519 
C 2176 1449 2483 1240 2483 851 
C 2483 381 2010 25 1472 25 
C 890 25 448 438 448 940 
C 448 1443 838 1862 1280 2060 
L 2080 1519 
z
" transform="scale(0.015625)"/>
      </defs>
      <use xlink:href="#CMR17-43" transform="scale(0.996264)"/>
      <use xlink:href="#CMR17-73" transform="translate(66.509881 0) scale(0.996264)"/>
      <use xlink:href="#CMR17-3a" transform="translate(102.311218 0) scale(0.996264)"/>
      <use xlink:href="#CMMI12-52" transform="translate(167.667937 0) scale(0.996264)"/>
      <use xlink:href="#CMR17-3d" transform="translate(270.412908 0) scale(0.996264)"/>
      <use xlink:href="#CMR17-38" transform="translate(369.801705 0) scale(0.996264)"/>
      <use xlink:href="#CMMI12-3a" transform="translate(415.492182 0) scale(0.996264)"/>
      <use xlink:href="#CMR17-30" transform="translate(442.589359 0) scale(0.996264)"/>
      <use xlink:href="#CMR17-17" transform="translate(515.953845 17.618744) scale(0.996264)"/>
      <use xlink:href="#CMR17-41" transform="translate(515.953845 0) scale(0.996264)"/>
     </g>
    </g>
   </g>
  </g>
  <g id="axes_2">
   <g id="patch_7">
    <path d="M 30.351347 204.55662 
L 243.81072 204.55662 
L 243.81072 139.157907 
L 30.351347 139.157907 
L 30.351347 204.55662 
z
" style="fill: none"/>
   </g>
   <g id="matplotlib.axis_3">
    <g id="xtick_7">
     <g id="line2d_18">
      <g>
       <use xlink:href="#m5e9b4629f2" x="40.054045" y="204.55662" style="stroke: #000000; stroke-width: 0.35"/>
      </g>
     </g>
     <g id="text_12">
      <!-- $\mathdefault{0.0}$ -->
      <g transform="translate(34.643701 214.091422) scale(0.08 -0.08)">
       <use xlink:href="#CMR17-30" transform="scale(0.996264)"/>
       <use xlink:href="#CMMI12-3a" transform="translate(45.690477 0) scale(0.996264)"/>
       <use xlink:href="#CMR17-30" transform="translate(72.787654 0) scale(0.996264)"/>
      </g>
     </g>
    </g>
    <g id="xtick_8">
     <g id="line2d_19">
      <g>
       <use xlink:href="#m5e9b4629f2" x="78.864841" y="204.55662" style="stroke: #000000; stroke-width: 0.35"/>
      </g>
     </g>
     <g id="text_13">
      <!-- $\mathdefault{0.2}$ -->
      <g transform="translate(73.454496 214.091422) scale(0.08 -0.08)">
       <use xlink:href="#CMR17-30" transform="scale(0.996264)"/>
       <use xlink:href="#CMMI12-3a" transform="translate(45.690477 0) scale(0.996264)"/>
       <use xlink:href="#CMR17-32" transform="translate(72.787654 0) scale(0.996264)"/>
      </g>
     </g>
    </g>
    <g id="xtick_9">
     <g id="line2d_20">
      <g>
       <use xlink:href="#m5e9b4629f2" x="117.675636" y="204.55662" style="stroke: #000000; stroke-width: 0.35"/>
      </g>
     </g>
     <g id="text_14">
      <!-- $\mathdefault{0.4}$ -->
      <g transform="translate(112.265291 214.091422) scale(0.08 -0.08)">
       <defs>
        <path id="CMR17-34" d="M 2150 4122 
C 2150 4256 2144 4256 2029 4256 
L 128 1254 
L 128 1088 
L 1779 1088 
L 1779 457 
C 1779 224 1766 160 1318 160 
L 1197 160 
L 1197 0 
C 1402 0 1747 0 1965 0 
C 2182 0 2528 0 2733 0 
L 2733 160 
L 2611 160 
C 2163 160 2150 224 2150 457 
L 2150 1088 
L 2803 1088 
L 2803 1254 
L 2150 1254 
L 2150 4122 
z
M 1798 3703 
L 1798 1254 
L 256 1254 
L 1798 3703 
z
" transform="scale(0.015625)"/>
       </defs>
       <use xlink:href="#CMR17-30" transform="scale(0.996264)"/>
       <use xlink:href="#CMMI12-3a" transform="translate(45.690477 0) scale(0.996264)"/>
       <use xlink:href="#CMR17-34" transform="translate(72.787654 0) scale(0.996264)"/>
      </g>
     </g>
    </g>
    <g id="xtick_10">
     <g id="line2d_21">
      <g>
       <use xlink:href="#m5e9b4629f2" x="156.486431" y="204.55662" style="stroke: #000000; stroke-width: 0.35"/>
      </g>
     </g>
     <g id="text_15">
      <!-- $\mathdefault{0.6}$ -->
      <g transform="translate(151.076086 214.091422) scale(0.08 -0.08)">
       <use xlink:href="#CMR17-30" transform="scale(0.996264)"/>
       <use xlink:href="#CMMI12-3a" transform="translate(45.690477 0) scale(0.996264)"/>
       <use xlink:href="#CMR17-36" transform="translate(72.787654 0) scale(0.996264)"/>
      </g>
     </g>
    </g>
    <g id="xtick_11">
     <g id="line2d_22">
      <g>
       <use xlink:href="#m5e9b4629f2" x="195.297226" y="204.55662" style="stroke: #000000; stroke-width: 0.35"/>
      </g>
     </g>
     <g id="text_16">
      <!-- $\mathdefault{0.8}$ -->
      <g transform="translate(189.886881 214.091422) scale(0.08 -0.08)">
       <use xlink:href="#CMR17-30" transform="scale(0.996264)"/>
       <use xlink:href="#CMMI12-3a" transform="translate(45.690477 0) scale(0.996264)"/>
       <use xlink:href="#CMR17-38" transform="translate(72.787654 0) scale(0.996264)"/>
      </g>
     </g>
    </g>
    <g id="xtick_12">
     <g id="line2d_23">
      <g>
       <use xlink:href="#m5e9b4629f2" x="234.108021" y="204.55662" style="stroke: #000000; stroke-width: 0.35"/>
      </g>
     </g>
     <g id="text_17">
      <!-- $\mathdefault{1.0}$ -->
      <g transform="translate(228.697676 214.091422) scale(0.08 -0.08)">
       <use xlink:href="#CMR17-31" transform="scale(0.996264)"/>
       <use xlink:href="#CMMI12-3a" transform="translate(45.690477 0) scale(0.996264)"/>
       <use xlink:href="#CMR17-30" transform="translate(72.787654 0) scale(0.996264)"/>
      </g>
     </g>
    </g>
    <g id="text_18">
     <!-- $(\mu - \mu_{\rm min})/(\mu_{\rm max}-\mu_{\rm min})$ -->
     <g transform="translate(88.231664 223.618752) scale(0.08 -0.08)">
      <defs>
       <path id="CMMI12-16" d="M 922 140 
C 1082 -6 1318 -64 1536 -64 
C 1946 -64 2227 208 2374 405 
C 2438 69 2707 -64 2931 -64 
C 3123 -64 3277 50 3392 277 
C 3494 493 3584 879 3584 903 
C 3584 935 3558 960 3520 960 
C 3462 960 3456 928 3430 834 
C 3334 461 3213 64 2950 64 
C 2765 64 2752 229 2752 358 
C 2752 504 2810 735 2854 926 
L 3034 1615 
C 3059 1737 3130 2023 3162 2139 
C 3200 2292 3270 2567 3270 2592 
C 3270 2688 3194 2752 3098 2752 
C 3040 2752 2906 2726 2854 2535 
L 2406 760 
C 2374 632 2374 619 2291 517 
C 2214 409 1965 64 1562 64 
C 1203 64 1088 326 1088 625 
C 1088 811 1146 1034 1171 1143 
L 1459 2293 
C 1491 2414 1542 2618 1542 2657 
C 1542 2759 1459 2816 1376 2816 
C 1318 2816 1178 2797 1126 2592 
L 198 -1107 
C 192 -1139 179 -1177 179 -1216 
C 179 -1312 256 -1376 352 -1376 
C 538 -1376 576 -1228 621 -1050 
L 922 140 
z
" transform="scale(0.015625)"/>
       <path id="CMR17-6d" d="M 4326 1933 
C 4326 2252 4269 2790 3507 2790 
C 3072 2790 2771 2496 2656 2151 
L 2650 2151 
C 2573 2676 2195 2790 1837 2790 
C 1331 2790 1069 2400 973 2144 
L 966 2144 
L 966 2790 
L 211 2720 
L 211 2554 
C 589 2554 646 2515 646 2208 
L 646 428 
C 646 184 621 153 211 153 
L 211 -13 
C 365 0 646 0 813 0 
C 979 0 1267 0 1421 -13 
L 1421 153 
C 1011 153 986 178 986 428 
L 986 1658 
C 986 2247 1344 2688 1792 2688 
C 2266 2688 2317 2266 2317 1958 
L 2317 428 
C 2317 184 2291 153 1882 153 
L 1882 -13 
C 2035 0 2317 0 2483 0 
C 2650 0 2938 0 3091 -13 
L 3091 153 
C 2682 153 2656 178 2656 428 
L 2656 1658 
C 2656 2247 3014 2688 3462 2688 
C 3936 2688 3987 2266 3987 1958 
L 3987 428 
C 3987 184 3962 153 3552 153 
L 3552 -13 
C 3706 0 3987 0 4154 0 
C 4320 0 4608 0 4762 -13 
L 4762 153 
C 4352 153 4326 178 4326 428 
L 4326 1933 
z
" transform="scale(0.015625)"/>
       <path id="CMR17-69" d="M 992 3909 
C 992 4049 877 4170 730 4170 
C 589 4170 467 4056 467 3909 
C 467 3769 582 3648 730 3648 
C 870 3648 992 3763 992 3909 
z
M 243 2706 
L 243 2541 
C 602 2541 653 2502 653 2197 
L 653 427 
C 653 184 627 153 218 153 
L 218 -13 
C 371 0 646 0 806 0 
C 960 0 1222 0 1370 -13 
L 1370 153 
C 992 153 979 191 979 420 
L 979 2776 
L 243 2706 
z
" transform="scale(0.015625)"/>
       <path id="CMR17-6e" d="M 2656 1933 
C 2656 2259 2592 2790 1837 2790 
C 1331 2790 1069 2400 973 2144 
L 966 2144 
L 966 2790 
L 211 2720 
L 211 2554 
C 589 2554 646 2515 646 2208 
L 646 428 
C 646 184 621 153 211 153 
L 211 -13 
C 365 0 646 0 813 0 
C 979 0 1267 0 1421 -13 
L 1421 153 
C 1011 153 986 178 986 428 
L 986 1658 
C 986 2247 1344 2688 1792 2688 
C 2266 2688 2317 2266 2317 1958 
L 2317 428 
C 2317 184 2291 153 1882 153 
L 1882 -13 
C 2035 0 2317 0 2483 0 
C 2650 0 2938 0 3091 -13 
L 3091 153 
C 2682 153 2656 178 2656 428 
L 2656 1933 
z
" transform="scale(0.015625)"/>
       <path id="CMMI12-3d" d="M 2746 4562 
C 2746 4569 2784 4666 2784 4678 
C 2784 4755 2720 4800 2669 4800 
C 2637 4800 2579 4800 2528 4659 
L 384 -1363 
C 384 -1370 346 -1465 346 -1478 
C 346 -1555 410 -1600 461 -1600 
C 499 -1600 557 -1593 602 -1459 
L 2746 4562 
z
" transform="scale(0.015625)"/>
       <path id="CMR17-78" d="M 1664 1477 
C 1856 1726 2074 2006 2253 2216 
C 2464 2458 2707 2560 2989 2560 
L 2989 2726 
C 2880 2726 2656 2726 2541 2726 
C 2368 2726 2170 2726 2022 2732 
L 2022 2566 
C 2112 2553 2163 2489 2163 2400 
C 2163 2285 2099 2215 2067 2171 
L 1594 1573 
L 1030 2306 
C 973 2376 973 2388 973 2420 
C 973 2497 1037 2560 1146 2560 
L 1146 2732 
C 992 2726 717 2726 557 2726 
C 384 2726 179 2726 38 2732 
L 38 2560 
C 384 2560 461 2534 614 2343 
L 1350 1395 
C 1363 1382 1395 1344 1395 1325 
C 1395 1299 838 619 768 530 
C 480 185 179 160 6 160 
L 6 0 
C 115 0 339 0 454 0 
C 582 0 864 0 979 -6 
L 979 160 
C 941 166 838 179 838 325 
C 838 440 890 510 947 586 
L 1478 1236 
L 2035 512 
C 2086 442 2163 346 2163 301 
C 2163 211 2086 160 1984 160 
L 1984 -6 
C 2138 0 2413 0 2573 0 
C 2746 0 2950 0 3091 -6 
L 3091 160 
C 2771 160 2675 172 2522 370 
L 1664 1477 
z
" transform="scale(0.015625)"/>
      </defs>
      <use xlink:href="#CMR17-28" transform="scale(0.996264)"/>
      <use xlink:href="#CMMI12-16" transform="translate(35.280768 0) scale(0.996264)"/>
      <use xlink:href="#CMSY10-0" transform="translate(116.111396 0) scale(0.996264)"/>
      <use xlink:href="#CMMI12-16" transform="translate(215.738071 0) scale(0.996264)"/>
      <use xlink:href="#CMR17-6d" transform="translate(274.429492 -14.943915) scale(0.697382)"/>
      <use xlink:href="#CMR17-69" transform="translate(328.272959 -14.943915) scale(0.697382)"/>
      <use xlink:href="#CMR17-6e" transform="translate(345.682618 -14.943915) scale(0.697382)"/>
      <use xlink:href="#CMR17-29" transform="translate(381.807358 0) scale(0.996264)"/>
      <use xlink:href="#CMMI12-3d" transform="translate(417.088126 0) scale(0.996264)"/>
      <use xlink:href="#CMR17-28" transform="translate(465.863045 0) scale(0.996264)"/>
      <use xlink:href="#CMMI12-16" transform="translate(501.143813 0) scale(0.996264)"/>
      <use xlink:href="#CMR17-6d" transform="translate(559.835234 -14.943915) scale(0.697382)"/>
      <use xlink:href="#CMR17-61" transform="translate(613.678701 -14.943915) scale(0.697382)"/>
      <use xlink:href="#CMR17-78" transform="translate(645.661883 -14.943915) scale(0.697382)"/>
      <use xlink:href="#CMSY10-0" transform="translate(702.104109 0) scale(0.996264)"/>
      <use xlink:href="#CMMI12-16" transform="translate(801.730784 0) scale(0.996264)"/>
      <use xlink:href="#CMR17-6d" transform="translate(860.422205 -14.943915) scale(0.697382)"/>
      <use xlink:href="#CMR17-69" transform="translate(914.265672 -14.943915) scale(0.697382)"/>
      <use xlink:href="#CMR17-6e" transform="translate(931.675331 -14.943915) scale(0.697382)"/>
      <use xlink:href="#CMR17-29" transform="translate(967.800071 0) scale(0.996264)"/>
     </g>
    </g>
   </g>
   <g id="matplotlib.axis_4">
    <g id="ytick_8">
     <g id="line2d_24">
      <g>
       <use xlink:href="#m76f938c708" x="30.351347" y="201.650103" style="stroke: #000000; stroke-width: 0.35"/>
      </g>
     </g>
     <g id="text_19">
      <!-- $\mathdefault{0.0}$ -->
      <g transform="translate(15.530657 204.417503) scale(0.08 -0.08)">
       <use xlink:href="#CMR17-30" transform="scale(0.996264)"/>
       <use xlink:href="#CMMI12-3a" transform="translate(45.690477 0) scale(0.996264)"/>
       <use xlink:href="#CMR17-30" transform="translate(72.787654 0) scale(0.996264)"/>
      </g>
     </g>
    </g>
    <g id="ytick_9">
     <g id="line2d_25">
      <g>
       <use xlink:href="#m76f938c708" x="30.351347" y="182.155008" style="stroke: #000000; stroke-width: 0.35"/>
      </g>
     </g>
     <g id="text_20">
      <!-- $\mathdefault{0.5}$ -->
      <g transform="translate(15.530657 184.922409) scale(0.08 -0.08)">
       <use xlink:href="#CMR17-30" transform="scale(0.996264)"/>
       <use xlink:href="#CMMI12-3a" transform="translate(45.690477 0) scale(0.996264)"/>
       <use xlink:href="#CMR17-35" transform="translate(72.787654 0) scale(0.996264)"/>
      </g>
     </g>
    </g>
    <g id="ytick_10">
     <g id="line2d_26">
      <g>
       <use xlink:href="#m76f938c708" x="30.351347" y="162.659913" style="stroke: #000000; stroke-width: 0.35"/>
      </g>
     </g>
     <g id="text_21">
      <!-- $\mathdefault{1.0}$ -->
      <g transform="translate(15.530657 165.427314) scale(0.08 -0.08)">
       <use xlink:href="#CMR17-31" transform="scale(0.996264)"/>
       <use xlink:href="#CMMI12-3a" transform="translate(45.690477 0) scale(0.996264)"/>
       <use xlink:href="#CMR17-30" transform="translate(72.787654 0) scale(0.996264)"/>
      </g>
     </g>
    </g>
    <g id="ytick_11">
     <g id="line2d_27">
      <g>
       <use xlink:href="#m76f938c708" x="30.351347" y="143.164818" style="stroke: #000000; stroke-width: 0.35"/>
      </g>
     </g>
     <g id="text_22">
      <!-- $\mathdefault{1.5}$ -->
      <g transform="translate(15.530657 145.932219) scale(0.08 -0.08)">
       <use xlink:href="#CMR17-31" transform="scale(0.996264)"/>
       <use xlink:href="#CMMI12-3a" transform="translate(45.690477 0) scale(0.996264)"/>
       <use xlink:href="#CMR17-35" transform="translate(72.787654 0) scale(0.996264)"/>
      </g>
     </g>
    </g>
    <g id="text_23">
     <!-- ${d\rho_{1D}} / {d \mu}\; [{\rm \AA^{-1} K^{-1}}]$ -->
     <g transform="translate(11.538129 208.099423) rotate(-90) scale(0.08 -0.08)">
      <defs>
       <path id="CMMI12-64" d="M 3219 4257 
C 3226 4282 3238 4320 3238 4352 
C 3238 4416 3174 4416 3162 4416 
C 3155 4416 2842 4388 2810 4380 
C 2701 4373 2605 4358 2490 4358 
C 2330 4345 2285 4339 2285 4224 
C 2285 4160 2336 4160 2426 4160 
C 2739 4160 2746 4103 2746 4040 
C 2746 4002 2733 3952 2726 3933 
L 2336 2395 
C 2266 2561 2093 2816 1760 2816 
C 1037 2816 256 1884 256 939 
C 256 307 627 -64 1062 -64 
C 1414 -64 1715 211 1894 422 
C 1958 45 2259 -64 2451 -64 
C 2643 -64 2797 51 2912 281 
C 3014 498 3104 888 3104 913 
C 3104 945 3078 971 3040 971 
C 2982 971 2976 939 2950 843 
C 2854 466 2733 64 2470 64 
C 2285 64 2272 229 2272 357 
C 2272 382 2272 515 2317 694 
L 3219 4257 
z
M 1926 760 
C 1894 651 1894 639 1805 517 
C 1664 338 1382 64 1082 64 
C 819 64 672 300 672 677 
C 672 1028 870 1743 992 2012 
C 1210 2459 1510 2689 1760 2689 
C 2182 2689 2266 2165 2266 2114 
C 2266 2108 2246 2024 2240 2012 
L 1926 760 
z
" transform="scale(0.015625)"/>
       <path id="CMR17-4b" d="M 2362 2675 
L 3469 3782 
C 3699 4006 3942 4186 4301 4186 
L 4301 4352 
C 4173 4352 4013 4352 3885 4352 
C 3712 4352 3411 4352 3245 4358 
L 3245 4192 
C 3411 4180 3437 4065 3437 4019 
C 3437 3975 3411 3905 3386 3867 
L 1261 1738 
L 1261 3900 
C 1261 4186 1331 4186 1773 4186 
L 1773 4352 
C 1587 4352 1248 4352 1050 4352 
C 851 4352 512 4352 326 4352 
L 326 4186 
C 768 4186 838 4186 838 3899 
L 838 446 
C 838 160 768 160 326 160 
L 326 0 
C 512 0 851 0 1050 0 
C 1248 0 1587 0 1773 0 
L 1773 160 
C 1331 160 1261 160 1261 447 
L 1261 1579 
L 2080 2390 
L 3290 537 
C 3328 473 3373 390 3373 326 
C 3373 160 3194 160 3110 160 
L 3110 0 
C 3315 0 3610 0 3821 0 
C 3974 0 4237 0 4384 -6 
L 4384 160 
C 4077 160 3981 198 3789 493 
L 2362 2675 
z
" transform="scale(0.015625)"/>
      </defs>
      <use xlink:href="#CMMI12-64" transform="scale(0.996264)"/>
      <use xlink:href="#CMMI12-1a" transform="translate(50.689097 0) scale(0.996264)"/>
      <use xlink:href="#CMR17-31" transform="translate(101.00347 -14.943915) scale(0.697382)"/>
      <use xlink:href="#CMMI12-44" transform="translate(132.986652 -14.943915) scale(0.697382)"/>
      <use xlink:href="#CMMI12-3d" transform="translate(192.077287 0) scale(0.996264)"/>
      <use xlink:href="#CMMI12-64" transform="translate(240.852206 0) scale(0.996264)"/>
      <use xlink:href="#CMMI12-16" transform="translate(291.541303 0) scale(0.996264)"/>
      <use xlink:href="#CMR17-5b" transform="translate(377.906733 0) scale(0.996264)"/>
      <use xlink:href="#CMR17-17" transform="translate(402.777791 17.618744) scale(0.996264)"/>
      <use xlink:href="#CMR17-41" transform="translate(402.777791 0) scale(0.996264)"/>
      <use xlink:href="#CMSY10-0" transform="translate(471.850221 36.153639) scale(0.697382)"/>
      <use xlink:href="#CMR17-31" transform="translate(526.091214 36.153639) scale(0.697382)"/>
      <use xlink:href="#CMR17-4b" transform="translate(558.572528 0) scale(0.996264)"/>
      <use xlink:href="#CMSY10-0" transform="translate(630.247306 36.153639) scale(0.697382)"/>
      <use xlink:href="#CMR17-31" transform="translate(684.488299 36.153639) scale(0.697382)"/>
      <use xlink:href="#CMR17-5d" transform="translate(716.969613 0) scale(0.996264)"/>
     </g>
    </g>
   </g>
   <g id="line2d_28">
    <path d="M 40.054045 201.482712 
L 47.565812 201.239643 
L 55.077579 200.054922 
L 60.085423 199.750594 
L 72.605035 200.633241 
L 85.124646 196.424686 
L 90.132491 189.281834 
L 97.644258 165.032257 
L 105.156024 147.531605 
L 115.171713 142.130576 
L 122.68348 152.381596 
L 130.195247 171.990414 
L 135.203092 185.286196 
L 140.210936 197.07856 
L 147.722703 201.583952 
L 155.23447 201.33082 
L 160.242314 200.958205 
L 165.250159 198.894326 
L 172.761926 195.301263 
L 177.76977 195.881664 
L 185.281537 200.668104 
L 190.289381 198.704832 
L 197.801148 200.421248 
L 202.808993 201.557066 
L 210.32076 200.015906 
L 215.328604 199.866983 
L 222.840371 200.103494 
L 230.352138 199.336193 
L 232.85606 199.827209 
L 234.108021 200.163657 
" clip-path="url(#pb2a02e3813)" style="fill: none; stroke-dasharray: 0.5,0.825; stroke-dashoffset: 0; stroke: #d7414e; stroke-width: 0.5; stroke-linecap: round"/>
    <g clip-path="url(#pb2a02e3813)">
     <use xlink:href="#m261b00b44d" x="40.054045" y="201.482712" style="fill: #e27982; stroke: #d7414e; stroke-width: 0.35"/>
     <use xlink:href="#m261b00b44d" x="47.565812" y="201.239643" style="fill: #e27982; stroke: #d7414e; stroke-width: 0.35"/>
     <use xlink:href="#m261b00b44d" x="55.077579" y="200.054922" style="fill: #e27982; stroke: #d7414e; stroke-width: 0.35"/>
     <use xlink:href="#m261b00b44d" x="60.085423" y="199.750594" style="fill: #e27982; stroke: #d7414e; stroke-width: 0.35"/>
     <use xlink:href="#m261b00b44d" x="72.605035" y="200.633241" style="fill: #e27982; stroke: #d7414e; stroke-width: 0.35"/>
     <use xlink:href="#m261b00b44d" x="85.124646" y="196.424686" style="fill: #e27982; stroke: #d7414e; stroke-width: 0.35"/>
     <use xlink:href="#m261b00b44d" x="90.132491" y="189.281834" style="fill: #e27982; stroke: #d7414e; stroke-width: 0.35"/>
     <use xlink:href="#m261b00b44d" x="97.644258" y="165.032257" style="fill: #e27982; stroke: #d7414e; stroke-width: 0.35"/>
     <use xlink:href="#m261b00b44d" x="105.156024" y="147.531605" style="fill: #e27982; stroke: #d7414e; stroke-width: 0.35"/>
     <use xlink:href="#m261b00b44d" x="115.171713" y="142.130576" style="fill: #e27982; stroke: #d7414e; stroke-width: 0.35"/>
     <use xlink:href="#m261b00b44d" x="122.68348" y="152.381596" style="fill: #e27982; stroke: #d7414e; stroke-width: 0.35"/>
     <use xlink:href="#m261b00b44d" x="130.195247" y="171.990414" style="fill: #e27982; stroke: #d7414e; stroke-width: 0.35"/>
     <use xlink:href="#m261b00b44d" x="135.203092" y="185.286196" style="fill: #e27982; stroke: #d7414e; stroke-width: 0.35"/>
     <use xlink:href="#m261b00b44d" x="140.210936" y="197.07856" style="fill: #e27982; stroke: #d7414e; stroke-width: 0.35"/>
     <use xlink:href="#m261b00b44d" x="147.722703" y="201.583952" style="fill: #e27982; stroke: #d7414e; stroke-width: 0.35"/>
     <use xlink:href="#m261b00b44d" x="155.23447" y="201.33082" style="fill: #e27982; stroke: #d7414e; stroke-width: 0.35"/>
     <use xlink:href="#m261b00b44d" x="160.242314" y="200.958205" style="fill: #e27982; stroke: #d7414e; stroke-width: 0.35"/>
     <use xlink:href="#m261b00b44d" x="165.250159" y="198.894326" style="fill: #e27982; stroke: #d7414e; stroke-width: 0.35"/>
     <use xlink:href="#m261b00b44d" x="172.761926" y="195.301263" style="fill: #e27982; stroke: #d7414e; stroke-width: 0.35"/>
     <use xlink:href="#m261b00b44d" x="177.76977" y="195.881664" style="fill: #e27982; stroke: #d7414e; stroke-width: 0.35"/>
     <use xlink:href="#m261b00b44d" x="185.281537" y="200.668104" style="fill: #e27982; stroke: #d7414e; stroke-width: 0.35"/>
     <use xlink:href="#m261b00b44d" x="190.289381" y="198.704832" style="fill: #e27982; stroke: #d7414e; stroke-width: 0.35"/>
     <use xlink:href="#m261b00b44d" x="197.801148" y="200.421248" style="fill: #e27982; stroke: #d7414e; stroke-width: 0.35"/>
     <use xlink:href="#m261b00b44d" x="202.808993" y="201.557066" style="fill: #e27982; stroke: #d7414e; stroke-width: 0.35"/>
     <use xlink:href="#m261b00b44d" x="210.32076" y="200.015906" style="fill: #e27982; stroke: #d7414e; stroke-width: 0.35"/>
     <use xlink:href="#m261b00b44d" x="215.328604" y="199.866983" style="fill: #e27982; stroke: #d7414e; stroke-width: 0.35"/>
     <use xlink:href="#m261b00b44d" x="222.840371" y="200.103494" style="fill: #e27982; stroke: #d7414e; stroke-width: 0.35"/>
     <use xlink:href="#m261b00b44d" x="230.352138" y="199.336193" style="fill: #e27982; stroke: #d7414e; stroke-width: 0.35"/>
     <use xlink:href="#m261b00b44d" x="232.85606" y="199.827209" style="fill: #e27982; stroke: #d7414e; stroke-width: 0.35"/>
     <use xlink:href="#m261b00b44d" x="234.108021" y="200.163657" style="fill: #e27982; stroke: #d7414e; stroke-width: 0.35"/>
    </g>
   </g>
   <g id="line2d_29">
    <path d="M 40.054045 200.408166 
L 42.866422 200.03941 
L 45.678798 199.463539 
L 48.491175 199.108413 
L 51.303551 198.981013 
L 54.115928 197.750864 
L 55.522116 197.34238 
L 56.928304 197.499826 
L 58.334492 197.266573 
L 59.740681 196.859015 
L 61.146869 196.380466 
L 62.553057 195.888357 
L 63.959245 195.349087 
L 65.365433 194.733762 
L 66.771622 194.031043 
L 68.17781 193.204286 
L 69.583998 192.248008 
L 70.990186 191.075303 
L 72.396375 189.600736 
L 73.802563 187.954697 
L 75.208751 186.135057 
L 76.614939 183.977139 
L 78.021128 181.445904 
L 79.427316 178.484529 
L 80.833504 175.158136 
L 82.239692 171.777756 
L 83.64588 168.643239 
L 85.052069 166.109189 
L 86.458257 164.420254 
L 87.864445 163.772362 
L 89.270633 164.321358 
L 90.676822 166.099659 
L 92.08301 169.010616 
L 93.489198 172.64568 
L 94.895386 176.070926 
L 96.301575 179.009326 
L 97.707763 182.220085 
L 99.113951 185.325052 
L 100.520139 187.587958 
L 101.926327 189.232803 
L 103.332516 190.509486 
L 104.738704 191.595165 
L 106.144892 192.544781 
L 107.55108 193.19489 
L 108.957269 193.746581 
L 110.363457 194.55853 
L 111.769645 195.11536 
L 113.175833 194.919025 
L 114.582022 194.459415 
L 115.98821 194.36226 
L 117.394398 194.809343 
L 118.800586 195.29623 
L 120.206774 195.63405 
L 121.612963 195.789465 
L 123.019151 195.60825 
L 124.425339 195.107691 
L 125.831527 194.105726 
L 127.237716 193.859828 
L 128.643904 194.660578 
L 130.050092 194.834347 
L 131.45628 195.140127 
L 132.862469 196.02964 
L 134.268657 194.988854 
L 135.674845 192.288772 
L 137.081033 191.59672 
L 138.487221 193.023223 
L 139.89341 193.973102 
L 141.299598 194.349439 
L 142.705786 193.824734 
L 144.111974 191.452531 
L 145.518163 189.040538 
L 146.924351 189.218533 
L 148.330539 191.704832 
L 149.736727 193.456774 
L 151.142916 193.099588 
L 152.549104 191.590699 
L 153.955292 190.433723 
L 155.36148 190.51553 
L 156.767669 189.973223 
L 158.173857 188.531317 
L 159.580045 188.769533 
L 160.986233 190.281787 
L 162.392421 190.849225 
L 163.79861 190.68569 
L 165.204798 190.884782 
L 166.610986 190.582278 
L 168.017174 190.032178 
L 169.423363 190.271527 
L 170.829551 189.395436 
L 172.235739 187.581217 
L 173.641927 187.79714 
L 175.048116 188.823934 
L 176.454304 188.225358 
L 177.860492 188.457113 
L 179.26668 191.470485 
L 180.672868 192.353302 
L 182.079057 189.206749 
L 183.485245 186.403282 
L 184.891433 185.611221 
L 186.297621 187.427719 
L 187.70381 191.929985 
L 189.109998 193.180183 
L 190.516186 189.383796 
L 191.922374 187.534748 
L 193.328563 190.607944 
L 196.140939 192.927116 
L 197.547127 191.472985 
L 198.953315 193.08514 
L 200.359504 196.006571 
L 201.765692 197.691435 
L 204.578068 198.285127 
L 207.390445 197.838542 
L 210.202821 197.768123 
L 213.015198 197.959281 
L 215.827574 198.674352 
L 221.452327 199.875771 
L 224.264704 200.173839 
L 229.889457 200.842737 
L 234.108021 200.770368 
" clip-path="url(#pb2a02e3813)" style="fill: none; stroke-dasharray: 0.5,0.825; stroke-dashoffset: 0; stroke: #5e4fa2; stroke-width: 0.5; stroke-linecap: round"/>
    <g clip-path="url(#pb2a02e3813)">
     <use xlink:href="#m8fe18fa152" x="40.054045" y="200.408166" style="fill: #8e83bd; stroke: #5e4fa2; stroke-width: 0.35"/>
     <use xlink:href="#m8fe18fa152" x="42.866422" y="200.03941" style="fill: #8e83bd; stroke: #5e4fa2; stroke-width: 0.35"/>
     <use xlink:href="#m8fe18fa152" x="45.678798" y="199.463539" style="fill: #8e83bd; stroke: #5e4fa2; stroke-width: 0.35"/>
     <use xlink:href="#m8fe18fa152" x="48.491175" y="199.108413" style="fill: #8e83bd; stroke: #5e4fa2; stroke-width: 0.35"/>
     <use xlink:href="#m8fe18fa152" x="51.303551" y="198.981013" style="fill: #8e83bd; stroke: #5e4fa2; stroke-width: 0.35"/>
     <use xlink:href="#m8fe18fa152" x="54.115928" y="197.750864" style="fill: #8e83bd; stroke: #5e4fa2; stroke-width: 0.35"/>
     <use xlink:href="#m8fe18fa152" x="55.522116" y="197.34238" style="fill: #8e83bd; stroke: #5e4fa2; stroke-width: 0.35"/>
     <use xlink:href="#m8fe18fa152" x="56.928304" y="197.499826" style="fill: #8e83bd; stroke: #5e4fa2; stroke-width: 0.35"/>
     <use xlink:href="#m8fe18fa152" x="58.334492" y="197.266573" style="fill: #8e83bd; stroke: #5e4fa2; stroke-width: 0.35"/>
     <use xlink:href="#m8fe18fa152" x="59.740681" y="196.859015" style="fill: #8e83bd; stroke: #5e4fa2; stroke-width: 0.35"/>
     <use xlink:href="#m8fe18fa152" x="61.146869" y="196.380466" style="fill: #8e83bd; stroke: #5e4fa2; stroke-width: 0.35"/>
     <use xlink:href="#m8fe18fa152" x="62.553057" y="195.888357" style="fill: #8e83bd; stroke: #5e4fa2; stroke-width: 0.35"/>
     <use xlink:href="#m8fe18fa152" x="63.959245" y="195.349087" style="fill: #8e83bd; stroke: #5e4fa2; stroke-width: 0.35"/>
     <use xlink:href="#m8fe18fa152" x="65.365433" y="194.733762" style="fill: #8e83bd; stroke: #5e4fa2; stroke-width: 0.35"/>
     <use xlink:href="#m8fe18fa152" x="66.771622" y="194.031043" style="fill: #8e83bd; stroke: #5e4fa2; stroke-width: 0.35"/>
     <use xlink:href="#m8fe18fa152" x="68.17781" y="193.204286" style="fill: #8e83bd; stroke: #5e4fa2; stroke-width: 0.35"/>
     <use xlink:href="#m8fe18fa152" x="69.583998" y="192.248008" style="fill: #8e83bd; stroke: #5e4fa2; stroke-width: 0.35"/>
     <use xlink:href="#m8fe18fa152" x="70.990186" y="191.075303" style="fill: #8e83bd; stroke: #5e4fa2; stroke-width: 0.35"/>
     <use xlink:href="#m8fe18fa152" x="72.396375" y="189.600736" style="fill: #8e83bd; stroke: #5e4fa2; stroke-width: 0.35"/>
     <use xlink:href="#m8fe18fa152" x="73.802563" y="187.954697" style="fill: #8e83bd; stroke: #5e4fa2; stroke-width: 0.35"/>
     <use xlink:href="#m8fe18fa152" x="75.208751" y="186.135057" style="fill: #8e83bd; stroke: #5e4fa2; stroke-width: 0.35"/>
     <use xlink:href="#m8fe18fa152" x="76.614939" y="183.977139" style="fill: #8e83bd; stroke: #5e4fa2; stroke-width: 0.35"/>
     <use xlink:href="#m8fe18fa152" x="78.021128" y="181.445904" style="fill: #8e83bd; stroke: #5e4fa2; stroke-width: 0.35"/>
     <use xlink:href="#m8fe18fa152" x="79.427316" y="178.484529" style="fill: #8e83bd; stroke: #5e4fa2; stroke-width: 0.35"/>
     <use xlink:href="#m8fe18fa152" x="80.833504" y="175.158136" style="fill: #8e83bd; stroke: #5e4fa2; stroke-width: 0.35"/>
     <use xlink:href="#m8fe18fa152" x="82.239692" y="171.777756" style="fill: #8e83bd; stroke: #5e4fa2; stroke-width: 0.35"/>
     <use xlink:href="#m8fe18fa152" x="83.64588" y="168.643239" style="fill: #8e83bd; stroke: #5e4fa2; stroke-width: 0.35"/>
     <use xlink:href="#m8fe18fa152" x="85.052069" y="166.109189" style="fill: #8e83bd; stroke: #5e4fa2; stroke-width: 0.35"/>
     <use xlink:href="#m8fe18fa152" x="86.458257" y="164.420254" style="fill: #8e83bd; stroke: #5e4fa2; stroke-width: 0.35"/>
     <use xlink:href="#m8fe18fa152" x="87.864445" y="163.772362" style="fill: #8e83bd; stroke: #5e4fa2; stroke-width: 0.35"/>
     <use xlink:href="#m8fe18fa152" x="89.270633" y="164.321358" style="fill: #8e83bd; stroke: #5e4fa2; stroke-width: 0.35"/>
     <use xlink:href="#m8fe18fa152" x="90.676822" y="166.099659" style="fill: #8e83bd; stroke: #5e4fa2; stroke-width: 0.35"/>
     <use xlink:href="#m8fe18fa152" x="92.08301" y="169.010616" style="fill: #8e83bd; stroke: #5e4fa2; stroke-width: 0.35"/>
     <use xlink:href="#m8fe18fa152" x="93.489198" y="172.64568" style="fill: #8e83bd; stroke: #5e4fa2; stroke-width: 0.35"/>
     <use xlink:href="#m8fe18fa152" x="94.895386" y="176.070926" style="fill: #8e83bd; stroke: #5e4fa2; stroke-width: 0.35"/>
     <use xlink:href="#m8fe18fa152" x="96.301575" y="179.009326" style="fill: #8e83bd; stroke: #5e4fa2; stroke-width: 0.35"/>
     <use xlink:href="#m8fe18fa152" x="97.707763" y="182.220085" style="fill: #8e83bd; stroke: #5e4fa2; stroke-width: 0.35"/>
     <use xlink:href="#m8fe18fa152" x="99.113951" y="185.325052" style="fill: #8e83bd; stroke: #5e4fa2; stroke-width: 0.35"/>
     <use xlink:href="#m8fe18fa152" x="100.520139" y="187.587958" style="fill: #8e83bd; stroke: #5e4fa2; stroke-width: 0.35"/>
     <use xlink:href="#m8fe18fa152" x="101.926327" y="189.232803" style="fill: #8e83bd; stroke: #5e4fa2; stroke-width: 0.35"/>
     <use xlink:href="#m8fe18fa152" x="103.332516" y="190.509486" style="fill: #8e83bd; stroke: #5e4fa2; stroke-width: 0.35"/>
     <use xlink:href="#m8fe18fa152" x="104.738704" y="191.595165" style="fill: #8e83bd; stroke: #5e4fa2; stroke-width: 0.35"/>
     <use xlink:href="#m8fe18fa152" x="106.144892" y="192.544781" style="fill: #8e83bd; stroke: #5e4fa2; stroke-width: 0.35"/>
     <use xlink:href="#m8fe18fa152" x="107.55108" y="193.19489" style="fill: #8e83bd; stroke: #5e4fa2; stroke-width: 0.35"/>
     <use xlink:href="#m8fe18fa152" x="108.957269" y="193.746581" style="fill: #8e83bd; stroke: #5e4fa2; stroke-width: 0.35"/>
     <use xlink:href="#m8fe18fa152" x="110.363457" y="194.55853" style="fill: #8e83bd; stroke: #5e4fa2; stroke-width: 0.35"/>
     <use xlink:href="#m8fe18fa152" x="111.769645" y="195.11536" style="fill: #8e83bd; stroke: #5e4fa2; stroke-width: 0.35"/>
     <use xlink:href="#m8fe18fa152" x="113.175833" y="194.919025" style="fill: #8e83bd; stroke: #5e4fa2; stroke-width: 0.35"/>
     <use xlink:href="#m8fe18fa152" x="114.582022" y="194.459415" style="fill: #8e83bd; stroke: #5e4fa2; stroke-width: 0.35"/>
     <use xlink:href="#m8fe18fa152" x="115.98821" y="194.36226" style="fill: #8e83bd; stroke: #5e4fa2; stroke-width: 0.35"/>
     <use xlink:href="#m8fe18fa152" x="117.394398" y="194.809343" style="fill: #8e83bd; stroke: #5e4fa2; stroke-width: 0.35"/>
     <use xlink:href="#m8fe18fa152" x="118.800586" y="195.29623" style="fill: #8e83bd; stroke: #5e4fa2; stroke-width: 0.35"/>
     <use xlink:href="#m8fe18fa152" x="120.206774" y="195.63405" style="fill: #8e83bd; stroke: #5e4fa2; stroke-width: 0.35"/>
     <use xlink:href="#m8fe18fa152" x="121.612963" y="195.789465" style="fill: #8e83bd; stroke: #5e4fa2; stroke-width: 0.35"/>
     <use xlink:href="#m8fe18fa152" x="123.019151" y="195.60825" style="fill: #8e83bd; stroke: #5e4fa2; stroke-width: 0.35"/>
     <use xlink:href="#m8fe18fa152" x="124.425339" y="195.107691" style="fill: #8e83bd; stroke: #5e4fa2; stroke-width: 0.35"/>
     <use xlink:href="#m8fe18fa152" x="125.831527" y="194.105726" style="fill: #8e83bd; stroke: #5e4fa2; stroke-width: 0.35"/>
     <use xlink:href="#m8fe18fa152" x="127.237716" y="193.859828" style="fill: #8e83bd; stroke: #5e4fa2; stroke-width: 0.35"/>
     <use xlink:href="#m8fe18fa152" x="128.643904" y="194.660578" style="fill: #8e83bd; stroke: #5e4fa2; stroke-width: 0.35"/>
     <use xlink:href="#m8fe18fa152" x="130.050092" y="194.834347" style="fill: #8e83bd; stroke: #5e4fa2; stroke-width: 0.35"/>
     <use xlink:href="#m8fe18fa152" x="131.45628" y="195.140127" style="fill: #8e83bd; stroke: #5e4fa2; stroke-width: 0.35"/>
     <use xlink:href="#m8fe18fa152" x="132.862469" y="196.02964" style="fill: #8e83bd; stroke: #5e4fa2; stroke-width: 0.35"/>
     <use xlink:href="#m8fe18fa152" x="134.268657" y="194.988854" style="fill: #8e83bd; stroke: #5e4fa2; stroke-width: 0.35"/>
     <use xlink:href="#m8fe18fa152" x="135.674845" y="192.288772" style="fill: #8e83bd; stroke: #5e4fa2; stroke-width: 0.35"/>
     <use xlink:href="#m8fe18fa152" x="137.081033" y="191.59672" style="fill: #8e83bd; stroke: #5e4fa2; stroke-width: 0.35"/>
     <use xlink:href="#m8fe18fa152" x="138.487221" y="193.023223" style="fill: #8e83bd; stroke: #5e4fa2; stroke-width: 0.35"/>
     <use xlink:href="#m8fe18fa152" x="139.89341" y="193.973102" style="fill: #8e83bd; stroke: #5e4fa2; stroke-width: 0.35"/>
     <use xlink:href="#m8fe18fa152" x="141.299598" y="194.349439" style="fill: #8e83bd; stroke: #5e4fa2; stroke-width: 0.35"/>
     <use xlink:href="#m8fe18fa152" x="142.705786" y="193.824734" style="fill: #8e83bd; stroke: #5e4fa2; stroke-width: 0.35"/>
     <use xlink:href="#m8fe18fa152" x="144.111974" y="191.452531" style="fill: #8e83bd; stroke: #5e4fa2; stroke-width: 0.35"/>
     <use xlink:href="#m8fe18fa152" x="145.518163" y="189.040538" style="fill: #8e83bd; stroke: #5e4fa2; stroke-width: 0.35"/>
     <use xlink:href="#m8fe18fa152" x="146.924351" y="189.218533" style="fill: #8e83bd; stroke: #5e4fa2; stroke-width: 0.35"/>
     <use xlink:href="#m8fe18fa152" x="148.330539" y="191.704832" style="fill: #8e83bd; stroke: #5e4fa2; stroke-width: 0.35"/>
     <use xlink:href="#m8fe18fa152" x="149.736727" y="193.456774" style="fill: #8e83bd; stroke: #5e4fa2; stroke-width: 0.35"/>
     <use xlink:href="#m8fe18fa152" x="151.142916" y="193.099588" style="fill: #8e83bd; stroke: #5e4fa2; stroke-width: 0.35"/>
     <use xlink:href="#m8fe18fa152" x="152.549104" y="191.590699" style="fill: #8e83bd; stroke: #5e4fa2; stroke-width: 0.35"/>
     <use xlink:href="#m8fe18fa152" x="153.955292" y="190.433723" style="fill: #8e83bd; stroke: #5e4fa2; stroke-width: 0.35"/>
     <use xlink:href="#m8fe18fa152" x="155.36148" y="190.51553" style="fill: #8e83bd; stroke: #5e4fa2; stroke-width: 0.35"/>
     <use xlink:href="#m8fe18fa152" x="156.767669" y="189.973223" style="fill: #8e83bd; stroke: #5e4fa2; stroke-width: 0.35"/>
     <use xlink:href="#m8fe18fa152" x="158.173857" y="188.531317" style="fill: #8e83bd; stroke: #5e4fa2; stroke-width: 0.35"/>
     <use xlink:href="#m8fe18fa152" x="159.580045" y="188.769533" style="fill: #8e83bd; stroke: #5e4fa2; stroke-width: 0.35"/>
     <use xlink:href="#m8fe18fa152" x="160.986233" y="190.281787" style="fill: #8e83bd; stroke: #5e4fa2; stroke-width: 0.35"/>
     <use xlink:href="#m8fe18fa152" x="162.392421" y="190.849225" style="fill: #8e83bd; stroke: #5e4fa2; stroke-width: 0.35"/>
     <use xlink:href="#m8fe18fa152" x="163.79861" y="190.68569" style="fill: #8e83bd; stroke: #5e4fa2; stroke-width: 0.35"/>
     <use xlink:href="#m8fe18fa152" x="165.204798" y="190.884782" style="fill: #8e83bd; stroke: #5e4fa2; stroke-width: 0.35"/>
     <use xlink:href="#m8fe18fa152" x="166.610986" y="190.582278" style="fill: #8e83bd; stroke: #5e4fa2; stroke-width: 0.35"/>
     <use xlink:href="#m8fe18fa152" x="168.017174" y="190.032178" style="fill: #8e83bd; stroke: #5e4fa2; stroke-width: 0.35"/>
     <use xlink:href="#m8fe18fa152" x="169.423363" y="190.271527" style="fill: #8e83bd; stroke: #5e4fa2; stroke-width: 0.35"/>
     <use xlink:href="#m8fe18fa152" x="170.829551" y="189.395436" style="fill: #8e83bd; stroke: #5e4fa2; stroke-width: 0.35"/>
     <use xlink:href="#m8fe18fa152" x="172.235739" y="187.581217" style="fill: #8e83bd; stroke: #5e4fa2; stroke-width: 0.35"/>
     <use xlink:href="#m8fe18fa152" x="173.641927" y="187.79714" style="fill: #8e83bd; stroke: #5e4fa2; stroke-width: 0.35"/>
     <use xlink:href="#m8fe18fa152" x="175.048116" y="188.823934" style="fill: #8e83bd; stroke: #5e4fa2; stroke-width: 0.35"/>
     <use xlink:href="#m8fe18fa152" x="176.454304" y="188.225358" style="fill: #8e83bd; stroke: #5e4fa2; stroke-width: 0.35"/>
     <use xlink:href="#m8fe18fa152" x="177.860492" y="188.457113" style="fill: #8e83bd; stroke: #5e4fa2; stroke-width: 0.35"/>
     <use xlink:href="#m8fe18fa152" x="179.26668" y="191.470485" style="fill: #8e83bd; stroke: #5e4fa2; stroke-width: 0.35"/>
     <use xlink:href="#m8fe18fa152" x="180.672868" y="192.353302" style="fill: #8e83bd; stroke: #5e4fa2; stroke-width: 0.35"/>
     <use xlink:href="#m8fe18fa152" x="182.079057" y="189.206749" style="fill: #8e83bd; stroke: #5e4fa2; stroke-width: 0.35"/>
     <use xlink:href="#m8fe18fa152" x="183.485245" y="186.403282" style="fill: #8e83bd; stroke: #5e4fa2; stroke-width: 0.35"/>
     <use xlink:href="#m8fe18fa152" x="184.891433" y="185.611221" style="fill: #8e83bd; stroke: #5e4fa2; stroke-width: 0.35"/>
     <use xlink:href="#m8fe18fa152" x="186.297621" y="187.427719" style="fill: #8e83bd; stroke: #5e4fa2; stroke-width: 0.35"/>
     <use xlink:href="#m8fe18fa152" x="187.70381" y="191.929985" style="fill: #8e83bd; stroke: #5e4fa2; stroke-width: 0.35"/>
     <use xlink:href="#m8fe18fa152" x="189.109998" y="193.180183" style="fill: #8e83bd; stroke: #5e4fa2; stroke-width: 0.35"/>
     <use xlink:href="#m8fe18fa152" x="190.516186" y="189.383796" style="fill: #8e83bd; stroke: #5e4fa2; stroke-width: 0.35"/>
     <use xlink:href="#m8fe18fa152" x="191.922374" y="187.534748" style="fill: #8e83bd; stroke: #5e4fa2; stroke-width: 0.35"/>
     <use xlink:href="#m8fe18fa152" x="193.328563" y="190.607944" style="fill: #8e83bd; stroke: #5e4fa2; stroke-width: 0.35"/>
     <use xlink:href="#m8fe18fa152" x="196.140939" y="192.927116" style="fill: #8e83bd; stroke: #5e4fa2; stroke-width: 0.35"/>
     <use xlink:href="#m8fe18fa152" x="197.547127" y="191.472985" style="fill: #8e83bd; stroke: #5e4fa2; stroke-width: 0.35"/>
     <use xlink:href="#m8fe18fa152" x="198.953315" y="193.08514" style="fill: #8e83bd; stroke: #5e4fa2; stroke-width: 0.35"/>
     <use xlink:href="#m8fe18fa152" x="200.359504" y="196.006571" style="fill: #8e83bd; stroke: #5e4fa2; stroke-width: 0.35"/>
     <use xlink:href="#m8fe18fa152" x="201.765692" y="197.691435" style="fill: #8e83bd; stroke: #5e4fa2; stroke-width: 0.35"/>
     <use xlink:href="#m8fe18fa152" x="204.578068" y="198.285127" style="fill: #8e83bd; stroke: #5e4fa2; stroke-width: 0.35"/>
     <use xlink:href="#m8fe18fa152" x="207.390445" y="197.838542" style="fill: #8e83bd; stroke: #5e4fa2; stroke-width: 0.35"/>
     <use xlink:href="#m8fe18fa152" x="210.202821" y="197.768123" style="fill: #8e83bd; stroke: #5e4fa2; stroke-width: 0.35"/>
     <use xlink:href="#m8fe18fa152" x="213.015198" y="197.959281" style="fill: #8e83bd; stroke: #5e4fa2; stroke-width: 0.35"/>
     <use xlink:href="#m8fe18fa152" x="215.827574" y="198.674352" style="fill: #8e83bd; stroke: #5e4fa2; stroke-width: 0.35"/>
     <use xlink:href="#m8fe18fa152" x="221.452327" y="199.875771" style="fill: #8e83bd; stroke: #5e4fa2; stroke-width: 0.35"/>
     <use xlink:href="#m8fe18fa152" x="224.264704" y="200.173839" style="fill: #8e83bd; stroke: #5e4fa2; stroke-width: 0.35"/>
     <use xlink:href="#m8fe18fa152" x="229.889457" y="200.842737" style="fill: #8e83bd; stroke: #5e4fa2; stroke-width: 0.35"/>
     <use xlink:href="#m8fe18fa152" x="234.108021" y="200.770368" style="fill: #8e83bd; stroke: #5e4fa2; stroke-width: 0.35"/>
    </g>
   </g>
   <g id="patch_8">
    <path d="M 30.351347 204.55662 
L 30.351347 139.157907 
" style="fill: none; stroke: #000000; stroke-width: 0.35; stroke-linejoin: miter; stroke-linecap: square"/>
   </g>
   <g id="patch_9">
    <path d="M 243.81072 204.55662 
L 243.81072 139.157907 
" style="fill: none; stroke: #000000; stroke-width: 0.35; stroke-linejoin: miter; stroke-linecap: square"/>
   </g>
   <g id="patch_10">
    <path d="M 30.351347 204.55662 
L 243.81072 204.55662 
" style="fill: none; stroke: #000000; stroke-width: 0.35; stroke-linejoin: miter; stroke-linecap: square"/>
   </g>
   <g id="patch_11">
    <path d="M 30.351347 139.157907 
L 243.81072 139.157907 
" style="fill: none; stroke: #000000; stroke-width: 0.35; stroke-linejoin: miter; stroke-linecap: square"/>
   </g>
   <g id="text_24">
    <!-- (b) -->
    <g transform="translate(31.351347 148.157907) scale(0.09 -0.09)">
     <defs>
      <path id="CMR17-62" d="M 960 4396 
L 198 4326 
L 198 4160 
C 576 4160 634 4122 634 3817 
L 634 -13 
L 749 -13 
L 934 441 
C 1120 141 1395 -64 1766 -64 
C 2406 -64 3053 500 3053 1370 
C 3053 2188 2477 2790 1830 2790 
C 1434 2790 1152 2579 960 2330 
L 960 4396 
z
M 973 2004 
C 973 2118 973 2138 1062 2272 
C 1312 2657 1670 2688 1792 2688 
C 1984 2688 2643 2585 2643 1376 
C 2643 108 1888 38 1734 38 
C 1536 38 1248 114 1043 486 
C 973 608 973 621 973 735 
L 973 2004 
z
" transform="scale(0.015625)"/>
     </defs>
     <use xlink:href="#CMR17-28" transform="scale(0.996264)"/>
     <use xlink:href="#CMR17-62" transform="translate(35.280768 0) scale(0.996264)"/>
     <use xlink:href="#CMR17-29" transform="translate(86.176138 0) scale(0.996264)"/>
    </g>
   </g>
  </g>
 </g>
 <defs>
  <clipPath id="p9e4ec00e74">
   <rect x="30.351347" y="0.36" width="213.459373" height="130.797427"/>
  </clipPath>
  <clipPath id="pb2a02e3813">
   <rect x="30.351347" y="139.157907" width="213.459373" height="65.398713"/>
  </clipPath>
 </defs>
</svg>
