<?xml version="1.0" encoding="utf-8" standalone="no"?>
<!DOCTYPE svg PUBLIC "-//W3C//DTD SVG 1.1//EN"
  "http://www.w3.org/Graphics/SVG/1.1/DTD/svg11.dtd">
<svg xmlns:xlink="http://www.w3.org/1999/xlink" width="493.459192pt" height="141.557079pt" viewBox="0 0 493.459192 141.557079" xmlns="http://www.w3.org/2000/svg" version="1.1">
 <metadata>
  <rdf:RDF xmlns:dc="http://purl.org/dc/elements/1.1/" xmlns:cc="http://creativecommons.org/ns#" xmlns:rdf="http://www.w3.org/1999/02/22-rdf-syntax-ns#">
   <cc:Work>
    <dc:type rdf:resource="http://purl.org/dc/dcmitype/StillImage"/>
    <dc:date>2025-09-12T14:48:03.778235</dc:date>
    <dc:format>image/svg+xml</dc:format>
    <dc:creator>
     <cc:Agent>
      <dc:title>Matplotlib v3.10.1, https://matplotlib.org/</dc:title>
     </cc:Agent>
    </dc:creator>
   </cc:Work>
  </rdf:RDF>
 </metadata>
 <defs>
  <style type="text/css">*{stroke-linejoin: round; stroke-linecap: butt}</style>
 </defs>
 <g id="figure_1">
  <g id="patch_1">
   <path d="M 0 141.557079 
L 493.459192 141.557079 
L 493.459192 0 
L 0 0 
L 0 141.557079 
z
" style="fill: none"/>
  </g>
  <g id="patch_2">
   <path d="M 0.36 139.362263 
L 139.362263 139.362263 
L 139.362263 0.36 
L 0.36 0.36 
L 0.36 139.362263 
z
" style="fill: none"/>
  </g>
  <g id="pane3d_1">
   <g id="patch_3">
    <path d="M 10.855629 105.088759 
L 56.758716 66.611882 
L 56.120619 11.121346 
L 8.020833 46.222379 
" style="fill: #f2f2f2; opacity: 0.5; stroke: #f2f2f2; stroke-linejoin: miter"/>
   </g>
  </g>
  <g id="pane3d_2">
   <g id="patch_4">
    <path d="M 56.758716 66.611882 
L 130.416792 88.021377 
L 133.045389 30.619533 
L 56.120619 11.121346 
" style="fill: #e6e6e6; opacity: 0.5; stroke: #e6e6e6; stroke-linejoin: miter"/>
   </g>
  </g>
  <g id="pane3d_3">
   <g id="patch_5">
    <path d="M 10.855629 105.088759 
L 88.936788 130.590066 
L 130.416792 88.021377 
L 56.758716 66.611882 
" style="fill: #ececec; opacity: 0.5; stroke: #ececec; stroke-linejoin: miter"/>
   </g>
  </g>
  <g id="grid3d_1">
   <g id="Line3DCollection_1">
    <path d="M 11.523236 105.3068 
L 57.391267 66.795739 
L 56.779842 11.28844 
" style="fill: none; stroke: #b0b0b0; stroke-width: 0.8"/>
    <path d="M 28.41667 110.824195 
L 73.381732 71.443536 
L 73.452495 15.514471 
" style="fill: none; stroke: #b0b0b0; stroke-width: 0.8"/>
    <path d="M 45.710476 116.472352 
L 89.719517 76.192285 
L 90.503067 19.836294 
" style="fill: none; stroke: #b0b0b0; stroke-width: 0.8"/>
    <path d="M 63.419056 122.255975 
L 106.416062 81.045312 
L 107.944554 24.257203 
" style="fill: none; stroke: #b0b0b0; stroke-width: 0.8"/>
    <path d="M 81.557515 128.179995 
L 123.483315 86.006088 
L 125.790557 28.780644 
" style="fill: none; stroke: #b0b0b0; stroke-width: 0.8"/>
   </g>
  </g>
  <g id="grid3d_2">
   <g id="Line3DCollection_2">
    <path d="M 8.020833 46.222379 
L 10.855629 105.088759 
L 88.936788 130.590066 
" style="fill: none; stroke: #b0b0b0; stroke-width: 0.8"/>
    <path d="M 20.866507 36.848191 
L 23.080559 94.841581 
L 100.01958 119.216394 
" style="fill: none; stroke: #b0b0b0; stroke-width: 0.8"/>
    <path d="M 33.140688 27.891054 
L 34.784776 85.030874 
L 110.605891 108.352235 
" style="fill: none; stroke: #b0b0b0; stroke-width: 0.8"/>
    <path d="M 44.880682 19.323741 
L 46.000858 75.629332 
L 120.728351 97.964101 
" style="fill: none; stroke: #b0b0b0; stroke-width: 0.8"/>
    <path d="M 56.120619 11.121346 
L 56.758716 66.611882 
L 130.416792 88.021377 
" style="fill: none; stroke: #b0b0b0; stroke-width: 0.8"/>
   </g>
  </g>
  <g id="grid3d_3">
   <g id="Line3DCollection_3">
    <path d="M 130.416792 88.021377 
L 56.758716 66.611882 
L 10.855629 105.088759 
" style="fill: none; stroke: #b0b0b0; stroke-width: 0.8"/>
    <path d="M 130.924323 76.938207 
L 56.635302 55.879485 
L 10.30903 93.738273 
" style="fill: none; stroke: #b0b0b0; stroke-width: 0.8"/>
    <path d="M 131.44071 65.661636 
L 56.509838 44.96879 
L 9.752528 82.182136 
" style="fill: none; stroke: #b0b0b0; stroke-width: 0.8"/>
    <path d="M 131.966187 54.186557 
L 56.382272 33.875316 
L 9.18585 70.41471 
" style="fill: none; stroke: #b0b0b0; stroke-width: 0.8"/>
    <path d="M 132.500996 42.507682 
L 56.252551 22.594431 
L 8.608716 58.430147 
" style="fill: none; stroke: #b0b0b0; stroke-width: 0.8"/>
    <path d="M 133.045389 30.619533 
L 56.120619 11.121346 
L 8.020833 46.222379 
" style="fill: none; stroke: #b0b0b0; stroke-width: 0.8"/>
   </g>
  </g>
  <g id="axis3d_1">
   <g id="line2d_1">
    <path d="M 10.855629 105.088759 
L 88.936788 130.590066 
" style="fill: none; stroke: #000000; stroke-width: 0.35; stroke-linecap: round"/>
   </g>
   <g id="xtick_1">
    <g id="line2d_2">
     <path d="M 11.922561 104.971524 
L 10.722877 105.978786 
" style="fill: none; stroke: #000000; stroke-width: 0.35; stroke-linecap: round"/>
    </g>
    <g id="text_1">
     <!-- $\mathdefault{0.0}$ -->
     <g transform="translate(4.150449 114.918478) scale(0.08 -0.08)">
      <defs>
       <path id="CMR17-30" d="M 2688 2025 
C 2688 2416 2682 3080 2413 3591 
C 2176 4039 1798 4198 1466 4198 
C 1158 4198 768 4058 525 3597 
C 269 3118 243 2524 243 2025 
C 243 1661 250 1106 448 619 
C 723 -39 1216 -128 1466 -128 
C 1760 -128 2208 -7 2470 600 
C 2662 1042 2688 1559 2688 2025 
z
M 1466 -26 
C 1056 -26 813 325 723 812 
C 653 1188 653 1738 653 2096 
C 653 2588 653 2997 736 3387 
C 858 3929 1216 4096 1466 4096 
C 1728 4096 2067 3923 2189 3400 
C 2272 3036 2278 2607 2278 2096 
C 2278 1680 2278 1169 2202 792 
C 2067 95 1690 -26 1466 -26 
z
" transform="scale(0.015625)"/>
       <path id="CMMI12-3a" d="M 1178 307 
C 1178 492 1024 619 870 619 
C 685 619 557 466 557 313 
C 557 128 710 0 864 0 
C 1050 0 1178 153 1178 307 
z
" transform="scale(0.015625)"/>
      </defs>
      <use xlink:href="#CMR17-30" transform="scale(0.996264)"/>
      <use xlink:href="#CMMI12-3a" transform="translate(45.690477 0) scale(0.996264)"/>
      <use xlink:href="#CMR17-30" transform="translate(72.787654 0) scale(0.996264)"/>
     </g>
    </g>
   </g>
   <g id="xtick_2">
    <g id="line2d_3">
     <path d="M 28.808505 110.481024 
L 27.631303 111.512024 
" style="fill: none; stroke: #000000; stroke-width: 0.35; stroke-linecap: round"/>
    </g>
    <g id="text_2">
     <!-- $\mathdefault{2.5}$ -->
     <g transform="translate(21.05244 120.494022) scale(0.08 -0.08)">
      <defs>
       <path id="CMR17-32" d="M 2669 989 
L 2554 989 
C 2490 536 2438 459 2413 420 
C 2381 369 1920 369 1830 369 
L 602 369 
C 832 619 1280 1072 1824 1597 
C 2214 1967 2669 2402 2669 3035 
C 2669 3790 2067 4224 1395 4224 
C 691 4224 262 3604 262 3030 
C 262 2780 448 2748 525 2748 
C 589 2748 781 2787 781 3010 
C 781 3207 614 3264 525 3264 
C 486 3264 448 3258 422 3245 
C 544 3790 915 4058 1306 4058 
C 1862 4058 2227 3617 2227 3035 
C 2227 2479 1901 2000 1536 1584 
L 262 146 
L 262 0 
L 2515 0 
L 2669 989 
z
" transform="scale(0.015625)"/>
       <path id="CMR17-35" d="M 730 3692 
C 794 3666 1056 3584 1325 3584 
C 1920 3584 2246 3911 2432 4100 
C 2432 4157 2432 4192 2394 4192 
C 2387 4192 2374 4192 2323 4163 
C 2099 4058 1837 3973 1517 3973 
C 1325 3973 1037 3999 723 4139 
C 653 4171 640 4171 634 4171 
C 602 4171 595 4164 595 4037 
L 595 2203 
C 595 2089 595 2057 659 2057 
C 691 2057 704 2070 736 2114 
C 941 2401 1222 2522 1542 2522 
C 1766 2522 2246 2382 2246 1289 
C 2246 1085 2246 715 2054 421 
C 1894 159 1645 25 1370 25 
C 947 25 518 320 403 814 
C 429 807 480 795 506 795 
C 589 795 749 840 749 1038 
C 749 1210 627 1280 506 1280 
C 358 1280 262 1190 262 1011 
C 262 454 704 -128 1382 -128 
C 2042 -128 2669 440 2669 1264 
C 2669 2030 2170 2624 1549 2624 
C 1222 2624 947 2503 730 2274 
L 730 3692 
z
" transform="scale(0.015625)"/>
      </defs>
      <use xlink:href="#CMR17-32" transform="scale(0.996264)"/>
      <use xlink:href="#CMMI12-3a" transform="translate(45.690477 0) scale(0.996264)"/>
      <use xlink:href="#CMR17-35" transform="translate(72.787654 0) scale(0.996264)"/>
     </g>
    </g>
   </g>
   <g id="xtick_3">
    <g id="line2d_4">
     <path d="M 46.094352 116.121002 
L 44.941041 117.176591 
" style="fill: none; stroke: #000000; stroke-width: 0.35; stroke-linecap: round"/>
    </g>
    <g id="text_3">
     <!-- $\mathdefault{5.0}$ -->
     <g transform="translate(38.355763 126.201956) scale(0.08 -0.08)">
      <use xlink:href="#CMR17-35" transform="scale(0.996264)"/>
      <use xlink:href="#CMMI12-3a" transform="translate(45.690477 0) scale(0.996264)"/>
      <use xlink:href="#CMR17-30" transform="translate(72.787654 0) scale(0.996264)"/>
     </g>
    </g>
   </g>
   <g id="xtick_4">
    <g id="line2d_5">
     <path d="M 63.794477 121.89615 
L 62.666549 122.977218 
" style="fill: none; stroke: #000000; stroke-width: 0.35; stroke-linecap: round"/>
    </g>
    <g id="text_4">
     <!-- $\mathdefault{7.5}$ -->
     <g transform="translate(56.074883 132.047051) scale(0.08 -0.08)">
      <defs>
       <path id="CMR17-37" d="M 2886 3941 
L 2886 4081 
L 1382 4081 
C 634 4081 621 4165 595 4288 
L 480 4288 
L 294 3094 
L 410 3094 
C 429 3215 474 3540 550 3661 
C 589 3712 1062 3712 1171 3712 
L 2579 3712 
L 1869 2661 
C 1395 1954 1069 999 1069 165 
C 1069 89 1069 -128 1299 -128 
C 1530 -128 1530 89 1530 171 
L 1530 465 
C 1530 1508 1709 2196 2003 2636 
L 2886 3941 
z
" transform="scale(0.015625)"/>
      </defs>
      <use xlink:href="#CMR17-37" transform="scale(0.996264)"/>
      <use xlink:href="#CMMI12-3a" transform="translate(45.690477 0) scale(0.996264)"/>
      <use xlink:href="#CMR17-35" transform="translate(72.787654 0) scale(0.996264)"/>
     </g>
    </g>
   </g>
   <g id="xtick_5">
    <g id="line2d_6">
     <path d="M 81.923955 127.811386 
L 80.82299 128.918866 
" style="fill: none; stroke: #000000; stroke-width: 0.35; stroke-linecap: round"/>
    </g>
    <g id="text_5">
     <!-- $\mathdefault{10.0}$ -->
     <g transform="translate(72.10788 138.034312) scale(0.08 -0.08)">
      <defs>
       <path id="CMR17-31" d="M 1702 4058 
C 1702 4192 1696 4192 1606 4192 
C 1357 3916 979 3827 621 3827 
C 602 3827 570 3827 563 3808 
C 557 3795 557 3782 557 3648 
C 755 3648 1088 3686 1344 3839 
L 1344 461 
C 1344 236 1331 160 781 160 
L 589 160 
L 589 0 
C 896 0 1216 0 1523 0 
C 1830 0 2150 0 2458 0 
L 2458 160 
L 2266 160 
C 1715 160 1702 230 1702 458 
L 1702 4058 
z
" transform="scale(0.015625)"/>
      </defs>
      <use xlink:href="#CMR17-31" transform="scale(0.996264)"/>
      <use xlink:href="#CMR17-30" transform="translate(45.690477 0) scale(0.996264)"/>
      <use xlink:href="#CMMI12-3a" transform="translate(91.380954 0) scale(0.996264)"/>
      <use xlink:href="#CMR17-30" transform="translate(118.478131 0) scale(0.996264)"/>
     </g>
    </g>
   </g>
   <g id="text_6">
    <!-- $r$ [Å] -->
    <g transform="translate(32.418921 132.573222) rotate(-341.912962) scale(0.08 -0.08)">
     <defs>
      <path id="CMMI12-72" d="M 2490 2612 
C 2291 2574 2189 2433 2189 2293 
C 2189 2139 2310 2088 2400 2088 
C 2579 2088 2726 2242 2726 2433 
C 2726 2638 2528 2816 2208 2816 
C 1952 2816 1658 2701 1389 2312 
C 1344 2650 1088 2816 832 2816 
C 582 2816 454 2625 378 2484 
C 269 2254 173 1871 173 1839 
C 173 1814 198 1782 243 1782 
C 294 1782 301 1788 339 1935 
C 435 2318 557 2689 813 2689 
C 966 2689 1011 2580 1011 2395 
C 1011 2254 947 2005 902 1807 
L 723 1118 
C 698 996 627 709 595 594 
C 550 428 480 128 480 96 
C 480 6 550 -64 646 -64 
C 717 -64 838 -19 877 109 
C 896 160 1133 1124 1171 1271 
C 1203 1411 1242 1546 1274 1686 
C 1299 1775 1325 1878 1344 1961 
C 1363 2018 1536 2331 1696 2472 
C 1773 2542 1939 2689 2202 2689 
C 2304 2689 2406 2670 2490 2612 
z
" transform="scale(0.015625)"/>
      <path id="CMR17-5b" d="M 1504 -1600 
L 1504 -1377 
L 902 -1377 
L 902 4544 
L 1504 4544 
L 1504 4767 
L 678 4767 
L 678 -1600 
L 1504 -1600 
z
" transform="scale(0.015625)"/>
      <path id="CMR17-17" d="M 2771 3955 
C 2771 4275 2515 4518 2214 4518 
C 1914 4518 1658 4275 1658 3955 
C 1658 3635 1914 3392 2214 3392 
C 2515 3392 2771 3635 2771 3955 
z
M 2214 3494 
C 1946 3494 1773 3660 1773 3956 
C 1773 4256 1952 4416 2214 4416 
C 2483 4416 2656 4250 2656 3956 
C 2656 3654 2477 3494 2214 3494 
z
" transform="scale(0.015625)"/>
      <path id="CMR17-41" d="M 2323 4378 
C 2291 4461 2278 4480 2214 4480 
C 2150 4480 2138 4461 2106 4378 
L 749 566 
C 627 223 371 153 147 153 
L 147 -13 
C 262 0 518 0 640 0 
C 800 0 1056 0 1210 -13 
L 1210 153 
C 909 153 864 361 864 439 
C 864 497 877 530 890 569 
L 1229 1536 
L 2906 1536 
L 3290 442 
C 3322 365 3322 352 3322 327 
C 3322 153 3046 153 2925 153 
L 2925 0 
C 3110 0 3443 0 3642 0 
C 3808 0 4128 0 4282 -13 
L 4282 153 
C 3942 153 3827 153 3744 387 
L 2323 4378 
z
M 2067 3893 
L 2848 1702 
L 1286 1702 
L 2067 3893 
z
" transform="scale(0.015625)"/>
      <path id="CMR17-5d" d="M 915 4767 
L 90 4767 
L 90 4544 
L 691 4544 
L 691 -1377 
L 90 -1377 
L 90 -1600 
L 915 -1600 
L 915 4767 
z
" transform="scale(0.015625)"/>
     </defs>
     <use xlink:href="#CMMI12-72" transform="scale(0.996264)"/>
     <use xlink:href="#CMR17-5b" transform="translate(76.746578 0) scale(0.996264)"/>
     <use xlink:href="#CMR17-17" transform="translate(101.617637 17.618744) scale(0.996264)"/>
     <use xlink:href="#CMR17-41" transform="translate(101.617637 0) scale(0.996264)"/>
     <use xlink:href="#CMR17-5d" transform="translate(170.690067 0) scale(0.996264)"/>
    </g>
   </g>
  </g>
  <g id="axis3d_2">
   <g id="line2d_7">
    <path d="M 130.416792 88.021377 
L 88.936788 130.590066 
" style="fill: none; stroke: #000000; stroke-width: 0.35; stroke-linecap: round"/>
   </g>
   <g id="xtick_6">
    <g id="line2d_8">
     <path d="M 88.278596 130.3751 
L 90.254882 131.020555 
" style="fill: none; stroke: #000000; stroke-width: 0.35; stroke-linecap: round"/>
    </g>
    <g id="text_7">
     <!-- $\mathdefault{4}$ -->
     <g transform="translate(90.198048 139.647334) scale(0.08 -0.08)">
      <defs>
       <path id="CMR17-34" d="M 2150 4122 
C 2150 4256 2144 4256 2029 4256 
L 128 1254 
L 128 1088 
L 1779 1088 
L 1779 457 
C 1779 224 1766 160 1318 160 
L 1197 160 
L 1197 0 
C 1402 0 1747 0 1965 0 
C 2182 0 2528 0 2733 0 
L 2733 160 
L 2611 160 
C 2163 160 2150 224 2150 457 
L 2150 1088 
L 2803 1088 
L 2803 1254 
L 2150 1254 
L 2150 4122 
z
M 1798 3703 
L 1798 1254 
L 256 1254 
L 1798 3703 
z
" transform="scale(0.015625)"/>
      </defs>
      <use xlink:href="#CMR17-34" transform="scale(0.996264)"/>
     </g>
    </g>
   </g>
   <g id="xtick_7">
    <g id="line2d_9">
     <path d="M 99.371774 119.011164 
L 101.31684 119.627375 
" style="fill: none; stroke: #000000; stroke-width: 0.35; stroke-linecap: round"/>
    </g>
    <g id="text_8">
     <!-- $\mathdefault{6}$ -->
     <g transform="translate(101.20667 128.18959) scale(0.08 -0.08)">
      <defs>
       <path id="CMR17-36" d="M 678 2176 
C 678 3690 1395 4032 1811 4032 
C 1946 4032 2272 4009 2400 3776 
C 2298 3776 2106 3776 2106 3553 
C 2106 3381 2246 3323 2336 3323 
C 2394 3323 2566 3348 2566 3560 
C 2566 3954 2246 4179 1805 4179 
C 1043 4179 243 3390 243 1984 
C 243 253 966 -128 1478 -128 
C 2099 -128 2688 427 2688 1283 
C 2688 2081 2170 2662 1517 2662 
C 1126 2662 838 2407 678 1960 
L 678 2176 
z
M 1478 25 
C 691 25 691 1200 691 1436 
C 691 1896 909 2560 1504 2560 
C 1613 2560 1926 2560 2138 2120 
C 2253 1870 2253 1609 2253 1289 
C 2253 944 2253 690 2118 434 
C 1978 171 1773 25 1478 25 
z
" transform="scale(0.015625)"/>
      </defs>
      <use xlink:href="#CMR17-36" transform="scale(0.996264)"/>
     </g>
    </g>
   </g>
   <g id="xtick_8">
    <g id="line2d_10">
     <path d="M 109.96821 108.156094 
L 111.882839 108.745003 
" style="fill: none; stroke: #000000; stroke-width: 0.35; stroke-linecap: round"/>
    </g>
    <g id="text_9">
     <!-- $\mathdefault{8}$ -->
     <g transform="translate(111.721991 117.245272) scale(0.08 -0.08)">
      <defs>
       <path id="CMR17-38" d="M 1741 2264 
C 2144 2467 2554 2773 2554 3263 
C 2554 3841 1990 4179 1472 4179 
C 890 4179 378 3759 378 3180 
C 378 3021 416 2747 666 2505 
C 730 2442 998 2251 1171 2130 
C 883 1983 211 1634 211 934 
C 211 279 838 -128 1459 -128 
C 2144 -128 2720 362 2720 1010 
C 2720 1590 2330 1857 2074 2029 
L 1741 2264 
z
M 902 2822 
C 851 2854 595 3051 595 3351 
C 595 3739 998 4032 1459 4032 
C 1965 4032 2336 3676 2336 3262 
C 2336 2669 1670 2331 1638 2331 
C 1632 2331 1626 2331 1574 2370 
L 902 2822 
z
M 2080 1519 
C 2176 1449 2483 1240 2483 851 
C 2483 381 2010 25 1472 25 
C 890 25 448 438 448 940 
C 448 1443 838 1862 1280 2060 
L 2080 1519 
z
" transform="scale(0.015625)"/>
      </defs>
      <use xlink:href="#CMR17-38" transform="scale(0.996264)"/>
     </g>
    </g>
   </g>
   <g id="xtick_9">
    <g id="line2d_11">
     <path d="M 120.100539 97.776458 
L 121.985501 98.339842 
" style="fill: none; stroke: #000000; stroke-width: 0.35; stroke-linecap: round"/>
    </g>
    <g id="text_10">
     <!-- $\mathdefault{10}$ -->
     <g transform="translate(119.65935 106.780626) scale(0.08 -0.08)">
      <use xlink:href="#CMR17-31" transform="scale(0.996264)"/>
      <use xlink:href="#CMR17-30" transform="translate(45.690477 0) scale(0.996264)"/>
     </g>
    </g>
   </g>
   <g id="xtick_10">
    <g id="line2d_12">
     <path d="M 129.798598 87.841692 
L 131.654651 88.381173 
" style="fill: none; stroke: #000000; stroke-width: 0.35; stroke-linecap: round"/>
    </g>
    <g id="text_11">
     <!-- $\mathdefault{12}$ -->
     <g transform="translate(129.28258 96.764794) scale(0.08 -0.08)">
      <use xlink:href="#CMR17-31" transform="scale(0.996264)"/>
      <use xlink:href="#CMR17-32" transform="translate(45.690477 0) scale(0.996264)"/>
     </g>
    </g>
   </g>
   <g id="text_12">
    <!-- $R$ [Å] -->
    <g transform="translate(121.480765 134.159188) rotate(-45.742112) scale(0.08 -0.08)">
     <defs>
      <path id="CMMI12-52" d="M 2355 3924 
C 2413 4160 2438 4160 2688 4160 
L 3149 4160 
C 3699 4160 4109 3995 4109 3499 
C 4109 3175 3942 2240 2656 2240 
L 1933 2240 
L 2355 3924 
z
M 3245 2169 
C 4038 2341 4659 2851 4659 3398 
C 4659 3894 4154 4352 3264 4352 
L 1530 4352 
C 1402 4352 1344 4352 1344 4226 
C 1344 4160 1389 4160 1510 4160 
C 1894 4160 1894 4112 1894 4045 
C 1894 4033 1894 3994 1869 3899 
L 1005 479 
C 947 256 934 192 493 192 
C 346 192 301 192 301 71 
C 301 7 371 7 390 7 
C 506 7 640 7 762 7 
L 1517 7 
C 1632 7 1766 7 1882 7 
C 1933 7 2003 7 2003 128 
C 2003 192 1946 192 1850 192 
C 1459 192 1459 243 1459 306 
C 1459 313 1459 357 1472 407 
L 1901 2112 
L 2669 2112 
C 3277 2112 3392 1731 3392 1522 
C 3392 1427 3328 1179 3283 1014 
C 3213 723 3194 652 3194 532 
C 3194 82 3565 -128 3994 -128 
C 4512 -128 4736 501 4736 591 
C 4736 635 4704 654 4666 654 
C 4614 654 4602 616 4589 565 
C 4435 114 4173 0 4013 0 
C 3853 0 3750 70 3750 356 
C 3750 509 3827 1088 3834 1120 
C 3866 1355 3866 1380 3866 1432 
C 3866 1896 3488 2093 3245 2169 
z
" transform="scale(0.015625)"/>
     </defs>
     <use xlink:href="#CMMI12-52" transform="scale(0.996264)"/>
     <use xlink:href="#CMR17-5b" transform="translate(105.146928 0) scale(0.996264)"/>
     <use xlink:href="#CMR17-17" transform="translate(130.017987 17.618744) scale(0.996264)"/>
     <use xlink:href="#CMR17-41" transform="translate(130.017987 0) scale(0.996264)"/>
     <use xlink:href="#CMR17-5d" transform="translate(199.090417 0) scale(0.996264)"/>
    </g>
   </g>
  </g>
  <g id="axis3d_3">
   <g id="line2d_13">
    <path d="M 130.416792 88.021377 
L 133.045389 30.619533 
" style="fill: none; stroke: #000000; stroke-width: 0.35; stroke-linecap: round"/>
   </g>
   <g id="xtick_11">
    <g id="line2d_14">
     <path d="M 129.798598 87.841692 
L 131.654651 88.381173 
" style="fill: none; stroke: #000000; stroke-width: 0.35; stroke-linecap: round"/>
    </g>
    <g id="text_13">
     <!-- $\mathdefault{0.0000}$ -->
     <g transform="translate(134.491992 91.295469) scale(0.08 -0.08)">
      <use xlink:href="#CMR17-30" transform="scale(0.996264)"/>
      <use xlink:href="#CMMI12-3a" transform="translate(45.690477 0) scale(0.996264)"/>
      <use xlink:href="#CMR17-30" transform="translate(72.787654 0) scale(0.996264)"/>
      <use xlink:href="#CMR17-30" transform="translate(118.478131 0) scale(0.996264)"/>
      <use xlink:href="#CMR17-30" transform="translate(164.168608 0) scale(0.996264)"/>
      <use xlink:href="#CMR17-30" transform="translate(209.859086 0) scale(0.996264)"/>
     </g>
    </g>
   </g>
   <g id="xtick_12">
    <g id="line2d_15">
     <path d="M 130.300581 76.761395 
L 132.173303 77.292256 
" style="fill: none; stroke: #000000; stroke-width: 0.35; stroke-linecap: round"/>
    </g>
    <g id="text_14">
     <!-- $\mathdefault{0.0025}$ -->
     <g transform="translate(135.133266 80.248527) scale(0.08 -0.08)">
      <use xlink:href="#CMR17-30" transform="scale(0.996264)"/>
      <use xlink:href="#CMMI12-3a" transform="translate(45.690477 0) scale(0.996264)"/>
      <use xlink:href="#CMR17-30" transform="translate(72.787654 0) scale(0.996264)"/>
      <use xlink:href="#CMR17-30" transform="translate(118.478131 0) scale(0.996264)"/>
      <use xlink:href="#CMR17-32" transform="translate(164.168608 0) scale(0.996264)"/>
      <use xlink:href="#CMR17-35" transform="translate(209.859086 0) scale(0.996264)"/>
     </g>
    </g>
   </g>
   <g id="xtick_13">
    <g id="line2d_16">
     <path d="M 130.81132 65.487824 
L 132.701012 66.00968 
" style="fill: none; stroke: #000000; stroke-width: 0.35; stroke-linecap: round"/>
    </g>
    <g id="text_15">
     <!-- $\mathdefault{0.0050}$ -->
     <g transform="translate(135.785672 69.009793) scale(0.08 -0.08)">
      <use xlink:href="#CMR17-30" transform="scale(0.996264)"/>
      <use xlink:href="#CMMI12-3a" transform="translate(45.690477 0) scale(0.996264)"/>
      <use xlink:href="#CMR17-30" transform="translate(72.787654 0) scale(0.996264)"/>
      <use xlink:href="#CMR17-30" transform="translate(118.478131 0) scale(0.996264)"/>
      <use xlink:href="#CMR17-35" transform="translate(164.168608 0) scale(0.996264)"/>
      <use xlink:href="#CMR17-30" transform="translate(209.859086 0) scale(0.996264)"/>
     </g>
    </g>
   </g>
   <g id="xtick_14">
    <g id="line2d_17">
     <path d="M 131.331046 54.015879 
L 133.238019 54.52833 
" style="fill: none; stroke: #000000; stroke-width: 0.35; stroke-linecap: round"/>
    </g>
    <g id="text_16">
     <!-- $\mathdefault{0.0075}$ -->
     <g transform="translate(136.449505 57.574229) scale(0.08 -0.08)">
      <use xlink:href="#CMR17-30" transform="scale(0.996264)"/>
      <use xlink:href="#CMMI12-3a" transform="translate(45.690477 0) scale(0.996264)"/>
      <use xlink:href="#CMR17-30" transform="translate(72.787654 0) scale(0.996264)"/>
      <use xlink:href="#CMR17-30" transform="translate(118.478131 0) scale(0.996264)"/>
      <use xlink:href="#CMR17-37" transform="translate(164.168608 0) scale(0.996264)"/>
      <use xlink:href="#CMR17-35" transform="translate(209.859086 0) scale(0.996264)"/>
     </g>
    </g>
   </g>
   <g id="xtick_15">
    <g id="line2d_18">
     <path d="M 131.859999 42.340277 
L 133.784571 42.842904 
" style="fill: none; stroke: #000000; stroke-width: 0.35; stroke-linecap: round"/>
    </g>
    <g id="text_17">
     <!-- $\mathdefault{0.0100}$ -->
     <g transform="translate(137.125067 45.936618) scale(0.08 -0.08)">
      <use xlink:href="#CMR17-30" transform="scale(0.996264)"/>
      <use xlink:href="#CMMI12-3a" transform="translate(45.690477 0) scale(0.996264)"/>
      <use xlink:href="#CMR17-30" transform="translate(72.787654 0) scale(0.996264)"/>
      <use xlink:href="#CMR17-31" transform="translate(118.478131 0) scale(0.996264)"/>
      <use xlink:href="#CMR17-30" transform="translate(164.168608 0) scale(0.996264)"/>
      <use xlink:href="#CMR17-30" transform="translate(209.859086 0) scale(0.996264)"/>
     </g>
    </g>
   </g>
   <g id="xtick_16">
    <g id="line2d_19">
     <path d="M 132.398426 30.455547 
L 134.340924 30.947913 
" style="fill: none; stroke: #000000; stroke-width: 0.35; stroke-linecap: round"/>
    </g>
    <g id="text_18">
     <!-- $\mathdefault{0.0125}$ -->
     <g transform="translate(137.812671 34.091557) scale(0.08 -0.08)">
      <use xlink:href="#CMR17-30" transform="scale(0.996264)"/>
      <use xlink:href="#CMMI12-3a" transform="translate(45.690477 0) scale(0.996264)"/>
      <use xlink:href="#CMR17-30" transform="translate(72.787654 0) scale(0.996264)"/>
      <use xlink:href="#CMR17-31" transform="translate(118.478131 0) scale(0.996264)"/>
      <use xlink:href="#CMR17-32" transform="translate(164.168608 0) scale(0.996264)"/>
      <use xlink:href="#CMR17-35" transform="translate(209.859086 0) scale(0.996264)"/>
     </g>
    </g>
   </g>
  </g>
  <g id="axes_1">
   <g id="Poly3DCollection_1">
    <path d="M 56.758716 66.611882 
L 57.391267 66.795739 
L 60.3804 67.664562 
L 63.381563 68.536882 
L 66.394829 69.412719 
L 69.420271 70.292096 
L 72.457964 71.175034 
L 75.507983 72.061553 
L 78.570401 72.951678 
L 81.645295 73.845428 
L 84.732742 74.742827 
L 87.832818 75.643896 
L 90.945601 76.548658 
L 94.07117 77.45712 
L 97.209606 78.36918 
L 100.361011 79.283909 
L 103.525635 80.194783 
L 106.705244 81.041795 
L 109.910693 81.478632 
L 113.167723 80.804371 
L 116.49911 78.608899 
L 119.707302 80.516744 
L 122.805329 85.415818 
L 126.047761 86.751025 
L 129.319306 87.70238 
L 132.604646 88.657299 
L 135.903851 89.616248 
z
" clip-path="url(#p668c02f208)" style="fill: #d7414e; fill-opacity: 0.6; stroke: #d7414e; stroke-opacity: 0.6; stroke-width: 0.5"/>
    <path d="M 46.000858 75.629332 
L 46.641936 75.820939 
L 49.165724 76.575256 
L 51.698148 77.332155 
L 54.239252 78.091647 
L 56.789082 78.853748 
L 59.347681 79.618469 
L 61.915096 80.385826 
L 64.491373 81.15583 
L 67.076556 81.928496 
L 69.670692 82.703828 
L 72.273829 83.481788 
L 74.886013 84.262034 
L 77.507304 85.042704 
L 80.137828 85.813975 
L 82.778158 86.523479 
L 85.430329 87.022711 
L 88.107638 86.37772 
L 90.823936 84.144141 
L 93.558256 82.156402 
L 96.222437 84.966122 
L 98.827599 90.614295 
L 101.516048 92.218873 
L 104.230869 93.033279 
L 106.955396 93.8476 
L 109.68961 94.66481 
L 112.433563 95.484931 
z
" clip-path="url(#p668c02f208)" style="fill: #d7414e; fill-opacity: 0.6; stroke: #d7414e; stroke-opacity: 0.6; stroke-width: 0.5"/>
    <path d="M 34.784776 85.030874 
L 35.434542 85.230731 
L 37.480311 85.859977 
L 39.531797 86.490981 
L 41.589022 87.123749 
L 43.652012 87.758286 
L 45.72079 88.394588 
L 47.795379 89.032626 
L 49.8758 89.672091 
L 51.96207 90.312422 
L 54.054164 90.949734 
L 56.151975 91.571256 
L 58.255191 92.13677 
L 60.362863 92.504907 
L 62.473409 92.317569 
L 64.585697 90.871048 
L 66.705966 88.137532 
L 68.841935 84.640988 
L 71.001236 86.787554 
L 73.156578 93.553674 
L 75.306514 97.088698 
L 77.464001 98.154936 
L 79.628791 98.824167 
L 81.799819 99.491948 
L 83.977096 100.161644 
L 86.160649 100.83327 
L 88.350506 101.506835 
z
" clip-path="url(#p668c02f208)" style="fill: #d7414e; fill-opacity: 0.6; stroke: #d7414e; stroke-opacity: 0.6; stroke-width: 0.5"/>
    <path d="M 23.080559 94.841581 
L 23.738914 95.043495 
L 25.293612 95.5352 
L 26.851489 96.023733 
L 28.412579 96.509292 
L 29.976437 96.977576 
L 31.542651 97.413037 
L 33.110387 97.783826 
L 34.67412 97.89169 
L 36.234674 97.73076 
L 37.777 96.699102 
L 39.293805 94.382197 
L 40.787936 90.698511 
L 42.271169 85.93647 
L 43.81147 83.03761 
L 45.473747 85.513284 
L 47.223641 92.626468 
L 48.985563 101.141797 
L 50.625787 103.363132 
L 52.24192 104.076048 
L 53.858256 104.592051 
L 55.478059 105.105331 
L 57.101398 105.619618 
L 58.728286 106.135027 
L 60.358736 106.651565 
L 61.992758 107.169234 
L 63.630366 107.68804 
z
" clip-path="url(#p668c02f208)" style="fill: #d7414e; fill-opacity: 0.6; stroke: #d7414e; stroke-opacity: 0.6; stroke-width: 0.5"/>
    <path d="M 17.035331 99.908811 
L 17.667581 99.397776 
L 18.97017 99.760826 
L 20.265179 99.876851 
L 21.557129 99.840904 
L 22.829031 99.199377 
L 24.080231 97.88492 
L 25.30928 95.800456 
L 26.460019 91.293121 
L 27.621346 86.728648 
L 28.755246 80.960847 
L 29.96384 77.031652 
L 31.334809 77.925013 
L 32.888874 84.822946 
L 34.525782 94.936287 
L 36.074809 102.561039 
L 37.494794 105.89191 
L 38.850862 106.910277 
L 40.193821 107.356559 
L 41.538875 107.789842 
L 42.886373 108.223253 
L 44.236339 108.657442 
L 45.588781 109.092426 
L 46.943705 109.528209 
L 48.301117 109.964792 
L 49.661025 110.402178 
L 51.023436 110.840369 
z
" clip-path="url(#p668c02f208)" style="fill: #d7414e; fill-opacity: 0.6; stroke: #d7414e; stroke-opacity: 0.6; stroke-width: 0.5"/>
    <path d="M 10.855629 105.088759 
L 8.539798 42.677732 
L 9.621566 42.598574 
L 10.648841 41.284734 
L 11.688547 40.150011 
L 12.750021 39.414637 
L 13.912499 40.921285 
L 15.20731 45.533581 
L 16.777959 56.862719 
L 18.370562 69.131034 
L 20.069767 84.50292 
L 21.649013 97.42366 
L 23.004006 105.030109 
L 24.196302 108.602603 
L 25.29402 109.714374 
L 26.367625 110.149361 
L 27.439846 110.504846 
L 28.513464 110.8558 
L 29.588652 111.206964 
L 30.665425 111.558639 
L 31.743787 111.910832 
L 32.823742 112.263545 
L 33.905292 112.616779 
L 34.988441 112.970536 
L 36.073194 113.324816 
L 37.159553 113.679621 
L 38.247523 114.034952 
z
" clip-path="url(#p668c02f208)" style="fill: #d7414e; fill-opacity: 0.6; stroke: #d7414e; stroke-opacity: 0.6; stroke-width: 0.5"/>
   </g>
   <g id="text_19">
    <!-- $^4$He/Ar -->
    <g transform="translate(77.321758 33.780115) rotate(15.121397) scale(0.09 -0.09)">
     <defs>
      <path id="CMR17-48" d="M 3590 3905 
C 3590 4192 3661 4192 4102 4192 
L 4102 4352 
C 3917 4352 3578 4352 3379 4352 
C 3181 4352 2842 4352 2656 4352 
L 2656 4192 
C 3098 4192 3168 4192 3168 3904 
L 3168 2341 
L 1261 2341 
L 1261 3904 
C 1261 4192 1331 4192 1773 4192 
L 1773 4352 
C 1587 4352 1248 4352 1050 4352 
C 851 4352 512 4352 326 4352 
L 326 4192 
C 768 4192 838 4192 838 3905 
L 838 447 
C 838 160 768 160 326 160 
L 326 0 
C 512 0 851 0 1050 0 
C 1248 0 1587 0 1773 0 
L 1773 160 
C 1331 160 1261 160 1261 446 
L 1261 2176 
L 3168 2176 
L 3168 446 
C 3168 160 3098 160 2656 160 
L 2656 0 
C 2842 0 3181 0 3379 0 
C 3578 0 3917 0 4102 0 
L 4102 160 
C 3661 160 3590 160 3590 447 
L 3590 3905 
z
" transform="scale(0.015625)"/>
      <path id="CMR17-65" d="M 2438 1472 
C 2464 1498 2464 1511 2464 1576 
C 2464 2238 2118 2816 1389 2816 
C 710 2816 173 2169 173 1383 
C 173 551 781 -64 1459 -64 
C 2176 -64 2458 607 2458 740 
C 2458 784 2419 784 2406 784 
C 2362 784 2355 771 2330 696 
C 2189 265 1837 51 1504 51 
C 1229 51 954 203 781 480 
C 582 803 582 1176 582 1472 
L 2438 1472 
z
M 589 1568 
C 634 2505 1126 2714 1382 2714 
C 1818 2714 2112 2297 2118 1568 
L 589 1568 
z
" transform="scale(0.015625)"/>
      <path id="CMR17-2f" d="M 2605 4545 
C 2637 4627 2637 4640 2637 4653 
C 2637 4729 2579 4768 2528 4768 
C 2451 4768 2426 4717 2400 4640 
L 326 -1377 
C 294 -1460 294 -1473 294 -1486 
C 294 -1562 352 -1600 403 -1600 
C 480 -1600 506 -1549 531 -1473 
L 2605 4545 
z
" transform="scale(0.015625)"/>
      <path id="CMR17-72" d="M 960 1497 
C 960 2112 1222 2688 1702 2688 
C 1747 2688 1792 2682 1837 2662 
C 1837 2662 1696 2617 1696 2452 
C 1696 2298 1818 2234 1914 2234 
C 1990 2234 2131 2279 2131 2458 
C 2131 2663 1926 2790 1709 2790 
C 1222 2790 1011 2317 947 2093 
L 941 2093 
L 941 2790 
L 198 2720 
L 198 2554 
C 576 2554 634 2515 634 2208 
L 634 428 
C 634 184 608 153 198 153 
L 198 -13 
C 352 0 646 0 813 0 
C 998 0 1325 0 1498 -13 
L 1498 153 
C 1037 153 960 153 960 440 
L 960 1497 
z
" transform="scale(0.015625)"/>
     </defs>
     <use xlink:href="#CMR17-34" transform="translate(0 36.153639) scale(0.697382)"/>
     <use xlink:href="#CMR17-48" transform="translate(32.481314 0) scale(0.996264)"/>
     <use xlink:href="#CMR17-65" transform="translate(101.553744 0) scale(0.996264)"/>
     <use xlink:href="#CMR17-2f" transform="translate(142.039404 0) scale(0.996264)"/>
     <use xlink:href="#CMR17-41" transform="translate(187.729881 0) scale(0.996264)"/>
     <use xlink:href="#CMR17-72" transform="translate(256.802311 0) scale(0.996264)"/>
    </g>
   </g>
   <g id="text_20">
    <!-- (a) -->
    <g transform="translate(14.260226 18.968745) scale(0.09 -0.09)">
     <defs>
      <path id="CMR17-28" d="M 1958 -1561 
C 1958 -1555 1958 -1542 1939 -1523 
C 1645 -1224 858 -407 858 1581 
C 858 3569 1632 4379 1946 4697 
C 1946 4704 1958 4717 1958 4736 
C 1958 4755 1939 4768 1914 4768 
C 1843 4768 1299 4296 986 3594 
C 666 2887 576 2199 576 1588 
C 576 1128 621 351 1005 -471 
C 1312 -1135 1837 -1600 1914 -1600 
C 1946 -1600 1958 -1587 1958 -1561 
z
" transform="scale(0.015625)"/>
      <path id="CMR17-61" d="M 2304 1653 
C 2304 2072 2304 2294 2035 2543 
C 1798 2752 1523 2816 1306 2816 
C 800 2816 435 2407 435 1971 
C 435 1728 627 1728 666 1728 
C 749 1728 896 1778 896 1954 
C 896 2112 774 2181 666 2181 
C 640 2181 608 2174 589 2168 
C 723 2592 1069 2714 1293 2714 
C 1613 2714 1965 2429 1965 1885 
L 1965 1600 
C 1587 1600 1133 1549 774 1357 
C 371 1133 256 813 256 570 
C 256 77 832 -64 1171 -64 
C 1523 -64 1850 139 1990 511 
C 2003 233 2182 -18 2464 -18 
C 2598 -18 2938 70 2938 567 
L 2938 920 
L 2822 920 
L 2822 562 
C 2822 178 2650 128 2566 128 
C 2304 128 2304 458 2304 738 
L 2304 1653 
z
M 1965 870 
C 1965 317 1568 38 1216 38 
C 896 38 646 275 646 570 
C 646 761 730 1100 1101 1305 
C 1408 1478 1760 1504 1965 1504 
L 1965 870 
z
" transform="scale(0.015625)"/>
      <path id="CMR17-29" d="M 1683 1581 
C 1683 2040 1638 2817 1254 3639 
C 947 4303 422 4768 346 4768 
C 326 4768 301 4761 301 4729 
C 301 4717 307 4710 314 4697 
C 621 4378 1402 3568 1402 1584 
C 1402 -407 627 -1217 314 -1537 
C 307 -1549 301 -1556 301 -1568 
C 301 -1600 326 -1600 346 -1600 
C 416 -1600 960 -1128 1274 -426 
C 1594 281 1683 969 1683 1581 
z
" transform="scale(0.015625)"/>
     </defs>
     <use xlink:href="#CMR17-28" transform="scale(0.996264)"/>
     <use xlink:href="#CMR17-61" transform="translate(35.280768 0) scale(0.996264)"/>
     <use xlink:href="#CMR17-29" transform="translate(80.971245 0) scale(0.996264)"/>
    </g>
   </g>
   <g id="text_21">
    <!-- $\varrho(r)\;\; [{\rm\AA^{-3}}]$ -->
    <g transform="translate(118.511923 23.138813) scale(0.09 -0.09)">
     <defs>
      <path id="CMMI12-25" d="M 794 653 
C 915 154 1242 -64 1594 -64 
C 2336 -64 3142 845 3142 1798 
C 3142 2483 2726 2822 2285 2822 
C 1773 2822 1062 2310 819 1363 
C 563 352 467 -173 467 -499 
C 467 -717 467 -1120 1331 -1120 
C 1555 -1120 1728 -1094 1946 -1094 
C 2080 -1094 2214 -1094 2240 -1146 
C 2246 -1158 2240 -1178 2246 -1178 
C 2246 -1222 2272 -1242 2310 -1242 
C 2349 -1242 2400 -1242 2400 -1075 
C 2400 -774 2118 -774 1498 -774 
C 787 -774 640 -710 640 -333 
C 640 -38 736 416 794 653 
z
M 1600 64 
C 1254 64 1126 422 1126 736 
C 1126 960 1235 1587 1466 2035 
C 1638 2381 1965 2694 2278 2694 
C 2566 2694 2726 2432 2726 2054 
C 2726 1728 2554 1094 2445 826 
C 2240 358 1894 64 1600 64 
z
" transform="scale(0.015625)"/>
      <path id="CMSY10-0" d="M 4218 1472 
C 4326 1472 4442 1472 4442 1600 
C 4442 1728 4326 1728 4218 1728 
L 755 1728 
C 646 1728 531 1728 531 1600 
C 531 1472 646 1472 755 1472 
L 4218 1472 
z
" transform="scale(0.015625)"/>
      <path id="CMR17-33" d="M 1414 2157 
C 1984 2157 2234 1662 2234 1090 
C 2234 320 1824 25 1453 25 
C 1114 25 563 194 390 693 
C 422 680 454 680 486 680 
C 640 680 755 782 755 948 
C 755 1133 614 1216 486 1216 
C 378 1216 211 1165 211 926 
C 211 335 787 -128 1466 -128 
C 2176 -128 2720 430 2720 1085 
C 2720 1707 2208 2157 1600 2227 
C 2086 2328 2554 2756 2554 3329 
C 2554 3820 2048 4179 1472 4179 
C 890 4179 378 3829 378 3329 
C 378 3110 544 3072 627 3072 
C 762 3072 877 3155 877 3321 
C 877 3486 762 3569 627 3569 
C 602 3569 570 3569 544 3557 
C 730 3959 1235 4032 1459 4032 
C 1683 4032 2106 3925 2106 3320 
C 2106 3143 2080 2828 1862 2550 
C 1670 2304 1453 2304 1242 2284 
C 1210 2284 1062 2269 1037 2269 
C 992 2263 966 2257 966 2208 
C 966 2163 973 2157 1101 2157 
L 1414 2157 
z
" transform="scale(0.015625)"/>
     </defs>
     <use xlink:href="#CMMI12-25" transform="scale(0.996264)"/>
     <use xlink:href="#CMR17-28" transform="translate(50.314373 0) scale(0.996264)"/>
     <use xlink:href="#CMMI12-72" transform="translate(85.595141 0) scale(0.996264)"/>
     <use xlink:href="#CMR17-29" transform="translate(132.265753 0) scale(0.996264)"/>
     <use xlink:href="#CMR17-5b" transform="translate(222.894538 0) scale(0.996264)"/>
     <use xlink:href="#CMR17-17" transform="translate(247.765596 17.618744) scale(0.996264)"/>
     <use xlink:href="#CMR17-41" transform="translate(247.765596 0) scale(0.996264)"/>
     <use xlink:href="#CMSY10-0" transform="translate(316.838026 36.153639) scale(0.697382)"/>
     <use xlink:href="#CMR17-33" transform="translate(371.079019 36.153639) scale(0.697382)"/>
     <use xlink:href="#CMR17-5d" transform="translate(403.560333 0) scale(0.996264)"/>
    </g>
   </g>
   <g id="Poly3DCollection_2">
    <defs>
     <path id="mdd2a8cc076" d="M 38.744002 -27.359978 
L 88.936788 -10.967014 
L 130.416792 -53.535703 
z
" style="stroke: #c0c0c0"/>
    </defs>
    <g clip-path="url(#p668c02f208)">
     <use xlink:href="#mdd2a8cc076" x="0" y="141.557079" style="fill: #c0c0c0; stroke: #c0c0c0"/>
    </g>
   </g>
  </g>
  <g id="patch_6">
   <path d="M 168.04125 139.362263 
L 307.043513 139.362263 
L 307.043513 0.36 
L 168.04125 0.36 
L 168.04125 139.362263 
z
" style="fill: none"/>
  </g>
  <g id="pane3d_4">
   <g id="patch_7">
    <path d="M 178.53688 105.088759 
L 224.439967 66.611882 
L 223.80187 11.121346 
L 175.702084 46.222379 
" style="fill: #f2f2f2; opacity: 0.5; stroke: #f2f2f2; stroke-linejoin: miter"/>
   </g>
  </g>
  <g id="pane3d_5">
   <g id="patch_8">
    <path d="M 224.439967 66.611882 
L 298.098043 88.021377 
L 300.72664 30.619533 
L 223.80187 11.121346 
" style="fill: #e6e6e6; opacity: 0.5; stroke: #e6e6e6; stroke-linejoin: miter"/>
   </g>
  </g>
  <g id="pane3d_6">
   <g id="patch_9">
    <path d="M 178.53688 105.088759 
L 256.618038 130.590066 
L 298.098043 88.021377 
L 224.439967 66.611882 
" style="fill: #ececec; opacity: 0.5; stroke: #ececec; stroke-linejoin: miter"/>
   </g>
  </g>
  <g id="grid3d_4">
   <g id="Line3DCollection_4">
    <path d="M 179.204486 105.3068 
L 225.072518 66.795739 
L 224.461093 11.28844 
" style="fill: none; stroke: #b0b0b0; stroke-width: 0.8"/>
    <path d="M 196.09792 110.824195 
L 241.062982 71.443536 
L 241.133745 15.514471 
" style="fill: none; stroke: #b0b0b0; stroke-width: 0.8"/>
    <path d="M 213.391726 116.472352 
L 257.400767 76.192285 
L 258.184317 19.836294 
" style="fill: none; stroke: #b0b0b0; stroke-width: 0.8"/>
    <path d="M 231.100307 122.255975 
L 274.097312 81.045312 
L 275.625805 24.257203 
" style="fill: none; stroke: #b0b0b0; stroke-width: 0.8"/>
    <path d="M 249.238765 128.179995 
L 291.164565 86.006088 
L 293.471807 28.780644 
" style="fill: none; stroke: #b0b0b0; stroke-width: 0.8"/>
   </g>
  </g>
  <g id="grid3d_5">
   <g id="Line3DCollection_5">
    <path d="M 175.702084 46.222379 
L 178.53688 105.088759 
L 256.618038 130.590066 
" style="fill: none; stroke: #b0b0b0; stroke-width: 0.8"/>
    <path d="M 188.547758 36.848191 
L 190.761809 94.841581 
L 267.700831 119.216394 
" style="fill: none; stroke: #b0b0b0; stroke-width: 0.8"/>
    <path d="M 200.821938 27.891054 
L 202.466027 85.030874 
L 278.287142 108.352235 
" style="fill: none; stroke: #b0b0b0; stroke-width: 0.8"/>
    <path d="M 212.561932 19.323741 
L 213.682108 75.629332 
L 288.409601 97.964101 
" style="fill: none; stroke: #b0b0b0; stroke-width: 0.8"/>
    <path d="M 223.80187 11.121346 
L 224.439967 66.611882 
L 298.098043 88.021377 
" style="fill: none; stroke: #b0b0b0; stroke-width: 0.8"/>
   </g>
  </g>
  <g id="grid3d_6">
   <g id="Line3DCollection_6">
    <path d="M 298.098043 88.021377 
L 224.439967 66.611882 
L 178.53688 105.088759 
" style="fill: none; stroke: #b0b0b0; stroke-width: 0.8"/>
    <path d="M 298.733831 74.137392 
L 224.285381 53.1687 
L 177.852094 90.868735 
" style="fill: none; stroke: #b0b0b0; stroke-width: 0.8"/>
    <path d="M 299.383547 59.949236 
L 224.127571 39.445186 
L 177.151729 76.325195 
" style="fill: none; stroke: #b0b0b0; stroke-width: 0.8"/>
    <path d="M 300.047656 45.446803 
L 223.966436 25.432481 
L 176.435246 61.446972 
" style="fill: none; stroke: #b0b0b0; stroke-width: 0.8"/>
    <path d="M 300.72664 30.619533 
L 223.80187 11.121346 
L 175.702084 46.222379 
" style="fill: none; stroke: #b0b0b0; stroke-width: 0.8"/>
   </g>
  </g>
  <g id="axis3d_4">
   <g id="line2d_20">
    <path d="M 178.53688 105.088759 
L 256.618038 130.590066 
" style="fill: none; stroke: #000000; stroke-width: 0.35; stroke-linecap: round"/>
   </g>
   <g id="xtick_17">
    <g id="line2d_21">
     <path d="M 179.603811 104.971524 
L 178.404127 105.978786 
" style="fill: none; stroke: #000000; stroke-width: 0.35; stroke-linecap: round"/>
    </g>
    <g id="text_22">
     <!-- $\mathdefault{0.0}$ -->
     <g transform="translate(171.831699 114.918478) scale(0.08 -0.08)">
      <use xlink:href="#CMR17-30" transform="scale(0.996264)"/>
      <use xlink:href="#CMMI12-3a" transform="translate(45.690477 0) scale(0.996264)"/>
      <use xlink:href="#CMR17-30" transform="translate(72.787654 0) scale(0.996264)"/>
     </g>
    </g>
   </g>
   <g id="xtick_18">
    <g id="line2d_22">
     <path d="M 196.489756 110.481024 
L 195.312553 111.512024 
" style="fill: none; stroke: #000000; stroke-width: 0.35; stroke-linecap: round"/>
    </g>
    <g id="text_23">
     <!-- $\mathdefault{2.5}$ -->
     <g transform="translate(188.73369 120.494022) scale(0.08 -0.08)">
      <use xlink:href="#CMR17-32" transform="scale(0.996264)"/>
      <use xlink:href="#CMMI12-3a" transform="translate(45.690477 0) scale(0.996264)"/>
      <use xlink:href="#CMR17-35" transform="translate(72.787654 0) scale(0.996264)"/>
     </g>
    </g>
   </g>
   <g id="xtick_19">
    <g id="line2d_23">
     <path d="M 213.775603 116.121002 
L 212.622291 117.176591 
" style="fill: none; stroke: #000000; stroke-width: 0.35; stroke-linecap: round"/>
    </g>
    <g id="text_24">
     <!-- $\mathdefault{5.0}$ -->
     <g transform="translate(206.037013 126.201956) scale(0.08 -0.08)">
      <use xlink:href="#CMR17-35" transform="scale(0.996264)"/>
      <use xlink:href="#CMMI12-3a" transform="translate(45.690477 0) scale(0.996264)"/>
      <use xlink:href="#CMR17-30" transform="translate(72.787654 0) scale(0.996264)"/>
     </g>
    </g>
   </g>
   <g id="xtick_20">
    <g id="line2d_24">
     <path d="M 231.475728 121.89615 
L 230.3478 122.977218 
" style="fill: none; stroke: #000000; stroke-width: 0.35; stroke-linecap: round"/>
    </g>
    <g id="text_25">
     <!-- $\mathdefault{7.5}$ -->
     <g transform="translate(223.756134 132.047051) scale(0.08 -0.08)">
      <use xlink:href="#CMR17-37" transform="scale(0.996264)"/>
      <use xlink:href="#CMMI12-3a" transform="translate(45.690477 0) scale(0.996264)"/>
      <use xlink:href="#CMR17-35" transform="translate(72.787654 0) scale(0.996264)"/>
     </g>
    </g>
   </g>
   <g id="xtick_21">
    <g id="line2d_25">
     <path d="M 249.605205 127.811386 
L 248.504241 128.918866 
" style="fill: none; stroke: #000000; stroke-width: 0.35; stroke-linecap: round"/>
    </g>
    <g id="text_26">
     <!-- $\mathdefault{10.0}$ -->
     <g transform="translate(239.789131 138.034312) scale(0.08 -0.08)">
      <use xlink:href="#CMR17-31" transform="scale(0.996264)"/>
      <use xlink:href="#CMR17-30" transform="translate(45.690477 0) scale(0.996264)"/>
      <use xlink:href="#CMMI12-3a" transform="translate(91.380954 0) scale(0.996264)"/>
      <use xlink:href="#CMR17-30" transform="translate(118.478131 0) scale(0.996264)"/>
     </g>
    </g>
   </g>
   <g id="text_27">
    <!-- $r$ [Å] -->
    <g transform="translate(201.014058 132.300686) rotate(-341.912962) scale(0.06246 -0.06246)">
     <use xlink:href="#CMMI12-72" transform="scale(0.996264)"/>
     <use xlink:href="#CMR17-5b" transform="translate(76.746578 0) scale(0.996264)"/>
     <use xlink:href="#CMR17-17" transform="translate(101.617637 17.618744) scale(0.996264)"/>
     <use xlink:href="#CMR17-41" transform="translate(101.617637 0) scale(0.996264)"/>
     <use xlink:href="#CMR17-5d" transform="translate(170.690067 0) scale(0.996264)"/>
    </g>
   </g>
  </g>
  <g id="axis3d_5">
   <g id="line2d_26">
    <path d="M 298.098043 88.021377 
L 256.618038 130.590066 
" style="fill: none; stroke: #000000; stroke-width: 0.35; stroke-linecap: round"/>
   </g>
   <g id="xtick_22">
    <g id="line2d_27">
     <path d="M 255.959847 130.3751 
L 257.936133 131.020555 
" style="fill: none; stroke: #000000; stroke-width: 0.35; stroke-linecap: round"/>
    </g>
    <g id="text_28">
     <!-- $\mathdefault{4}$ -->
     <g transform="translate(257.879299 139.647334) scale(0.08 -0.08)">
      <use xlink:href="#CMR17-34" transform="scale(0.996264)"/>
     </g>
    </g>
   </g>
   <g id="xtick_23">
    <g id="line2d_28">
     <path d="M 267.053024 119.011164 
L 268.998091 119.627375 
" style="fill: none; stroke: #000000; stroke-width: 0.35; stroke-linecap: round"/>
    </g>
    <g id="text_29">
     <!-- $\mathdefault{6}$ -->
     <g transform="translate(268.88792 128.18959) scale(0.08 -0.08)">
      <use xlink:href="#CMR17-36" transform="scale(0.996264)"/>
     </g>
    </g>
   </g>
   <g id="xtick_24">
    <g id="line2d_29">
     <path d="M 277.64946 108.156094 
L 279.564089 108.745003 
" style="fill: none; stroke: #000000; stroke-width: 0.35; stroke-linecap: round"/>
    </g>
    <g id="text_30">
     <!-- $\mathdefault{8}$ -->
     <g transform="translate(279.403241 117.245272) scale(0.08 -0.08)">
      <use xlink:href="#CMR17-38" transform="scale(0.996264)"/>
     </g>
    </g>
   </g>
   <g id="xtick_25">
    <g id="line2d_30">
     <path d="M 287.781789 97.776458 
L 289.666752 98.339842 
" style="fill: none; stroke: #000000; stroke-width: 0.35; stroke-linecap: round"/>
    </g>
    <g id="text_31">
     <!-- $\mathdefault{10}$ -->
     <g transform="translate(287.340601 106.780626) scale(0.08 -0.08)">
      <use xlink:href="#CMR17-31" transform="scale(0.996264)"/>
      <use xlink:href="#CMR17-30" transform="translate(45.690477 0) scale(0.996264)"/>
     </g>
    </g>
   </g>
   <g id="xtick_26">
    <g id="line2d_31">
     <path d="M 297.479848 87.841692 
L 299.335901 88.381173 
" style="fill: none; stroke: #000000; stroke-width: 0.35; stroke-linecap: round"/>
    </g>
    <g id="text_32">
     <!-- $\mathdefault{12}$ -->
     <g transform="translate(296.963831 96.764794) scale(0.08 -0.08)">
      <use xlink:href="#CMR17-31" transform="scale(0.996264)"/>
      <use xlink:href="#CMR17-32" transform="translate(45.690477 0) scale(0.996264)"/>
     </g>
    </g>
   </g>
   <g id="text_33">
    <!-- $R$ [Å] -->
    <g transform="translate(289.466948 133.068486) rotate(-45.742112) scale(0.06246 -0.06246)">
     <use xlink:href="#CMMI12-52" transform="scale(0.996264)"/>
     <use xlink:href="#CMR17-5b" transform="translate(105.146928 0) scale(0.996264)"/>
     <use xlink:href="#CMR17-17" transform="translate(130.017987 17.618744) scale(0.996264)"/>
     <use xlink:href="#CMR17-41" transform="translate(130.017987 0) scale(0.996264)"/>
     <use xlink:href="#CMR17-5d" transform="translate(199.090417 0) scale(0.996264)"/>
    </g>
   </g>
  </g>
  <g id="axis3d_6">
   <g id="line2d_32">
    <path d="M 298.098043 88.021377 
L 300.72664 30.619533 
" style="fill: none; stroke: #000000; stroke-width: 0.35; stroke-linecap: round"/>
   </g>
   <g id="xtick_27">
    <g id="line2d_33">
     <path d="M 297.479848 87.841692 
L 299.335901 88.381173 
" style="fill: none; stroke: #000000; stroke-width: 0.35; stroke-linecap: round"/>
    </g>
    <g id="text_34">
     <!-- $\mathdefault{0.000}$ -->
     <g transform="translate(304.290334 91.295469) scale(0.08 -0.08)">
      <use xlink:href="#CMR17-30" transform="scale(0.996264)"/>
      <use xlink:href="#CMMI12-3a" transform="translate(45.690477 0) scale(0.996264)"/>
      <use xlink:href="#CMR17-30" transform="translate(72.787654 0) scale(0.996264)"/>
      <use xlink:href="#CMR17-30" transform="translate(118.478131 0) scale(0.996264)"/>
      <use xlink:href="#CMR17-30" transform="translate(164.168608 0) scale(0.996264)"/>
     </g>
    </g>
   </g>
   <g id="xtick_28">
    <g id="line2d_34">
     <path d="M 298.108686 73.961318 
L 299.985622 74.489964 
" style="fill: none; stroke: #000000; stroke-width: 0.35; stroke-linecap: round"/>
    </g>
    <g id="text_35">
     <!-- $\mathdefault{0.005}$ -->
     <g transform="translate(305.093654 77.457018) scale(0.08 -0.08)">
      <use xlink:href="#CMR17-30" transform="scale(0.996264)"/>
      <use xlink:href="#CMMI12-3a" transform="translate(45.690477 0) scale(0.996264)"/>
      <use xlink:href="#CMR17-30" transform="translate(72.787654 0) scale(0.996264)"/>
      <use xlink:href="#CMR17-30" transform="translate(118.478131 0) scale(0.996264)"/>
      <use xlink:href="#CMR17-35" transform="translate(164.168608 0) scale(0.996264)"/>
     </g>
    </g>
   </g>
   <g id="xtick_29">
    <g id="line2d_35">
     <path d="M 298.751295 59.776975 
L 300.649589 60.294179 
" style="fill: none; stroke: #000000; stroke-width: 0.35; stroke-linecap: round"/>
    </g>
    <g id="text_36">
     <!-- $\mathdefault{0.010}$ -->
     <g transform="translate(305.914484 63.316937) scale(0.08 -0.08)">
      <use xlink:href="#CMR17-30" transform="scale(0.996264)"/>
      <use xlink:href="#CMMI12-3a" transform="translate(45.690477 0) scale(0.996264)"/>
      <use xlink:href="#CMR17-30" transform="translate(72.787654 0) scale(0.996264)"/>
      <use xlink:href="#CMR17-31" transform="translate(118.478131 0) scale(0.996264)"/>
      <use xlink:href="#CMR17-30" transform="translate(164.168608 0) scale(0.996264)"/>
     </g>
    </g>
   </g>
   <g id="xtick_30">
    <g id="line2d_36">
     <path d="M 299.408133 45.278567 
L 301.328274 45.783689 
" style="fill: none; stroke: #000000; stroke-width: 0.35; stroke-linecap: round"/>
    </g>
    <g id="text_37">
     <!-- $\mathdefault{0.015}$ -->
     <g transform="translate(306.753402 48.865255) scale(0.08 -0.08)">
      <use xlink:href="#CMR17-30" transform="scale(0.996264)"/>
      <use xlink:href="#CMMI12-3a" transform="translate(45.690477 0) scale(0.996264)"/>
      <use xlink:href="#CMR17-30" transform="translate(72.787654 0) scale(0.996264)"/>
      <use xlink:href="#CMR17-31" transform="translate(118.478131 0) scale(0.996264)"/>
      <use xlink:href="#CMR17-35" transform="translate(164.168608 0) scale(0.996264)"/>
     </g>
    </g>
   </g>
   <g id="xtick_31">
    <g id="line2d_37">
     <path d="M 300.079676 30.455547 
L 302.022175 30.947913 
" style="fill: none; stroke: #000000; stroke-width: 0.35; stroke-linecap: round"/>
    </g>
    <g id="text_38">
     <!-- $\mathdefault{0.020}$ -->
     <g transform="translate(307.611013 34.091557) scale(0.08 -0.08)">
      <use xlink:href="#CMR17-30" transform="scale(0.996264)"/>
      <use xlink:href="#CMMI12-3a" transform="translate(45.690477 0) scale(0.996264)"/>
      <use xlink:href="#CMR17-30" transform="translate(72.787654 0) scale(0.996264)"/>
      <use xlink:href="#CMR17-32" transform="translate(118.478131 0) scale(0.996264)"/>
      <use xlink:href="#CMR17-30" transform="translate(164.168608 0) scale(0.996264)"/>
     </g>
    </g>
   </g>
  </g>
  <g id="axes_2">
   <g id="Poly3DCollection_3">
    <path d="M 224.439967 66.611882 
L 225.072518 66.795739 
L 228.06165 67.664562 
L 231.062813 68.536882 
L 234.076079 69.412719 
L 237.101522 70.292096 
L 240.139215 71.175033 
L 243.189233 72.061553 
L 246.251651 72.951674 
L 249.326546 73.84541 
L 252.413993 74.74274 
L 255.514074 75.643495 
L 258.626886 76.546391 
L 261.752597 77.446926 
L 264.891681 78.327409 
L 268.045639 79.131677 
L 271.218562 79.7212 
L 274.422507 79.714872 
L 277.657796 79.256738 
L 280.873947 80.027591 
L 284.038411 82.702425 
L 287.229006 84.803663 
L 290.471125 85.804402 
L 293.728992 86.751466 
L 297.000556 87.702381 
L 300.285896 88.657299 
L 303.585101 89.616248 
z
" clip-path="url(#p50952f9915)" style="fill: #c2e69f; fill-opacity: 0.6; stroke: #c2e69f; stroke-opacity: 0.6; stroke-width: 0.5"/>
    <path d="M 213.682108 75.629332 
L 214.323186 75.820939 
L 216.846974 76.575256 
L 219.379398 77.332152 
L 221.920502 78.091642 
L 224.470332 78.853729 
L 227.028931 79.618408 
L 229.596345 80.385637 
L 232.172618 81.155003 
L 234.757796 81.925686 
L 237.351928 82.694468 
L 239.955093 83.44907 
L 242.567528 84.154316 
L 245.189934 84.73564 
L 247.824158 85.037662 
L 250.47427 84.796245 
L 253.141276 84.241139 
L 255.818776 84.03496 
L 258.476442 86.079935 
L 261.125804 88.864402 
L 263.797447 90.539707 
L 266.491931 91.412958 
L 269.197229 92.221851 
L 271.91212 93.033286 
L 274.636646 93.8476 
L 277.37086 94.66481 
L 280.114813 95.484931 
z
" clip-path="url(#p50952f9915)" style="fill: #c2e69f; fill-opacity: 0.6; stroke: #c2e69f; stroke-opacity: 0.6; stroke-width: 0.5"/>
    <path d="M 202.466027 85.030874 
L 203.115743 85.229011 
L 205.16151 85.858049 
L 207.212968 86.487806 
L 209.270142 87.118195 
L 211.332988 87.745779 
L 213.401492 88.367608 
L 215.475565 88.975672 
L 217.554428 89.518622 
L 219.638419 89.995474 
L 221.725685 90.246457 
L 223.81574 90.13789 
L 225.90949 89.583915 
L 228.008648 88.524371 
L 230.120707 87.638335 
L 232.251796 88.163203 
L 234.396699 90.551075 
L 236.544753 94.203802 
L 238.687777 95.977213 
L 240.834192 96.827642 
L 242.986627 97.494301 
L 245.145236 98.158315 
L 247.310042 98.824175 
L 249.481069 99.491948 
L 251.658346 100.161644 
L 253.8419 100.83327 
L 256.031757 101.506835 
z
" clip-path="url(#p50952f9915)" style="fill: #c2e69f; fill-opacity: 0.6; stroke: #c2e69f; stroke-opacity: 0.6; stroke-width: 0.5"/>
    <path d="M 190.761809 94.841581 
L 191.349777 93.174818 
L 192.90364 93.58183 
L 194.449082 93.650574 
L 195.99418 93.581773 
L 197.526338 92.975732 
L 199.053204 92.011602 
L 200.58095 90.8484 
L 202.094679 88.948908 
L 203.64092 87.881112 
L 205.215385 87.598184 
L 206.841032 89.115567 
L 208.509247 92.353497 
L 210.195755 96.534554 
L 211.859157 99.915392 
L 213.486156 101.70024 
L 215.094805 102.516921 
L 216.70121 103.058953 
L 218.310473 103.569174 
L 219.923233 104.080121 
L 221.539508 104.592168 
L 223.159309 105.105333 
L 224.782648 105.619618 
L 226.409537 106.135027 
L 228.039986 106.651565 
L 229.674009 107.169234 
L 231.311616 107.68804 
z
" clip-path="url(#p50952f9915)" style="fill: #c2e69f; fill-opacity: 0.6; stroke: #c2e69f; stroke-opacity: 0.6; stroke-width: 0.5"/>
    <path d="M 184.716581 99.908811 
L 184.007613 67.896647 
L 185.34417 68.308609 
L 186.689376 68.874304 
L 188.04733 69.709083 
L 189.442289 71.464106 
L 190.878651 74.331988 
L 192.350277 78.238313 
L 193.912323 84.83074 
L 195.435205 90.583981 
L 196.962848 96.737846 
L 198.429837 101.308169 
L 199.82579 103.806443 
L 201.181309 105.031164 
L 202.518976 105.619312 
L 203.854663 106.063453 
L 205.192374 106.49439 
L 206.532508 106.925443 
L 207.875089 107.357257 
L 209.220126 107.789859 
L 210.567623 108.223254 
L 211.91759 108.657442 
L 213.270031 109.092426 
L 214.624955 109.528209 
L 215.982368 109.964792 
L 217.342276 110.402178 
L 218.704687 110.840369 
z
" clip-path="url(#p50952f9915)" style="fill: #c2e69f; fill-opacity: 0.6; stroke: #c2e69f; stroke-opacity: 0.6; stroke-width: 0.5"/>
    <path d="M 178.53688 105.088759 
L 169.496989 -98.475415 
L 171.131258 -89.220348 
L 174.075769 -51.203281 
L 176.903867 -14.433514 
L 180.078041 31.450758 
L 182.683575 65.957868 
L 184.648726 86.752413 
L 186.327687 101.483246 
L 187.571201 106.148539 
L 188.699128 108.07972 
L 189.775459 108.728592 
L 190.842345 109.105502 
L 191.909741 109.456217 
L 192.978627 109.805428 
L 194.04908 110.155044 
L 195.121108 110.505168 
L 196.194714 110.855808 
L 197.269902 111.206965 
L 198.346675 111.558639 
L 199.425038 111.910832 
L 200.504992 112.263545 
L 201.586542 112.616779 
L 202.669692 112.970536 
L 203.754445 113.324816 
L 204.840804 113.679621 
L 205.928773 114.034952 
z
" clip-path="url(#p50952f9915)" style="fill: #c2e69f; fill-opacity: 0.6; stroke: #c2e69f; stroke-opacity: 0.6; stroke-width: 0.5"/>
   </g>
   <g id="text_39">
    <!-- $^4$He/Mg -->
    <g transform="translate(244.988055 39.16082) rotate(15.339606) scale(0.09 -0.09)">
     <defs>
      <path id="CMR17-4d" d="M 1338 4224 
C 1299 4320 1293 4320 1158 4320 
L 339 4320 
L 339 4160 
C 781 4160 851 4160 851 3875 
L 851 610 
C 851 451 851 153 339 153 
L 339 -13 
C 486 0 755 0 915 0 
C 1075 0 1344 0 1491 -13 
L 1491 153 
C 979 153 979 451 979 610 
L 979 4135 
L 986 4135 
L 2490 89 
C 2515 25 2528 -13 2579 -13 
C 2630 -13 2643 25 2669 89 
L 4186 4166 
L 4192 4166 
L 4192 438 
C 4192 153 4122 153 3680 153 
L 3680 -13 
C 3853 0 4198 0 4384 0 
C 4570 0 4922 0 5094 -13 
L 5094 153 
C 4653 153 4582 153 4582 438 
L 4582 3875 
C 4582 4160 4653 4160 5094 4160 
L 5094 4320 
L 4282 4320 
C 4147 4320 4141 4314 4102 4218 
L 2720 502 
L 1338 4224 
z
" transform="scale(0.015625)"/>
      <path id="CMR17-67" d="M 710 1164 
C 832 1068 1043 960 1299 960 
C 1805 960 2240 1357 2240 1888 
C 2240 2054 2189 2310 1997 2509 
C 2176 2692 2438 2752 2586 2752 
C 2611 2752 2650 2752 2682 2734 
C 2656 2728 2598 2703 2598 2605 
C 2598 2527 2656 2471 2739 2471 
C 2835 2471 2886 2533 2886 2614 
C 2886 2731 2790 2854 2586 2854 
C 2330 2854 2106 2738 1926 2580 
C 1734 2753 1504 2816 1299 2816 
C 794 2816 358 2419 358 1888 
C 358 1522 570 1292 634 1228 
C 442 1004 442 743 442 711 
C 442 545 506 302 723 168 
C 390 85 128 -169 128 -486 
C 128 -943 736 -1280 1466 -1280 
C 2170 -1280 2803 -956 2803 -479 
C 2803 384 1856 384 1363 384 
C 1216 384 954 384 922 391 
C 723 423 589 602 589 826 
C 589 883 589 1024 710 1164 
z
M 1299 1068 
C 736 1068 736 1760 736 1889 
C 736 2016 736 2708 1299 2708 
C 1862 2708 1862 2016 1862 1889 
C 1862 1760 1862 1068 1299 1068 
z
M 1466 -1171 
C 826 -1171 384 -835 384 -486 
C 384 -289 493 -105 634 -4 
C 794 104 858 104 1293 104 
C 1818 104 2547 104 2547 -486 
C 2547 -835 2106 -1171 1466 -1171 
z
" transform="scale(0.015625)"/>
     </defs>
     <use xlink:href="#CMR17-34" transform="translate(0 36.153639) scale(0.697382)"/>
     <use xlink:href="#CMR17-48" transform="translate(32.481314 0) scale(0.996264)"/>
     <use xlink:href="#CMR17-65" transform="translate(101.553744 0) scale(0.996264)"/>
     <use xlink:href="#CMR17-2f" transform="translate(142.039404 0) scale(0.996264)"/>
     <use xlink:href="#CMR17-4d" transform="translate(187.729881 0) scale(0.996264)"/>
     <use xlink:href="#CMR17-67" transform="translate(272.416822 0) scale(0.996264)"/>
    </g>
   </g>
   <g id="text_40">
    <!-- (b) -->
    <g transform="translate(181.941477 18.968745) scale(0.09 -0.09)">
     <defs>
      <path id="CMR17-62" d="M 960 4396 
L 198 4326 
L 198 4160 
C 576 4160 634 4122 634 3817 
L 634 -13 
L 749 -13 
L 934 441 
C 1120 141 1395 -64 1766 -64 
C 2406 -64 3053 500 3053 1370 
C 3053 2188 2477 2790 1830 2790 
C 1434 2790 1152 2579 960 2330 
L 960 4396 
z
M 973 2004 
C 973 2118 973 2138 1062 2272 
C 1312 2657 1670 2688 1792 2688 
C 1984 2688 2643 2585 2643 1376 
C 2643 108 1888 38 1734 38 
C 1536 38 1248 114 1043 486 
C 973 608 973 621 973 735 
L 973 2004 
z
" transform="scale(0.015625)"/>
     </defs>
     <use xlink:href="#CMR17-28" transform="scale(0.996264)"/>
     <use xlink:href="#CMR17-62" transform="translate(35.280768 0) scale(0.996264)"/>
     <use xlink:href="#CMR17-29" transform="translate(86.176138 0) scale(0.996264)"/>
    </g>
   </g>
   <g id="text_41">
    <!-- $\varrho(r)\;\; [{\rm\AA^{-3}}]$ -->
    <g transform="translate(284.803151 23.138813) scale(0.09 -0.09)">
     <use xlink:href="#CMMI12-25" transform="scale(0.996264)"/>
     <use xlink:href="#CMR17-28" transform="translate(50.314373 0) scale(0.996264)"/>
     <use xlink:href="#CMMI12-72" transform="translate(85.595141 0) scale(0.996264)"/>
     <use xlink:href="#CMR17-29" transform="translate(132.265753 0) scale(0.996264)"/>
     <use xlink:href="#CMR17-5b" transform="translate(222.894538 0) scale(0.996264)"/>
     <use xlink:href="#CMR17-17" transform="translate(247.765596 17.618744) scale(0.996264)"/>
     <use xlink:href="#CMR17-41" transform="translate(247.765596 0) scale(0.996264)"/>
     <use xlink:href="#CMSY10-0" transform="translate(316.838026 36.153639) scale(0.697382)"/>
     <use xlink:href="#CMR17-33" transform="translate(371.079019 36.153639) scale(0.697382)"/>
     <use xlink:href="#CMR17-5d" transform="translate(403.560333 0) scale(0.996264)"/>
    </g>
   </g>
   <g id="Poly3DCollection_4">
    <defs>
     <path id="mec46e0b282" d="M 206.425253 -27.359978 
L 256.618038 -10.967014 
L 298.098043 -53.535703 
z
" style="stroke: #c0c0c0"/>
    </defs>
    <g clip-path="url(#p50952f9915)">
     <use xlink:href="#mec46e0b282" x="0" y="141.557079" style="fill: #c0c0c0; stroke: #c0c0c0"/>
    </g>
   </g>
  </g>
  <g id="patch_10">
   <path d="M 334.34205 139.362263 
L 473.344313 139.362263 
L 473.344313 0.36 
L 334.34205 0.36 
L 334.34205 139.362263 
z
" style="fill: none"/>
  </g>
  <g id="pane3d_7">
   <g id="patch_11">
    <path d="M 344.83768 105.088759 
L 390.740767 66.611882 
L 390.10267 11.121346 
L 342.002884 46.222379 
" style="fill: #f2f2f2; opacity: 0.5; stroke: #f2f2f2; stroke-linejoin: miter"/>
   </g>
  </g>
  <g id="pane3d_8">
   <g id="patch_12">
    <path d="M 390.740767 66.611882 
L 464.398843 88.021377 
L 467.02744 30.619533 
L 390.10267 11.121346 
" style="fill: #e6e6e6; opacity: 0.5; stroke: #e6e6e6; stroke-linejoin: miter"/>
   </g>
  </g>
  <g id="pane3d_9">
   <g id="patch_13">
    <path d="M 344.83768 105.088759 
L 422.918838 130.590066 
L 464.398843 88.021377 
L 390.740767 66.611882 
" style="fill: #ececec; opacity: 0.5; stroke: #ececec; stroke-linejoin: miter"/>
   </g>
  </g>
  <g id="grid3d_7">
   <g id="Line3DCollection_7">
    <path d="M 345.505286 105.3068 
L 391.373318 66.795739 
L 390.761893 11.28844 
" style="fill: none; stroke: #b0b0b0; stroke-width: 0.8"/>
    <path d="M 362.39872 110.824195 
L 407.363782 71.443536 
L 407.434545 15.514471 
" style="fill: none; stroke: #b0b0b0; stroke-width: 0.8"/>
    <path d="M 379.692526 116.472352 
L 423.701567 76.192285 
L 424.485117 19.836294 
" style="fill: none; stroke: #b0b0b0; stroke-width: 0.8"/>
    <path d="M 397.401107 122.255975 
L 440.398112 81.045312 
L 441.926605 24.257203 
" style="fill: none; stroke: #b0b0b0; stroke-width: 0.8"/>
    <path d="M 415.539565 128.179995 
L 457.465365 86.006088 
L 459.772607 28.780644 
" style="fill: none; stroke: #b0b0b0; stroke-width: 0.8"/>
   </g>
  </g>
  <g id="grid3d_8">
   <g id="Line3DCollection_8">
    <path d="M 342.002884 46.222379 
L 344.83768 105.088759 
L 422.918838 130.590066 
" style="fill: none; stroke: #b0b0b0; stroke-width: 0.8"/>
    <path d="M 354.848558 36.848191 
L 357.062609 94.841581 
L 434.001631 119.216394 
" style="fill: none; stroke: #b0b0b0; stroke-width: 0.8"/>
    <path d="M 367.122738 27.891054 
L 368.766827 85.030874 
L 444.587942 108.352235 
" style="fill: none; stroke: #b0b0b0; stroke-width: 0.8"/>
    <path d="M 378.862732 19.323741 
L 379.982908 75.629332 
L 454.710401 97.964101 
" style="fill: none; stroke: #b0b0b0; stroke-width: 0.8"/>
    <path d="M 390.10267 11.121346 
L 390.740767 66.611882 
L 464.398843 88.021377 
" style="fill: none; stroke: #b0b0b0; stroke-width: 0.8"/>
   </g>
  </g>
  <g id="grid3d_9">
   <g id="Line3DCollection_9">
    <path d="M 464.398843 88.021377 
L 390.740767 66.611882 
L 344.83768 105.088759 
" style="fill: none; stroke: #b0b0b0; stroke-width: 0.8"/>
    <path d="M 465.249633 69.442294 
L 390.533941 48.625773 
L 343.921196 86.057376 
" style="fill: none; stroke: #b0b0b0; stroke-width: 0.8"/>
    <path d="M 466.125458 50.316509 
L 390.321324 30.136078 
L 342.976699 66.444277 
" style="fill: none; stroke: #b0b0b0; stroke-width: 0.8"/>
    <path d="M 467.02744 30.619533 
L 390.10267 11.121346 
L 342.002884 46.222379 
" style="fill: none; stroke: #b0b0b0; stroke-width: 0.8"/>
   </g>
  </g>
  <g id="axis3d_7">
   <g id="line2d_38">
    <path d="M 344.83768 105.088759 
L 422.918838 130.590066 
" style="fill: none; stroke: #000000; stroke-width: 0.35; stroke-linecap: round"/>
   </g>
   <g id="xtick_32">
    <g id="line2d_39">
     <path d="M 345.904611 104.971524 
L 344.704927 105.978786 
" style="fill: none; stroke: #000000; stroke-width: 0.35; stroke-linecap: round"/>
    </g>
    <g id="text_42">
     <!-- $\mathdefault{0.0}$ -->
     <g transform="translate(338.132499 114.918478) scale(0.08 -0.08)">
      <use xlink:href="#CMR17-30" transform="scale(0.996264)"/>
      <use xlink:href="#CMMI12-3a" transform="translate(45.690477 0) scale(0.996264)"/>
      <use xlink:href="#CMR17-30" transform="translate(72.787654 0) scale(0.996264)"/>
     </g>
    </g>
   </g>
   <g id="xtick_33">
    <g id="line2d_40">
     <path d="M 362.790556 110.481024 
L 361.613353 111.512024 
" style="fill: none; stroke: #000000; stroke-width: 0.35; stroke-linecap: round"/>
    </g>
    <g id="text_43">
     <!-- $\mathdefault{2.5}$ -->
     <g transform="translate(355.03449 120.494022) scale(0.08 -0.08)">
      <use xlink:href="#CMR17-32" transform="scale(0.996264)"/>
      <use xlink:href="#CMMI12-3a" transform="translate(45.690477 0) scale(0.996264)"/>
      <use xlink:href="#CMR17-35" transform="translate(72.787654 0) scale(0.996264)"/>
     </g>
    </g>
   </g>
   <g id="xtick_34">
    <g id="line2d_41">
     <path d="M 380.076403 116.121002 
L 378.923091 117.176591 
" style="fill: none; stroke: #000000; stroke-width: 0.35; stroke-linecap: round"/>
    </g>
    <g id="text_44">
     <!-- $\mathdefault{5.0}$ -->
     <g transform="translate(372.337813 126.201956) scale(0.08 -0.08)">
      <use xlink:href="#CMR17-35" transform="scale(0.996264)"/>
      <use xlink:href="#CMMI12-3a" transform="translate(45.690477 0) scale(0.996264)"/>
      <use xlink:href="#CMR17-30" transform="translate(72.787654 0) scale(0.996264)"/>
     </g>
    </g>
   </g>
   <g id="xtick_35">
    <g id="line2d_42">
     <path d="M 397.776528 121.89615 
L 396.6486 122.977218 
" style="fill: none; stroke: #000000; stroke-width: 0.35; stroke-linecap: round"/>
    </g>
    <g id="text_45">
     <!-- $\mathdefault{7.5}$ -->
     <g transform="translate(390.056934 132.047051) scale(0.08 -0.08)">
      <use xlink:href="#CMR17-37" transform="scale(0.996264)"/>
      <use xlink:href="#CMMI12-3a" transform="translate(45.690477 0) scale(0.996264)"/>
      <use xlink:href="#CMR17-35" transform="translate(72.787654 0) scale(0.996264)"/>
     </g>
    </g>
   </g>
   <g id="xtick_36">
    <g id="line2d_43">
     <path d="M 415.906005 127.811386 
L 414.805041 128.918866 
" style="fill: none; stroke: #000000; stroke-width: 0.35; stroke-linecap: round"/>
    </g>
    <g id="text_46">
     <!-- $\mathdefault{10.0}$ -->
     <g transform="translate(406.089931 138.034312) scale(0.08 -0.08)">
      <use xlink:href="#CMR17-31" transform="scale(0.996264)"/>
      <use xlink:href="#CMR17-30" transform="translate(45.690477 0) scale(0.996264)"/>
      <use xlink:href="#CMMI12-3a" transform="translate(91.380954 0) scale(0.996264)"/>
      <use xlink:href="#CMR17-30" transform="translate(118.478131 0) scale(0.996264)"/>
     </g>
    </g>
   </g>
   <g id="text_47">
    <!-- $r$ [Å] -->
    <g transform="translate(366.400972 132.573222) rotate(-341.912962) scale(0.08 -0.08)">
     <use xlink:href="#CMMI12-72" transform="scale(0.996264)"/>
     <use xlink:href="#CMR17-5b" transform="translate(76.746578 0) scale(0.996264)"/>
     <use xlink:href="#CMR17-17" transform="translate(101.617637 17.618744) scale(0.996264)"/>
     <use xlink:href="#CMR17-41" transform="translate(101.617637 0) scale(0.996264)"/>
     <use xlink:href="#CMR17-5d" transform="translate(170.690067 0) scale(0.996264)"/>
    </g>
   </g>
  </g>
  <g id="axis3d_8">
   <g id="line2d_44">
    <path d="M 464.398843 88.021377 
L 422.918838 130.590066 
" style="fill: none; stroke: #000000; stroke-width: 0.35; stroke-linecap: round"/>
   </g>
   <g id="xtick_37">
    <g id="line2d_45">
     <path d="M 422.260647 130.3751 
L 424.236933 131.020555 
" style="fill: none; stroke: #000000; stroke-width: 0.35; stroke-linecap: round"/>
    </g>
    <g id="text_48">
     <!-- $\mathdefault{4}$ -->
     <g transform="translate(424.180099 139.647334) scale(0.08 -0.08)">
      <use xlink:href="#CMR17-34" transform="scale(0.996264)"/>
     </g>
    </g>
   </g>
   <g id="xtick_38">
    <g id="line2d_46">
     <path d="M 433.353824 119.011164 
L 435.298891 119.627375 
" style="fill: none; stroke: #000000; stroke-width: 0.35; stroke-linecap: round"/>
    </g>
    <g id="text_49">
     <!-- $\mathdefault{6}$ -->
     <g transform="translate(435.18872 128.18959) scale(0.08 -0.08)">
      <use xlink:href="#CMR17-36" transform="scale(0.996264)"/>
     </g>
    </g>
   </g>
   <g id="xtick_39">
    <g id="line2d_47">
     <path d="M 443.95026 108.156094 
L 445.864889 108.745003 
" style="fill: none; stroke: #000000; stroke-width: 0.35; stroke-linecap: round"/>
    </g>
    <g id="text_50">
     <!-- $\mathdefault{8}$ -->
     <g transform="translate(445.704041 117.245272) scale(0.08 -0.08)">
      <use xlink:href="#CMR17-38" transform="scale(0.996264)"/>
     </g>
    </g>
   </g>
   <g id="xtick_40">
    <g id="line2d_48">
     <path d="M 454.082589 97.776458 
L 455.967552 98.339842 
" style="fill: none; stroke: #000000; stroke-width: 0.35; stroke-linecap: round"/>
    </g>
    <g id="text_51">
     <!-- $\mathdefault{10}$ -->
     <g transform="translate(453.641401 106.780626) scale(0.08 -0.08)">
      <use xlink:href="#CMR17-31" transform="scale(0.996264)"/>
      <use xlink:href="#CMR17-30" transform="translate(45.690477 0) scale(0.996264)"/>
     </g>
    </g>
   </g>
   <g id="xtick_41">
    <g id="line2d_49">
     <path d="M 463.780648 87.841692 
L 465.636701 88.381173 
" style="fill: none; stroke: #000000; stroke-width: 0.35; stroke-linecap: round"/>
    </g>
    <g id="text_52">
     <!-- $\mathdefault{12}$ -->
     <g transform="translate(463.264631 96.764794) scale(0.08 -0.08)">
      <use xlink:href="#CMR17-31" transform="scale(0.996264)"/>
      <use xlink:href="#CMR17-32" transform="translate(45.690477 0) scale(0.996264)"/>
     </g>
    </g>
   </g>
   <g id="text_53">
    <!-- $R$ [Å] -->
    <g transform="translate(455.462816 134.159188) rotate(-45.742112) scale(0.08 -0.08)">
     <use xlink:href="#CMMI12-52" transform="scale(0.996264)"/>
     <use xlink:href="#CMR17-5b" transform="translate(105.146928 0) scale(0.996264)"/>
     <use xlink:href="#CMR17-17" transform="translate(130.017987 17.618744) scale(0.996264)"/>
     <use xlink:href="#CMR17-41" transform="translate(130.017987 0) scale(0.996264)"/>
     <use xlink:href="#CMR17-5d" transform="translate(199.090417 0) scale(0.996264)"/>
    </g>
   </g>
  </g>
  <g id="axis3d_9">
   <g id="line2d_50">
    <path d="M 464.398843 88.021377 
L 467.02744 30.619533 
" style="fill: none; stroke: #000000; stroke-width: 0.35; stroke-linecap: round"/>
   </g>
   <g id="xtick_42">
    <g id="line2d_51">
     <path d="M 463.780648 87.841692 
L 465.636701 88.381173 
" style="fill: none; stroke: #000000; stroke-width: 0.35; stroke-linecap: round"/>
    </g>
    <g id="text_54">
     <!-- $\mathdefault{0.00}$ -->
     <g transform="translate(472.708225 91.295469) scale(0.08 -0.08)">
      <use xlink:href="#CMR17-30" transform="scale(0.996264)"/>
      <use xlink:href="#CMMI12-3a" transform="translate(45.690477 0) scale(0.996264)"/>
      <use xlink:href="#CMR17-30" transform="translate(72.787654 0) scale(0.996264)"/>
      <use xlink:href="#CMR17-30" transform="translate(118.478131 0) scale(0.996264)"/>
     </g>
    </g>
   </g>
   <g id="xtick_43">
    <g id="line2d_52">
     <path d="M 464.622137 69.267467 
L 466.506138 69.792368 
" style="fill: none; stroke: #000000; stroke-width: 0.35; stroke-linecap: round"/>
    </g>
    <g id="text_55">
     <!-- $\mathdefault{0.01}$ -->
     <g transform="translate(473.783182 72.777656) scale(0.08 -0.08)">
      <use xlink:href="#CMR17-30" transform="scale(0.996264)"/>
      <use xlink:href="#CMMI12-3a" transform="translate(45.690477 0) scale(0.996264)"/>
      <use xlink:href="#CMR17-30" transform="translate(72.787654 0) scale(0.996264)"/>
      <use xlink:href="#CMR17-31" transform="translate(118.478131 0) scale(0.996264)"/>
     </g>
    </g>
   </g>
   <g id="xtick_44">
    <g id="line2d_53">
     <path d="M 465.488377 50.146907 
L 467.40118 50.65613 
" style="fill: none; stroke: #000000; stroke-width: 0.35; stroke-linecap: round"/>
    </g>
    <g id="text_56">
     <!-- $\mathdefault{0.02}$ -->
     <g transform="translate(474.889607 53.717738) scale(0.08 -0.08)">
      <use xlink:href="#CMR17-30" transform="scale(0.996264)"/>
      <use xlink:href="#CMMI12-3a" transform="translate(45.690477 0) scale(0.996264)"/>
      <use xlink:href="#CMR17-30" transform="translate(72.787654 0) scale(0.996264)"/>
      <use xlink:href="#CMR17-32" transform="translate(118.478131 0) scale(0.996264)"/>
     </g>
    </g>
   </g>
   <g id="xtick_45">
    <g id="line2d_54">
     <path d="M 466.380476 30.455547 
L 468.322975 30.947913 
" style="fill: none; stroke: #000000; stroke-width: 0.35; stroke-linecap: round"/>
    </g>
    <g id="text_57">
     <!-- $\mathdefault{0.03}$ -->
     <g transform="translate(476.028904 34.091557) scale(0.08 -0.08)">
      <use xlink:href="#CMR17-30" transform="scale(0.996264)"/>
      <use xlink:href="#CMMI12-3a" transform="translate(45.690477 0) scale(0.996264)"/>
      <use xlink:href="#CMR17-30" transform="translate(72.787654 0) scale(0.996264)"/>
      <use xlink:href="#CMR17-33" transform="translate(118.478131 0) scale(0.996264)"/>
     </g>
    </g>
   </g>
  </g>
  <g id="axes_3">
   <g id="Poly3DCollection_5">
    <path d="M 390.740767 66.611882 
L 391.371657 66.645015 
L 394.361097 67.509501 
L 397.36251 68.365142 
L 400.376082 69.2189 
L 403.401914 70.063551 
L 406.44017 70.894313 
L 409.491045 71.713013 
L 412.554801 72.505768 
L 415.631557 73.294596 
L 418.721614 74.063154 
L 421.825103 74.821141 
L 424.942305 75.562311 
L 428.072202 76.359026 
L 431.213999 77.236702 
L 434.366234 78.239428 
L 437.527723 79.382069 
L 440.697577 80.662919 
L 443.880207 81.901627 
L 447.080529 82.958158 
L 450.296947 83.921214 
L 453.527651 84.861547 
L 456.771919 85.804531 
L 460.029792 86.751466 
L 463.301356 87.702381 
L 466.586696 88.657299 
L 469.885901 89.616248 
z
" clip-path="url(#p2cdd86dbda)" style="fill: #5e4fa2; fill-opacity: 0.6; stroke: #5e4fa2; stroke-opacity: 0.6; stroke-width: 0.5"/>
    <path d="M 379.982908 75.629332 
L 380.601934 74.684339 
L 383.127763 75.429238 
L 385.66183 76.147981 
L 388.204652 76.863058 
L 390.756027 77.549877 
L 393.316376 78.228348 
L 395.885856 78.904425 
L 398.464383 79.549116 
L 401.052444 80.227002 
L 403.649908 80.940649 
L 406.256609 81.724515 
L 408.872072 82.6249 
L 411.495615 83.648624 
L 414.126639 84.780711 
L 416.76484 85.985163 
L 419.411507 87.104416 
L 422.067258 88.135918 
L 424.733939 88.996195 
L 427.410674 89.804265 
L 430.096953 90.60756 
L 432.792724 91.413282 
L 435.498029 92.221852 
L 438.21292 93.033286 
L 440.937446 93.8476 
L 443.67166 94.66481 
L 446.415613 95.484931 
z
" clip-path="url(#p2cdd86dbda)" style="fill: #5e4fa2; fill-opacity: 0.6; stroke: #5e4fa2; stroke-opacity: 0.6; stroke-width: 0.5"/>
    <path d="M 368.766827 85.030874 
L 369.281071 80.437199 
L 371.334079 81.053849 
L 373.392319 81.650292 
L 375.456713 82.260187 
L 377.527813 82.910171 
L 379.60614 83.633732 
L 381.691726 84.449863 
L 383.786876 85.51786 
L 385.887275 86.636071 
L 387.995204 87.985178 
L 390.107915 89.430846 
L 392.223421 90.827682 
L 394.341689 92.143061 
L 396.462164 93.241661 
L 398.585924 94.119543 
L 400.714359 94.84261 
L 402.848506 95.513251 
L 404.988689 96.172123 
L 407.134987 96.832305 
L 409.287427 97.494362 
L 411.446036 98.158315 
L 413.610842 98.824175 
L 415.781869 99.491948 
L 417.959146 100.161644 
L 420.1427 100.83327 
L 422.332557 101.506835 
z
" clip-path="url(#p2cdd86dbda)" style="fill: #5e4fa2; fill-opacity: 0.6; stroke: #5e4fa2; stroke-opacity: 0.6; stroke-width: 0.5"/>
    <path d="M 357.062609 94.841581 
L 356.650374 66.621046 
L 358.259189 67.65695 
L 359.940629 70.694165 
L 361.62997 74.044877 
L 363.367705 78.978088 
L 365.098648 83.931228 
L 366.802434 88.237467 
L 368.51239 92.959428 
L 370.163559 95.826562 
L 371.796822 98.11453 
L 373.407237 99.545002 
L 375.004749 100.397113 
L 376.599324 101.010472 
L 378.195116 101.534779 
L 379.793967 102.042952 
L 381.396252 102.550644 
L 383.002017 103.059364 
L 384.611273 103.569188 
L 386.224033 104.080122 
L 387.840308 104.592168 
L 389.460109 105.105333 
L 391.083448 105.619618 
L 392.710337 106.135027 
L 394.340786 106.651565 
L 395.974809 107.169234 
L 397.612416 107.68804 
z
" clip-path="url(#p2cdd86dbda)" style="fill: #5e4fa2; fill-opacity: 0.6; stroke: #5e4fa2; stroke-opacity: 0.6; stroke-width: 0.5"/>
    <path d="M 351.017381 99.908811 
L 348.423094 23.616275 
L 349.932554 27.108173 
L 351.84869 40.721979 
L 353.735041 54.19883 
L 355.741274 71.416984 
L 357.575329 84.893578 
L 359.20586 93.456014 
L 360.749097 99.959481 
L 362.142635 102.406001 
L 363.495496 103.68732 
L 364.827982 104.319575 
L 366.156896 104.775123 
L 367.487393 105.20588 
L 368.820226 105.634712 
L 370.155483 106.064177 
L 371.493175 106.494418 
L 372.833308 106.925444 
L 374.175889 107.357257 
L 375.520926 107.789859 
L 376.868423 108.223254 
L 378.21839 108.657442 
L 379.570831 109.092426 
L 380.925755 109.528209 
L 382.283168 109.964792 
L 383.643076 110.402178 
L 385.005487 110.840369 
z
" clip-path="url(#p2cdd86dbda)" style="fill: #5e4fa2; fill-opacity: 0.6; stroke: #5e4fa2; stroke-opacity: 0.6; stroke-width: 0.5"/>
    <path d="M 344.83768 105.088759 
L 332.324132 -171.395298 
L 334.835079 -144.689489 
L 340.352168 -51.733749 
L 344.524945 14.790923 
L 348.125382 70.827987 
L 350.294624 96.058239 
L 351.699898 104.324335 
L 352.873414 107.332261 
L 353.947536 107.98885 
L 355.012808 108.400015 
L 356.077409 108.757798 
L 357.143219 109.107399 
L 358.210544 109.456278 
L 359.279427 109.805424 
L 360.34988 110.155042 
L 361.421908 110.505168 
L 362.495514 110.855808 
L 363.570702 111.206965 
L 364.647475 111.558639 
L 365.725838 111.910832 
L 366.805792 112.263545 
L 367.887342 112.616779 
L 368.970492 112.970536 
L 370.055245 113.324816 
L 371.141604 113.679621 
L 372.229573 114.034952 
z
" clip-path="url(#p2cdd86dbda)" style="fill: #5e4fa2; fill-opacity: 0.6; stroke: #5e4fa2; stroke-opacity: 0.6; stroke-width: 0.5"/>
   </g>
   <g id="text_58">
    <!-- $^4$He/Cs -->
    <g transform="translate(411.282096 42.624849) rotate(15.437978) scale(0.09 -0.09)">
     <defs>
      <path id="CMR17-43" d="M 3974 4289 
C 3974 4403 3968 4410 3930 4410 
C 3904 4410 3898 4403 3853 4327 
L 3571 3792 
C 3258 4187 2874 4416 2381 4416 
C 1286 4416 294 3456 294 2148 
C 294 826 1286 -128 2387 -128 
C 3366 -128 3974 730 3974 1461 
C 3974 1524 3974 1550 3917 1550 
C 3866 1550 3866 1531 3859 1474 
C 3808 585 3168 38 2477 38 
C 1824 38 781 495 781 2147 
C 781 3805 1843 4250 2464 4250 
C 3187 4250 3712 3628 3834 2745 
C 3846 2668 3846 2655 3904 2655 
C 3974 2655 3974 2668 3974 2783 
L 3974 4289 
z
" transform="scale(0.015625)"/>
      <path id="CMR17-73" d="M 1978 2697 
C 1978 2813 1971 2819 1933 2819 
C 1907 2819 1901 2813 1824 2717 
C 1805 2691 1747 2626 1728 2601 
C 1523 2819 1235 2819 1126 2819 
C 416 2819 160 2447 160 2076 
C 160 1498 813 1365 998 1325 
C 1402 1243 1542 1217 1677 1101 
C 1760 1025 1901 884 1901 654 
C 1901 384 1747 38 1158 38 
C 602 38 403 460 288 1021 
C 269 1110 269 1117 218 1117 
C 166 1117 160 1110 160 983 
L 160 63 
C 160 -51 166 -58 205 -58 
C 237 -58 243 -51 275 0 
C 314 57 410 211 448 276 
C 576 103 800 -64 1158 -64 
C 1792 -64 2131 283 2131 784 
C 2131 1112 1958 1285 1875 1362 
C 1683 1561 1459 1606 1190 1657 
C 838 1735 390 1825 390 2217 
C 390 2383 480 2737 1126 2737 
C 1811 2737 1850 2094 1862 1888 
C 1869 1856 1901 1849 1920 1849 
C 1978 1849 1978 1869 1978 1978 
L 1978 2697 
z
" transform="scale(0.015625)"/>
     </defs>
     <use xlink:href="#CMR17-34" transform="translate(0 36.153639) scale(0.697382)"/>
     <use xlink:href="#CMR17-48" transform="translate(32.481314 0) scale(0.996264)"/>
     <use xlink:href="#CMR17-65" transform="translate(101.553744 0) scale(0.996264)"/>
     <use xlink:href="#CMR17-2f" transform="translate(142.039404 0) scale(0.996264)"/>
     <use xlink:href="#CMR17-43" transform="translate(187.729881 0) scale(0.996264)"/>
     <use xlink:href="#CMR17-73" transform="translate(254.239762 0) scale(0.996264)"/>
    </g>
   </g>
   <g id="text_59">
    <!-- (c) -->
    <g transform="translate(348.242277 18.968745) scale(0.09 -0.09)">
     <defs>
      <path id="CMR17-63" d="M 2234 2240 
C 2112 2240 1933 2240 1933 2017 
C 1933 1838 2080 1787 2163 1787 
C 2208 1787 2394 1807 2394 2024 
C 2394 2467 1958 2803 1466 2803 
C 787 2803 211 2178 211 1363 
C 211 516 813 -64 1466 -64 
C 2259 -64 2458 677 2458 748 
C 2458 774 2451 793 2406 793 
C 2362 793 2355 787 2330 703 
C 2163 180 1798 51 1523 51 
C 1114 51 621 427 621 1369 
C 621 2338 1094 2688 1472 2688 
C 1722 2688 2093 2573 2234 2240 
z
" transform="scale(0.015625)"/>
     </defs>
     <use xlink:href="#CMR17-28" transform="scale(0.996264)"/>
     <use xlink:href="#CMR17-63" transform="translate(35.280768 0) scale(0.996264)"/>
     <use xlink:href="#CMR17-29" transform="translate(75.766428 0) scale(0.996264)"/>
    </g>
   </g>
   <g id="text_60">
    <!-- $\varrho(r)\;\; [{\rm\AA^{-3}}]$ -->
    <g transform="translate(449.713929 23.138813) scale(0.09 -0.09)">
     <use xlink:href="#CMMI12-25" transform="scale(0.996264)"/>
     <use xlink:href="#CMR17-28" transform="translate(50.314373 0) scale(0.996264)"/>
     <use xlink:href="#CMMI12-72" transform="translate(85.595141 0) scale(0.996264)"/>
     <use xlink:href="#CMR17-29" transform="translate(132.265753 0) scale(0.996264)"/>
     <use xlink:href="#CMR17-5b" transform="translate(222.894538 0) scale(0.996264)"/>
     <use xlink:href="#CMR17-17" transform="translate(247.765596 17.618744) scale(0.996264)"/>
     <use xlink:href="#CMR17-41" transform="translate(247.765596 0) scale(0.996264)"/>
     <use xlink:href="#CMSY10-0" transform="translate(316.838026 36.153639) scale(0.697382)"/>
     <use xlink:href="#CMR17-33" transform="translate(371.079019 36.153639) scale(0.697382)"/>
     <use xlink:href="#CMR17-5d" transform="translate(403.560333 0) scale(0.996264)"/>
    </g>
   </g>
   <g id="Poly3DCollection_6">
    <defs>
     <path id="me559718657" d="M 372.726053 -27.359978 
L 422.918838 -10.967014 
L 464.398843 -53.535703 
z
" style="stroke: #c0c0c0"/>
    </defs>
    <g clip-path="url(#p2cdd86dbda)">
     <use xlink:href="#me559718657" x="0" y="141.557079" style="fill: #c0c0c0; stroke: #c0c0c0"/>
    </g>
   </g>
  </g>
 </g>
 <defs>
  <clipPath id="p668c02f208">
   <rect x="0.36" y="0.36" width="139.002263" height="139.002263"/>
  </clipPath>
  <clipPath id="p50952f9915">
   <rect x="168.04125" y="0.36" width="139.002263" height="139.002263"/>
  </clipPath>
  <clipPath id="p2cdd86dbda">
   <rect x="334.34205" y="0.36" width="139.002263" height="139.002263"/>
  </clipPath>
 </defs>
</svg>
