<?xml version="1.0" encoding="utf-8" standalone="no"?>
<!DOCTYPE svg PUBLIC "-//W3C//DTD SVG 1.1//EN"
  "http://www.w3.org/Graphics/SVG/1.1/DTD/svg11.dtd">
<svg xmlns:xlink="http://www.w3.org/1999/xlink" width="244.17072pt" height="219.2256pt" viewBox="0 0 244.17072 219.2256" xmlns="http://www.w3.org/2000/svg" version="1.1">
 <metadata>
  <rdf:RDF xmlns:dc="http://purl.org/dc/elements/1.1/" xmlns:cc="http://creativecommons.org/ns#" xmlns:rdf="http://www.w3.org/1999/02/22-rdf-syntax-ns#">
   <cc:Work>
    <dc:type rdf:resource="http://purl.org/dc/dcmitype/StillImage"/>
    <dc:date>2025-09-12T14:50:50.117306</dc:date>
    <dc:format>image/svg+xml</dc:format>
    <dc:creator>
     <cc:Agent>
      <dc:title>Matplotlib v3.10.1, https://matplotlib.org/</dc:title>
     </cc:Agent>
    </dc:creator>
   </cc:Work>
  </rdf:RDF>
 </metadata>
 <defs>
  <style type="text/css">*{stroke-linejoin: round; stroke-linecap: butt}</style>
 </defs>
 <g id="figure_1">
  <g id="patch_1">
   <path d="M 0 219.2256 
L 244.17072 219.2256 
L 244.17072 0 
L 0 0 
L 0 219.2256 
z
" style="fill: none"/>
  </g>
  <g id="axes_1">
   <g id="patch_2">
    <path d="M 23.259457 196.844578 
L 243.81072 196.844578 
L 243.81072 0.36 
L 23.259457 0.36 
L 23.259457 196.844578 
z
" style="fill: none"/>
   </g>
   <g id="QuadContourSet_1">
    <path d="M 60.734076 196.844578 
L 63.120994 196.844578 
L 65.507913 196.844578 
L 67.894831 196.844578 
L 70.28175 196.844578 
L 72.668668 196.844578 
L 75.055587 196.844578 
L 77.442505 196.844578 
L 79.829424 196.844578 
L 82.216342 196.844578 
L 84.60326 196.844578 
L 86.990179 196.844578 
L 89.377097 196.844578 
L 91.764016 196.844578 
L 94.150934 196.844578 
L 96.537853 196.844578 
L 98.924771 196.844578 
L 101.311689 196.844578 
L 103.698608 196.844578 
L 106.085526 196.844578 
L 108.472445 196.844578 
L 110.859363 196.844578 
L 113.246282 196.844578 
L 115.6332 196.844578 
L 118.020118 196.844578 
L 120.407037 196.844578 
L 122.793955 196.844578 
L 125.180874 196.844578 
L 127.567792 196.844578 
L 129.954711 196.844578 
L 132.341629 196.844578 
L 134.728548 196.844578 
L 137.115466 196.844578 
L 139.502384 196.844578 
L 141.889303 196.844578 
L 144.276221 196.844578 
L 146.66314 196.844578 
L 149.050058 196.844578 
L 151.436977 196.844578 
L 153.823895 196.844578 
L 156.210813 196.844578 
L 158.597732 196.844578 
L 160.98465 196.844578 
L 163.371569 196.844578 
L 165.758487 196.844578 
L 168.145406 196.844578 
L 170.532324 196.844578 
L 172.919242 196.844578 
L 175.306161 196.844578 
L 177.693079 196.844578 
L 180.079998 196.844578 
L 182.466916 196.844578 
L 184.853835 196.844578 
L 187.240753 196.844578 
L 189.627672 196.844578 
L 192.01459 196.844578 
L 194.401508 196.844578 
L 196.788427 196.844578 
L 199.175345 196.844578 
L 201.562264 196.844578 
L 203.949182 196.844578 
L 206.336101 196.844578 
L 208.723019 196.844578 
L 211.109937 196.844578 
L 213.496856 196.844578 
L 215.883774 196.844578 
L 218.270693 196.844578 
L 220.657611 196.844578 
L 223.04453 196.844578 
L 225.431448 196.844578 
L 227.818366 196.844578 
L 230.205285 196.844578 
L 232.592203 196.844578 
L 234.979122 196.844578 
L 237.36604 196.844578 
L 239.752959 196.844578 
L 242.139877 196.844578 
L 244.526796 196.844578 
L 246.913714 196.844578 
L 249.300632 196.844578 
L 251.687551 196.844578 
L 251.687551 194.754815 
L 251.687551 192.665051 
L 251.687551 190.575288 
L 251.687551 188.485524 
L 251.687551 186.39576 
L 251.687551 184.305997 
L 251.687551 182.216233 
L 251.687551 180.12647 
L 251.687551 178.036706 
L 251.687551 175.946942 
L 251.687551 173.857179 
L 251.687551 171.767415 
L 251.687551 169.677652 
L 251.687551 167.587888 
L 251.687551 165.498124 
L 251.687551 163.408361 
L 251.687551 161.318597 
L 251.687551 159.228834 
L 251.687551 157.13907 
L 251.687551 155.049306 
L 251.687551 152.959543 
L 251.687551 150.869779 
L 251.687551 148.780016 
L 251.687551 146.690252 
L 251.687551 144.600488 
L 251.687551 142.749074 
L 249.300632 142.725031 
L 246.913714 142.669431 
L 244.526796 142.573439 
L 243.432579 142.510725 
L 242.139877 142.459878 
L 239.752959 142.34708 
L 237.36604 142.237138 
L 234.979122 142.156982 
L 232.592203 142.127122 
L 230.205285 142.153874 
L 227.818366 142.230124 
L 225.431448 142.342273 
L 223.04453 142.477266 
L 222.502539 142.510725 
L 220.657611 142.659913 
L 218.270693 142.862267 
L 215.883774 143.071183 
L 213.496856 143.28515 
L 211.109937 143.503462 
L 208.723019 143.725955 
L 206.336101 143.953035 
L 203.949182 144.185438 
L 201.562264 144.423814 
L 199.826354 144.600488 
L 199.175345 144.688296 
L 196.788427 145.009827 
L 194.401508 145.331332 
L 192.01459 145.646766 
L 189.627672 145.94813 
L 187.240753 146.227552 
L 184.853835 146.480853 
L 182.678733 146.690252 
L 182.466916 146.715003 
L 180.079998 146.97514 
L 177.693079 147.231478 
L 175.306161 147.498264 
L 172.919242 147.784769 
L 170.532324 148.094884 
L 168.145406 148.428601 
L 165.784106 148.780016 
L 165.758487 148.784177 
L 163.371569 149.191332 
L 160.98465 149.610427 
L 158.597732 150.039246 
L 156.210813 150.475962 
L 154.088801 150.869779 
L 153.823895 150.920585 
L 151.436977 151.381634 
L 149.050058 151.844092 
L 146.66314 152.305948 
L 144.276221 152.763168 
L 143.222904 152.959543 
L 141.889303 153.210417 
L 139.502384 153.635126 
L 137.115466 154.02092 
L 134.728548 154.353235 
L 132.341629 154.622132 
L 129.954711 154.825439 
L 127.567792 154.968245 
L 125.430464 155.049306 
L 125.180874 155.058789 
L 122.793955 155.103052 
L 120.407037 155.103147 
L 118.020118 155.055166 
L 117.882249 155.049306 
L 115.6332 154.948819 
L 113.246282 154.77593 
L 110.859363 154.531259 
L 108.472445 154.21561 
L 106.085526 153.836688 
L 103.698608 153.407475 
L 101.394909 152.959543 
L 101.311689 152.943134 
L 98.924771 152.458489 
L 96.537853 151.970744 
L 94.150934 151.499396 
L 91.764016 151.079001 
L 90.148473 150.869779 
L 89.377097 150.770363 
L 86.990179 150.661015 
L 84.60326 150.856512 
L 84.549153 150.869779 
L 82.216342 151.458354 
L 79.829424 152.54041 
L 79.169887 152.959543 
L 77.442505 154.10817 
L 76.287699 155.049306 
L 75.055587 156.109512 
L 73.956907 157.13907 
L 72.668668 158.429293 
L 71.868561 159.228834 
L 70.28175 160.947543 
L 69.91806 161.318597 
L 68.036184 163.408361 
L 67.894831 163.574617 
L 66.164973 165.498124 
L 65.507913 166.303294 
L 64.440896 167.587888 
L 63.120994 169.367571 
L 62.907901 169.677652 
L 61.535084 171.767415 
L 60.734076 173.112699 
L 60.355779 173.857179 
L 59.330278 175.946942 
L 58.400155 178.036706 
L 58.347158 178.163935 
L 57.646781 180.12647 
L 57.006319 182.216233 
L 56.524836 184.305997 
L 56.276458 186.39576 
L 56.345162 188.485524 
L 56.781834 190.575288 
L 57.528542 192.665051 
L 58.347158 194.734179 
L 58.356643 194.754815 
L 58.956568 196.844578 
z
" clip-path="url(#pe6e6a704cc)" style="fill: #c6c1de"/>
    <path d="M 41.638729 196.844578 
L 44.025647 196.844578 
L 46.412565 196.844578 
L 48.799484 196.844578 
L 51.186402 196.844578 
L 53.573321 196.844578 
L 55.960239 196.844578 
L 58.347158 196.844578 
L 58.956568 196.844578 
L 58.356643 194.754815 
L 58.347158 194.734179 
L 57.528542 192.665051 
L 56.781834 190.575288 
L 56.345162 188.485524 
L 56.276458 186.39576 
L 56.524836 184.305997 
L 57.006319 182.216233 
L 57.646781 180.12647 
L 58.347158 178.163935 
L 58.400155 178.036706 
L 59.330278 175.946942 
L 60.355779 173.857179 
L 60.734076 173.112699 
L 61.535084 171.767415 
L 62.907901 169.677652 
L 63.120994 169.367571 
L 64.440896 167.587888 
L 65.507913 166.303294 
L 66.164973 165.498124 
L 67.894831 163.574617 
L 68.036184 163.408361 
L 69.91806 161.318597 
L 70.28175 160.947543 
L 71.868561 159.228834 
L 72.668668 158.429293 
L 73.956907 157.13907 
L 75.055587 156.109512 
L 76.287699 155.049306 
L 77.442505 154.10817 
L 79.169887 152.959543 
L 79.829424 152.54041 
L 82.216342 151.458354 
L 84.549153 150.869779 
L 84.60326 150.856512 
L 86.990179 150.661015 
L 89.377097 150.770363 
L 90.148473 150.869779 
L 91.764016 151.079001 
L 94.150934 151.499396 
L 96.537853 151.970744 
L 98.924771 152.458489 
L 101.311689 152.943134 
L 101.394909 152.959543 
L 103.698608 153.407475 
L 106.085526 153.836688 
L 108.472445 154.21561 
L 110.859363 154.531259 
L 113.246282 154.77593 
L 115.6332 154.948819 
L 117.882249 155.049306 
L 118.020118 155.055166 
L 120.407037 155.103147 
L 122.793955 155.103052 
L 125.180874 155.058789 
L 125.430464 155.049306 
L 127.567792 154.968245 
L 129.954711 154.825439 
L 132.341629 154.622132 
L 134.728548 154.353235 
L 137.115466 154.02092 
L 139.502384 153.635126 
L 141.889303 153.210417 
L 143.222904 152.959543 
L 144.276221 152.763168 
L 146.66314 152.305948 
L 149.050058 151.844092 
L 151.436977 151.381634 
L 153.823895 150.920585 
L 154.088801 150.869779 
L 156.210813 150.475962 
L 158.597732 150.039246 
L 160.98465 149.610427 
L 163.371569 149.191332 
L 165.758487 148.784177 
L 165.784106 148.780016 
L 168.145406 148.428601 
L 170.532324 148.094884 
L 172.919242 147.784769 
L 175.306161 147.498264 
L 177.693079 147.231478 
L 180.079998 146.97514 
L 182.466916 146.715003 
L 182.678733 146.690252 
L 184.853835 146.480853 
L 187.240753 146.227552 
L 189.627672 145.94813 
L 192.01459 145.646766 
L 194.401508 145.331332 
L 196.788427 145.009827 
L 199.175345 144.688296 
L 199.826354 144.600488 
L 201.562264 144.423814 
L 203.949182 144.185438 
L 206.336101 143.953035 
L 208.723019 143.725955 
L 211.109937 143.503462 
L 213.496856 143.28515 
L 215.883774 143.071183 
L 218.270693 142.862267 
L 220.657611 142.659913 
L 222.502539 142.510725 
L 223.04453 142.477266 
L 225.431448 142.342273 
L 227.818366 142.230124 
L 230.205285 142.153874 
L 232.592203 142.127122 
L 234.979122 142.156982 
L 237.36604 142.237138 
L 239.752959 142.34708 
L 242.139877 142.459878 
L 243.432579 142.510725 
L 244.526796 142.573439 
L 246.913714 142.669431 
L 249.300632 142.725031 
L 251.687551 142.749074 
L 251.687551 142.510725 
L 251.687551 140.420961 
L 251.687551 138.331198 
L 251.687551 137.452732 
L 249.300632 137.435697 
L 246.913714 137.395714 
L 244.526796 137.324705 
L 242.139877 137.219006 
L 239.752959 137.085766 
L 237.36604 136.94453 
L 234.979122 136.821009 
L 232.592203 136.735969 
L 230.205285 136.696704 
L 227.818366 136.696838 
L 225.431448 136.723002 
L 223.04453 136.762239 
L 220.657611 136.805795 
L 218.270693 136.849162 
L 215.883774 136.890415 
L 213.496856 136.928623 
L 211.109937 136.963084 
L 208.723019 136.993194 
L 206.336101 137.018719 
L 203.949182 137.039802 
L 201.562264 137.056747 
L 199.175345 137.06975 
L 196.788427 137.078978 
L 194.401508 137.085183 
L 192.01459 137.090571 
L 189.627672 137.099191 
L 187.240753 137.116281 
L 184.853835 137.146642 
L 182.466916 137.192977 
L 180.079998 137.255226 
L 177.693079 137.331165 
L 175.306161 137.417621 
L 172.919242 137.511482 
L 170.532324 137.61014 
L 168.145406 137.711572 
L 165.758487 137.814338 
L 163.371569 137.917638 
L 160.98465 138.021363 
L 158.597732 138.126012 
L 156.210813 138.232427 
L 154.044751 138.331198 
L 153.823895 138.342364 
L 151.436977 138.464673 
L 149.050058 138.590459 
L 146.66314 138.718702 
L 144.276221 138.846882 
L 141.889303 138.97002 
L 139.502384 139.079615 
L 137.115466 139.163431 
L 134.728548 139.207116 
L 132.341629 139.197667 
L 129.954711 139.127287 
L 127.567792 138.995616 
L 125.180874 138.809227 
L 122.793955 138.579024 
L 120.533811 138.331198 
L 120.407037 138.319211 
L 118.020118 138.080549 
L 115.6332 137.835584 
L 113.246282 137.589357 
L 110.859363 137.345136 
L 108.472445 137.104947 
L 106.085526 136.870063 
L 103.698608 136.641348 
L 101.311689 136.419411 
L 99.334255 136.241434 
L 98.924771 136.210016 
L 96.537853 136.033825 
L 94.150934 135.866255 
L 91.764016 135.707679 
L 89.377097 135.557585 
L 86.990179 135.412785 
L 84.60326 135.265197 
L 82.216342 135.100451 
L 79.829424 134.899052 
L 77.442505 134.641285 
L 75.055587 134.314903 
L 74.046677 134.15167 
L 72.668668 133.962681 
L 70.28175 133.609443 
L 67.894831 133.250706 
L 65.507913 132.913019 
L 63.120994 132.631009 
L 60.734076 132.452213 
L 58.347158 132.439275 
L 55.960239 132.668263 
L 53.573321 133.225962 
L 51.318965 134.15167 
L 51.186402 134.233501 
L 48.945564 136.241434 
L 48.799484 136.484075 
L 47.901134 138.331198 
L 47.436939 140.420961 
L 47.262844 142.510725 
L 47.218378 144.600488 
L 47.219037 146.690252 
L 47.226682 148.780016 
L 47.227133 150.869779 
L 47.216517 152.959543 
L 47.194553 155.049306 
L 47.162108 157.13907 
L 47.120378 159.228834 
L 47.070517 161.318597 
L 47.013522 163.408361 
L 46.950111 165.498124 
L 46.880403 167.587888 
L 46.803298 169.677652 
L 46.715141 171.767415 
L 46.607491 173.857179 
L 46.464571 175.946942 
L 46.412565 176.480338 
L 46.269728 178.036706 
L 45.991065 180.12647 
L 45.597826 182.216233 
L 45.071548 184.305997 
L 44.409752 186.39576 
L 44.025647 187.465638 
L 43.64742 188.485524 
L 42.840448 190.575288 
L 42.049782 192.665051 
L 41.638729 194.011175 
L 41.397926 194.754815 
L 41.024896 196.844578 
z
" clip-path="url(#pe6e6a704cc)" style="fill: #e9f5dd"/>
    <path d="M 17.769544 196.844578 
L 20.156463 196.844578 
L 22.543381 196.844578 
L 24.9303 196.844578 
L 27.317218 196.844578 
L 29.704136 196.844578 
L 32.091055 196.844578 
L 34.477973 196.844578 
L 36.864892 196.844578 
L 39.25181 196.844578 
L 41.024896 196.844578 
L 41.397926 194.754815 
L 41.638729 194.011175 
L 42.049782 192.665051 
L 42.840448 190.575288 
L 43.64742 188.485524 
L 44.025647 187.465638 
L 44.409752 186.39576 
L 45.071548 184.305997 
L 45.597826 182.216233 
L 45.991065 180.12647 
L 46.269728 178.036706 
L 46.412565 176.480338 
L 46.464571 175.946942 
L 46.607491 173.857179 
L 46.715141 171.767415 
L 46.803298 169.677652 
L 46.880403 167.587888 
L 46.950111 165.498124 
L 47.013522 163.408361 
L 47.070517 161.318597 
L 47.120378 159.228834 
L 47.162108 157.13907 
L 47.194553 155.049306 
L 47.216517 152.959543 
L 47.227133 150.869779 
L 47.226682 148.780016 
L 47.219037 146.690252 
L 47.218378 144.600488 
L 47.262844 142.510725 
L 47.436939 140.420961 
L 47.901134 138.331198 
L 48.799484 136.484075 
L 48.945564 136.241434 
L 51.186402 134.233501 
L 51.318965 134.15167 
L 53.573321 133.225962 
L 55.960239 132.668263 
L 58.347158 132.439275 
L 60.734076 132.452213 
L 63.120994 132.631009 
L 65.507913 132.913019 
L 67.894831 133.250706 
L 70.28175 133.609443 
L 72.668668 133.962681 
L 74.046677 134.15167 
L 75.055587 134.314903 
L 77.442505 134.641285 
L 79.829424 134.899052 
L 82.216342 135.100451 
L 84.60326 135.265197 
L 86.990179 135.412785 
L 89.377097 135.557585 
L 91.764016 135.707679 
L 94.150934 135.866255 
L 96.537853 136.033825 
L 98.924771 136.210016 
L 99.334255 136.241434 
L 101.311689 136.419411 
L 103.698608 136.641348 
L 106.085526 136.870063 
L 108.472445 137.104947 
L 110.859363 137.345136 
L 113.246282 137.589357 
L 115.6332 137.835584 
L 118.020118 138.080549 
L 120.407037 138.319211 
L 120.533811 138.331198 
L 122.793955 138.579024 
L 125.180874 138.809227 
L 127.567792 138.995616 
L 129.954711 139.127287 
L 132.341629 139.197667 
L 134.728548 139.207116 
L 137.115466 139.163431 
L 139.502384 139.079615 
L 141.889303 138.97002 
L 144.276221 138.846882 
L 146.66314 138.718702 
L 149.050058 138.590459 
L 151.436977 138.464673 
L 153.823895 138.342364 
L 154.044751 138.331198 
L 156.210813 138.232427 
L 158.597732 138.126012 
L 160.98465 138.021363 
L 163.371569 137.917638 
L 165.758487 137.814338 
L 168.145406 137.711572 
L 170.532324 137.61014 
L 172.919242 137.511482 
L 175.306161 137.417621 
L 177.693079 137.331165 
L 180.079998 137.255226 
L 182.466916 137.192977 
L 184.853835 137.146642 
L 187.240753 137.116281 
L 189.627672 137.099191 
L 192.01459 137.090571 
L 194.401508 137.085183 
L 196.788427 137.078978 
L 199.175345 137.06975 
L 201.562264 137.056747 
L 203.949182 137.039802 
L 206.336101 137.018719 
L 208.723019 136.993194 
L 211.109937 136.963084 
L 213.496856 136.928623 
L 215.883774 136.890415 
L 218.270693 136.849162 
L 220.657611 136.805795 
L 223.04453 136.762239 
L 225.431448 136.723002 
L 227.818366 136.696838 
L 230.205285 136.696704 
L 232.592203 136.735969 
L 234.979122 136.821009 
L 237.36604 136.94453 
L 239.752959 137.085766 
L 242.139877 137.219006 
L 244.526796 137.324705 
L 246.913714 137.395714 
L 249.300632 137.435697 
L 251.687551 137.452732 
L 251.687551 136.241434 
L 251.687551 134.15167 
L 251.687551 132.061907 
L 251.687551 129.972143 
L 251.687551 127.88238 
L 251.687551 125.792616 
L 251.687551 123.702852 
L 251.687551 121.613089 
L 251.687551 119.523325 
L 251.687551 117.433562 
L 251.687551 115.343798 
L 251.687551 113.254034 
L 251.687551 111.164271 
L 251.687551 109.074507 
L 251.687551 106.984744 
L 251.687551 104.89498 
L 251.687551 102.805216 
L 251.687551 100.715453 
L 251.687551 98.625689 
L 251.687551 96.535926 
L 251.687551 94.446162 
L 251.687551 92.356398 
L 251.687551 90.266635 
L 251.687551 88.176871 
L 251.687551 86.087108 
L 251.687551 83.997344 
L 251.687551 81.90758 
L 251.687551 79.817817 
L 251.687551 77.728053 
L 251.687551 75.63829 
L 251.687551 73.548526 
L 251.687551 71.458762 
L 251.687551 69.368999 
L 251.687551 67.279235 
L 251.687551 65.189472 
L 251.687551 63.099708 
L 251.687551 61.009944 
L 251.687551 58.920181 
L 251.687551 56.830417 
L 251.687551 54.740654 
L 251.687551 52.65089 
L 251.687551 50.561126 
L 251.687551 48.471363 
L 251.687551 46.381599 
L 251.687551 44.291836 
L 251.687551 42.202072 
L 251.687551 40.112308 
L 251.687551 38.022545 
L 251.687551 35.932781 
L 251.687551 33.843018 
L 251.687551 31.753254 
L 251.687551 29.66349 
L 251.687551 27.573727 
L 251.687551 25.483963 
L 251.687551 23.3942 
L 251.687551 21.304436 
L 251.687551 19.214672 
L 251.687551 17.124909 
L 251.687551 15.035145 
L 251.687551 12.945382 
L 251.687551 10.855618 
L 251.687551 8.765854 
L 251.687551 6.676091 
L 251.687551 4.586327 
L 251.687551 2.496564 
L 251.687551 0.4068 
L 251.687551 -1.682964 
L 251.687551 -3.772727 
L 251.687551 -5.862491 
L 251.687551 -7.952254 
L 251.687551 -10.042018 
L 249.300632 -10.042018 
L 246.913714 -10.042018 
L 244.526796 -10.042018 
L 242.139877 -10.042018 
L 239.752959 -10.042018 
L 237.36604 -10.042018 
L 234.979122 -10.042018 
L 232.592203 -10.042018 
L 230.205285 -10.042018 
L 227.818366 -10.042018 
L 225.431448 -10.042018 
L 223.04453 -10.042018 
L 220.657611 -10.042018 
L 218.270693 -10.042018 
L 215.883774 -10.042018 
L 213.496856 -10.042018 
L 211.109937 -10.042018 
L 208.723019 -10.042018 
L 206.336101 -10.042018 
L 203.949182 -10.042018 
L 201.562264 -10.042018 
L 199.175345 -10.042018 
L 196.788427 -10.042018 
L 194.401508 -10.042018 
L 192.01459 -10.042018 
L 189.627672 -10.042018 
L 187.240753 -10.042018 
L 184.853835 -10.042018 
L 182.466916 -10.042018 
L 180.079998 -10.042018 
L 177.693079 -10.042018 
L 175.306161 -10.042018 
L 172.919242 -10.042018 
L 170.532324 -10.042018 
L 168.145406 -10.042018 
L 165.758487 -10.042018 
L 163.371569 -10.042018 
L 160.98465 -10.042018 
L 158.597732 -10.042018 
L 156.210813 -10.042018 
L 153.823895 -10.042018 
L 151.436977 -10.042018 
L 149.050058 -10.042018 
L 146.66314 -10.042018 
L 144.276221 -10.042018 
L 141.889303 -10.042018 
L 139.502384 -10.042018 
L 137.115466 -10.042018 
L 134.728548 -10.042018 
L 132.341629 -10.042018 
L 129.954711 -10.042018 
L 127.567792 -10.042018 
L 125.180874 -10.042018 
L 122.793955 -10.042018 
L 120.407037 -10.042018 
L 118.020118 -10.042018 
L 115.6332 -10.042018 
L 113.246282 -10.042018 
L 110.859363 -10.042018 
L 108.472445 -10.042018 
L 106.085526 -10.042018 
L 103.698608 -10.042018 
L 101.311689 -10.042018 
L 98.924771 -10.042018 
L 96.537853 -10.042018 
L 94.150934 -10.042018 
L 91.764016 -10.042018 
L 89.377097 -10.042018 
L 86.990179 -10.042018 
L 84.60326 -10.042018 
L 82.216342 -10.042018 
L 79.829424 -10.042018 
L 77.442505 -10.042018 
L 75.055587 -10.042018 
L 72.668668 -10.042018 
L 70.28175 -10.042018 
L 67.894831 -10.042018 
L 65.507913 -10.042018 
L 63.120994 -10.042018 
L 60.734076 -10.042018 
L 58.347158 -10.042018 
L 55.960239 -10.042018 
L 53.573321 -10.042018 
L 51.186402 -10.042018 
L 48.799484 -10.042018 
L 46.412565 -10.042018 
L 44.025647 -10.042018 
L 41.638729 -10.042018 
L 39.25181 -10.042018 
L 36.864892 -10.042018 
L 34.477973 -10.042018 
L 32.091055 -10.042018 
L 29.704136 -10.042018 
L 27.317218 -10.042018 
L 24.9303 -10.042018 
L 22.543381 -10.042018 
L 20.156463 -10.042018 
L 17.769544 -10.042018 
L 15.382626 -10.042018 
L 15.382626 -7.952254 
L 15.382626 -5.862491 
L 15.382626 -3.772727 
L 15.382626 -1.682964 
L 15.382626 0.4068 
L 15.382626 2.496564 
L 15.382626 4.586327 
L 15.382626 6.676091 
L 15.382626 8.765854 
L 15.382626 10.855618 
L 15.382626 12.945382 
L 15.382626 15.035145 
L 15.382626 17.124909 
L 15.382626 19.214672 
L 15.382626 21.304436 
L 15.382626 23.3942 
L 15.382626 25.483963 
L 15.382626 27.573727 
L 15.382626 29.66349 
L 15.382626 31.753254 
L 15.382626 33.843018 
L 15.382626 35.932781 
L 15.382626 38.022545 
L 15.382626 40.112308 
L 15.382626 42.202072 
L 15.382626 44.291836 
L 15.382626 46.381599 
L 15.382626 48.471363 
L 15.382626 50.561126 
L 15.382626 52.65089 
L 15.382626 54.740654 
L 15.382626 56.830417 
L 15.382626 58.920181 
L 15.382626 61.009944 
L 15.382626 63.099708 
L 15.382626 65.189472 
L 15.382626 67.279235 
L 15.382626 69.368999 
L 15.382626 71.458762 
L 15.382626 73.548526 
L 15.382626 75.63829 
L 15.382626 77.728053 
L 15.382626 79.817817 
L 15.382626 81.90758 
L 15.382626 83.997344 
L 15.382626 86.087108 
L 15.382626 88.176871 
L 15.382626 90.266635 
L 15.382626 92.356398 
L 15.382626 94.446162 
L 15.382626 96.535926 
L 15.382626 98.625689 
L 15.382626 100.715453 
L 15.382626 102.805216 
L 15.382626 104.89498 
L 15.382626 106.984744 
L 15.382626 109.074507 
L 15.382626 111.164271 
L 15.382626 113.254034 
L 15.382626 115.343798 
L 15.382626 117.433562 
L 15.382626 119.523325 
L 15.382626 121.613089 
L 15.382626 123.702852 
L 15.382626 125.792616 
L 15.382626 127.88238 
L 15.382626 129.972143 
L 15.382626 132.061907 
L 15.382626 134.15167 
L 15.382626 136.241434 
L 15.382626 138.331198 
L 15.382626 140.420961 
L 15.382626 142.510725 
L 15.382626 144.600488 
L 15.382626 146.690252 
L 15.382626 148.780016 
L 15.382626 150.869779 
L 15.382626 152.959543 
L 15.382626 155.049306 
L 15.382626 157.13907 
L 15.382626 159.228834 
L 15.382626 161.318597 
L 15.382626 163.408361 
L 15.382626 165.498124 
L 15.382626 167.587888 
L 15.382626 169.677652 
L 15.382626 171.767415 
L 15.382626 173.857179 
L 15.382626 175.946942 
L 15.382626 178.036706 
L 15.382626 180.12647 
L 15.382626 182.216233 
L 15.382626 184.305997 
L 15.382626 186.39576 
L 15.382626 188.485524 
L 15.382626 190.575288 
L 15.382626 192.665051 
L 15.382626 194.754815 
L 15.382626 196.844578 
z
" clip-path="url(#pe6e6a704cc)" style="fill: #f0bcc0"/>
   </g>
   <g id="matplotlib.axis_1">
    <g id="xtick_1">
     <g id="line2d_1">
      <defs>
       <path id="macbdd976cb" d="M 0 0 
L 0 2 
" style="stroke: #000000; stroke-width: 0.35"/>
      </defs>
      <g>
       <use xlink:href="#macbdd976cb" x="28.510677" y="196.844578" style="stroke: #000000; stroke-width: 0.35"/>
      </g>
     </g>
     <g id="text_1">
      <!-- $\mathdefault{4}$ -->
      <g transform="translate(26.393586 206.37938) scale(0.08 -0.08)">
       <defs>
        <path id="CMR17-34" d="M 2150 4122 
C 2150 4256 2144 4256 2029 4256 
L 128 1254 
L 128 1088 
L 1779 1088 
L 1779 457 
C 1779 224 1766 160 1318 160 
L 1197 160 
L 1197 0 
C 1402 0 1747 0 1965 0 
C 2182 0 2528 0 2733 0 
L 2733 160 
L 2611 160 
C 2163 160 2150 224 2150 457 
L 2150 1088 
L 2803 1088 
L 2803 1254 
L 2150 1254 
L 2150 4122 
z
M 1798 3703 
L 1798 1254 
L 256 1254 
L 1798 3703 
z
" transform="scale(0.015625)"/>
       </defs>
       <use xlink:href="#CMR17-34" transform="scale(0.996264)"/>
      </g>
     </g>
    </g>
    <g id="xtick_2">
     <g id="line2d_2">
      <g>
       <use xlink:href="#macbdd976cb" x="54.76678" y="196.844578" style="stroke: #000000; stroke-width: 0.35"/>
      </g>
     </g>
     <g id="text_2">
      <!-- $\mathdefault{5}$ -->
      <g transform="translate(52.649689 206.37938) scale(0.08 -0.08)">
       <defs>
        <path id="CMR17-35" d="M 730 3692 
C 794 3666 1056 3584 1325 3584 
C 1920 3584 2246 3911 2432 4100 
C 2432 4157 2432 4192 2394 4192 
C 2387 4192 2374 4192 2323 4163 
C 2099 4058 1837 3973 1517 3973 
C 1325 3973 1037 3999 723 4139 
C 653 4171 640 4171 634 4171 
C 602 4171 595 4164 595 4037 
L 595 2203 
C 595 2089 595 2057 659 2057 
C 691 2057 704 2070 736 2114 
C 941 2401 1222 2522 1542 2522 
C 1766 2522 2246 2382 2246 1289 
C 2246 1085 2246 715 2054 421 
C 1894 159 1645 25 1370 25 
C 947 25 518 320 403 814 
C 429 807 480 795 506 795 
C 589 795 749 840 749 1038 
C 749 1210 627 1280 506 1280 
C 358 1280 262 1190 262 1011 
C 262 454 704 -128 1382 -128 
C 2042 -128 2669 440 2669 1264 
C 2669 2030 2170 2624 1549 2624 
C 1222 2624 947 2503 730 2274 
L 730 3692 
z
" transform="scale(0.015625)"/>
       </defs>
       <use xlink:href="#CMR17-35" transform="scale(0.996264)"/>
      </g>
     </g>
    </g>
    <g id="xtick_3">
     <g id="line2d_3">
      <g>
       <use xlink:href="#macbdd976cb" x="81.022883" y="196.844578" style="stroke: #000000; stroke-width: 0.35"/>
      </g>
     </g>
     <g id="text_3">
      <!-- $\mathdefault{6}$ -->
      <g transform="translate(78.905791 206.37938) scale(0.08 -0.08)">
       <defs>
        <path id="CMR17-36" d="M 678 2176 
C 678 3690 1395 4032 1811 4032 
C 1946 4032 2272 4009 2400 3776 
C 2298 3776 2106 3776 2106 3553 
C 2106 3381 2246 3323 2336 3323 
C 2394 3323 2566 3348 2566 3560 
C 2566 3954 2246 4179 1805 4179 
C 1043 4179 243 3390 243 1984 
C 243 253 966 -128 1478 -128 
C 2099 -128 2688 427 2688 1283 
C 2688 2081 2170 2662 1517 2662 
C 1126 2662 838 2407 678 1960 
L 678 2176 
z
M 1478 25 
C 691 25 691 1200 691 1436 
C 691 1896 909 2560 1504 2560 
C 1613 2560 1926 2560 2138 2120 
C 2253 1870 2253 1609 2253 1289 
C 2253 944 2253 690 2118 434 
C 1978 171 1773 25 1478 25 
z
" transform="scale(0.015625)"/>
       </defs>
       <use xlink:href="#CMR17-36" transform="scale(0.996264)"/>
      </g>
     </g>
    </g>
    <g id="xtick_4">
     <g id="line2d_4">
      <g>
       <use xlink:href="#macbdd976cb" x="107.278986" y="196.844578" style="stroke: #000000; stroke-width: 0.35"/>
      </g>
     </g>
     <g id="text_4">
      <!-- $\mathdefault{7}$ -->
      <g transform="translate(105.161894 206.37938) scale(0.08 -0.08)">
       <defs>
        <path id="CMR17-37" d="M 2886 3941 
L 2886 4081 
L 1382 4081 
C 634 4081 621 4165 595 4288 
L 480 4288 
L 294 3094 
L 410 3094 
C 429 3215 474 3540 550 3661 
C 589 3712 1062 3712 1171 3712 
L 2579 3712 
L 1869 2661 
C 1395 1954 1069 999 1069 165 
C 1069 89 1069 -128 1299 -128 
C 1530 -128 1530 89 1530 171 
L 1530 465 
C 1530 1508 1709 2196 2003 2636 
L 2886 3941 
z
" transform="scale(0.015625)"/>
       </defs>
       <use xlink:href="#CMR17-37" transform="scale(0.996264)"/>
      </g>
     </g>
    </g>
    <g id="xtick_5">
     <g id="line2d_5">
      <g>
       <use xlink:href="#macbdd976cb" x="133.535088" y="196.844578" style="stroke: #000000; stroke-width: 0.35"/>
      </g>
     </g>
     <g id="text_5">
      <!-- $\mathdefault{8}$ -->
      <g transform="translate(131.417997 206.37938) scale(0.08 -0.08)">
       <defs>
        <path id="CMR17-38" d="M 1741 2264 
C 2144 2467 2554 2773 2554 3263 
C 2554 3841 1990 4179 1472 4179 
C 890 4179 378 3759 378 3180 
C 378 3021 416 2747 666 2505 
C 730 2442 998 2251 1171 2130 
C 883 1983 211 1634 211 934 
C 211 279 838 -128 1459 -128 
C 2144 -128 2720 362 2720 1010 
C 2720 1590 2330 1857 2074 2029 
L 1741 2264 
z
M 902 2822 
C 851 2854 595 3051 595 3351 
C 595 3739 998 4032 1459 4032 
C 1965 4032 2336 3676 2336 3262 
C 2336 2669 1670 2331 1638 2331 
C 1632 2331 1626 2331 1574 2370 
L 902 2822 
z
M 2080 1519 
C 2176 1449 2483 1240 2483 851 
C 2483 381 2010 25 1472 25 
C 890 25 448 438 448 940 
C 448 1443 838 1862 1280 2060 
L 2080 1519 
z
" transform="scale(0.015625)"/>
       </defs>
       <use xlink:href="#CMR17-38" transform="scale(0.996264)"/>
      </g>
     </g>
    </g>
    <g id="xtick_6">
     <g id="line2d_6">
      <g>
       <use xlink:href="#macbdd976cb" x="159.791191" y="196.844578" style="stroke: #000000; stroke-width: 0.35"/>
      </g>
     </g>
     <g id="text_6">
      <!-- $\mathdefault{9}$ -->
      <g transform="translate(157.6741 206.37938) scale(0.08 -0.08)">
       <defs>
        <path id="CMR17-39" d="M 2253 1864 
C 2253 464 1670 31 1190 31 
C 1043 31 685 31 538 294 
C 704 268 826 357 826 518 
C 826 692 685 749 595 749 
C 538 749 365 723 365 506 
C 365 71 742 -128 1203 -128 
C 1939 -128 2688 674 2688 2073 
C 2688 3817 1971 4179 1485 4179 
C 851 4179 243 3628 243 2778 
C 243 1991 762 1408 1414 1408 
C 1952 1408 2189 1903 2253 2112 
L 2253 1864 
z
M 1427 1510 
C 1254 1510 1011 1542 813 1922 
C 678 2169 678 2461 678 2771 
C 678 3146 678 3405 858 3684 
C 947 3817 1114 4032 1485 4032 
C 2240 4032 2240 2885 2240 2632 
C 2240 2182 2035 1510 1427 1510 
z
" transform="scale(0.015625)"/>
       </defs>
       <use xlink:href="#CMR17-39" transform="scale(0.996264)"/>
      </g>
     </g>
    </g>
    <g id="xtick_7">
     <g id="line2d_7">
      <g>
       <use xlink:href="#macbdd976cb" x="186.047294" y="196.844578" style="stroke: #000000; stroke-width: 0.35"/>
      </g>
     </g>
     <g id="text_7">
      <!-- $\mathdefault{10}$ -->
      <g transform="translate(181.813111 206.37938) scale(0.08 -0.08)">
       <defs>
        <path id="CMR17-31" d="M 1702 4058 
C 1702 4192 1696 4192 1606 4192 
C 1357 3916 979 3827 621 3827 
C 602 3827 570 3827 563 3808 
C 557 3795 557 3782 557 3648 
C 755 3648 1088 3686 1344 3839 
L 1344 461 
C 1344 236 1331 160 781 160 
L 589 160 
L 589 0 
C 896 0 1216 0 1523 0 
C 1830 0 2150 0 2458 0 
L 2458 160 
L 2266 160 
C 1715 160 1702 230 1702 458 
L 1702 4058 
z
" transform="scale(0.015625)"/>
        <path id="CMR17-30" d="M 2688 2025 
C 2688 2416 2682 3080 2413 3591 
C 2176 4039 1798 4198 1466 4198 
C 1158 4198 768 4058 525 3597 
C 269 3118 243 2524 243 2025 
C 243 1661 250 1106 448 619 
C 723 -39 1216 -128 1466 -128 
C 1760 -128 2208 -7 2470 600 
C 2662 1042 2688 1559 2688 2025 
z
M 1466 -26 
C 1056 -26 813 325 723 812 
C 653 1188 653 1738 653 2096 
C 653 2588 653 2997 736 3387 
C 858 3929 1216 4096 1466 4096 
C 1728 4096 2067 3923 2189 3400 
C 2272 3036 2278 2607 2278 2096 
C 2278 1680 2278 1169 2202 792 
C 2067 95 1690 -26 1466 -26 
z
" transform="scale(0.015625)"/>
       </defs>
       <use xlink:href="#CMR17-31" transform="scale(0.996264)"/>
       <use xlink:href="#CMR17-30" transform="translate(45.690477 0) scale(0.996264)"/>
      </g>
     </g>
    </g>
    <g id="xtick_8">
     <g id="line2d_8">
      <g>
       <use xlink:href="#macbdd976cb" x="212.303397" y="196.844578" style="stroke: #000000; stroke-width: 0.35"/>
      </g>
     </g>
     <g id="text_8">
      <!-- $\mathdefault{11}$ -->
      <g transform="translate(208.069214 206.37938) scale(0.08 -0.08)">
       <use xlink:href="#CMR17-31" transform="scale(0.996264)"/>
       <use xlink:href="#CMR17-31" transform="translate(45.690477 0) scale(0.996264)"/>
      </g>
     </g>
    </g>
    <g id="xtick_9">
     <g id="line2d_9">
      <g>
       <use xlink:href="#macbdd976cb" x="238.559499" y="196.844578" style="stroke: #000000; stroke-width: 0.35"/>
      </g>
     </g>
     <g id="text_9">
      <!-- $\mathdefault{12}$ -->
      <g transform="translate(234.325317 206.37938) scale(0.08 -0.08)">
       <defs>
        <path id="CMR17-32" d="M 2669 989 
L 2554 989 
C 2490 536 2438 459 2413 420 
C 2381 369 1920 369 1830 369 
L 602 369 
C 832 619 1280 1072 1824 1597 
C 2214 1967 2669 2402 2669 3035 
C 2669 3790 2067 4224 1395 4224 
C 691 4224 262 3604 262 3030 
C 262 2780 448 2748 525 2748 
C 589 2748 781 2787 781 3010 
C 781 3207 614 3264 525 3264 
C 486 3264 448 3258 422 3245 
C 544 3790 915 4058 1306 4058 
C 1862 4058 2227 3617 2227 3035 
C 2227 2479 1901 2000 1536 1584 
L 262 146 
L 262 0 
L 2515 0 
L 2669 989 
z
" transform="scale(0.015625)"/>
       </defs>
       <use xlink:href="#CMR17-31" transform="scale(0.996264)"/>
       <use xlink:href="#CMR17-32" transform="translate(45.690477 0) scale(0.996264)"/>
      </g>
     </g>
    </g>
    <g id="text_10">
     <!-- $R\; [{\rm \AA}]$ -->
     <g transform="translate(123.621436 216.873072) scale(0.08 -0.08)">
      <defs>
       <path id="CMMI12-52" d="M 2355 3924 
C 2413 4160 2438 4160 2688 4160 
L 3149 4160 
C 3699 4160 4109 3995 4109 3499 
C 4109 3175 3942 2240 2656 2240 
L 1933 2240 
L 2355 3924 
z
M 3245 2169 
C 4038 2341 4659 2851 4659 3398 
C 4659 3894 4154 4352 3264 4352 
L 1530 4352 
C 1402 4352 1344 4352 1344 4226 
C 1344 4160 1389 4160 1510 4160 
C 1894 4160 1894 4112 1894 4045 
C 1894 4033 1894 3994 1869 3899 
L 1005 479 
C 947 256 934 192 493 192 
C 346 192 301 192 301 71 
C 301 7 371 7 390 7 
C 506 7 640 7 762 7 
L 1517 7 
C 1632 7 1766 7 1882 7 
C 1933 7 2003 7 2003 128 
C 2003 192 1946 192 1850 192 
C 1459 192 1459 243 1459 306 
C 1459 313 1459 357 1472 407 
L 1901 2112 
L 2669 2112 
C 3277 2112 3392 1731 3392 1522 
C 3392 1427 3328 1179 3283 1014 
C 3213 723 3194 652 3194 532 
C 3194 82 3565 -128 3994 -128 
C 4512 -128 4736 501 4736 591 
C 4736 635 4704 654 4666 654 
C 4614 654 4602 616 4589 565 
C 4435 114 4173 0 4013 0 
C 3853 0 3750 70 3750 356 
C 3750 509 3827 1088 3834 1120 
C 3866 1355 3866 1380 3866 1432 
C 3866 1896 3488 2093 3245 2169 
z
" transform="scale(0.015625)"/>
       <path id="CMR17-5b" d="M 1504 -1600 
L 1504 -1377 
L 902 -1377 
L 902 4544 
L 1504 4544 
L 1504 4767 
L 678 4767 
L 678 -1600 
L 1504 -1600 
z
" transform="scale(0.015625)"/>
       <path id="CMR17-17" d="M 2771 3955 
C 2771 4275 2515 4518 2214 4518 
C 1914 4518 1658 4275 1658 3955 
C 1658 3635 1914 3392 2214 3392 
C 2515 3392 2771 3635 2771 3955 
z
M 2214 3494 
C 1946 3494 1773 3660 1773 3956 
C 1773 4256 1952 4416 2214 4416 
C 2483 4416 2656 4250 2656 3956 
C 2656 3654 2477 3494 2214 3494 
z
" transform="scale(0.015625)"/>
       <path id="CMR17-41" d="M 2323 4378 
C 2291 4461 2278 4480 2214 4480 
C 2150 4480 2138 4461 2106 4378 
L 749 566 
C 627 223 371 153 147 153 
L 147 -13 
C 262 0 518 0 640 0 
C 800 0 1056 0 1210 -13 
L 1210 153 
C 909 153 864 361 864 439 
C 864 497 877 530 890 569 
L 1229 1536 
L 2906 1536 
L 3290 442 
C 3322 365 3322 352 3322 327 
C 3322 153 3046 153 2925 153 
L 2925 0 
C 3110 0 3443 0 3642 0 
C 3808 0 4128 0 4282 -13 
L 4282 153 
C 3942 153 3827 153 3744 387 
L 2323 4378 
z
M 2067 3893 
L 2848 1702 
L 1286 1702 
L 2067 3893 
z
" transform="scale(0.015625)"/>
       <path id="CMR17-5d" d="M 915 4767 
L 90 4767 
L 90 4544 
L 691 4544 
L 691 -1377 
L 90 -1377 
L 90 -1600 
L 915 -1600 
L 915 4767 
z
" transform="scale(0.015625)"/>
      </defs>
      <use xlink:href="#CMMI12-52" transform="scale(0.996264)"/>
      <use xlink:href="#CMR17-5b" transform="translate(102.744971 0) scale(0.996264)"/>
      <use xlink:href="#CMR17-17" transform="translate(127.616029 17.618744) scale(0.996264)"/>
      <use xlink:href="#CMR17-41" transform="translate(127.616029 0) scale(0.996264)"/>
      <use xlink:href="#CMR17-5d" transform="translate(196.688459 0) scale(0.996264)"/>
     </g>
    </g>
   </g>
   <g id="matplotlib.axis_2">
    <g id="ytick_1">
     <g id="line2d_10">
      <defs>
       <path id="ma510c6bb4f" d="M 0 0 
L -2 0 
" style="stroke: #000000; stroke-width: 0.35"/>
      </defs>
      <g>
       <use xlink:href="#ma510c6bb4f" x="23.259457" y="196.844578" style="stroke: #000000; stroke-width: 0.35"/>
      </g>
     </g>
     <g id="text_11">
      <!-- $\mathdefault{0}$ -->
      <g transform="translate(15.025274 199.611979) scale(0.08 -0.08)">
       <use xlink:href="#CMR17-30" transform="scale(0.996264)"/>
      </g>
     </g>
    </g>
    <g id="ytick_2">
     <g id="line2d_11">
      <g>
       <use xlink:href="#ma510c6bb4f" x="23.259457" y="161.12011" style="stroke: #000000; stroke-width: 0.35"/>
      </g>
     </g>
     <g id="text_12">
      <!-- $\mathdefault{2}$ -->
      <g transform="translate(15.025274 163.88751) scale(0.08 -0.08)">
       <use xlink:href="#CMR17-32" transform="scale(0.996264)"/>
      </g>
     </g>
    </g>
    <g id="ytick_3">
     <g id="line2d_12">
      <g>
       <use xlink:href="#ma510c6bb4f" x="23.259457" y="125.395641" style="stroke: #000000; stroke-width: 0.35"/>
      </g>
     </g>
     <g id="text_13">
      <!-- $\mathdefault{4}$ -->
      <g transform="translate(15.025274 128.163042) scale(0.08 -0.08)">
       <use xlink:href="#CMR17-34" transform="scale(0.996264)"/>
      </g>
     </g>
    </g>
    <g id="ytick_4">
     <g id="line2d_13">
      <g>
       <use xlink:href="#ma510c6bb4f" x="23.259457" y="89.671172" style="stroke: #000000; stroke-width: 0.35"/>
      </g>
     </g>
     <g id="text_14">
      <!-- $\mathdefault{6}$ -->
      <g transform="translate(15.025274 92.438573) scale(0.08 -0.08)">
       <use xlink:href="#CMR17-36" transform="scale(0.996264)"/>
      </g>
     </g>
    </g>
    <g id="ytick_5">
     <g id="line2d_14">
      <g>
       <use xlink:href="#ma510c6bb4f" x="23.259457" y="53.946703" style="stroke: #000000; stroke-width: 0.35"/>
      </g>
     </g>
     <g id="text_15">
      <!-- $\mathdefault{8}$ -->
      <g transform="translate(15.025274 56.714104) scale(0.08 -0.08)">
       <use xlink:href="#CMR17-38" transform="scale(0.996264)"/>
      </g>
     </g>
    </g>
    <g id="ytick_6">
     <g id="line2d_15">
      <g>
       <use xlink:href="#ma510c6bb4f" x="23.259457" y="18.222234" style="stroke: #000000; stroke-width: 0.35"/>
      </g>
     </g>
     <g id="text_16">
      <!-- $\mathdefault{10}$ -->
      <g transform="translate(10.791091 20.989635) scale(0.08 -0.08)">
       <use xlink:href="#CMR17-31" transform="scale(0.996264)"/>
       <use xlink:href="#CMR17-30" transform="translate(45.690477 0) scale(0.996264)"/>
      </g>
     </g>
    </g>
    <g id="text_17">
     <!-- $U_{\rm pore, min}/V_{\rm min}$ -->
     <g transform="translate(6.337584 126.569692) rotate(-90) scale(0.08 -0.08)">
      <defs>
       <path id="CMMI12-55" d="M 3238 1474 
C 3014 581 2272 57 1670 57 
C 1210 57 896 363 896 891 
C 896 916 896 1107 966 1387 
L 1594 3887 
C 1651 4103 1664 4167 2118 4167 
C 2234 4167 2298 4167 2298 4282 
C 2298 4352 2240 4352 2202 4352 
C 2086 4352 1952 4352 1830 4352 
L 1075 4352 
C 954 4352 819 4352 698 4352 
C 653 4352 576 4352 576 4231 
C 576 4167 621 4167 742 4167 
C 1126 4167 1126 4116 1126 4046 
C 1126 4008 1082 3824 1050 3715 
L 493 1488 
C 474 1418 435 1246 435 1075 
C 435 374 941 -128 1638 -128 
C 2285 -128 3002 384 3328 1197 
C 3373 1305 3430 1530 3469 1702 
C 3533 1933 3667 2496 3712 2662 
L 3955 3623 
C 4038 3956 4090 4167 4653 4167 
C 4704 4173 4730 4224 4730 4282 
C 4730 4352 4672 4352 4646 4352 
C 4557 4352 4442 4352 4352 4352 
L 4051 4352 
C 3654 4352 3450 4352 3443 4352 
C 3405 4352 3328 4352 3328 4231 
C 3328 4167 3379 4167 3424 4167 
C 3808 4167 3834 4020 3834 3905 
C 3834 3848 3834 3828 3808 3739 
L 3238 1474 
z
" transform="scale(0.015625)"/>
       <path id="CMR17-70" d="M 1408 -1063 
C 998 -1063 973 -1037 973 -789 
L 973 402 
C 1158 134 1427 -38 1766 -38 
C 2406 -38 3053 523 3053 1388 
C 3053 2191 2496 2802 1837 2802 
C 1453 2802 1139 2592 960 2338 
L 960 2802 
L 198 2732 
L 198 2567 
C 576 2567 634 2528 634 2223 
L 634 -789 
C 634 -1031 608 -1063 198 -1063 
L 198 -1228 
C 352 -1216 634 -1216 800 -1216 
C 966 -1216 1254 -1216 1408 -1228 
L 1408 -1063 
z
M 973 2012 
C 973 2102 973 2235 1222 2471 
C 1254 2497 1472 2688 1792 2688 
C 2259 2688 2643 2108 2643 1382 
C 2643 656 2234 64 1728 64 
C 1498 64 1248 172 1056 472 
C 973 612 973 650 973 752 
L 973 2012 
z
" transform="scale(0.015625)"/>
       <path id="CMR17-6f" d="M 2758 1356 
C 2758 2176 2163 2816 1466 2816 
C 768 2816 173 2176 173 1356 
C 173 551 768 -64 1466 -64 
C 2163 -64 2758 551 2758 1356 
z
M 1466 51 
C 1165 51 909 230 762 480 
C 602 767 582 1126 582 1408 
C 582 1677 595 2010 762 2298 
C 890 2509 1139 2714 1466 2714 
C 1754 2714 1997 2554 2150 2330 
C 2349 2029 2349 1607 2349 1408 
C 2349 1158 2336 775 2163 467 
C 1984 173 1709 51 1466 51 
z
" transform="scale(0.015625)"/>
       <path id="CMR17-72" d="M 960 1497 
C 960 2112 1222 2688 1702 2688 
C 1747 2688 1792 2682 1837 2662 
C 1837 2662 1696 2617 1696 2452 
C 1696 2298 1818 2234 1914 2234 
C 1990 2234 2131 2279 2131 2458 
C 2131 2663 1926 2790 1709 2790 
C 1222 2790 1011 2317 947 2093 
L 941 2093 
L 941 2790 
L 198 2720 
L 198 2554 
C 576 2554 634 2515 634 2208 
L 634 428 
C 634 184 608 153 198 153 
L 198 -13 
C 352 0 646 0 813 0 
C 998 0 1325 0 1498 -13 
L 1498 153 
C 1037 153 960 153 960 440 
L 960 1497 
z
" transform="scale(0.015625)"/>
       <path id="CMR17-65" d="M 2438 1472 
C 2464 1498 2464 1511 2464 1576 
C 2464 2238 2118 2816 1389 2816 
C 710 2816 173 2169 173 1383 
C 173 551 781 -64 1459 -64 
C 2176 -64 2458 607 2458 740 
C 2458 784 2419 784 2406 784 
C 2362 784 2355 771 2330 696 
C 2189 265 1837 51 1504 51 
C 1229 51 954 203 781 480 
C 582 803 582 1176 582 1472 
L 2438 1472 
z
M 589 1568 
C 634 2505 1126 2714 1382 2714 
C 1818 2714 2112 2297 2118 1568 
L 589 1568 
z
" transform="scale(0.015625)"/>
       <path id="CMMI12-3b" d="M 1248 -31 
C 1248 343 1126 619 864 619 
C 659 619 557 453 557 313 
C 557 172 653 0 870 0 
C 954 0 1024 26 1082 83 
C 1094 96 1101 96 1107 96 
C 1120 96 1120 5 1120 -27 
C 1120 -240 1082 -659 710 -1080 
C 640 -1157 640 -1170 640 -1183 
C 640 -1216 672 -1248 704 -1248 
C 755 -1248 1248 -771 1248 -31 
z
" transform="scale(0.015625)"/>
       <path id="CMR17-6d" d="M 4326 1933 
C 4326 2252 4269 2790 3507 2790 
C 3072 2790 2771 2496 2656 2151 
L 2650 2151 
C 2573 2676 2195 2790 1837 2790 
C 1331 2790 1069 2400 973 2144 
L 966 2144 
L 966 2790 
L 211 2720 
L 211 2554 
C 589 2554 646 2515 646 2208 
L 646 428 
C 646 184 621 153 211 153 
L 211 -13 
C 365 0 646 0 813 0 
C 979 0 1267 0 1421 -13 
L 1421 153 
C 1011 153 986 178 986 428 
L 986 1658 
C 986 2247 1344 2688 1792 2688 
C 2266 2688 2317 2266 2317 1958 
L 2317 428 
C 2317 184 2291 153 1882 153 
L 1882 -13 
C 2035 0 2317 0 2483 0 
C 2650 0 2938 0 3091 -13 
L 3091 153 
C 2682 153 2656 178 2656 428 
L 2656 1658 
C 2656 2247 3014 2688 3462 2688 
C 3936 2688 3987 2266 3987 1958 
L 3987 428 
C 3987 184 3962 153 3552 153 
L 3552 -13 
C 3706 0 3987 0 4154 0 
C 4320 0 4608 0 4762 -13 
L 4762 153 
C 4352 153 4326 178 4326 428 
L 4326 1933 
z
" transform="scale(0.015625)"/>
       <path id="CMR17-69" d="M 992 3909 
C 992 4049 877 4170 730 4170 
C 589 4170 467 4056 467 3909 
C 467 3769 582 3648 730 3648 
C 870 3648 992 3763 992 3909 
z
M 243 2706 
L 243 2541 
C 602 2541 653 2502 653 2197 
L 653 427 
C 653 184 627 153 218 153 
L 218 -13 
C 371 0 646 0 806 0 
C 960 0 1222 0 1370 -13 
L 1370 153 
C 992 153 979 191 979 420 
L 979 2776 
L 243 2706 
z
" transform="scale(0.015625)"/>
       <path id="CMR17-6e" d="M 2656 1933 
C 2656 2259 2592 2790 1837 2790 
C 1331 2790 1069 2400 973 2144 
L 966 2144 
L 966 2790 
L 211 2720 
L 211 2554 
C 589 2554 646 2515 646 2208 
L 646 428 
C 646 184 621 153 211 153 
L 211 -13 
C 365 0 646 0 813 0 
C 979 0 1267 0 1421 -13 
L 1421 153 
C 1011 153 986 178 986 428 
L 986 1658 
C 986 2247 1344 2688 1792 2688 
C 2266 2688 2317 2266 2317 1958 
L 2317 428 
C 2317 184 2291 153 1882 153 
L 1882 -13 
C 2035 0 2317 0 2483 0 
C 2650 0 2938 0 3091 -13 
L 3091 153 
C 2682 153 2656 178 2656 428 
L 2656 1933 
z
" transform="scale(0.015625)"/>
       <path id="CMMI12-3d" d="M 2746 4562 
C 2746 4569 2784 4666 2784 4678 
C 2784 4755 2720 4800 2669 4800 
C 2637 4800 2579 4800 2528 4659 
L 384 -1363 
C 384 -1370 346 -1465 346 -1478 
C 346 -1555 410 -1600 461 -1600 
C 499 -1600 557 -1593 602 -1459 
L 2746 4562 
z
" transform="scale(0.015625)"/>
       <path id="CMMI12-56" d="M 3962 3640 
C 4179 3984 4378 4136 4704 4162 
C 4768 4168 4819 4168 4819 4282 
C 4819 4308 4806 4346 4749 4346 
C 4634 4346 4358 4346 4243 4346 
C 4058 4346 3866 4346 3686 4346 
C 3635 4346 3571 4346 3571 4226 
C 3571 4168 3629 4162 3654 4162 
C 3891 4143 3917 4029 3917 3952 
C 3917 3857 3827 3710 3821 3704 
L 1811 540 
L 1363 3969 
C 1363 4160 1696 4160 1766 4160 
C 1862 4160 1920 4160 1920 4282 
C 1920 4346 1850 4346 1830 4346 
C 1722 4346 1594 4346 1485 4346 
L 1126 4346 
C 659 4346 467 4346 461 4346 
C 422 4346 346 4346 346 4230 
C 346 4160 390 4160 493 4160 
C 819 4160 838 4102 858 3944 
L 1370 24 
C 1389 -109 1389 -128 1478 -128 
C 1555 -128 1587 -109 1651 -8 
L 3962 3640 
z
" transform="scale(0.015625)"/>
      </defs>
      <use xlink:href="#CMMI12-55" transform="scale(0.996264)"/>
      <use xlink:href="#CMR17-70" transform="translate(66.252119 -14.943915) scale(0.697382)"/>
      <use xlink:href="#CMR17-6f" transform="translate(103.700433 -14.943915) scale(0.697382)"/>
      <use xlink:href="#CMR17-72" transform="translate(135.683615 -14.943915) scale(0.697382)"/>
      <use xlink:href="#CMR17-65" transform="translate(160.380035 -14.943915) scale(0.697382)"/>
      <use xlink:href="#CMMI12-3b" transform="translate(188.719867 -14.943915) scale(0.697382)"/>
      <use xlink:href="#CMR17-6d" transform="translate(207.6878 -14.943915) scale(0.697382)"/>
      <use xlink:href="#CMR17-69" transform="translate(261.531266 -14.943915) scale(0.697382)"/>
      <use xlink:href="#CMR17-6e" transform="translate(278.940925 -14.943915) scale(0.697382)"/>
      <use xlink:href="#CMMI12-3d" transform="translate(315.065666 0) scale(0.996264)"/>
      <use xlink:href="#CMMI12-56" transform="translate(363.840584 0) scale(0.996264)"/>
      <use xlink:href="#CMR17-6d" transform="translate(420.710163 -14.943915) scale(0.697382)"/>
      <use xlink:href="#CMR17-69" transform="translate(474.55363 -14.943915) scale(0.697382)"/>
      <use xlink:href="#CMR17-6e" transform="translate(491.963289 -14.943915) scale(0.697382)"/>
     </g>
    </g>
   </g>
   <g id="QuadContourSet_2">
    <path d="M 58.956568 196.844578 
L 58.356643 194.754815 
L 58.347158 194.734179 
L 57.528542 192.665051 
L 56.781834 190.575288 
L 56.345162 188.485524 
L 56.276458 186.39576 
L 56.524836 184.305997 
L 57.006319 182.216233 
L 57.646781 180.12647 
L 58.347158 178.163935 
L 58.400155 178.036706 
L 59.330278 175.946942 
L 60.355779 173.857179 
L 60.734076 173.112699 
L 61.535084 171.767415 
L 62.907901 169.677652 
L 63.120994 169.367571 
L 64.440896 167.587888 
L 65.507913 166.303294 
L 66.164973 165.498124 
L 67.894831 163.574617 
L 68.036184 163.408361 
L 69.91806 161.318597 
L 70.28175 160.947543 
L 71.868561 159.228834 
L 72.668668 158.429293 
L 73.956907 157.13907 
L 75.055587 156.109512 
L 76.287699 155.049306 
L 77.442505 154.10817 
L 79.169887 152.959543 
L 79.829424 152.54041 
L 82.216342 151.458354 
L 84.549153 150.869779 
L 84.60326 150.856512 
L 86.990179 150.661015 
L 89.377097 150.770363 
L 90.148473 150.869779 
L 91.764016 151.079001 
L 94.150934 151.499396 
L 96.537853 151.970744 
L 98.924771 152.458489 
L 101.311689 152.943134 
L 101.394909 152.959543 
L 103.698608 153.407475 
L 106.085526 153.836688 
L 108.472445 154.21561 
L 110.859363 154.531259 
L 113.246282 154.77593 
L 115.6332 154.948819 
L 117.882249 155.049306 
L 118.020118 155.055166 
L 120.407037 155.103147 
L 122.793955 155.103052 
L 125.180874 155.058789 
L 125.430464 155.049306 
L 127.567792 154.968245 
L 129.954711 154.825439 
L 132.341629 154.622132 
L 134.728548 154.353235 
L 137.115466 154.02092 
L 139.502384 153.635126 
L 141.889303 153.210417 
L 143.222904 152.959543 
L 144.276221 152.763168 
L 146.66314 152.305948 
L 149.049971 151.844109 
M 196.970293 144.985328 
L 199.175345 144.688296 
L 199.826354 144.600488 
L 201.562264 144.423814 
L 203.949182 144.185438 
L 206.336101 143.953035 
L 208.723019 143.725955 
L 211.109937 143.503462 
L 213.496856 143.28515 
L 215.883774 143.071183 
L 218.270693 142.862267 
L 220.657611 142.659913 
L 222.502539 142.510725 
L 223.04453 142.477266 
L 225.431448 142.342273 
L 227.818366 142.230124 
L 230.205285 142.153874 
L 232.592203 142.127122 
L 234.979122 142.156982 
L 237.36604 142.237138 
L 239.752959 142.34708 
L 242.139877 142.459878 
L 243.432579 142.510725 
L 244.526796 142.573439 
L 245.17072 142.599335 
" clip-path="url(#pe6e6a704cc)" style="fill: none; stroke: #5e4fa2"/>
   </g>
   <g id="QuadContourSet_3">
    <path d="M 41.024896 196.844578 
L 41.397926 194.754815 
L 41.638729 194.011175 
L 42.049782 192.665051 
L 42.840448 190.575288 
L 43.64742 188.485524 
L 44.025647 187.465638 
L 44.409752 186.39576 
L 45.071548 184.305997 
L 45.597826 182.216233 
L 45.991065 180.12647 
L 46.269728 178.036706 
L 46.412565 176.480338 
L 46.464571 175.946942 
L 46.607491 173.857179 
L 46.715141 171.767415 
L 46.803298 169.677652 
L 46.880403 167.587888 
L 46.950111 165.498124 
L 47.013522 163.408361 
L 47.070517 161.318597 
L 47.120378 159.228834 
L 47.162108 157.13907 
L 47.194553 155.049306 
L 47.216517 152.959543 
L 47.227133 150.869779 
L 47.226682 148.780016 
L 47.219037 146.690252 
L 47.218378 144.600488 
L 47.262844 142.510725 
L 47.436939 140.420961 
L 47.901134 138.331198 
L 48.799484 136.484075 
L 48.945564 136.241434 
L 51.186402 134.233501 
L 51.318965 134.15167 
L 53.573321 133.225962 
L 55.960239 132.668263 
L 58.347158 132.439275 
L 60.734076 132.452213 
L 63.120994 132.631009 
L 65.507913 132.913019 
L 67.894831 133.250706 
L 70.28175 133.609443 
L 72.668668 133.962681 
L 74.046677 134.15167 
L 75.055587 134.314903 
L 77.442505 134.641285 
L 79.829424 134.899052 
L 82.216342 135.100451 
L 84.60326 135.265197 
L 86.990179 135.412785 
L 89.377097 135.557585 
L 91.764016 135.707679 
L 94.150934 135.866255 
L 96.537853 136.033825 
L 98.924771 136.210016 
L 99.334255 136.241434 
L 101.311689 136.419411 
L 103.698608 136.641348 
L 106.085526 136.870063 
L 108.472445 137.104947 
L 110.859363 137.345136 
L 113.246282 137.589357 
L 115.6332 137.835584 
L 118.020118 138.080549 
L 120.407037 138.319211 
L 120.533811 138.331198 
L 122.793955 138.579024 
L 124.864614 138.778726 
M 173.238547 137.498926 
L 175.306161 137.417621 
L 177.693079 137.331165 
L 180.079998 137.255226 
L 182.466916 137.192977 
L 184.853835 137.146642 
L 187.240753 137.116281 
L 189.627672 137.099191 
L 192.01459 137.090571 
L 194.401508 137.085183 
L 196.788427 137.078978 
L 199.175345 137.06975 
L 201.562264 137.056747 
L 203.949182 137.039802 
L 206.336101 137.018719 
L 208.723019 136.993194 
L 211.109937 136.963084 
L 213.496856 136.928623 
L 215.883774 136.890415 
L 218.270693 136.849162 
L 220.657611 136.805795 
L 223.04453 136.762239 
L 225.431448 136.723002 
L 227.818366 136.696838 
L 230.205285 136.696704 
L 232.592203 136.735969 
L 234.979122 136.821009 
L 237.36604 136.94453 
L 239.752959 137.085766 
L 242.139877 137.219006 
L 244.526796 137.324705 
L 245.17072 137.343861 
" clip-path="url(#pe6e6a704cc)" style="fill: none; stroke: #d7414e"/>
   </g>
   <g id="patch_3">
    <path d="M 23.259457 196.844578 
L 23.259457 0.36 
" style="fill: none; stroke: #000000; stroke-width: 0.35; stroke-linejoin: miter; stroke-linecap: square"/>
   </g>
   <g id="patch_4">
    <path d="M 243.81072 196.844578 
L 243.81072 0.36 
" style="fill: none; stroke: #000000; stroke-width: 0.35; stroke-linejoin: miter; stroke-linecap: square"/>
   </g>
   <g id="patch_5">
    <path d="M 23.259457 196.844578 
L 243.81072 196.844578 
" style="fill: none; stroke: #000000; stroke-width: 0.35; stroke-linejoin: miter; stroke-linecap: square"/>
   </g>
   <g id="patch_6">
    <path d="M 23.259457 0.36 
L 243.81072 0.36 
" style="fill: none; stroke: #000000; stroke-width: 0.35; stroke-linejoin: miter; stroke-linecap: square"/>
   </g>
   <g id="text_18">
    <!-- wetting -->
    <g style="fill: #d7414e" transform="translate(28.510677 56.188297) scale(0.09 -0.09)">
     <defs>
      <path id="CMR17-77" d="M 3725 2183 
C 3853 2560 4109 2560 4205 2560 
L 4205 2732 
C 4077 2732 3949 2732 3821 2732 
C 3699 2732 3424 2732 3315 2738 
L 3315 2560 
C 3514 2560 3622 2445 3622 2286 
C 3622 2241 3610 2184 3597 2140 
L 2995 407 
L 2342 2275 
C 2330 2319 2310 2370 2310 2395 
C 2310 2560 2528 2560 2630 2560 
L 2630 2738 
C 2483 2732 2214 2732 2061 2732 
C 1901 2732 1734 2732 1587 2738 
L 1587 2560 
C 1939 2560 1939 2547 2074 2149 
L 1485 451 
L 851 2281 
C 819 2363 819 2376 819 2395 
C 819 2560 1037 2560 1139 2560 
L 1139 2738 
C 986 2732 717 2732 557 2732 
C 416 2732 198 2732 64 2738 
L 64 2560 
C 346 2560 416 2541 486 2331 
L 1274 49 
C 1299 -33 1318 -52 1370 -52 
C 1414 -52 1440 -39 1472 56 
L 2131 1980 
L 2797 56 
C 2829 -39 2854 -52 2899 -52 
C 2950 -52 2970 -33 2995 50 
L 3725 2183 
z
" transform="scale(0.015625)"/>
      <path id="CMR17-74" d="M 966 2560 
L 1862 2560 
L 1862 2725 
L 966 2725 
L 966 3904 
L 851 3904 
C 838 3245 614 2668 70 2668 
L 70 2560 
L 627 2560 
L 627 771 
C 627 650 627 -64 1370 -64 
C 1747 -64 1965 306 1965 777 
L 1965 1140 
L 1850 1140 
L 1850 783 
C 1850 344 1677 51 1408 51 
C 1222 51 966 178 966 758 
L 966 2560 
z
" transform="scale(0.015625)"/>
      <path id="CMR17-67" d="M 710 1164 
C 832 1068 1043 960 1299 960 
C 1805 960 2240 1357 2240 1888 
C 2240 2054 2189 2310 1997 2509 
C 2176 2692 2438 2752 2586 2752 
C 2611 2752 2650 2752 2682 2734 
C 2656 2728 2598 2703 2598 2605 
C 2598 2527 2656 2471 2739 2471 
C 2835 2471 2886 2533 2886 2614 
C 2886 2731 2790 2854 2586 2854 
C 2330 2854 2106 2738 1926 2580 
C 1734 2753 1504 2816 1299 2816 
C 794 2816 358 2419 358 1888 
C 358 1522 570 1292 634 1228 
C 442 1004 442 743 442 711 
C 442 545 506 302 723 168 
C 390 85 128 -169 128 -486 
C 128 -943 736 -1280 1466 -1280 
C 2170 -1280 2803 -956 2803 -479 
C 2803 384 1856 384 1363 384 
C 1216 384 954 384 922 391 
C 723 423 589 602 589 826 
C 589 883 589 1024 710 1164 
z
M 1299 1068 
C 736 1068 736 1760 736 1889 
C 736 2016 736 2708 1299 2708 
C 1862 2708 1862 2016 1862 1889 
C 1862 1760 1862 1068 1299 1068 
z
M 1466 -1171 
C 826 -1171 384 -835 384 -486 
C 384 -289 493 -105 634 -4 
C 794 104 858 104 1293 104 
C 1818 104 2547 104 2547 -486 
C 2547 -835 2106 -1171 1466 -1171 
z
" transform="scale(0.015625)"/>
     </defs>
     <use xlink:href="#CMR17-77" transform="scale(0.996264)"/>
     <use xlink:href="#CMR17-65" transform="translate(63.907427 0) scale(0.996264)"/>
     <use xlink:href="#CMR17-74" transform="translate(104.393087 0) scale(0.996264)"/>
     <use xlink:href="#CMR17-74" transform="translate(139.673855 0) scale(0.996264)"/>
     <use xlink:href="#CMR17-69" transform="translate(174.954623 0) scale(0.996264)"/>
     <use xlink:href="#CMR17-6e" transform="translate(199.825681 0) scale(0.996264)"/>
     <use xlink:href="#CMR17-67" transform="translate(250.721051 0) scale(0.996264)"/>
    </g>
   </g>
   <g id="text_19">
    <!-- intermediate -->
    <g style="fill: #c2e69f" transform="translate(52.14117 147.285693) scale(0.09 -0.09)">
     <defs>
      <path id="CMR17-64" d="M 1869 4326 
L 1869 4160 
C 2246 4160 2304 4122 2304 3820 
L 2304 2345 
C 2278 2377 2016 2790 1498 2790 
C 845 2790 211 2208 211 1364 
C 211 525 806 -64 1434 -64 
C 1978 -64 2259 337 2291 380 
L 2291 -63 
L 3066 -63 
L 3066 128 
C 2688 128 2630 166 2630 473 
L 2630 4396 
L 1869 4326 
z
M 2291 755 
C 2291 563 2176 390 2029 262 
C 1811 70 1594 38 1472 38 
C 1286 38 621 134 621 1356 
C 621 2612 1363 2688 1530 2688 
C 1824 2688 2061 2522 2208 2291 
C 2291 2157 2291 2138 2291 2023 
L 2291 755 
z
" transform="scale(0.015625)"/>
      <path id="CMR17-61" d="M 2304 1653 
C 2304 2072 2304 2294 2035 2543 
C 1798 2752 1523 2816 1306 2816 
C 800 2816 435 2407 435 1971 
C 435 1728 627 1728 666 1728 
C 749 1728 896 1778 896 1954 
C 896 2112 774 2181 666 2181 
C 640 2181 608 2174 589 2168 
C 723 2592 1069 2714 1293 2714 
C 1613 2714 1965 2429 1965 1885 
L 1965 1600 
C 1587 1600 1133 1549 774 1357 
C 371 1133 256 813 256 570 
C 256 77 832 -64 1171 -64 
C 1523 -64 1850 139 1990 511 
C 2003 233 2182 -18 2464 -18 
C 2598 -18 2938 70 2938 567 
L 2938 920 
L 2822 920 
L 2822 562 
C 2822 178 2650 128 2566 128 
C 2304 128 2304 458 2304 738 
L 2304 1653 
z
M 1965 870 
C 1965 317 1568 38 1216 38 
C 896 38 646 275 646 570 
C 646 761 730 1100 1101 1305 
C 1408 1478 1760 1504 1965 1504 
L 1965 870 
z
" transform="scale(0.015625)"/>
     </defs>
     <use xlink:href="#CMR17-69" transform="scale(0.996264)"/>
     <use xlink:href="#CMR17-6e" transform="translate(24.871058 0) scale(0.996264)"/>
     <use xlink:href="#CMR17-74" transform="translate(73.163974 0) scale(0.996264)"/>
     <use xlink:href="#CMR17-65" transform="translate(108.444742 0) scale(0.996264)"/>
     <use xlink:href="#CMR17-72" transform="translate(148.930403 0) scale(0.996264)"/>
     <use xlink:href="#CMR17-6d" transform="translate(184.21117 0) scale(0.996264)"/>
     <use xlink:href="#CMR17-65" transform="translate(261.13076 0) scale(0.996264)"/>
     <use xlink:href="#CMR17-64" transform="translate(301.616421 0) scale(0.996264)"/>
     <use xlink:href="#CMR17-69" transform="translate(352.511791 0) scale(0.996264)"/>
     <use xlink:href="#CMR17-61" transform="translate(377.382849 0) scale(0.996264)"/>
     <use xlink:href="#CMR17-74" transform="translate(423.073326 0) scale(0.996264)"/>
     <use xlink:href="#CMR17-65" transform="translate(458.354094 0) scale(0.996264)"/>
    </g>
   </g>
   <g id="text_20">
    <!-- non-wetting -->
    <g style="fill: #5e4fa2" transform="translate(81.022883 172.292821) scale(0.09 -0.09)">
     <defs>
      <path id="CMR17-2d" d="M 1632 1216 
L 1632 1496 
L 26 1496 
L 26 1216 
L 1632 1216 
z
" transform="scale(0.015625)"/>
     </defs>
     <use xlink:href="#CMR17-6e" transform="scale(0.996264)"/>
     <use xlink:href="#CMR17-6f" transform="translate(50.89537 0) scale(0.996264)"/>
     <use xlink:href="#CMR17-6e" transform="translate(96.585847 0) scale(0.996264)"/>
     <use xlink:href="#CMR17-2d" transform="translate(147.481217 0) scale(0.996264)"/>
     <use xlink:href="#CMR17-77" transform="translate(177.557183 0) scale(0.996264)"/>
     <use xlink:href="#CMR17-65" transform="translate(241.46461 0) scale(0.996264)"/>
     <use xlink:href="#CMR17-74" transform="translate(281.95027 0) scale(0.996264)"/>
     <use xlink:href="#CMR17-74" transform="translate(317.231038 0) scale(0.996264)"/>
     <use xlink:href="#CMR17-69" transform="translate(352.511806 0) scale(0.996264)"/>
     <use xlink:href="#CMR17-6e" transform="translate(377.382864 0) scale(0.996264)"/>
     <use xlink:href="#CMR17-67" transform="translate(428.278234 0) scale(0.996264)"/>
    </g>
   </g>
   <g id="text_21">
    <!-- $f_{\rm well}=0.40$ -->
    <g style="fill: #5e4fa2" transform="translate(153.887308 151.80869) rotate(-7.883761) scale(0.06 -0.06)">
     <defs>
      <path id="CMMI12-66" d="M 2854 2566 
C 2982 2566 3034 2566 3034 2688 
C 3034 2752 2982 2752 2867 2752 
L 2349 2752 
C 2470 3429 2560 3897 2611 4107 
C 2650 4265 2784 4416 2950 4416 
C 3085 4416 3219 4358 3283 4298 
C 3034 4272 2957 4082 2957 3969 
C 2957 3837 3053 3759 3174 3759 
C 3302 3759 3494 3870 3494 4119 
C 3494 4393 3226 4544 2944 4544 
C 2669 4544 2400 4334 2272 4078 
C 2157 3848 2093 3611 1946 2752 
L 1517 2752 
C 1395 2752 1331 2752 1331 2637 
C 1331 2566 1370 2566 1498 2566 
L 1907 2566 
C 1792 1976 1530 542 1382 -137 
C 1274 -689 1178 -1152 858 -1152 
C 838 -1152 653 -1152 538 -1031 
C 864 -1005 864 -726 864 -720 
C 864 -593 768 -517 646 -517 
C 518 -517 326 -625 326 -867 
C 326 -1140 608 -1280 858 -1280 
C 1510 -1280 1779 -118 1850 199 
C 1965 688 2278 2376 2310 2566 
L 2854 2566 
z
" transform="scale(0.015625)"/>
      <path id="CMR17-6c" d="M 979 4396 
L 218 4326 
L 218 4160 
C 595 4160 653 4122 653 3817 
L 653 426 
C 653 184 627 153 218 153 
L 218 -13 
C 371 0 653 0 813 0 
C 979 0 1261 0 1414 -13 
L 1414 153 
C 1005 153 979 178 979 426 
L 979 4396 
z
" transform="scale(0.015625)"/>
      <path id="CMR17-3d" d="M 4115 2017 
C 4211 2017 4307 2017 4307 2125 
C 4307 2240 4198 2240 4090 2240 
L 512 2240 
C 403 2240 294 2240 294 2125 
C 294 2017 390 2017 486 2017 
L 4115 2017 
z
M 4090 896 
C 4198 896 4307 896 4307 1011 
C 4307 1119 4211 1119 4115 1119 
L 486 1119 
C 390 1119 294 1119 294 1011 
C 294 896 403 896 512 896 
L 4090 896 
z
" transform="scale(0.015625)"/>
      <path id="CMMI12-3a" d="M 1178 307 
C 1178 492 1024 619 870 619 
C 685 619 557 466 557 313 
C 557 128 710 0 864 0 
C 1050 0 1178 153 1178 307 
z
" transform="scale(0.015625)"/>
     </defs>
     <use xlink:href="#CMMI12-66" transform="scale(0.996264)"/>
     <use xlink:href="#CMR17-77" transform="translate(48.083238 -14.943915) scale(0.697382)"/>
     <use xlink:href="#CMR17-65" transform="translate(92.818222 -14.943915) scale(0.697382)"/>
     <use xlink:href="#CMR17-6c" transform="translate(121.158054 -14.943915) scale(0.697382)"/>
     <use xlink:href="#CMR17-6c" transform="translate(138.567712 -14.943915) scale(0.697382)"/>
     <use xlink:href="#CMR17-3d" transform="translate(184.149512 0) scale(0.996264)"/>
     <use xlink:href="#CMR17-30" transform="translate(283.538309 0) scale(0.996264)"/>
     <use xlink:href="#CMMI12-3a" transform="translate(329.228786 0) scale(0.996264)"/>
     <use xlink:href="#CMR17-34" transform="translate(356.325963 0) scale(0.996264)"/>
     <use xlink:href="#CMR17-30" transform="translate(402.01644 0) scale(0.996264)"/>
    </g>
   </g>
   <g id="text_22">
    <!-- $f_{\rm well}=0.60$ -->
    <g style="fill: #d7414e" transform="translate(129.704143 140.625662) rotate(-1.950996) scale(0.06 -0.06)">
     <use xlink:href="#CMMI12-66" transform="scale(0.996264)"/>
     <use xlink:href="#CMR17-77" transform="translate(48.083238 -14.943915) scale(0.697382)"/>
     <use xlink:href="#CMR17-65" transform="translate(92.818222 -14.943915) scale(0.697382)"/>
     <use xlink:href="#CMR17-6c" transform="translate(121.158054 -14.943915) scale(0.697382)"/>
     <use xlink:href="#CMR17-6c" transform="translate(138.567712 -14.943915) scale(0.697382)"/>
     <use xlink:href="#CMR17-3d" transform="translate(184.149512 0) scale(0.996264)"/>
     <use xlink:href="#CMR17-30" transform="translate(283.538309 0) scale(0.996264)"/>
     <use xlink:href="#CMMI12-3a" transform="translate(329.228786 0) scale(0.996264)"/>
     <use xlink:href="#CMR17-36" transform="translate(356.325963 0) scale(0.996264)"/>
     <use xlink:href="#CMR17-30" transform="translate(402.01644 0) scale(0.996264)"/>
    </g>
   </g>
   <g id="legend_1">
    <g id="line2d_16">
     <defs>
      <path id="m81b1a0fbef" d="M 0 1.75 
C 0.464105 1.75 0.909265 1.565609 1.237437 1.237437 
C 1.565609 0.909265 1.75 0.464105 1.75 0 
C 1.75 -0.464105 1.565609 -0.909265 1.237437 -1.237437 
C 0.909265 -1.565609 0.464105 -1.75 0 -1.75 
C -0.464105 -1.75 -0.909265 -1.565609 -1.237437 -1.237437 
C -1.565609 -0.909265 -1.75 -0.464105 -1.75 0 
C -1.75 0.464105 -1.565609 0.909265 -1.237437 1.237437 
C -0.909265 1.565609 -0.464105 1.75 0 1.75 
z
" style="stroke: #ffffff; stroke-width: 0.3"/>
     </defs>
     <g>
      <use xlink:href="#m81b1a0fbef" x="160.790215" y="43.849386" style="fill: #5e4fa2; stroke: #ffffff; stroke-width: 0.3"/>
     </g>
    </g>
    <g id="text_23">
     <!-- Cs -->
     <g transform="translate(169.190215 46.649386) scale(0.08 -0.08)">
      <defs>
       <path id="CMR17-43" d="M 3974 4289 
C 3974 4403 3968 4410 3930 4410 
C 3904 4410 3898 4403 3853 4327 
L 3571 3792 
C 3258 4187 2874 4416 2381 4416 
C 1286 4416 294 3456 294 2148 
C 294 826 1286 -128 2387 -128 
C 3366 -128 3974 730 3974 1461 
C 3974 1524 3974 1550 3917 1550 
C 3866 1550 3866 1531 3859 1474 
C 3808 585 3168 38 2477 38 
C 1824 38 781 495 781 2147 
C 781 3805 1843 4250 2464 4250 
C 3187 4250 3712 3628 3834 2745 
C 3846 2668 3846 2655 3904 2655 
C 3974 2655 3974 2668 3974 2783 
L 3974 4289 
z
" transform="scale(0.015625)"/>
       <path id="CMR17-73" d="M 1978 2697 
C 1978 2813 1971 2819 1933 2819 
C 1907 2819 1901 2813 1824 2717 
C 1805 2691 1747 2626 1728 2601 
C 1523 2819 1235 2819 1126 2819 
C 416 2819 160 2447 160 2076 
C 160 1498 813 1365 998 1325 
C 1402 1243 1542 1217 1677 1101 
C 1760 1025 1901 884 1901 654 
C 1901 384 1747 38 1158 38 
C 602 38 403 460 288 1021 
C 269 1110 269 1117 218 1117 
C 166 1117 160 1110 160 983 
L 160 63 
C 160 -51 166 -58 205 -58 
C 237 -58 243 -51 275 0 
C 314 57 410 211 448 276 
C 576 103 800 -64 1158 -64 
C 1792 -64 2131 283 2131 784 
C 2131 1112 1958 1285 1875 1362 
C 1683 1561 1459 1606 1190 1657 
C 838 1735 390 1825 390 2217 
C 390 2383 480 2737 1126 2737 
C 1811 2737 1850 2094 1862 1888 
C 1869 1856 1901 1849 1920 1849 
C 1978 1849 1978 1869 1978 1978 
L 1978 2697 
z
" transform="scale(0.015625)"/>
      </defs>
      <use xlink:href="#CMR17-43" transform="scale(0.996264)"/>
      <use xlink:href="#CMR17-73" transform="translate(66.509881 0) scale(0.996264)"/>
     </g>
    </g>
    <g id="line2d_17">
     <defs>
      <path id="m4f71bbc4df" d="M 0 1.75 
C 0.464105 1.75 0.909265 1.565609 1.237437 1.237437 
C 1.565609 0.909265 1.75 0.464105 1.75 0 
C 1.75 -0.464105 1.565609 -0.909265 1.237437 -1.237437 
C 0.909265 -1.565609 0.464105 -1.75 0 -1.75 
C -0.464105 -1.75 -0.909265 -1.565609 -1.237437 -1.237437 
C -1.565609 -0.909265 -1.75 -0.464105 -1.75 0 
C -1.75 0.464105 -1.565609 0.909265 -1.237437 1.237437 
C -0.909265 1.565609 -0.464105 1.75 0 1.75 
z
" style="stroke: #ffffff; stroke-width: 0.3"/>
     </defs>
     <g>
      <use xlink:href="#m4f71bbc4df" x="160.790215" y="54.999132" style="fill: #3c93b8; stroke: #ffffff; stroke-width: 0.3"/>
     </g>
    </g>
    <g id="text_24">
     <!-- Rb -->
     <g transform="translate(169.190215 57.799132) scale(0.08 -0.08)">
      <defs>
       <path id="CMR17-52" d="M 2509 2146 
C 3117 2268 3629 2676 3629 3186 
C 3629 3785 2950 4326 2054 4326 
L 333 4326 
L 333 4160 
C 774 4160 845 4160 845 3873 
L 845 415 
C 845 128 774 128 333 128 
L 333 -26 
C 518 -26 851 -26 1050 -26 
C 1248 -26 1581 -26 1766 -26 
L 1766 128 
C 1325 128 1254 128 1254 417 
L 1254 2112 
L 2003 2112 
C 2368 2112 2573 1964 2662 1881 
C 2918 1632 2918 1459 2918 1024 
C 2918 595 2918 377 3110 160 
C 3354 -102 3680 -128 3821 -128 
C 4294 -128 4365 396 4365 503 
C 4365 540 4365 585 4307 585 
C 4256 585 4250 547 4250 522 
C 4218 112 4032 -26 3834 -26 
C 3482 -26 3443 375 3405 764 
C 3386 898 3373 993 3360 1133 
C 3322 1452 3270 1917 2509 2146 
z
M 1984 2214 
L 1254 2214 
L 1254 3913 
C 1254 4129 1267 4160 1523 4160 
L 1990 4160 
C 2522 4160 3142 3977 3142 3190 
C 3142 2372 2464 2214 1984 2214 
z
" transform="scale(0.015625)"/>
       <path id="CMR17-62" d="M 960 4396 
L 198 4326 
L 198 4160 
C 576 4160 634 4122 634 3817 
L 634 -13 
L 749 -13 
L 934 441 
C 1120 141 1395 -64 1766 -64 
C 2406 -64 3053 500 3053 1370 
C 3053 2188 2477 2790 1830 2790 
C 1434 2790 1152 2579 960 2330 
L 960 4396 
z
M 973 2004 
C 973 2118 973 2138 1062 2272 
C 1312 2657 1670 2688 1792 2688 
C 1984 2688 2643 2585 2643 1376 
C 2643 108 1888 38 1734 38 
C 1536 38 1248 114 1043 486 
C 973 608 973 621 973 735 
L 973 2004 
z
" transform="scale(0.015625)"/>
      </defs>
      <use xlink:href="#CMR17-52" transform="scale(0.996264)"/>
      <use xlink:href="#CMR17-62" transform="translate(67.791102 0) scale(0.996264)"/>
     </g>
    </g>
    <g id="line2d_18">
     <defs>
      <path id="m71a2e42890" d="M 0 1.75 
C 0.464105 1.75 0.909265 1.565609 1.237437 1.237437 
C 1.565609 0.909265 1.75 0.464105 1.75 0 
C 1.75 -0.464105 1.565609 -0.909265 1.237437 -1.237437 
C 0.909265 -1.565609 0.464105 -1.75 0 -1.75 
C -0.464105 -1.75 -0.909265 -1.565609 -1.237437 -1.237437 
C -1.565609 -0.909265 -1.75 -0.464105 -1.75 0 
C -1.75 0.464105 -1.565609 0.909265 -1.237437 1.237437 
C -0.909265 1.565609 -0.464105 1.75 0 1.75 
z
" style="stroke: #ffffff; stroke-width: 0.3"/>
     </defs>
     <g>
      <use xlink:href="#m71a2e42890" x="160.790215" y="66.148877" style="fill: #79c9a4; stroke: #ffffff; stroke-width: 0.3"/>
     </g>
    </g>
    <g id="text_25">
     <!-- K -->
     <g transform="translate(169.190215 68.948877) scale(0.08 -0.08)">
      <defs>
       <path id="CMR17-4b" d="M 2362 2675 
L 3469 3782 
C 3699 4006 3942 4186 4301 4186 
L 4301 4352 
C 4173 4352 4013 4352 3885 4352 
C 3712 4352 3411 4352 3245 4358 
L 3245 4192 
C 3411 4180 3437 4065 3437 4019 
C 3437 3975 3411 3905 3386 3867 
L 1261 1738 
L 1261 3900 
C 1261 4186 1331 4186 1773 4186 
L 1773 4352 
C 1587 4352 1248 4352 1050 4352 
C 851 4352 512 4352 326 4352 
L 326 4186 
C 768 4186 838 4186 838 3899 
L 838 446 
C 838 160 768 160 326 160 
L 326 0 
C 512 0 851 0 1050 0 
C 1248 0 1587 0 1773 0 
L 1773 160 
C 1331 160 1261 160 1261 447 
L 1261 1579 
L 2080 2390 
L 3290 537 
C 3328 473 3373 390 3373 326 
C 3373 160 3194 160 3110 160 
L 3110 0 
C 3315 0 3610 0 3821 0 
C 3974 0 4237 0 4384 -6 
L 4384 160 
C 4077 160 3981 198 3789 493 
L 2362 2675 
z
" transform="scale(0.015625)"/>
      </defs>
      <use xlink:href="#CMR17-4b" transform="scale(0.996264)"/>
     </g>
    </g>
    <g id="line2d_19">
     <defs>
      <path id="m57b1eb0eb8" d="M 0 1.75 
C 0.464105 1.75 0.909265 1.565609 1.237437 1.237437 
C 1.565609 0.909265 1.75 0.464105 1.75 0 
C 1.75 -0.464105 1.565609 -0.909265 1.237437 -1.237437 
C 0.909265 -1.565609 0.464105 -1.75 0 -1.75 
C -0.464105 -1.75 -0.909265 -1.565609 -1.237437 -1.237437 
C -1.565609 -0.909265 -1.75 -0.464105 -1.75 0 
C -1.75 0.464105 -1.565609 0.909265 -1.237437 1.237437 
C -0.909265 1.565609 -0.464105 1.75 0 1.75 
z
" style="stroke: #ffffff; stroke-width: 0.3"/>
     </defs>
     <g>
      <use xlink:href="#m57b1eb0eb8" x="160.790215" y="77.298623" style="fill: #c2e69f; stroke: #ffffff; stroke-width: 0.3"/>
     </g>
    </g>
    <g id="text_26">
     <!-- Mg -->
     <g transform="translate(169.190215 80.098623) scale(0.08 -0.08)">
      <defs>
       <path id="CMR17-4d" d="M 1338 4224 
C 1299 4320 1293 4320 1158 4320 
L 339 4320 
L 339 4160 
C 781 4160 851 4160 851 3875 
L 851 610 
C 851 451 851 153 339 153 
L 339 -13 
C 486 0 755 0 915 0 
C 1075 0 1344 0 1491 -13 
L 1491 153 
C 979 153 979 451 979 610 
L 979 4135 
L 986 4135 
L 2490 89 
C 2515 25 2528 -13 2579 -13 
C 2630 -13 2643 25 2669 89 
L 4186 4166 
L 4192 4166 
L 4192 438 
C 4192 153 4122 153 3680 153 
L 3680 -13 
C 3853 0 4198 0 4384 0 
C 4570 0 4922 0 5094 -13 
L 5094 153 
C 4653 153 4582 153 4582 438 
L 4582 3875 
C 4582 4160 4653 4160 5094 4160 
L 5094 4320 
L 4282 4320 
C 4147 4320 4141 4314 4102 4218 
L 2720 502 
L 1338 4224 
z
" transform="scale(0.015625)"/>
      </defs>
      <use xlink:href="#CMR17-4d" transform="scale(0.996264)"/>
      <use xlink:href="#CMR17-67" transform="translate(84.686941 0) scale(0.996264)"/>
     </g>
    </g>
    <g id="line2d_20">
     <defs>
      <path id="ma31b3ad630" d="M 0 1.75 
C 0.464105 1.75 0.909265 1.565609 1.237437 1.237437 
C 1.565609 0.909265 1.75 0.464105 1.75 0 
C 1.75 -0.464105 1.565609 -0.909265 1.237437 -1.237437 
C 0.909265 -1.565609 0.464105 -1.75 0 -1.75 
C -0.464105 -1.75 -0.909265 -1.565609 -1.237437 -1.237437 
C -1.565609 -0.909265 -1.75 -0.464105 -1.75 0 
C -1.75 0.464105 -1.565609 0.909265 -1.237437 1.237437 
C -0.909265 1.565609 -0.464105 1.75 0 1.75 
z
" style="stroke: #ffffff; stroke-width: 0.3"/>
     </defs>
     <g>
      <use xlink:href="#ma31b3ad630" x="199.178766" y="43.849386" style="fill: #fdbb6c; stroke: #ffffff; stroke-width: 0.3"/>
     </g>
    </g>
    <g id="text_27">
     <!-- Ne -->
     <g transform="translate(207.578766 46.649386) scale(0.08 -0.08)">
      <defs>
       <path id="CMR17-4e" d="M 1312 4250 
C 1267 4320 1261 4320 1139 4320 
L 326 4320 
L 326 4160 
L 448 4160 
C 704 4160 819 4129 838 4122 
L 838 610 
C 838 451 838 153 326 153 
L 326 -13 
C 474 0 742 0 902 0 
C 1062 0 1331 0 1478 -13 
L 1478 153 
C 966 153 966 451 966 610 
L 966 4033 
C 1011 3995 1011 3982 1056 3919 
L 3430 76 
C 3475 0 3494 0 3526 0 
C 3590 0 3590 19 3590 139 
L 3590 3705 
C 3590 3863 3590 4160 4102 4160 
L 4102 4326 
C 3955 4320 3686 4320 3526 4320 
C 3366 4320 3098 4320 2950 4326 
L 2950 4160 
C 3462 4160 3462 3862 3462 3703 
L 3462 763 
L 1312 4250 
z
" transform="scale(0.015625)"/>
      </defs>
      <use xlink:href="#CMR17-4e" transform="scale(0.996264)"/>
      <use xlink:href="#CMR17-65" transform="translate(69.07243 0) scale(0.996264)"/>
     </g>
    </g>
    <g id="line2d_21">
     <defs>
      <path id="mc278a5bf93" d="M 0 1.75 
C 0.464105 1.75 0.909265 1.565609 1.237437 1.237437 
C 1.565609 0.909265 1.75 0.464105 1.75 0 
C 1.75 -0.464105 1.565609 -0.909265 1.237437 -1.237437 
C 0.909265 -1.565609 0.464105 -1.75 0 -1.75 
C -0.464105 -1.75 -0.909265 -1.565609 -1.237437 -1.237437 
C -1.565609 -0.909265 -1.75 -0.464105 -1.75 0 
C -1.75 0.464105 -1.565609 0.909265 -1.237437 1.237437 
C -0.909265 1.565609 -0.464105 1.75 0 1.75 
z
" style="stroke: #ffffff; stroke-width: 0.3"/>
     </defs>
     <g>
      <use xlink:href="#mc278a5bf93" x="199.178766" y="54.999132" style="fill: #f57949; stroke: #ffffff; stroke-width: 0.3"/>
     </g>
    </g>
    <g id="text_28">
     <!-- Au -->
     <g transform="translate(207.578766 57.799132) scale(0.08 -0.08)">
      <defs>
       <path id="CMR17-75" d="M 1882 2693 
L 1882 2528 
C 2259 2528 2317 2489 2317 2186 
L 2317 1032 
C 2317 500 2029 38 1555 38 
C 1030 38 986 348 986 678 
L 986 2763 
L 211 2693 
L 211 2528 
C 467 2528 640 2528 646 2274 
L 646 1058 
C 646 633 646 361 813 183 
C 896 101 1056 -64 1517 -64 
C 2061 -64 2272 377 2323 506 
L 2330 506 
L 2330 -63 
L 3091 -63 
L 3091 128 
C 2714 128 2656 166 2656 473 
L 2656 2763 
L 1882 2693 
z
" transform="scale(0.015625)"/>
      </defs>
      <use xlink:href="#CMR17-41" transform="scale(0.996264)"/>
      <use xlink:href="#CMR17-75" transform="translate(69.07243 0) scale(0.996264)"/>
     </g>
    </g>
    <g id="line2d_22">
     <defs>
      <path id="m3df9ec3224" d="M 0 1.75 
C 0.464105 1.75 0.909265 1.565609 1.237437 1.237437 
C 1.565609 0.909265 1.75 0.464105 1.75 0 
C 1.75 -0.464105 1.565609 -0.909265 1.237437 -1.237437 
C 0.909265 -1.565609 0.464105 -1.75 0 -1.75 
C -0.464105 -1.75 -0.909265 -1.565609 -1.237437 -1.237437 
C -1.565609 -0.909265 -1.75 -0.464105 -1.75 0 
C -1.75 0.464105 -1.565609 0.909265 -1.237437 1.237437 
C -0.909265 1.565609 -0.464105 1.75 0 1.75 
z
" style="stroke: #ffffff; stroke-width: 0.3"/>
     </defs>
     <g>
      <use xlink:href="#m3df9ec3224" x="199.178766" y="66.148877" style="fill: #d7414e; stroke: #ffffff; stroke-width: 0.3"/>
     </g>
    </g>
    <g id="text_29">
     <!-- Ar -->
     <g transform="translate(207.578766 68.948877) scale(0.08 -0.08)">
      <use xlink:href="#CMR17-41" transform="scale(0.996264)"/>
      <use xlink:href="#CMR17-72" transform="translate(69.07243 0) scale(0.996264)"/>
     </g>
    </g>
   </g>
   <g id="line2d_23">
    <g clip-path="url(#pe6e6a704cc)">
     <use xlink:href="#m81b1a0fbef" x="28.510677" y="186.107267" style="fill: #5e4fa2; stroke: #ffffff; stroke-width: 0.3"/>
     <use xlink:href="#m81b1a0fbef" x="54.76678" y="187.107444" style="fill: #5e4fa2; stroke: #ffffff; stroke-width: 0.3"/>
     <use xlink:href="#m81b1a0fbef" x="81.022883" y="187.672174" style="fill: #5e4fa2; stroke: #ffffff; stroke-width: 0.3"/>
     <use xlink:href="#m81b1a0fbef" x="133.535088" y="188.287622" style="fill: #5e4fa2; stroke: #ffffff; stroke-width: 0.3"/>
     <use xlink:href="#m81b1a0fbef" x="186.047294" y="188.615893" style="fill: #5e4fa2; stroke: #ffffff; stroke-width: 0.3"/>
     <use xlink:href="#m81b1a0fbef" x="238.559499" y="188.82065" style="fill: #5e4fa2; stroke: #ffffff; stroke-width: 0.3"/>
    </g>
   </g>
   <g id="line2d_24">
    <g clip-path="url(#pe6e6a704cc)">
     <use xlink:href="#m4f71bbc4df" x="28.510677" y="184.669101" style="fill: #3c93b8; stroke: #ffffff; stroke-width: 0.3"/>
     <use xlink:href="#m4f71bbc4df" x="54.76678" y="185.795473" style="fill: #3c93b8; stroke: #ffffff; stroke-width: 0.3"/>
     <use xlink:href="#m4f71bbc4df" x="81.022883" y="186.432351" style="fill: #3c93b8; stroke: #ffffff; stroke-width: 0.3"/>
     <use xlink:href="#m4f71bbc4df" x="133.535088" y="187.126779" style="fill: #3c93b8; stroke: #ffffff; stroke-width: 0.3"/>
     <use xlink:href="#m4f71bbc4df" x="186.047294" y="187.49745" style="fill: #3c93b8; stroke: #ffffff; stroke-width: 0.3"/>
     <use xlink:href="#m4f71bbc4df" x="238.559499" y="187.728715" style="fill: #3c93b8; stroke: #ffffff; stroke-width: 0.3"/>
    </g>
   </g>
   <g id="line2d_25">
    <g clip-path="url(#pe6e6a704cc)">
     <use xlink:href="#m71a2e42890" x="28.510677" y="181.87791" style="fill: #79c9a4; stroke: #ffffff; stroke-width: 0.3"/>
     <use xlink:href="#m71a2e42890" x="54.76678" y="183.165726" style="fill: #79c9a4; stroke: #ffffff; stroke-width: 0.3"/>
     <use xlink:href="#m71a2e42890" x="81.022883" y="183.902144" style="fill: #79c9a4; stroke: #ffffff; stroke-width: 0.3"/>
     <use xlink:href="#m71a2e42890" x="133.535088" y="184.712129" style="fill: #79c9a4; stroke: #ffffff; stroke-width: 0.3"/>
     <use xlink:href="#m71a2e42890" x="186.047294" y="185.14734" style="fill: #79c9a4; stroke: #ffffff; stroke-width: 0.3"/>
     <use xlink:href="#m71a2e42890" x="238.559499" y="185.422255" style="fill: #79c9a4; stroke: #ffffff; stroke-width: 0.3"/>
    </g>
   </g>
   <g id="line2d_26">
    <g clip-path="url(#pe6e6a704cc)">
     <use xlink:href="#m57b1eb0eb8" x="28.510677" y="128.607809" style="fill: #c2e69f; stroke: #ffffff; stroke-width: 0.3"/>
     <use xlink:href="#m57b1eb0eb8" x="54.76678" y="132.658768" style="fill: #c2e69f; stroke: #ffffff; stroke-width: 0.3"/>
     <use xlink:href="#m57b1eb0eb8" x="81.022883" y="135.089757" style="fill: #c2e69f; stroke: #ffffff; stroke-width: 0.3"/>
     <use xlink:href="#m57b1eb0eb8" x="133.535088" y="137.86554" style="fill: #c2e69f; stroke: #ffffff; stroke-width: 0.3"/>
     <use xlink:href="#m57b1eb0eb8" x="186.047294" y="139.406455" style="fill: #c2e69f; stroke: #ffffff; stroke-width: 0.3"/>
     <use xlink:href="#m57b1eb0eb8" x="238.559499" y="140.38086" style="fill: #c2e69f; stroke: #ffffff; stroke-width: 0.3"/>
    </g>
   </g>
   <g id="line2d_27">
    <g clip-path="url(#pe6e6a704cc)">
     <use xlink:href="#ma31b3ad630" x="28.510677" y="123.870443" style="fill: #fdbb6c; stroke: #ffffff; stroke-width: 0.3"/>
     <use xlink:href="#ma31b3ad630" x="54.76678" y="126.643944" style="fill: #fdbb6c; stroke: #ffffff; stroke-width: 0.3"/>
     <use xlink:href="#ma31b3ad630" x="81.022883" y="128.368264" style="fill: #fdbb6c; stroke: #ffffff; stroke-width: 0.3"/>
     <use xlink:href="#ma31b3ad630" x="133.535088" y="130.405445" style="fill: #fdbb6c; stroke: #ffffff; stroke-width: 0.3"/>
     <use xlink:href="#ma31b3ad630" x="186.047294" y="131.591778" style="fill: #fdbb6c; stroke: #ffffff; stroke-width: 0.3"/>
     <use xlink:href="#ma31b3ad630" x="238.559499" y="132.32308" style="fill: #fdbb6c; stroke: #ffffff; stroke-width: 0.3"/>
    </g>
   </g>
   <g id="line2d_28">
    <g clip-path="url(#pe6e6a704cc)">
     <use xlink:href="#mc278a5bf93" x="28.510677" y="7.820216" style="fill: #f57949; stroke: #ffffff; stroke-width: 0.3"/>
     <use xlink:href="#mc278a5bf93" x="54.76678" y="16.990711" style="fill: #f57949; stroke: #ffffff; stroke-width: 0.3"/>
     <use xlink:href="#mc278a5bf93" x="81.022883" y="22.591103" style="fill: #f57949; stroke: #ffffff; stroke-width: 0.3"/>
     <use xlink:href="#mc278a5bf93" x="133.535088" y="29.110111" style="fill: #f57949; stroke: #ffffff; stroke-width: 0.3"/>
     <use xlink:href="#mc278a5bf93" x="186.047294" y="32.801084" style="fill: #f57949; stroke: #ffffff; stroke-width: 0.3"/>
     <use xlink:href="#mc278a5bf93" x="238.559499" y="35.120438" style="fill: #f57949; stroke: #ffffff; stroke-width: 0.3"/>
    </g>
   </g>
   <g id="line2d_29">
    <g clip-path="url(#pe6e6a704cc)">
     <use xlink:href="#m3df9ec3224" x="28.510677" y="80.586506" style="fill: #d7414e; stroke: #ffffff; stroke-width: 0.3"/>
     <use xlink:href="#m3df9ec3224" x="54.76678" y="85.644629" style="fill: #d7414e; stroke: #ffffff; stroke-width: 0.3"/>
     <use xlink:href="#m3df9ec3224" x="81.022883" y="88.768561" style="fill: #d7414e; stroke: #ffffff; stroke-width: 0.3"/>
     <use xlink:href="#m3df9ec3224" x="133.535088" y="92.417322" style="fill: #d7414e; stroke: #ffffff; stroke-width: 0.3"/>
     <use xlink:href="#m3df9ec3224" x="186.047294" y="94.491952" style="fill: #d7414e; stroke: #ffffff; stroke-width: 0.3"/>
     <use xlink:href="#m3df9ec3224" x="238.559499" y="95.821845" style="fill: #d7414e; stroke: #ffffff; stroke-width: 0.3"/>
    </g>
   </g>
  </g>
 </g>
 <defs>
  <clipPath id="pe6e6a704cc">
   <rect x="23.259457" y="0.36" width="220.551263" height="196.484578"/>
  </clipPath>
 </defs>
</svg>
