<?xml version="1.0" encoding="utf-8" standalone="no"?>
<!DOCTYPE svg PUBLIC "-//W3C//DTD SVG 1.1//EN"
  "http://www.w3.org/Graphics/SVG/1.1/DTD/svg11.dtd">
<svg xmlns:xlink="http://www.w3.org/1999/xlink" width="244.17072pt" height="302.610889pt" viewBox="0 0 244.17072 302.610889" xmlns="http://www.w3.org/2000/svg" version="1.1">
 <metadata>
  <rdf:RDF xmlns:dc="http://purl.org/dc/elements/1.1/" xmlns:cc="http://creativecommons.org/ns#" xmlns:rdf="http://www.w3.org/1999/02/22-rdf-syntax-ns#">
   <cc:Work>
    <dc:type rdf:resource="http://purl.org/dc/dcmitype/StillImage"/>
    <dc:date>2025-09-12T14:50:40.891371</dc:date>
    <dc:format>image/svg+xml</dc:format>
    <dc:creator>
     <cc:Agent>
      <dc:title>Matplotlib v3.10.1, https://matplotlib.org/</dc:title>
     </cc:Agent>
    </dc:creator>
   </cc:Work>
  </rdf:RDF>
 </metadata>
 <defs>
  <style type="text/css">*{stroke-linejoin: round; stroke-linecap: butt}</style>
 </defs>
 <g id="figure_1">
  <g id="patch_1">
   <path d="M 0 302.610889 
L 244.17072 302.610889 
L 244.17072 0 
L 0 0 
L 0 302.610889 
z
" style="fill: none"/>
  </g>
  <g id="axes_1">
   <g id="patch_2">
    <path d="M 25.150802 135.116705 
L 243.81072 135.116705 
L 243.81072 0.487615 
L 25.150802 0.487615 
L 25.150802 135.116705 
z
" style="fill: none"/>
   </g>
   <g id="line2d_1">
    <path d="M 42.348773 74.951564 
L 66.917303 75.540627 
L 91.485833 76.759262 
L 140.622893 78.82537 
L 189.759954 80.161947 
L 238.897014 80.932238 
" clip-path="url(#p74d271f596)" style="fill: none; stroke-dasharray: 0.5,0.825; stroke-dashoffset: 0; stroke: #858585; stroke-width: 0.5; stroke-linecap: round"/>
    <defs>
     <path id="md030c94d6f" d="M 0 1.75 
C 0.464105 1.75 0.909265 1.565609 1.237437 1.237437 
C 1.565609 0.909265 1.75 0.464105 1.75 0 
C 1.75 -0.464105 1.565609 -0.909265 1.237437 -1.237437 
C 0.909265 -1.565609 0.464105 -1.75 0 -1.75 
C -0.464105 -1.75 -0.909265 -1.565609 -1.237437 -1.237437 
C -1.565609 -0.909265 -1.75 -0.464105 -1.75 0 
C -1.75 0.464105 -1.565609 0.909265 -1.237437 1.237437 
C -0.909265 1.565609 -0.464105 1.75 0 1.75 
z
" style="stroke: #858585; stroke-width: 0.35"/>
    </defs>
    <g clip-path="url(#p74d271f596)">
     <use xlink:href="#md030c94d6f" x="42.348773" y="74.951564" style="fill: #a9a9a9; stroke: #858585; stroke-width: 0.35"/>
     <use xlink:href="#md030c94d6f" x="66.917303" y="75.540627" style="fill: #a9a9a9; stroke: #858585; stroke-width: 0.35"/>
     <use xlink:href="#md030c94d6f" x="91.485833" y="76.759262" style="fill: #a9a9a9; stroke: #858585; stroke-width: 0.35"/>
     <use xlink:href="#md030c94d6f" x="140.622893" y="78.82537" style="fill: #a9a9a9; stroke: #858585; stroke-width: 0.35"/>
     <use xlink:href="#md030c94d6f" x="189.759954" y="80.161947" style="fill: #a9a9a9; stroke: #858585; stroke-width: 0.35"/>
     <use xlink:href="#md030c94d6f" x="238.897014" y="80.932238" style="fill: #a9a9a9; stroke: #858585; stroke-width: 0.35"/>
    </g>
   </g>
   <g id="line2d_2">
    <path d="M 42.348773 121.937092 
L 66.917303 116.898079 
L 91.485833 111.403568 
L 140.622893 98.432361 
L 189.759954 85.895383 
L 238.897014 72.566021 
" clip-path="url(#p74d271f596)" style="fill: none; stroke-dasharray: 0.5,0.825; stroke-dashoffset: 0; stroke: #5e4fa2; stroke-width: 0.5; stroke-linecap: round"/>
    <defs>
     <path id="m840b968da0" d="M 0 1.75 
C 0.464105 1.75 0.909265 1.565609 1.237437 1.237437 
C 1.565609 0.909265 1.75 0.464105 1.75 0 
C 1.75 -0.464105 1.565609 -0.909265 1.237437 -1.237437 
C 0.909265 -1.565609 0.464105 -1.75 0 -1.75 
C -0.464105 -1.75 -0.909265 -1.565609 -1.237437 -1.237437 
C -1.565609 -0.909265 -1.75 -0.464105 -1.75 0 
C -1.75 0.464105 -1.565609 0.909265 -1.237437 1.237437 
C -0.909265 1.565609 -0.464105 1.75 0 1.75 
z
" style="stroke: #5e4fa2; stroke-width: 0.35"/>
    </defs>
    <g clip-path="url(#p74d271f596)">
     <use xlink:href="#m840b968da0" x="42.348773" y="121.937092" style="fill: #8e83bd; stroke: #5e4fa2; stroke-width: 0.35"/>
     <use xlink:href="#m840b968da0" x="66.917303" y="116.898079" style="fill: #8e83bd; stroke: #5e4fa2; stroke-width: 0.35"/>
     <use xlink:href="#m840b968da0" x="91.485833" y="111.403568" style="fill: #8e83bd; stroke: #5e4fa2; stroke-width: 0.35"/>
     <use xlink:href="#m840b968da0" x="140.622893" y="98.432361" style="fill: #8e83bd; stroke: #5e4fa2; stroke-width: 0.35"/>
     <use xlink:href="#m840b968da0" x="189.759954" y="85.895383" style="fill: #8e83bd; stroke: #5e4fa2; stroke-width: 0.35"/>
     <use xlink:href="#m840b968da0" x="238.897014" y="72.566021" style="fill: #8e83bd; stroke: #5e4fa2; stroke-width: 0.35"/>
    </g>
   </g>
   <g id="line2d_3">
    <path d="M 42.348773 122.159322 
L 66.917303 117.142104 
L 91.485833 111.57816 
L 140.622893 98.043655 
L 189.759954 84.444657 
L 238.897014 70.802075 
" clip-path="url(#p74d271f596)" style="fill: none; stroke-dasharray: 0.5,0.825; stroke-dashoffset: 0; stroke: #3c93b8; stroke-width: 0.5; stroke-linecap: round"/>
    <defs>
     <path id="mb91379ec98" d="M 0 1.75 
C 0.464105 1.75 0.909265 1.565609 1.237437 1.237437 
C 1.565609 0.909265 1.75 0.464105 1.75 0 
C 1.75 -0.464105 1.565609 -0.909265 1.237437 -1.237437 
C 0.909265 -1.565609 0.464105 -1.75 0 -1.75 
C -0.464105 -1.75 -0.909265 -1.565609 -1.237437 -1.237437 
C -1.565609 -0.909265 -1.75 -0.464105 -1.75 0 
C -1.75 0.464105 -1.565609 0.909265 -1.237437 1.237437 
C -0.909265 1.565609 -0.464105 1.75 0 1.75 
z
" style="stroke: #3c93b8; stroke-width: 0.35"/>
    </defs>
    <g clip-path="url(#p74d271f596)">
     <use xlink:href="#mb91379ec98" x="42.348773" y="122.159322" style="fill: #76b3cd; stroke: #3c93b8; stroke-width: 0.35"/>
     <use xlink:href="#mb91379ec98" x="66.917303" y="117.142104" style="fill: #76b3cd; stroke: #3c93b8; stroke-width: 0.35"/>
     <use xlink:href="#mb91379ec98" x="91.485833" y="111.57816" style="fill: #76b3cd; stroke: #3c93b8; stroke-width: 0.35"/>
     <use xlink:href="#mb91379ec98" x="140.622893" y="98.043655" style="fill: #76b3cd; stroke: #3c93b8; stroke-width: 0.35"/>
     <use xlink:href="#mb91379ec98" x="189.759954" y="84.444657" style="fill: #76b3cd; stroke: #3c93b8; stroke-width: 0.35"/>
     <use xlink:href="#mb91379ec98" x="238.897014" y="70.802075" style="fill: #76b3cd; stroke: #3c93b8; stroke-width: 0.35"/>
    </g>
   </g>
   <g id="line2d_4">
    <path d="M 42.348773 121.48651 
L 66.917303 116.072496 
L 91.485833 109.931079 
L 140.622893 94.759817 
L 189.759954 79.06754 
L 238.897014 65.941339 
" clip-path="url(#p74d271f596)" style="fill: none; stroke-dasharray: 0.5,0.825; stroke-dashoffset: 0; stroke: #79c9a4; stroke-width: 0.5; stroke-linecap: round"/>
    <defs>
     <path id="m5d944c5411" d="M 0 1.75 
C 0.464105 1.75 0.909265 1.565609 1.237437 1.237437 
C 1.565609 0.909265 1.75 0.464105 1.75 0 
C 1.75 -0.464105 1.565609 -0.909265 1.237437 -1.237437 
C 0.909265 -1.565609 0.464105 -1.75 0 -1.75 
C -0.464105 -1.75 -0.909265 -1.565609 -1.237437 -1.237437 
C -1.565609 -0.909265 -1.75 -0.464105 -1.75 0 
C -1.75 0.464105 -1.565609 0.909265 -1.237437 1.237437 
C -0.909265 1.565609 -0.464105 1.75 0 1.75 
z
" style="stroke: #79c9a4; stroke-width: 0.35"/>
    </defs>
    <g clip-path="url(#p74d271f596)">
     <use xlink:href="#m5d944c5411" x="42.348773" y="121.48651" style="fill: #a0d8bf; stroke: #79c9a4; stroke-width: 0.35"/>
     <use xlink:href="#m5d944c5411" x="66.917303" y="116.072496" style="fill: #a0d8bf; stroke: #79c9a4; stroke-width: 0.35"/>
     <use xlink:href="#m5d944c5411" x="91.485833" y="109.931079" style="fill: #a0d8bf; stroke: #79c9a4; stroke-width: 0.35"/>
     <use xlink:href="#m5d944c5411" x="140.622893" y="94.759817" style="fill: #a0d8bf; stroke: #79c9a4; stroke-width: 0.35"/>
     <use xlink:href="#m5d944c5411" x="189.759954" y="79.06754" style="fill: #a0d8bf; stroke: #79c9a4; stroke-width: 0.35"/>
     <use xlink:href="#m5d944c5411" x="238.897014" y="65.941339" style="fill: #a0d8bf; stroke: #79c9a4; stroke-width: 0.35"/>
    </g>
   </g>
   <g id="line2d_5">
    <path d="M 42.348773 117.314492 
L 66.917303 106.066278 
L 91.485833 89.163066 
L 140.622893 66.415576 
L 189.759954 53.684208 
L 238.897014 45.095214 
" clip-path="url(#p74d271f596)" style="fill: none; stroke-dasharray: 0.5,0.825; stroke-dashoffset: 0; stroke: #c2e69f; stroke-width: 0.5; stroke-linecap: round"/>
    <defs>
     <path id="mb1d501fd8d" d="M 0 1.75 
C 0.464105 1.75 0.909265 1.565609 1.237437 1.237437 
C 1.565609 0.909265 1.75 0.464105 1.75 0 
C 1.75 -0.464105 1.565609 -0.909265 1.237437 -1.237437 
C 0.909265 -1.565609 0.464105 -1.75 0 -1.75 
C -0.464105 -1.75 -0.909265 -1.565609 -1.237437 -1.237437 
C -1.565609 -0.909265 -1.75 -0.464105 -1.75 0 
C -1.75 0.464105 -1.565609 0.909265 -1.237437 1.237437 
C -0.909265 1.565609 -0.464105 1.75 0 1.75 
z
" style="stroke: #c2e69f; stroke-width: 0.35"/>
    </defs>
    <g clip-path="url(#p74d271f596)">
     <use xlink:href="#mb1d501fd8d" x="42.348773" y="117.314492" style="fill: #d4edbb; stroke: #c2e69f; stroke-width: 0.35"/>
     <use xlink:href="#mb1d501fd8d" x="66.917303" y="106.066278" style="fill: #d4edbb; stroke: #c2e69f; stroke-width: 0.35"/>
     <use xlink:href="#mb1d501fd8d" x="91.485833" y="89.163066" style="fill: #d4edbb; stroke: #c2e69f; stroke-width: 0.35"/>
     <use xlink:href="#mb1d501fd8d" x="140.622893" y="66.415576" style="fill: #d4edbb; stroke: #c2e69f; stroke-width: 0.35"/>
     <use xlink:href="#mb1d501fd8d" x="189.759954" y="53.684208" style="fill: #d4edbb; stroke: #c2e69f; stroke-width: 0.35"/>
     <use xlink:href="#mb1d501fd8d" x="238.897014" y="45.095214" style="fill: #d4edbb; stroke: #c2e69f; stroke-width: 0.35"/>
    </g>
   </g>
   <g id="line2d_6">
    <path d="M 42.348773 96.343211 
L 66.917303 78.580087 
L 91.485833 64.753331 
L 140.622893 48.978685 
L 189.759954 40.209112 
L 238.897014 34.06578 
" clip-path="url(#p74d271f596)" style="fill: none; stroke-dasharray: 0.5,0.825; stroke-dashoffset: 0; stroke: #fdbb6c; stroke-width: 0.5; stroke-linecap: round"/>
    <defs>
     <path id="m2266e71efd" d="M 0 1.75 
C 0.464105 1.75 0.909265 1.565609 1.237437 1.237437 
C 1.565609 0.909265 1.75 0.464105 1.75 0 
C 1.75 -0.464105 1.565609 -0.909265 1.237437 -1.237437 
C 0.909265 -1.565609 0.464105 -1.75 0 -1.75 
C -0.464105 -1.75 -0.909265 -1.565609 -1.237437 -1.237437 
C -1.565609 -0.909265 -1.75 -0.464105 -1.75 0 
C -1.75 0.464105 -1.565609 0.909265 -1.237437 1.237437 
C -0.909265 1.565609 -0.464105 1.75 0 1.75 
z
" style="stroke: #fdbb6c; stroke-width: 0.35"/>
    </defs>
    <g clip-path="url(#p74d271f596)">
     <use xlink:href="#m2266e71efd" x="42.348773" y="96.343211" style="fill: #fdcf97; stroke: #fdbb6c; stroke-width: 0.35"/>
     <use xlink:href="#m2266e71efd" x="66.917303" y="78.580087" style="fill: #fdcf97; stroke: #fdbb6c; stroke-width: 0.35"/>
     <use xlink:href="#m2266e71efd" x="91.485833" y="64.753331" style="fill: #fdcf97; stroke: #fdbb6c; stroke-width: 0.35"/>
     <use xlink:href="#m2266e71efd" x="140.622893" y="48.978685" style="fill: #fdcf97; stroke: #fdbb6c; stroke-width: 0.35"/>
     <use xlink:href="#m2266e71efd" x="189.759954" y="40.209112" style="fill: #fdcf97; stroke: #fdbb6c; stroke-width: 0.35"/>
     <use xlink:href="#m2266e71efd" x="238.897014" y="34.06578" style="fill: #fdcf97; stroke: #fdbb6c; stroke-width: 0.35"/>
    </g>
   </g>
   <g id="line2d_7">
    <path d="M 42.348773 110.633865 
L 66.917303 87.008675 
L 91.485833 71.943935 
L 140.622893 54.553202 
L 189.759954 44.267874 
L 238.897014 37.484897 
" clip-path="url(#p74d271f596)" style="fill: none; stroke-dasharray: 0.5,0.825; stroke-dashoffset: 0; stroke: #f57949; stroke-width: 0.5; stroke-linecap: round"/>
    <defs>
     <path id="mfac33df0a2" d="M 0 1.75 
C 0.464105 1.75 0.909265 1.565609 1.237437 1.237437 
C 1.565609 0.909265 1.75 0.464105 1.75 0 
C 1.75 -0.464105 1.565609 -0.909265 1.237437 -1.237437 
C 0.909265 -1.565609 0.464105 -1.75 0 -1.75 
C -0.464105 -1.75 -0.909265 -1.565609 -1.237437 -1.237437 
C -1.565609 -0.909265 -1.75 -0.464105 -1.75 0 
C -1.75 0.464105 -1.565609 0.909265 -1.237437 1.237437 
C -0.909265 1.565609 -0.464105 1.75 0 1.75 
z
" style="stroke: #f57949; stroke-width: 0.35"/>
    </defs>
    <g clip-path="url(#p74d271f596)">
     <use xlink:href="#mfac33df0a2" x="42.348773" y="110.633865" style="fill: #f7a07f; stroke: #f57949; stroke-width: 0.35"/>
     <use xlink:href="#mfac33df0a2" x="66.917303" y="87.008675" style="fill: #f7a07f; stroke: #f57949; stroke-width: 0.35"/>
     <use xlink:href="#mfac33df0a2" x="91.485833" y="71.943935" style="fill: #f7a07f; stroke: #f57949; stroke-width: 0.35"/>
     <use xlink:href="#mfac33df0a2" x="140.622893" y="54.553202" style="fill: #f7a07f; stroke: #f57949; stroke-width: 0.35"/>
     <use xlink:href="#mfac33df0a2" x="189.759954" y="44.267874" style="fill: #f7a07f; stroke: #f57949; stroke-width: 0.35"/>
     <use xlink:href="#mfac33df0a2" x="238.897014" y="37.484897" style="fill: #f7a07f; stroke: #f57949; stroke-width: 0.35"/>
    </g>
   </g>
   <g id="line2d_8">
    <path d="M 42.348773 103.771785 
L 66.917303 82.17878 
L 91.485833 68.276369 
L 140.622893 51.818549 
L 189.759954 41.97983 
L 238.897014 36.105191 
" clip-path="url(#p74d271f596)" style="fill: none; stroke-dasharray: 0.5,0.825; stroke-dashoffset: 0; stroke: #d7414e; stroke-width: 0.5; stroke-linecap: round"/>
    <defs>
     <path id="m7df99553f1" d="M 0 1.75 
C 0.464105 1.75 0.909265 1.565609 1.237437 1.237437 
C 1.565609 0.909265 1.75 0.464105 1.75 0 
C 1.75 -0.464105 1.565609 -0.909265 1.237437 -1.237437 
C 0.909265 -1.565609 0.464105 -1.75 0 -1.75 
C -0.464105 -1.75 -0.909265 -1.565609 -1.237437 -1.237437 
C -1.565609 -0.909265 -1.75 -0.464105 -1.75 0 
C -1.75 0.464105 -1.565609 0.909265 -1.237437 1.237437 
C -0.909265 1.565609 -0.464105 1.75 0 1.75 
z
" style="stroke: #d7414e; stroke-width: 0.35"/>
    </defs>
    <g clip-path="url(#p74d271f596)">
     <use xlink:href="#m7df99553f1" x="42.348773" y="103.771785" style="fill: #e27982; stroke: #d7414e; stroke-width: 0.35"/>
     <use xlink:href="#m7df99553f1" x="66.917303" y="82.17878" style="fill: #e27982; stroke: #d7414e; stroke-width: 0.35"/>
     <use xlink:href="#m7df99553f1" x="91.485833" y="68.276369" style="fill: #e27982; stroke: #d7414e; stroke-width: 0.35"/>
     <use xlink:href="#m7df99553f1" x="140.622893" y="51.818549" style="fill: #e27982; stroke: #d7414e; stroke-width: 0.35"/>
     <use xlink:href="#m7df99553f1" x="189.759954" y="41.97983" style="fill: #e27982; stroke: #d7414e; stroke-width: 0.35"/>
     <use xlink:href="#m7df99553f1" x="238.897014" y="36.105191" style="fill: #e27982; stroke: #d7414e; stroke-width: 0.35"/>
    </g>
   </g>
   <g id="matplotlib.axis_1">
    <g id="xtick_1">
     <g id="line2d_9">
      <defs>
       <path id="mc13a0c1145" d="M 0 0 
L 0 2 
" style="stroke: #000000; stroke-width: 0.35"/>
      </defs>
      <g>
       <use xlink:href="#mc13a0c1145" x="42.348773" y="135.116705" style="stroke: #000000; stroke-width: 0.35"/>
      </g>
     </g>
    </g>
    <g id="xtick_2">
     <g id="line2d_10">
      <g>
       <use xlink:href="#mc13a0c1145" x="66.917303" y="135.116705" style="stroke: #000000; stroke-width: 0.35"/>
      </g>
     </g>
    </g>
    <g id="xtick_3">
     <g id="line2d_11">
      <g>
       <use xlink:href="#mc13a0c1145" x="91.485833" y="135.116705" style="stroke: #000000; stroke-width: 0.35"/>
      </g>
     </g>
    </g>
    <g id="xtick_4">
     <g id="line2d_12">
      <g>
       <use xlink:href="#mc13a0c1145" x="116.054363" y="135.116705" style="stroke: #000000; stroke-width: 0.35"/>
      </g>
     </g>
    </g>
    <g id="xtick_5">
     <g id="line2d_13">
      <g>
       <use xlink:href="#mc13a0c1145" x="140.622893" y="135.116705" style="stroke: #000000; stroke-width: 0.35"/>
      </g>
     </g>
    </g>
    <g id="xtick_6">
     <g id="line2d_14">
      <g>
       <use xlink:href="#mc13a0c1145" x="165.191423" y="135.116705" style="stroke: #000000; stroke-width: 0.35"/>
      </g>
     </g>
    </g>
    <g id="xtick_7">
     <g id="line2d_15">
      <g>
       <use xlink:href="#mc13a0c1145" x="189.759954" y="135.116705" style="stroke: #000000; stroke-width: 0.35"/>
      </g>
     </g>
    </g>
    <g id="xtick_8">
     <g id="line2d_16">
      <g>
       <use xlink:href="#mc13a0c1145" x="214.328484" y="135.116705" style="stroke: #000000; stroke-width: 0.35"/>
      </g>
     </g>
    </g>
    <g id="xtick_9">
     <g id="line2d_17">
      <g>
       <use xlink:href="#mc13a0c1145" x="238.897014" y="135.116705" style="stroke: #000000; stroke-width: 0.35"/>
      </g>
     </g>
    </g>
   </g>
   <g id="matplotlib.axis_2">
    <g id="ytick_1">
     <g id="line2d_18">
      <defs>
       <path id="m120633953f" d="M 0 0 
L -2 0 
" style="stroke: #000000; stroke-width: 0.35"/>
      </defs>
      <g>
       <use xlink:href="#m120633953f" x="25.150802" y="135.116705" style="stroke: #000000; stroke-width: 0.35"/>
      </g>
     </g>
     <g id="text_1">
      <!-- $\mathdefault{0.0}$ -->
      <g transform="translate(10.330112 137.884106) scale(0.08 -0.08)">
       <defs>
        <path id="CMR17-30" d="M 2688 2025 
C 2688 2416 2682 3080 2413 3591 
C 2176 4039 1798 4198 1466 4198 
C 1158 4198 768 4058 525 3597 
C 269 3118 243 2524 243 2025 
C 243 1661 250 1106 448 619 
C 723 -39 1216 -128 1466 -128 
C 1760 -128 2208 -7 2470 600 
C 2662 1042 2688 1559 2688 2025 
z
M 1466 -26 
C 1056 -26 813 325 723 812 
C 653 1188 653 1738 653 2096 
C 653 2588 653 2997 736 3387 
C 858 3929 1216 4096 1466 4096 
C 1728 4096 2067 3923 2189 3400 
C 2272 3036 2278 2607 2278 2096 
C 2278 1680 2278 1169 2202 792 
C 2067 95 1690 -26 1466 -26 
z
" transform="scale(0.015625)"/>
        <path id="CMMI12-3a" d="M 1178 307 
C 1178 492 1024 619 870 619 
C 685 619 557 466 557 313 
C 557 128 710 0 864 0 
C 1050 0 1178 153 1178 307 
z
" transform="scale(0.015625)"/>
       </defs>
       <use xlink:href="#CMR17-30" transform="scale(0.996264)"/>
       <use xlink:href="#CMMI12-3a" transform="translate(45.690477 0) scale(0.996264)"/>
       <use xlink:href="#CMR17-30" transform="translate(72.787654 0) scale(0.996264)"/>
      </g>
     </g>
    </g>
    <g id="ytick_2">
     <g id="line2d_19">
      <g>
       <use xlink:href="#m120633953f" x="25.150802" y="108.718844" style="stroke: #000000; stroke-width: 0.35"/>
      </g>
     </g>
     <g id="text_2">
      <!-- $\mathdefault{0.2}$ -->
      <g transform="translate(10.330112 111.486245) scale(0.08 -0.08)">
       <defs>
        <path id="CMR17-32" d="M 2669 989 
L 2554 989 
C 2490 536 2438 459 2413 420 
C 2381 369 1920 369 1830 369 
L 602 369 
C 832 619 1280 1072 1824 1597 
C 2214 1967 2669 2402 2669 3035 
C 2669 3790 2067 4224 1395 4224 
C 691 4224 262 3604 262 3030 
C 262 2780 448 2748 525 2748 
C 589 2748 781 2787 781 3010 
C 781 3207 614 3264 525 3264 
C 486 3264 448 3258 422 3245 
C 544 3790 915 4058 1306 4058 
C 1862 4058 2227 3617 2227 3035 
C 2227 2479 1901 2000 1536 1584 
L 262 146 
L 262 0 
L 2515 0 
L 2669 989 
z
" transform="scale(0.015625)"/>
       </defs>
       <use xlink:href="#CMR17-30" transform="scale(0.996264)"/>
       <use xlink:href="#CMMI12-3a" transform="translate(45.690477 0) scale(0.996264)"/>
       <use xlink:href="#CMR17-32" transform="translate(72.787654 0) scale(0.996264)"/>
      </g>
     </g>
    </g>
    <g id="ytick_3">
     <g id="line2d_20">
      <g>
       <use xlink:href="#m120633953f" x="25.150802" y="82.320983" style="stroke: #000000; stroke-width: 0.35"/>
      </g>
     </g>
     <g id="text_3">
      <!-- $\mathdefault{0.4}$ -->
      <g transform="translate(10.330112 85.088384) scale(0.08 -0.08)">
       <defs>
        <path id="CMR17-34" d="M 2150 4122 
C 2150 4256 2144 4256 2029 4256 
L 128 1254 
L 128 1088 
L 1779 1088 
L 1779 457 
C 1779 224 1766 160 1318 160 
L 1197 160 
L 1197 0 
C 1402 0 1747 0 1965 0 
C 2182 0 2528 0 2733 0 
L 2733 160 
L 2611 160 
C 2163 160 2150 224 2150 457 
L 2150 1088 
L 2803 1088 
L 2803 1254 
L 2150 1254 
L 2150 4122 
z
M 1798 3703 
L 1798 1254 
L 256 1254 
L 1798 3703 
z
" transform="scale(0.015625)"/>
       </defs>
       <use xlink:href="#CMR17-30" transform="scale(0.996264)"/>
       <use xlink:href="#CMMI12-3a" transform="translate(45.690477 0) scale(0.996264)"/>
       <use xlink:href="#CMR17-34" transform="translate(72.787654 0) scale(0.996264)"/>
      </g>
     </g>
    </g>
    <g id="ytick_4">
     <g id="line2d_21">
      <g>
       <use xlink:href="#m120633953f" x="25.150802" y="55.923123" style="stroke: #000000; stroke-width: 0.35"/>
      </g>
     </g>
     <g id="text_4">
      <!-- $\mathdefault{0.6}$ -->
      <g transform="translate(10.330112 58.690523) scale(0.08 -0.08)">
       <defs>
        <path id="CMR17-36" d="M 678 2176 
C 678 3690 1395 4032 1811 4032 
C 1946 4032 2272 4009 2400 3776 
C 2298 3776 2106 3776 2106 3553 
C 2106 3381 2246 3323 2336 3323 
C 2394 3323 2566 3348 2566 3560 
C 2566 3954 2246 4179 1805 4179 
C 1043 4179 243 3390 243 1984 
C 243 253 966 -128 1478 -128 
C 2099 -128 2688 427 2688 1283 
C 2688 2081 2170 2662 1517 2662 
C 1126 2662 838 2407 678 1960 
L 678 2176 
z
M 1478 25 
C 691 25 691 1200 691 1436 
C 691 1896 909 2560 1504 2560 
C 1613 2560 1926 2560 2138 2120 
C 2253 1870 2253 1609 2253 1289 
C 2253 944 2253 690 2118 434 
C 1978 171 1773 25 1478 25 
z
" transform="scale(0.015625)"/>
       </defs>
       <use xlink:href="#CMR17-30" transform="scale(0.996264)"/>
       <use xlink:href="#CMMI12-3a" transform="translate(45.690477 0) scale(0.996264)"/>
       <use xlink:href="#CMR17-36" transform="translate(72.787654 0) scale(0.996264)"/>
      </g>
     </g>
    </g>
    <g id="ytick_5">
     <g id="line2d_22">
      <g>
       <use xlink:href="#m120633953f" x="25.150802" y="29.525262" style="stroke: #000000; stroke-width: 0.35"/>
      </g>
     </g>
     <g id="text_5">
      <!-- $\mathdefault{0.8}$ -->
      <g transform="translate(10.330112 32.292663) scale(0.08 -0.08)">
       <defs>
        <path id="CMR17-38" d="M 1741 2264 
C 2144 2467 2554 2773 2554 3263 
C 2554 3841 1990 4179 1472 4179 
C 890 4179 378 3759 378 3180 
C 378 3021 416 2747 666 2505 
C 730 2442 998 2251 1171 2130 
C 883 1983 211 1634 211 934 
C 211 279 838 -128 1459 -128 
C 2144 -128 2720 362 2720 1010 
C 2720 1590 2330 1857 2074 2029 
L 1741 2264 
z
M 902 2822 
C 851 2854 595 3051 595 3351 
C 595 3739 998 4032 1459 4032 
C 1965 4032 2336 3676 2336 3262 
C 2336 2669 1670 2331 1638 2331 
C 1632 2331 1626 2331 1574 2370 
L 902 2822 
z
M 2080 1519 
C 2176 1449 2483 1240 2483 851 
C 2483 381 2010 25 1472 25 
C 890 25 448 438 448 940 
C 448 1443 838 1862 1280 2060 
L 2080 1519 
z
" transform="scale(0.015625)"/>
       </defs>
       <use xlink:href="#CMR17-30" transform="scale(0.996264)"/>
       <use xlink:href="#CMMI12-3a" transform="translate(45.690477 0) scale(0.996264)"/>
       <use xlink:href="#CMR17-38" transform="translate(72.787654 0) scale(0.996264)"/>
      </g>
     </g>
    </g>
    <g id="ytick_6">
     <g id="line2d_23">
      <g>
       <use xlink:href="#m120633953f" x="25.150802" y="3.127401" style="stroke: #000000; stroke-width: 0.35"/>
      </g>
     </g>
     <g id="text_6">
      <!-- $\mathdefault{1.0}$ -->
      <g transform="translate(10.330112 5.894802) scale(0.08 -0.08)">
       <defs>
        <path id="CMR17-31" d="M 1702 4058 
C 1702 4192 1696 4192 1606 4192 
C 1357 3916 979 3827 621 3827 
C 602 3827 570 3827 563 3808 
C 557 3795 557 3782 557 3648 
C 755 3648 1088 3686 1344 3839 
L 1344 461 
C 1344 236 1331 160 781 160 
L 589 160 
L 589 0 
C 896 0 1216 0 1523 0 
C 1830 0 2150 0 2458 0 
L 2458 160 
L 2266 160 
C 1715 160 1702 230 1702 458 
L 1702 4058 
z
" transform="scale(0.015625)"/>
       </defs>
       <use xlink:href="#CMR17-31" transform="scale(0.996264)"/>
       <use xlink:href="#CMMI12-3a" transform="translate(45.690477 0) scale(0.996264)"/>
       <use xlink:href="#CMR17-30" transform="translate(72.787654 0) scale(0.996264)"/>
      </g>
     </g>
    </g>
    <g id="text_7">
     <!-- $\langle r/R\rangle$ -->
     <g transform="translate(6.337584 78.454482) rotate(-90) scale(0.08 -0.08)">
      <defs>
       <path id="CMSY10-68" d="M 2099 4557 
C 2131 4627 2131 4640 2131 4672 
C 2131 4742 2074 4800 2003 4800 
C 1946 4800 1901 4768 1856 4653 
L 736 1715 
C 723 1677 704 1638 704 1600 
C 704 1581 704 1568 736 1491 
L 1856 -1446 
C 1882 -1517 1914 -1600 2003 -1600 
C 2074 -1600 2131 -1542 2131 -1472 
C 2131 -1453 2131 -1440 2099 -1370 
L 966 1600 
L 2099 4557 
z
" transform="scale(0.015625)"/>
       <path id="CMMI12-72" d="M 2490 2612 
C 2291 2574 2189 2433 2189 2293 
C 2189 2139 2310 2088 2400 2088 
C 2579 2088 2726 2242 2726 2433 
C 2726 2638 2528 2816 2208 2816 
C 1952 2816 1658 2701 1389 2312 
C 1344 2650 1088 2816 832 2816 
C 582 2816 454 2625 378 2484 
C 269 2254 173 1871 173 1839 
C 173 1814 198 1782 243 1782 
C 294 1782 301 1788 339 1935 
C 435 2318 557 2689 813 2689 
C 966 2689 1011 2580 1011 2395 
C 1011 2254 947 2005 902 1807 
L 723 1118 
C 698 996 627 709 595 594 
C 550 428 480 128 480 96 
C 480 6 550 -64 646 -64 
C 717 -64 838 -19 877 109 
C 896 160 1133 1124 1171 1271 
C 1203 1411 1242 1546 1274 1686 
C 1299 1775 1325 1878 1344 1961 
C 1363 2018 1536 2331 1696 2472 
C 1773 2542 1939 2689 2202 2689 
C 2304 2689 2406 2670 2490 2612 
z
" transform="scale(0.015625)"/>
       <path id="CMMI12-3d" d="M 2746 4562 
C 2746 4569 2784 4666 2784 4678 
C 2784 4755 2720 4800 2669 4800 
C 2637 4800 2579 4800 2528 4659 
L 384 -1363 
C 384 -1370 346 -1465 346 -1478 
C 346 -1555 410 -1600 461 -1600 
C 499 -1600 557 -1593 602 -1459 
L 2746 4562 
z
" transform="scale(0.015625)"/>
       <path id="CMMI12-52" d="M 2355 3924 
C 2413 4160 2438 4160 2688 4160 
L 3149 4160 
C 3699 4160 4109 3995 4109 3499 
C 4109 3175 3942 2240 2656 2240 
L 1933 2240 
L 2355 3924 
z
M 3245 2169 
C 4038 2341 4659 2851 4659 3398 
C 4659 3894 4154 4352 3264 4352 
L 1530 4352 
C 1402 4352 1344 4352 1344 4226 
C 1344 4160 1389 4160 1510 4160 
C 1894 4160 1894 4112 1894 4045 
C 1894 4033 1894 3994 1869 3899 
L 1005 479 
C 947 256 934 192 493 192 
C 346 192 301 192 301 71 
C 301 7 371 7 390 7 
C 506 7 640 7 762 7 
L 1517 7 
C 1632 7 1766 7 1882 7 
C 1933 7 2003 7 2003 128 
C 2003 192 1946 192 1850 192 
C 1459 192 1459 243 1459 306 
C 1459 313 1459 357 1472 407 
L 1901 2112 
L 2669 2112 
C 3277 2112 3392 1731 3392 1522 
C 3392 1427 3328 1179 3283 1014 
C 3213 723 3194 652 3194 532 
C 3194 82 3565 -128 3994 -128 
C 4512 -128 4736 501 4736 591 
C 4736 635 4704 654 4666 654 
C 4614 654 4602 616 4589 565 
C 4435 114 4173 0 4013 0 
C 3853 0 3750 70 3750 356 
C 3750 509 3827 1088 3834 1120 
C 3866 1355 3866 1380 3866 1432 
C 3866 1896 3488 2093 3245 2169 
z
" transform="scale(0.015625)"/>
       <path id="CMSY10-69" d="M 1747 1491 
C 1779 1568 1779 1581 1779 1600 
C 1779 1619 1779 1632 1747 1709 
L 627 4653 
C 589 4762 550 4800 480 4800 
C 410 4800 352 4742 352 4672 
C 352 4653 352 4640 384 4570 
L 1517 1600 
L 384 -1357 
C 352 -1427 352 -1440 352 -1472 
C 352 -1542 410 -1600 480 -1600 
C 563 -1600 589 -1536 614 -1472 
L 1747 1491 
z
" transform="scale(0.015625)"/>
      </defs>
      <use xlink:href="#CMSY10-68" transform="scale(0.996264)"/>
      <use xlink:href="#CMMI12-72" transform="translate(38.743734 0) scale(0.996264)"/>
      <use xlink:href="#CMMI12-3d" transform="translate(85.414346 0) scale(0.996264)"/>
      <use xlink:href="#CMMI12-52" transform="translate(134.189265 0) scale(0.996264)"/>
      <use xlink:href="#CMSY10-69" transform="translate(209.260227 0) scale(0.996264)"/>
     </g>
    </g>
   </g>
   <g id="patch_3">
    <path d="M 25.150802 135.116705 
L 25.150802 0.487615 
" style="fill: none; stroke: #000000; stroke-width: 0.35; stroke-linejoin: miter; stroke-linecap: square"/>
   </g>
   <g id="patch_4">
    <path d="M 243.81072 135.116705 
L 243.81072 0.487615 
" style="fill: none; stroke: #000000; stroke-width: 0.35; stroke-linejoin: miter; stroke-linecap: square"/>
   </g>
   <g id="patch_5">
    <path d="M 25.150802 135.116705 
L 243.81072 135.116705 
" style="fill: none; stroke: #000000; stroke-width: 0.35; stroke-linejoin: miter; stroke-linecap: square"/>
   </g>
   <g id="patch_6">
    <path d="M 25.150802 0.487615 
L 243.81072 0.487615 
" style="fill: none; stroke: #000000; stroke-width: 0.35; stroke-linejoin: miter; stroke-linecap: square"/>
   </g>
   <g id="text_8">
    <!-- (a) -->
    <g transform="translate(26.150802 9.487615) scale(0.09 -0.09)">
     <defs>
      <path id="CMR17-28" d="M 1958 -1561 
C 1958 -1555 1958 -1542 1939 -1523 
C 1645 -1224 858 -407 858 1581 
C 858 3569 1632 4379 1946 4697 
C 1946 4704 1958 4717 1958 4736 
C 1958 4755 1939 4768 1914 4768 
C 1843 4768 1299 4296 986 3594 
C 666 2887 576 2199 576 1588 
C 576 1128 621 351 1005 -471 
C 1312 -1135 1837 -1600 1914 -1600 
C 1946 -1600 1958 -1587 1958 -1561 
z
" transform="scale(0.015625)"/>
      <path id="CMR17-61" d="M 2304 1653 
C 2304 2072 2304 2294 2035 2543 
C 1798 2752 1523 2816 1306 2816 
C 800 2816 435 2407 435 1971 
C 435 1728 627 1728 666 1728 
C 749 1728 896 1778 896 1954 
C 896 2112 774 2181 666 2181 
C 640 2181 608 2174 589 2168 
C 723 2592 1069 2714 1293 2714 
C 1613 2714 1965 2429 1965 1885 
L 1965 1600 
C 1587 1600 1133 1549 774 1357 
C 371 1133 256 813 256 570 
C 256 77 832 -64 1171 -64 
C 1523 -64 1850 139 1990 511 
C 2003 233 2182 -18 2464 -18 
C 2598 -18 2938 70 2938 567 
L 2938 920 
L 2822 920 
L 2822 562 
C 2822 178 2650 128 2566 128 
C 2304 128 2304 458 2304 738 
L 2304 1653 
z
M 1965 870 
C 1965 317 1568 38 1216 38 
C 896 38 646 275 646 570 
C 646 761 730 1100 1101 1305 
C 1408 1478 1760 1504 1965 1504 
L 1965 870 
z
" transform="scale(0.015625)"/>
      <path id="CMR17-29" d="M 1683 1581 
C 1683 2040 1638 2817 1254 3639 
C 947 4303 422 4768 346 4768 
C 326 4768 301 4761 301 4729 
C 301 4717 307 4710 314 4697 
C 621 4378 1402 3568 1402 1584 
C 1402 -407 627 -1217 314 -1537 
C 307 -1549 301 -1556 301 -1568 
C 301 -1600 326 -1600 346 -1600 
C 416 -1600 960 -1128 1274 -426 
C 1594 281 1683 969 1683 1581 
z
" transform="scale(0.015625)"/>
     </defs>
     <use xlink:href="#CMR17-28" transform="scale(0.996264)"/>
     <use xlink:href="#CMR17-61" transform="translate(35.280768 0) scale(0.996264)"/>
     <use xlink:href="#CMR17-29" transform="translate(80.971245 0) scale(0.996264)"/>
    </g>
   </g>
   <g id="legend_1">
    <g id="line2d_24">
     <path d="M 41.470397 6.608814 
L 47.470397 6.608814 
L 53.470397 6.608814 
" style="fill: none; stroke-dasharray: 0.5,0.825; stroke-dashoffset: 0; stroke: #5e4fa2; stroke-width: 0.5; stroke-linecap: round"/>
     <g>
      <use xlink:href="#m840b968da0" x="47.470397" y="6.608814" style="fill: #8e83bd; stroke: #5e4fa2; stroke-width: 0.35"/>
     </g>
    </g>
    <g id="text_9">
     <!-- Cs -->
     <g transform="translate(59.870397 9.408814) scale(0.08 -0.08)">
      <defs>
       <path id="CMR17-43" d="M 3974 4289 
C 3974 4403 3968 4410 3930 4410 
C 3904 4410 3898 4403 3853 4327 
L 3571 3792 
C 3258 4187 2874 4416 2381 4416 
C 1286 4416 294 3456 294 2148 
C 294 826 1286 -128 2387 -128 
C 3366 -128 3974 730 3974 1461 
C 3974 1524 3974 1550 3917 1550 
C 3866 1550 3866 1531 3859 1474 
C 3808 585 3168 38 2477 38 
C 1824 38 781 495 781 2147 
C 781 3805 1843 4250 2464 4250 
C 3187 4250 3712 3628 3834 2745 
C 3846 2668 3846 2655 3904 2655 
C 3974 2655 3974 2668 3974 2783 
L 3974 4289 
z
" transform="scale(0.015625)"/>
       <path id="CMR17-73" d="M 1978 2697 
C 1978 2813 1971 2819 1933 2819 
C 1907 2819 1901 2813 1824 2717 
C 1805 2691 1747 2626 1728 2601 
C 1523 2819 1235 2819 1126 2819 
C 416 2819 160 2447 160 2076 
C 160 1498 813 1365 998 1325 
C 1402 1243 1542 1217 1677 1101 
C 1760 1025 1901 884 1901 654 
C 1901 384 1747 38 1158 38 
C 602 38 403 460 288 1021 
C 269 1110 269 1117 218 1117 
C 166 1117 160 1110 160 983 
L 160 63 
C 160 -51 166 -58 205 -58 
C 237 -58 243 -51 275 0 
C 314 57 410 211 448 276 
C 576 103 800 -64 1158 -64 
C 1792 -64 2131 283 2131 784 
C 2131 1112 1958 1285 1875 1362 
C 1683 1561 1459 1606 1190 1657 
C 838 1735 390 1825 390 2217 
C 390 2383 480 2737 1126 2737 
C 1811 2737 1850 2094 1862 1888 
C 1869 1856 1901 1849 1920 1849 
C 1978 1849 1978 1869 1978 1978 
L 1978 2697 
z
" transform="scale(0.015625)"/>
      </defs>
      <use xlink:href="#CMR17-43" transform="scale(0.996264)"/>
      <use xlink:href="#CMR17-73" transform="translate(66.509881 0) scale(0.996264)"/>
     </g>
    </g>
    <g id="line2d_25">
     <path d="M 41.470397 17.758559 
L 47.470397 17.758559 
L 53.470397 17.758559 
" style="fill: none; stroke-dasharray: 0.5,0.825; stroke-dashoffset: 0; stroke: #3c93b8; stroke-width: 0.5; stroke-linecap: round"/>
     <g>
      <use xlink:href="#mb91379ec98" x="47.470397" y="17.758559" style="fill: #76b3cd; stroke: #3c93b8; stroke-width: 0.35"/>
     </g>
    </g>
    <g id="text_10">
     <!-- Rb -->
     <g transform="translate(59.870397 20.558559) scale(0.08 -0.08)">
      <defs>
       <path id="CMR17-52" d="M 2509 2146 
C 3117 2268 3629 2676 3629 3186 
C 3629 3785 2950 4326 2054 4326 
L 333 4326 
L 333 4160 
C 774 4160 845 4160 845 3873 
L 845 415 
C 845 128 774 128 333 128 
L 333 -26 
C 518 -26 851 -26 1050 -26 
C 1248 -26 1581 -26 1766 -26 
L 1766 128 
C 1325 128 1254 128 1254 417 
L 1254 2112 
L 2003 2112 
C 2368 2112 2573 1964 2662 1881 
C 2918 1632 2918 1459 2918 1024 
C 2918 595 2918 377 3110 160 
C 3354 -102 3680 -128 3821 -128 
C 4294 -128 4365 396 4365 503 
C 4365 540 4365 585 4307 585 
C 4256 585 4250 547 4250 522 
C 4218 112 4032 -26 3834 -26 
C 3482 -26 3443 375 3405 764 
C 3386 898 3373 993 3360 1133 
C 3322 1452 3270 1917 2509 2146 
z
M 1984 2214 
L 1254 2214 
L 1254 3913 
C 1254 4129 1267 4160 1523 4160 
L 1990 4160 
C 2522 4160 3142 3977 3142 3190 
C 3142 2372 2464 2214 1984 2214 
z
" transform="scale(0.015625)"/>
       <path id="CMR17-62" d="M 960 4396 
L 198 4326 
L 198 4160 
C 576 4160 634 4122 634 3817 
L 634 -13 
L 749 -13 
L 934 441 
C 1120 141 1395 -64 1766 -64 
C 2406 -64 3053 500 3053 1370 
C 3053 2188 2477 2790 1830 2790 
C 1434 2790 1152 2579 960 2330 
L 960 4396 
z
M 973 2004 
C 973 2118 973 2138 1062 2272 
C 1312 2657 1670 2688 1792 2688 
C 1984 2688 2643 2585 2643 1376 
C 2643 108 1888 38 1734 38 
C 1536 38 1248 114 1043 486 
C 973 608 973 621 973 735 
L 973 2004 
z
" transform="scale(0.015625)"/>
      </defs>
      <use xlink:href="#CMR17-52" transform="scale(0.996264)"/>
      <use xlink:href="#CMR17-62" transform="translate(67.791102 0) scale(0.996264)"/>
     </g>
    </g>
    <g id="line2d_26">
     <path d="M 41.470397 28.908305 
L 47.470397 28.908305 
L 53.470397 28.908305 
" style="fill: none; stroke-dasharray: 0.5,0.825; stroke-dashoffset: 0; stroke: #79c9a4; stroke-width: 0.5; stroke-linecap: round"/>
     <g>
      <use xlink:href="#m5d944c5411" x="47.470397" y="28.908305" style="fill: #a0d8bf; stroke: #79c9a4; stroke-width: 0.35"/>
     </g>
    </g>
    <g id="text_11">
     <!-- K -->
     <g transform="translate(59.870397 31.708305) scale(0.08 -0.08)">
      <defs>
       <path id="CMR17-4b" d="M 2362 2675 
L 3469 3782 
C 3699 4006 3942 4186 4301 4186 
L 4301 4352 
C 4173 4352 4013 4352 3885 4352 
C 3712 4352 3411 4352 3245 4358 
L 3245 4192 
C 3411 4180 3437 4065 3437 4019 
C 3437 3975 3411 3905 3386 3867 
L 1261 1738 
L 1261 3900 
C 1261 4186 1331 4186 1773 4186 
L 1773 4352 
C 1587 4352 1248 4352 1050 4352 
C 851 4352 512 4352 326 4352 
L 326 4186 
C 768 4186 838 4186 838 3899 
L 838 446 
C 838 160 768 160 326 160 
L 326 0 
C 512 0 851 0 1050 0 
C 1248 0 1587 0 1773 0 
L 1773 160 
C 1331 160 1261 160 1261 447 
L 1261 1579 
L 2080 2390 
L 3290 537 
C 3328 473 3373 390 3373 326 
C 3373 160 3194 160 3110 160 
L 3110 0 
C 3315 0 3610 0 3821 0 
C 3974 0 4237 0 4384 -6 
L 4384 160 
C 4077 160 3981 198 3789 493 
L 2362 2675 
z
" transform="scale(0.015625)"/>
      </defs>
      <use xlink:href="#CMR17-4b" transform="scale(0.996264)"/>
     </g>
    </g>
    <g id="line2d_27">
     <path d="M 41.470397 40.058051 
L 47.470397 40.058051 
L 53.470397 40.058051 
" style="fill: none; stroke-dasharray: 0.5,0.825; stroke-dashoffset: 0; stroke: #c2e69f; stroke-width: 0.5; stroke-linecap: round"/>
     <g>
      <use xlink:href="#mb1d501fd8d" x="47.470397" y="40.058051" style="fill: #d4edbb; stroke: #c2e69f; stroke-width: 0.35"/>
     </g>
    </g>
    <g id="text_12">
     <!-- Mg -->
     <g transform="translate(59.870397 42.858051) scale(0.08 -0.08)">
      <defs>
       <path id="CMR17-4d" d="M 1338 4224 
C 1299 4320 1293 4320 1158 4320 
L 339 4320 
L 339 4160 
C 781 4160 851 4160 851 3875 
L 851 610 
C 851 451 851 153 339 153 
L 339 -13 
C 486 0 755 0 915 0 
C 1075 0 1344 0 1491 -13 
L 1491 153 
C 979 153 979 451 979 610 
L 979 4135 
L 986 4135 
L 2490 89 
C 2515 25 2528 -13 2579 -13 
C 2630 -13 2643 25 2669 89 
L 4186 4166 
L 4192 4166 
L 4192 438 
C 4192 153 4122 153 3680 153 
L 3680 -13 
C 3853 0 4198 0 4384 0 
C 4570 0 4922 0 5094 -13 
L 5094 153 
C 4653 153 4582 153 4582 438 
L 4582 3875 
C 4582 4160 4653 4160 5094 4160 
L 5094 4320 
L 4282 4320 
C 4147 4320 4141 4314 4102 4218 
L 2720 502 
L 1338 4224 
z
" transform="scale(0.015625)"/>
       <path id="CMR17-67" d="M 710 1164 
C 832 1068 1043 960 1299 960 
C 1805 960 2240 1357 2240 1888 
C 2240 2054 2189 2310 1997 2509 
C 2176 2692 2438 2752 2586 2752 
C 2611 2752 2650 2752 2682 2734 
C 2656 2728 2598 2703 2598 2605 
C 2598 2527 2656 2471 2739 2471 
C 2835 2471 2886 2533 2886 2614 
C 2886 2731 2790 2854 2586 2854 
C 2330 2854 2106 2738 1926 2580 
C 1734 2753 1504 2816 1299 2816 
C 794 2816 358 2419 358 1888 
C 358 1522 570 1292 634 1228 
C 442 1004 442 743 442 711 
C 442 545 506 302 723 168 
C 390 85 128 -169 128 -486 
C 128 -943 736 -1280 1466 -1280 
C 2170 -1280 2803 -956 2803 -479 
C 2803 384 1856 384 1363 384 
C 1216 384 954 384 922 391 
C 723 423 589 602 589 826 
C 589 883 589 1024 710 1164 
z
M 1299 1068 
C 736 1068 736 1760 736 1889 
C 736 2016 736 2708 1299 2708 
C 1862 2708 1862 2016 1862 1889 
C 1862 1760 1862 1068 1299 1068 
z
M 1466 -1171 
C 826 -1171 384 -835 384 -486 
C 384 -289 493 -105 634 -4 
C 794 104 858 104 1293 104 
C 1818 104 2547 104 2547 -486 
C 2547 -835 2106 -1171 1466 -1171 
z
" transform="scale(0.015625)"/>
      </defs>
      <use xlink:href="#CMR17-4d" transform="scale(0.996264)"/>
      <use xlink:href="#CMR17-67" transform="translate(84.686941 0) scale(0.996264)"/>
     </g>
    </g>
    <g id="line2d_28">
     <path d="M 87.858948 6.608814 
L 93.858948 6.608814 
L 99.858948 6.608814 
" style="fill: none; stroke-dasharray: 0.5,0.825; stroke-dashoffset: 0; stroke: #fdbb6c; stroke-width: 0.5; stroke-linecap: round"/>
     <g>
      <use xlink:href="#m2266e71efd" x="93.858948" y="6.608814" style="fill: #fdcf97; stroke: #fdbb6c; stroke-width: 0.35"/>
     </g>
    </g>
    <g id="text_13">
     <!-- Ne -->
     <g transform="translate(106.258948 9.408814) scale(0.08 -0.08)">
      <defs>
       <path id="CMR17-4e" d="M 1312 4250 
C 1267 4320 1261 4320 1139 4320 
L 326 4320 
L 326 4160 
L 448 4160 
C 704 4160 819 4129 838 4122 
L 838 610 
C 838 451 838 153 326 153 
L 326 -13 
C 474 0 742 0 902 0 
C 1062 0 1331 0 1478 -13 
L 1478 153 
C 966 153 966 451 966 610 
L 966 4033 
C 1011 3995 1011 3982 1056 3919 
L 3430 76 
C 3475 0 3494 0 3526 0 
C 3590 0 3590 19 3590 139 
L 3590 3705 
C 3590 3863 3590 4160 4102 4160 
L 4102 4326 
C 3955 4320 3686 4320 3526 4320 
C 3366 4320 3098 4320 2950 4326 
L 2950 4160 
C 3462 4160 3462 3862 3462 3703 
L 3462 763 
L 1312 4250 
z
" transform="scale(0.015625)"/>
       <path id="CMR17-65" d="M 2438 1472 
C 2464 1498 2464 1511 2464 1576 
C 2464 2238 2118 2816 1389 2816 
C 710 2816 173 2169 173 1383 
C 173 551 781 -64 1459 -64 
C 2176 -64 2458 607 2458 740 
C 2458 784 2419 784 2406 784 
C 2362 784 2355 771 2330 696 
C 2189 265 1837 51 1504 51 
C 1229 51 954 203 781 480 
C 582 803 582 1176 582 1472 
L 2438 1472 
z
M 589 1568 
C 634 2505 1126 2714 1382 2714 
C 1818 2714 2112 2297 2118 1568 
L 589 1568 
z
" transform="scale(0.015625)"/>
      </defs>
      <use xlink:href="#CMR17-4e" transform="scale(0.996264)"/>
      <use xlink:href="#CMR17-65" transform="translate(69.07243 0) scale(0.996264)"/>
     </g>
    </g>
    <g id="line2d_29">
     <path d="M 87.858948 17.758559 
L 93.858948 17.758559 
L 99.858948 17.758559 
" style="fill: none; stroke-dasharray: 0.5,0.825; stroke-dashoffset: 0; stroke: #f57949; stroke-width: 0.5; stroke-linecap: round"/>
     <g>
      <use xlink:href="#mfac33df0a2" x="93.858948" y="17.758559" style="fill: #f7a07f; stroke: #f57949; stroke-width: 0.35"/>
     </g>
    </g>
    <g id="text_14">
     <!-- Au -->
     <g transform="translate(106.258948 20.558559) scale(0.08 -0.08)">
      <defs>
       <path id="CMR17-41" d="M 2323 4378 
C 2291 4461 2278 4480 2214 4480 
C 2150 4480 2138 4461 2106 4378 
L 749 566 
C 627 223 371 153 147 153 
L 147 -13 
C 262 0 518 0 640 0 
C 800 0 1056 0 1210 -13 
L 1210 153 
C 909 153 864 361 864 439 
C 864 497 877 530 890 569 
L 1229 1536 
L 2906 1536 
L 3290 442 
C 3322 365 3322 352 3322 327 
C 3322 153 3046 153 2925 153 
L 2925 0 
C 3110 0 3443 0 3642 0 
C 3808 0 4128 0 4282 -13 
L 4282 153 
C 3942 153 3827 153 3744 387 
L 2323 4378 
z
M 2067 3893 
L 2848 1702 
L 1286 1702 
L 2067 3893 
z
" transform="scale(0.015625)"/>
       <path id="CMR17-75" d="M 1882 2693 
L 1882 2528 
C 2259 2528 2317 2489 2317 2186 
L 2317 1032 
C 2317 500 2029 38 1555 38 
C 1030 38 986 348 986 678 
L 986 2763 
L 211 2693 
L 211 2528 
C 467 2528 640 2528 646 2274 
L 646 1058 
C 646 633 646 361 813 183 
C 896 101 1056 -64 1517 -64 
C 2061 -64 2272 377 2323 506 
L 2330 506 
L 2330 -63 
L 3091 -63 
L 3091 128 
C 2714 128 2656 166 2656 473 
L 2656 2763 
L 1882 2693 
z
" transform="scale(0.015625)"/>
      </defs>
      <use xlink:href="#CMR17-41" transform="scale(0.996264)"/>
      <use xlink:href="#CMR17-75" transform="translate(69.07243 0) scale(0.996264)"/>
     </g>
    </g>
    <g id="line2d_30">
     <path d="M 87.858948 28.908305 
L 93.858948 28.908305 
L 99.858948 28.908305 
" style="fill: none; stroke-dasharray: 0.5,0.825; stroke-dashoffset: 0; stroke: #d7414e; stroke-width: 0.5; stroke-linecap: round"/>
     <g>
      <use xlink:href="#m7df99553f1" x="93.858948" y="28.908305" style="fill: #e27982; stroke: #d7414e; stroke-width: 0.35"/>
     </g>
    </g>
    <g id="text_15">
     <!-- Ar -->
     <g transform="translate(106.258948 31.708305) scale(0.08 -0.08)">
      <defs>
       <path id="CMR17-72" d="M 960 1497 
C 960 2112 1222 2688 1702 2688 
C 1747 2688 1792 2682 1837 2662 
C 1837 2662 1696 2617 1696 2452 
C 1696 2298 1818 2234 1914 2234 
C 1990 2234 2131 2279 2131 2458 
C 2131 2663 1926 2790 1709 2790 
C 1222 2790 1011 2317 947 2093 
L 941 2093 
L 941 2790 
L 198 2720 
L 198 2554 
C 576 2554 634 2515 634 2208 
L 634 428 
C 634 184 608 153 198 153 
L 198 -13 
C 352 0 646 0 813 0 
C 998 0 1325 0 1498 -13 
L 1498 153 
C 1037 153 960 153 960 440 
L 960 1497 
z
" transform="scale(0.015625)"/>
      </defs>
      <use xlink:href="#CMR17-41" transform="scale(0.996264)"/>
      <use xlink:href="#CMR17-72" transform="translate(69.07243 0) scale(0.996264)"/>
     </g>
    </g>
    <g id="line2d_31">
     <path d="M 87.858948 40.058051 
L 93.858948 40.058051 
L 99.858948 40.058051 
" style="fill: none; stroke-dasharray: 0.5,0.825; stroke-dashoffset: 0; stroke: #858585; stroke-width: 0.5; stroke-linecap: round"/>
     <g>
      <use xlink:href="#md030c94d6f" x="93.858948" y="40.058051" style="fill: #a9a9a9; stroke: #858585; stroke-width: 0.35"/>
     </g>
    </g>
    <g id="text_16">
     <!-- hard wall -->
     <g transform="translate(106.258948 42.858051) scale(0.08 -0.08)">
      <defs>
       <path id="CMR17-68" d="M 2656 1933 
C 2656 2259 2592 2790 1837 2790 
C 1312 2790 1056 2368 979 2157 
L 973 2157 
L 973 4396 
L 211 4326 
L 211 4160 
C 589 4160 646 4122 646 3817 
L 646 426 
C 646 184 621 153 211 153 
L 211 -13 
C 365 0 646 0 813 0 
C 979 0 1267 0 1421 -13 
L 1421 153 
C 1011 153 986 178 986 428 
L 986 1658 
C 986 2247 1344 2688 1792 2688 
C 2266 2688 2317 2266 2317 1958 
L 2317 428 
C 2317 184 2291 153 1882 153 
L 1882 -13 
C 2035 0 2317 0 2483 0 
C 2650 0 2938 0 3091 -13 
L 3091 153 
C 2682 153 2656 178 2656 428 
L 2656 1933 
z
" transform="scale(0.015625)"/>
       <path id="CMR17-64" d="M 1869 4326 
L 1869 4160 
C 2246 4160 2304 4122 2304 3820 
L 2304 2345 
C 2278 2377 2016 2790 1498 2790 
C 845 2790 211 2208 211 1364 
C 211 525 806 -64 1434 -64 
C 1978 -64 2259 337 2291 380 
L 2291 -63 
L 3066 -63 
L 3066 128 
C 2688 128 2630 166 2630 473 
L 2630 4396 
L 1869 4326 
z
M 2291 755 
C 2291 563 2176 390 2029 262 
C 1811 70 1594 38 1472 38 
C 1286 38 621 134 621 1356 
C 621 2612 1363 2688 1530 2688 
C 1824 2688 2061 2522 2208 2291 
C 2291 2157 2291 2138 2291 2023 
L 2291 755 
z
" transform="scale(0.015625)"/>
       <path id="CMR17-77" d="M 3725 2183 
C 3853 2560 4109 2560 4205 2560 
L 4205 2732 
C 4077 2732 3949 2732 3821 2732 
C 3699 2732 3424 2732 3315 2738 
L 3315 2560 
C 3514 2560 3622 2445 3622 2286 
C 3622 2241 3610 2184 3597 2140 
L 2995 407 
L 2342 2275 
C 2330 2319 2310 2370 2310 2395 
C 2310 2560 2528 2560 2630 2560 
L 2630 2738 
C 2483 2732 2214 2732 2061 2732 
C 1901 2732 1734 2732 1587 2738 
L 1587 2560 
C 1939 2560 1939 2547 2074 2149 
L 1485 451 
L 851 2281 
C 819 2363 819 2376 819 2395 
C 819 2560 1037 2560 1139 2560 
L 1139 2738 
C 986 2732 717 2732 557 2732 
C 416 2732 198 2732 64 2738 
L 64 2560 
C 346 2560 416 2541 486 2331 
L 1274 49 
C 1299 -33 1318 -52 1370 -52 
C 1414 -52 1440 -39 1472 56 
L 2131 1980 
L 2797 56 
C 2829 -39 2854 -52 2899 -52 
C 2950 -52 2970 -33 2995 50 
L 3725 2183 
z
" transform="scale(0.015625)"/>
       <path id="CMR17-6c" d="M 979 4396 
L 218 4326 
L 218 4160 
C 595 4160 653 4122 653 3817 
L 653 426 
C 653 184 627 153 218 153 
L 218 -13 
C 371 0 653 0 813 0 
C 979 0 1261 0 1414 -13 
L 1414 153 
C 1005 153 979 178 979 426 
L 979 4396 
z
" transform="scale(0.015625)"/>
      </defs>
      <use xlink:href="#CMR17-68" transform="scale(0.996264)"/>
      <use xlink:href="#CMR17-61" transform="translate(50.89537 0) scale(0.996264)"/>
      <use xlink:href="#CMR17-72" transform="translate(96.585847 0) scale(0.996264)"/>
      <use xlink:href="#CMR17-64" transform="translate(131.866615 0) scale(0.996264)"/>
      <use xlink:href="#CMR17-77" transform="translate(212.837951 0) scale(0.996264)"/>
      <use xlink:href="#CMR17-61" transform="translate(276.745377 0) scale(0.996264)"/>
      <use xlink:href="#CMR17-6c" transform="translate(322.435855 0) scale(0.996264)"/>
      <use xlink:href="#CMR17-6c" transform="translate(347.306913 0) scale(0.996264)"/>
     </g>
    </g>
   </g>
  </g>
  <g id="axes_2">
   <g id="patch_7">
    <path d="M 25.150802 280.229867 
L 243.81072 280.229867 
L 243.81072 145.600777 
L 25.150802 145.600777 
L 25.150802 280.229867 
z
" style="fill: none"/>
   </g>
   <g id="line2d_32">
    <path d="M 42.348773 184.317407 
L 66.917303 220.060513 
L 91.485833 239.644799 
L 140.622893 263.184106 
L 189.759954 272.731991 
L 238.897014 275.930058 
" clip-path="url(#ped82b8a13e)" style="fill: none; stroke-dasharray: 0.5,0.825; stroke-dashoffset: 0; stroke: #858585; stroke-width: 0.5; stroke-linecap: round"/>
    <g clip-path="url(#ped82b8a13e)">
     <use xlink:href="#md030c94d6f" x="42.348773" y="184.317407" style="fill: #a9a9a9; stroke: #858585; stroke-width: 0.35"/>
     <use xlink:href="#md030c94d6f" x="66.917303" y="220.060513" style="fill: #a9a9a9; stroke: #858585; stroke-width: 0.35"/>
     <use xlink:href="#md030c94d6f" x="91.485833" y="239.644799" style="fill: #a9a9a9; stroke: #858585; stroke-width: 0.35"/>
     <use xlink:href="#md030c94d6f" x="140.622893" y="263.184106" style="fill: #a9a9a9; stroke: #858585; stroke-width: 0.35"/>
     <use xlink:href="#md030c94d6f" x="189.759954" y="272.731991" style="fill: #a9a9a9; stroke: #858585; stroke-width: 0.35"/>
     <use xlink:href="#md030c94d6f" x="238.897014" y="275.930058" style="fill: #a9a9a9; stroke: #858585; stroke-width: 0.35"/>
    </g>
   </g>
   <g id="line2d_33">
    <path d="M 42.348773 148.240563 
L 66.917303 231.645753 
L 91.485833 260.69513 
L 140.622893 274.983367 
L 189.759954 277.457785 
L 238.897014 278.218334 
" clip-path="url(#ped82b8a13e)" style="fill: none; stroke-dasharray: 0.5,0.825; stroke-dashoffset: 0; stroke: #5e4fa2; stroke-width: 0.5; stroke-linecap: round"/>
    <g clip-path="url(#ped82b8a13e)">
     <use xlink:href="#m840b968da0" x="42.348773" y="148.240563" style="fill: #8e83bd; stroke: #5e4fa2; stroke-width: 0.35"/>
     <use xlink:href="#m840b968da0" x="66.917303" y="231.645753" style="fill: #8e83bd; stroke: #5e4fa2; stroke-width: 0.35"/>
     <use xlink:href="#m840b968da0" x="91.485833" y="260.69513" style="fill: #8e83bd; stroke: #5e4fa2; stroke-width: 0.35"/>
     <use xlink:href="#m840b968da0" x="140.622893" y="274.983367" style="fill: #8e83bd; stroke: #5e4fa2; stroke-width: 0.35"/>
     <use xlink:href="#m840b968da0" x="189.759954" y="277.457785" style="fill: #8e83bd; stroke: #5e4fa2; stroke-width: 0.35"/>
     <use xlink:href="#m840b968da0" x="238.897014" y="278.218334" style="fill: #8e83bd; stroke: #5e4fa2; stroke-width: 0.35"/>
    </g>
   </g>
   <g id="line2d_34">
    <path d="M 42.348773 148.240563 
L 66.917303 233.044663 
L 91.485833 261.367649 
L 140.622893 274.905381 
L 189.759954 277.206258 
L 238.897014 278.019465 
" clip-path="url(#ped82b8a13e)" style="fill: none; stroke-dasharray: 0.5,0.825; stroke-dashoffset: 0; stroke: #3c93b8; stroke-width: 0.5; stroke-linecap: round"/>
    <g clip-path="url(#ped82b8a13e)">
     <use xlink:href="#mb91379ec98" x="42.348773" y="148.240563" style="fill: #76b3cd; stroke: #3c93b8; stroke-width: 0.35"/>
     <use xlink:href="#mb91379ec98" x="66.917303" y="233.044663" style="fill: #76b3cd; stroke: #3c93b8; stroke-width: 0.35"/>
     <use xlink:href="#mb91379ec98" x="91.485833" y="261.367649" style="fill: #76b3cd; stroke: #3c93b8; stroke-width: 0.35"/>
     <use xlink:href="#mb91379ec98" x="140.622893" y="274.905381" style="fill: #76b3cd; stroke: #3c93b8; stroke-width: 0.35"/>
     <use xlink:href="#mb91379ec98" x="189.759954" y="277.206258" style="fill: #76b3cd; stroke: #3c93b8; stroke-width: 0.35"/>
     <use xlink:href="#mb91379ec98" x="238.897014" y="278.019465" style="fill: #76b3cd; stroke: #3c93b8; stroke-width: 0.35"/>
    </g>
   </g>
   <g id="line2d_35">
    <path d="M 42.348773 148.240563 
L 66.917303 226.955619 
L 91.485833 267.278619 
L 140.622893 270.883626 
L 189.759954 273.818476 
L 238.897014 275.290831 
" clip-path="url(#ped82b8a13e)" style="fill: none; stroke-dasharray: 0.5,0.825; stroke-dashoffset: 0; stroke: #79c9a4; stroke-width: 0.5; stroke-linecap: round"/>
    <g clip-path="url(#ped82b8a13e)">
     <use xlink:href="#m5d944c5411" x="42.348773" y="148.240563" style="fill: #a0d8bf; stroke: #79c9a4; stroke-width: 0.35"/>
     <use xlink:href="#m5d944c5411" x="66.917303" y="226.955619" style="fill: #a0d8bf; stroke: #79c9a4; stroke-width: 0.35"/>
     <use xlink:href="#m5d944c5411" x="91.485833" y="267.278619" style="fill: #a0d8bf; stroke: #79c9a4; stroke-width: 0.35"/>
     <use xlink:href="#m5d944c5411" x="140.622893" y="270.883626" style="fill: #a0d8bf; stroke: #79c9a4; stroke-width: 0.35"/>
     <use xlink:href="#m5d944c5411" x="189.759954" y="273.818476" style="fill: #a0d8bf; stroke: #79c9a4; stroke-width: 0.35"/>
     <use xlink:href="#m5d944c5411" x="238.897014" y="275.290831" style="fill: #a0d8bf; stroke: #79c9a4; stroke-width: 0.35"/>
    </g>
   </g>
   <g id="line2d_36">
    <path d="M 42.348773 155.982839 
L 66.917303 222.201054 
L 91.485833 212.103011 
L 140.622893 202.604689 
L 189.759954 220.067391 
L 238.897014 238.906597 
" clip-path="url(#ped82b8a13e)" style="fill: none; stroke-dasharray: 0.5,0.825; stroke-dashoffset: 0; stroke: #c2e69f; stroke-width: 0.5; stroke-linecap: round"/>
    <g clip-path="url(#ped82b8a13e)">
     <use xlink:href="#mb1d501fd8d" x="42.348773" y="155.982839" style="fill: #d4edbb; stroke: #c2e69f; stroke-width: 0.35"/>
     <use xlink:href="#mb1d501fd8d" x="66.917303" y="222.201054" style="fill: #d4edbb; stroke: #c2e69f; stroke-width: 0.35"/>
     <use xlink:href="#mb1d501fd8d" x="91.485833" y="212.103011" style="fill: #d4edbb; stroke: #c2e69f; stroke-width: 0.35"/>
     <use xlink:href="#mb1d501fd8d" x="140.622893" y="202.604689" style="fill: #d4edbb; stroke: #c2e69f; stroke-width: 0.35"/>
     <use xlink:href="#mb1d501fd8d" x="189.759954" y="220.067391" style="fill: #d4edbb; stroke: #c2e69f; stroke-width: 0.35"/>
     <use xlink:href="#mb1d501fd8d" x="238.897014" y="238.906597" style="fill: #d4edbb; stroke: #c2e69f; stroke-width: 0.35"/>
    </g>
   </g>
   <g id="line2d_37">
    <path d="M 42.348773 157.123262 
L 66.917303 166.601569 
L 91.485833 164.441561 
L 140.622893 168.157219 
L 189.759954 168.580014 
L 238.897014 160.987855 
" clip-path="url(#ped82b8a13e)" style="fill: none; stroke-dasharray: 0.5,0.825; stroke-dashoffset: 0; stroke: #fdbb6c; stroke-width: 0.5; stroke-linecap: round"/>
    <g clip-path="url(#ped82b8a13e)">
     <use xlink:href="#m2266e71efd" x="42.348773" y="157.123262" style="fill: #fdcf97; stroke: #fdbb6c; stroke-width: 0.35"/>
     <use xlink:href="#m2266e71efd" x="66.917303" y="166.601569" style="fill: #fdcf97; stroke: #fdbb6c; stroke-width: 0.35"/>
     <use xlink:href="#m2266e71efd" x="91.485833" y="164.441561" style="fill: #fdcf97; stroke: #fdbb6c; stroke-width: 0.35"/>
     <use xlink:href="#m2266e71efd" x="140.622893" y="168.157219" style="fill: #fdcf97; stroke: #fdbb6c; stroke-width: 0.35"/>
     <use xlink:href="#m2266e71efd" x="189.759954" y="168.580014" style="fill: #fdcf97; stroke: #fdbb6c; stroke-width: 0.35"/>
     <use xlink:href="#m2266e71efd" x="238.897014" y="160.987855" style="fill: #fdcf97; stroke: #fdbb6c; stroke-width: 0.35"/>
    </g>
   </g>
   <g id="line2d_38">
    <path d="M 42.348773 161.468439 
L 66.917303 164.202206 
L 91.485833 160.009605 
L 140.622893 161.584721 
L 189.759954 156.481436 
L 238.897014 166.828019 
" clip-path="url(#ped82b8a13e)" style="fill: none; stroke-dasharray: 0.5,0.825; stroke-dashoffset: 0; stroke: #f57949; stroke-width: 0.5; stroke-linecap: round"/>
    <g clip-path="url(#ped82b8a13e)">
     <use xlink:href="#mfac33df0a2" x="42.348773" y="161.468439" style="fill: #f7a07f; stroke: #f57949; stroke-width: 0.35"/>
     <use xlink:href="#mfac33df0a2" x="66.917303" y="164.202206" style="fill: #f7a07f; stroke: #f57949; stroke-width: 0.35"/>
     <use xlink:href="#mfac33df0a2" x="91.485833" y="160.009605" style="fill: #f7a07f; stroke: #f57949; stroke-width: 0.35"/>
     <use xlink:href="#mfac33df0a2" x="140.622893" y="161.584721" style="fill: #f7a07f; stroke: #f57949; stroke-width: 0.35"/>
     <use xlink:href="#mfac33df0a2" x="189.759954" y="156.481436" style="fill: #f7a07f; stroke: #f57949; stroke-width: 0.35"/>
     <use xlink:href="#mfac33df0a2" x="238.897014" y="166.828019" style="fill: #f7a07f; stroke: #f57949; stroke-width: 0.35"/>
    </g>
   </g>
   <g id="line2d_39">
    <path d="M 42.348773 163.648088 
L 66.917303 158.853839 
L 91.485833 156.800647 
L 140.622893 158.044597 
L 189.759954 175.940219 
L 238.897014 163.103305 
" clip-path="url(#ped82b8a13e)" style="fill: none; stroke-dasharray: 0.5,0.825; stroke-dashoffset: 0; stroke: #d7414e; stroke-width: 0.5; stroke-linecap: round"/>
    <g clip-path="url(#ped82b8a13e)">
     <use xlink:href="#m7df99553f1" x="42.348773" y="163.648088" style="fill: #e27982; stroke: #d7414e; stroke-width: 0.35"/>
     <use xlink:href="#m7df99553f1" x="66.917303" y="158.853839" style="fill: #e27982; stroke: #d7414e; stroke-width: 0.35"/>
     <use xlink:href="#m7df99553f1" x="91.485833" y="156.800647" style="fill: #e27982; stroke: #d7414e; stroke-width: 0.35"/>
     <use xlink:href="#m7df99553f1" x="140.622893" y="158.044597" style="fill: #e27982; stroke: #d7414e; stroke-width: 0.35"/>
     <use xlink:href="#m7df99553f1" x="189.759954" y="175.940219" style="fill: #e27982; stroke: #d7414e; stroke-width: 0.35"/>
     <use xlink:href="#m7df99553f1" x="238.897014" y="163.103305" style="fill: #e27982; stroke: #d7414e; stroke-width: 0.35"/>
    </g>
   </g>
   <g id="matplotlib.axis_3">
    <g id="xtick_10">
     <g id="line2d_40">
      <g>
       <use xlink:href="#mc13a0c1145" x="42.348773" y="280.229867" style="stroke: #000000; stroke-width: 0.35"/>
      </g>
     </g>
     <g id="text_17">
      <!-- $\mathdefault{4}$ -->
      <g transform="translate(40.231681 289.764669) scale(0.08 -0.08)">
       <use xlink:href="#CMR17-34" transform="scale(0.996264)"/>
      </g>
     </g>
    </g>
    <g id="xtick_11">
     <g id="line2d_41">
      <g>
       <use xlink:href="#mc13a0c1145" x="66.917303" y="280.229867" style="stroke: #000000; stroke-width: 0.35"/>
      </g>
     </g>
     <g id="text_18">
      <!-- $\mathdefault{5}$ -->
      <g transform="translate(64.800211 289.764669) scale(0.08 -0.08)">
       <defs>
        <path id="CMR17-35" d="M 730 3692 
C 794 3666 1056 3584 1325 3584 
C 1920 3584 2246 3911 2432 4100 
C 2432 4157 2432 4192 2394 4192 
C 2387 4192 2374 4192 2323 4163 
C 2099 4058 1837 3973 1517 3973 
C 1325 3973 1037 3999 723 4139 
C 653 4171 640 4171 634 4171 
C 602 4171 595 4164 595 4037 
L 595 2203 
C 595 2089 595 2057 659 2057 
C 691 2057 704 2070 736 2114 
C 941 2401 1222 2522 1542 2522 
C 1766 2522 2246 2382 2246 1289 
C 2246 1085 2246 715 2054 421 
C 1894 159 1645 25 1370 25 
C 947 25 518 320 403 814 
C 429 807 480 795 506 795 
C 589 795 749 840 749 1038 
C 749 1210 627 1280 506 1280 
C 358 1280 262 1190 262 1011 
C 262 454 704 -128 1382 -128 
C 2042 -128 2669 440 2669 1264 
C 2669 2030 2170 2624 1549 2624 
C 1222 2624 947 2503 730 2274 
L 730 3692 
z
" transform="scale(0.015625)"/>
       </defs>
       <use xlink:href="#CMR17-35" transform="scale(0.996264)"/>
      </g>
     </g>
    </g>
    <g id="xtick_12">
     <g id="line2d_42">
      <g>
       <use xlink:href="#mc13a0c1145" x="91.485833" y="280.229867" style="stroke: #000000; stroke-width: 0.35"/>
      </g>
     </g>
     <g id="text_19">
      <!-- $\mathdefault{6}$ -->
      <g transform="translate(89.368742 289.764669) scale(0.08 -0.08)">
       <use xlink:href="#CMR17-36" transform="scale(0.996264)"/>
      </g>
     </g>
    </g>
    <g id="xtick_13">
     <g id="line2d_43">
      <g>
       <use xlink:href="#mc13a0c1145" x="116.054363" y="280.229867" style="stroke: #000000; stroke-width: 0.35"/>
      </g>
     </g>
     <g id="text_20">
      <!-- $\mathdefault{7}$ -->
      <g transform="translate(113.937272 289.764669) scale(0.08 -0.08)">
       <defs>
        <path id="CMR17-37" d="M 2886 3941 
L 2886 4081 
L 1382 4081 
C 634 4081 621 4165 595 4288 
L 480 4288 
L 294 3094 
L 410 3094 
C 429 3215 474 3540 550 3661 
C 589 3712 1062 3712 1171 3712 
L 2579 3712 
L 1869 2661 
C 1395 1954 1069 999 1069 165 
C 1069 89 1069 -128 1299 -128 
C 1530 -128 1530 89 1530 171 
L 1530 465 
C 1530 1508 1709 2196 2003 2636 
L 2886 3941 
z
" transform="scale(0.015625)"/>
       </defs>
       <use xlink:href="#CMR17-37" transform="scale(0.996264)"/>
      </g>
     </g>
    </g>
    <g id="xtick_14">
     <g id="line2d_44">
      <g>
       <use xlink:href="#mc13a0c1145" x="140.622893" y="280.229867" style="stroke: #000000; stroke-width: 0.35"/>
      </g>
     </g>
     <g id="text_21">
      <!-- $\mathdefault{8}$ -->
      <g transform="translate(138.505802 289.764669) scale(0.08 -0.08)">
       <use xlink:href="#CMR17-38" transform="scale(0.996264)"/>
      </g>
     </g>
    </g>
    <g id="xtick_15">
     <g id="line2d_45">
      <g>
       <use xlink:href="#mc13a0c1145" x="165.191423" y="280.229867" style="stroke: #000000; stroke-width: 0.35"/>
      </g>
     </g>
     <g id="text_22">
      <!-- $\mathdefault{9}$ -->
      <g transform="translate(163.074332 289.764669) scale(0.08 -0.08)">
       <defs>
        <path id="CMR17-39" d="M 2253 1864 
C 2253 464 1670 31 1190 31 
C 1043 31 685 31 538 294 
C 704 268 826 357 826 518 
C 826 692 685 749 595 749 
C 538 749 365 723 365 506 
C 365 71 742 -128 1203 -128 
C 1939 -128 2688 674 2688 2073 
C 2688 3817 1971 4179 1485 4179 
C 851 4179 243 3628 243 2778 
C 243 1991 762 1408 1414 1408 
C 1952 1408 2189 1903 2253 2112 
L 2253 1864 
z
M 1427 1510 
C 1254 1510 1011 1542 813 1922 
C 678 2169 678 2461 678 2771 
C 678 3146 678 3405 858 3684 
C 947 3817 1114 4032 1485 4032 
C 2240 4032 2240 2885 2240 2632 
C 2240 2182 2035 1510 1427 1510 
z
" transform="scale(0.015625)"/>
       </defs>
       <use xlink:href="#CMR17-39" transform="scale(0.996264)"/>
      </g>
     </g>
    </g>
    <g id="xtick_16">
     <g id="line2d_46">
      <g>
       <use xlink:href="#mc13a0c1145" x="189.759954" y="280.229867" style="stroke: #000000; stroke-width: 0.35"/>
      </g>
     </g>
     <g id="text_23">
      <!-- $\mathdefault{10}$ -->
      <g transform="translate(185.525771 289.764669) scale(0.08 -0.08)">
       <use xlink:href="#CMR17-31" transform="scale(0.996264)"/>
       <use xlink:href="#CMR17-30" transform="translate(45.690477 0) scale(0.996264)"/>
      </g>
     </g>
    </g>
    <g id="xtick_17">
     <g id="line2d_47">
      <g>
       <use xlink:href="#mc13a0c1145" x="214.328484" y="280.229867" style="stroke: #000000; stroke-width: 0.35"/>
      </g>
     </g>
     <g id="text_24">
      <!-- $\mathdefault{11}$ -->
      <g transform="translate(210.094301 289.764669) scale(0.08 -0.08)">
       <use xlink:href="#CMR17-31" transform="scale(0.996264)"/>
       <use xlink:href="#CMR17-31" transform="translate(45.690477 0) scale(0.996264)"/>
      </g>
     </g>
    </g>
    <g id="xtick_18">
     <g id="line2d_48">
      <g>
       <use xlink:href="#mc13a0c1145" x="238.897014" y="280.229867" style="stroke: #000000; stroke-width: 0.35"/>
      </g>
     </g>
     <g id="text_25">
      <!-- $\mathdefault{12}$ -->
      <g transform="translate(234.662831 289.764669) scale(0.08 -0.08)">
       <use xlink:href="#CMR17-31" transform="scale(0.996264)"/>
       <use xlink:href="#CMR17-32" transform="translate(45.690477 0) scale(0.996264)"/>
      </g>
     </g>
    </g>
    <g id="text_26">
     <!-- $R \; [\rm \AA]$ -->
     <g transform="translate(124.567108 300.258361) scale(0.08 -0.08)">
      <defs>
       <path id="CMR17-5b" d="M 1504 -1600 
L 1504 -1377 
L 902 -1377 
L 902 4544 
L 1504 4544 
L 1504 4767 
L 678 4767 
L 678 -1600 
L 1504 -1600 
z
" transform="scale(0.015625)"/>
       <path id="CMR17-17" d="M 2771 3955 
C 2771 4275 2515 4518 2214 4518 
C 1914 4518 1658 4275 1658 3955 
C 1658 3635 1914 3392 2214 3392 
C 2515 3392 2771 3635 2771 3955 
z
M 2214 3494 
C 1946 3494 1773 3660 1773 3956 
C 1773 4256 1952 4416 2214 4416 
C 2483 4416 2656 4250 2656 3956 
C 2656 3654 2477 3494 2214 3494 
z
" transform="scale(0.015625)"/>
       <path id="CMR17-5d" d="M 915 4767 
L 90 4767 
L 90 4544 
L 691 4544 
L 691 -1377 
L 90 -1377 
L 90 -1600 
L 915 -1600 
L 915 4767 
z
" transform="scale(0.015625)"/>
      </defs>
      <use xlink:href="#CMMI12-52" transform="scale(0.996264)"/>
      <use xlink:href="#CMR17-5b" transform="translate(102.744971 0) scale(0.996264)"/>
      <use xlink:href="#CMR17-17" transform="translate(127.616029 17.618744) scale(0.996264)"/>
      <use xlink:href="#CMR17-41" transform="translate(127.616029 0) scale(0.996264)"/>
      <use xlink:href="#CMR17-5d" transform="translate(196.688459 0) scale(0.996264)"/>
     </g>
    </g>
   </g>
   <g id="matplotlib.axis_4">
    <g id="ytick_7">
     <g id="line2d_49">
      <g>
       <use xlink:href="#m120633953f" x="25.150802" y="280.229867" style="stroke: #000000; stroke-width: 0.35"/>
      </g>
     </g>
     <g id="text_27">
      <!-- $\mathdefault{0.0}$ -->
      <g transform="translate(10.330112 282.997268) scale(0.08 -0.08)">
       <use xlink:href="#CMR17-30" transform="scale(0.996264)"/>
       <use xlink:href="#CMMI12-3a" transform="translate(45.690477 0) scale(0.996264)"/>
       <use xlink:href="#CMR17-30" transform="translate(72.787654 0) scale(0.996264)"/>
      </g>
     </g>
    </g>
    <g id="ytick_8">
     <g id="line2d_50">
      <g>
       <use xlink:href="#m120633953f" x="25.150802" y="253.832006" style="stroke: #000000; stroke-width: 0.35"/>
      </g>
     </g>
     <g id="text_28">
      <!-- $\mathdefault{0.2}$ -->
      <g transform="translate(10.330112 256.599407) scale(0.08 -0.08)">
       <use xlink:href="#CMR17-30" transform="scale(0.996264)"/>
       <use xlink:href="#CMMI12-3a" transform="translate(45.690477 0) scale(0.996264)"/>
       <use xlink:href="#CMR17-32" transform="translate(72.787654 0) scale(0.996264)"/>
      </g>
     </g>
    </g>
    <g id="ytick_9">
     <g id="line2d_51">
      <g>
       <use xlink:href="#m120633953f" x="25.150802" y="227.434145" style="stroke: #000000; stroke-width: 0.35"/>
      </g>
     </g>
     <g id="text_29">
      <!-- $\mathdefault{0.4}$ -->
      <g transform="translate(10.330112 230.201546) scale(0.08 -0.08)">
       <use xlink:href="#CMR17-30" transform="scale(0.996264)"/>
       <use xlink:href="#CMMI12-3a" transform="translate(45.690477 0) scale(0.996264)"/>
       <use xlink:href="#CMR17-34" transform="translate(72.787654 0) scale(0.996264)"/>
      </g>
     </g>
    </g>
    <g id="ytick_10">
     <g id="line2d_52">
      <g>
       <use xlink:href="#m120633953f" x="25.150802" y="201.036285" style="stroke: #000000; stroke-width: 0.35"/>
      </g>
     </g>
     <g id="text_30">
      <!-- $\mathdefault{0.6}$ -->
      <g transform="translate(10.330112 203.803686) scale(0.08 -0.08)">
       <use xlink:href="#CMR17-30" transform="scale(0.996264)"/>
       <use xlink:href="#CMMI12-3a" transform="translate(45.690477 0) scale(0.996264)"/>
       <use xlink:href="#CMR17-36" transform="translate(72.787654 0) scale(0.996264)"/>
      </g>
     </g>
    </g>
    <g id="ytick_11">
     <g id="line2d_53">
      <g>
       <use xlink:href="#m120633953f" x="25.150802" y="174.638424" style="stroke: #000000; stroke-width: 0.35"/>
      </g>
     </g>
     <g id="text_31">
      <!-- $\mathdefault{0.8}$ -->
      <g transform="translate(10.330112 177.405825) scale(0.08 -0.08)">
       <use xlink:href="#CMR17-30" transform="scale(0.996264)"/>
       <use xlink:href="#CMMI12-3a" transform="translate(45.690477 0) scale(0.996264)"/>
       <use xlink:href="#CMR17-38" transform="translate(72.787654 0) scale(0.996264)"/>
      </g>
     </g>
    </g>
    <g id="ytick_12">
     <g id="line2d_54">
      <g>
       <use xlink:href="#m120633953f" x="25.150802" y="148.240563" style="stroke: #000000; stroke-width: 0.35"/>
      </g>
     </g>
     <g id="text_32">
      <!-- $\mathdefault{1.0}$ -->
      <g transform="translate(10.330112 151.007964) scale(0.08 -0.08)">
       <use xlink:href="#CMR17-31" transform="scale(0.996264)"/>
       <use xlink:href="#CMMI12-3a" transform="translate(45.690477 0) scale(0.996264)"/>
       <use xlink:href="#CMR17-30" transform="translate(72.787654 0) scale(0.996264)"/>
      </g>
     </g>
    </g>
    <g id="text_33">
     <!-- $f_{\rm well}$ -->
     <g transform="translate(6.780366 221.189797) rotate(-90) scale(0.08 -0.08)">
      <defs>
       <path id="CMMI12-66" d="M 2854 2566 
C 2982 2566 3034 2566 3034 2688 
C 3034 2752 2982 2752 2867 2752 
L 2349 2752 
C 2470 3429 2560 3897 2611 4107 
C 2650 4265 2784 4416 2950 4416 
C 3085 4416 3219 4358 3283 4298 
C 3034 4272 2957 4082 2957 3969 
C 2957 3837 3053 3759 3174 3759 
C 3302 3759 3494 3870 3494 4119 
C 3494 4393 3226 4544 2944 4544 
C 2669 4544 2400 4334 2272 4078 
C 2157 3848 2093 3611 1946 2752 
L 1517 2752 
C 1395 2752 1331 2752 1331 2637 
C 1331 2566 1370 2566 1498 2566 
L 1907 2566 
C 1792 1976 1530 542 1382 -137 
C 1274 -689 1178 -1152 858 -1152 
C 838 -1152 653 -1152 538 -1031 
C 864 -1005 864 -726 864 -720 
C 864 -593 768 -517 646 -517 
C 518 -517 326 -625 326 -867 
C 326 -1140 608 -1280 858 -1280 
C 1510 -1280 1779 -118 1850 199 
C 1965 688 2278 2376 2310 2566 
L 2854 2566 
z
" transform="scale(0.015625)"/>
      </defs>
      <use xlink:href="#CMMI12-66" transform="scale(0.996264)"/>
      <use xlink:href="#CMR17-77" transform="translate(48.083238 -14.943915) scale(0.697382)"/>
      <use xlink:href="#CMR17-65" transform="translate(92.818222 -14.943915) scale(0.697382)"/>
      <use xlink:href="#CMR17-6c" transform="translate(121.158054 -14.943915) scale(0.697382)"/>
      <use xlink:href="#CMR17-6c" transform="translate(138.567712 -14.943915) scale(0.697382)"/>
     </g>
    </g>
   </g>
   <g id="patch_8">
    <path d="M 25.150802 280.229867 
L 25.150802 145.600777 
" style="fill: none; stroke: #000000; stroke-width: 0.35; stroke-linejoin: miter; stroke-linecap: square"/>
   </g>
   <g id="patch_9">
    <path d="M 243.81072 280.229867 
L 243.81072 145.600777 
" style="fill: none; stroke: #000000; stroke-width: 0.35; stroke-linejoin: miter; stroke-linecap: square"/>
   </g>
   <g id="patch_10">
    <path d="M 25.150802 280.229867 
L 243.81072 280.229867 
" style="fill: none; stroke: #000000; stroke-width: 0.35; stroke-linejoin: miter; stroke-linecap: square"/>
   </g>
   <g id="patch_11">
    <path d="M 25.150802 145.600777 
L 243.81072 145.600777 
" style="fill: none; stroke: #000000; stroke-width: 0.35; stroke-linejoin: miter; stroke-linecap: square"/>
   </g>
   <g id="text_34">
    <!-- (b) -->
    <g transform="translate(26.150802 154.600777) scale(0.09 -0.09)">
     <use xlink:href="#CMR17-28" transform="scale(0.996264)"/>
     <use xlink:href="#CMR17-62" transform="translate(35.280768 0) scale(0.996264)"/>
     <use xlink:href="#CMR17-29" transform="translate(86.176138 0) scale(0.996264)"/>
    </g>
   </g>
  </g>
 </g>
 <defs>
  <clipPath id="p74d271f596">
   <rect x="25.150802" y="0.487615" width="218.659918" height="134.62909"/>
  </clipPath>
  <clipPath id="ped82b8a13e">
   <rect x="25.150802" y="145.600777" width="218.659918" height="134.62909"/>
  </clipPath>
 </defs>
</svg>
