<?xml version="1.0" encoding="utf-8" standalone="no"?>
<!DOCTYPE svg PUBLIC "-//W3C//DTD SVG 1.1//EN"
  "http://www.w3.org/Graphics/SVG/1.1/DTD/svg11.dtd">
<svg xmlns:xlink="http://www.w3.org/1999/xlink" width="244.17072pt" height="148.88736pt" viewBox="0 0 244.17072 148.88736" xmlns="http://www.w3.org/2000/svg" version="1.1">
 <metadata>
  <rdf:RDF xmlns:dc="http://purl.org/dc/elements/1.1/" xmlns:cc="http://creativecommons.org/ns#" xmlns:rdf="http://www.w3.org/1999/02/22-rdf-syntax-ns#">
   <cc:Work>
    <dc:type rdf:resource="http://purl.org/dc/dcmitype/StillImage"/>
    <dc:date>2025-09-12T14:54:21.378369</dc:date>
    <dc:format>image/svg+xml</dc:format>
    <dc:creator>
     <cc:Agent>
      <dc:title>Matplotlib v3.10.1, https://matplotlib.org/</dc:title>
     </cc:Agent>
    </dc:creator>
   </cc:Work>
  </rdf:RDF>
 </metadata>
 <defs>
  <style type="text/css">*{stroke-linejoin: round; stroke-linecap: butt}</style>
 </defs>
 <g id="figure_1">
  <g id="patch_1">
   <path d="M 0 148.88736 
L 244.17072 148.88736 
L 244.17072 0 
L 0 0 
L 0 148.88736 
z
" style="fill: none"/>
  </g>
  <g id="axes_1">
   <g id="patch_2">
    <path d="M 2.477091 136.557248 
L 240.621774 136.557248 
L 240.621774 0.36 
L 2.477091 0.36 
L 2.477091 136.557248 
z
" style="fill: none"/>
   </g>
   <g id="patch_3">
    <path d="M 113.122775 136.557248 
L 246.728048 136.557248 
L 246.728048 0.36 
L 113.122775 0.36 
z
" clip-path="url(#pf955a106c2)" style="fill: #858585; opacity: 0.1"/>
   </g>
   <g id="matplotlib.axis_1">
    <g id="xtick_1">
     <g id="line2d_1">
      <defs>
       <path id="m582f5908ce" d="M 0 0 
L 0 2 
" style="stroke: #000000; stroke-width: 0.35"/>
      </defs>
      <g>
       <use xlink:href="#m582f5908ce" x="2.477091" y="136.557248" style="stroke: #000000; stroke-width: 0.35"/>
      </g>
     </g>
     <g id="text_1">
      <!-- 0 -->
      <g transform="translate(0.36 146.09205) scale(0.08 -0.08)">
       <defs>
        <path id="CMR17-30" d="M 2688 2025 
C 2688 2416 2682 3080 2413 3591 
C 2176 4039 1798 4198 1466 4198 
C 1158 4198 768 4058 525 3597 
C 269 3118 243 2524 243 2025 
C 243 1661 250 1106 448 619 
C 723 -39 1216 -128 1466 -128 
C 1760 -128 2208 -7 2470 600 
C 2662 1042 2688 1559 2688 2025 
z
M 1466 -26 
C 1056 -26 813 325 723 812 
C 653 1188 653 1738 653 2096 
C 653 2588 653 2997 736 3387 
C 858 3929 1216 4096 1466 4096 
C 1728 4096 2067 3923 2189 3400 
C 2272 3036 2278 2607 2278 2096 
C 2278 1680 2278 1169 2202 792 
C 2067 95 1690 -26 1466 -26 
z
" transform="scale(0.015625)"/>
       </defs>
       <use xlink:href="#CMR17-30" transform="scale(0.996264)"/>
      </g>
     </g>
    </g>
    <g id="xtick_2">
     <g id="line2d_2">
      <g>
       <use xlink:href="#m582f5908ce" x="70.333191" y="136.557248" style="stroke: #000000; stroke-width: 0.35"/>
      </g>
     </g>
     <g id="text_2">
      <!-- $\langle r\rangle_{\rm Cs}$ -->
      <g transform="translate(60.951913 146.534832) scale(0.08 -0.08)">
       <defs>
        <path id="CMSY10-68" d="M 2099 4557 
C 2131 4627 2131 4640 2131 4672 
C 2131 4742 2074 4800 2003 4800 
C 1946 4800 1901 4768 1856 4653 
L 736 1715 
C 723 1677 704 1638 704 1600 
C 704 1581 704 1568 736 1491 
L 1856 -1446 
C 1882 -1517 1914 -1600 2003 -1600 
C 2074 -1600 2131 -1542 2131 -1472 
C 2131 -1453 2131 -1440 2099 -1370 
L 966 1600 
L 2099 4557 
z
" transform="scale(0.015625)"/>
        <path id="CMMI12-72" d="M 2490 2612 
C 2291 2574 2189 2433 2189 2293 
C 2189 2139 2310 2088 2400 2088 
C 2579 2088 2726 2242 2726 2433 
C 2726 2638 2528 2816 2208 2816 
C 1952 2816 1658 2701 1389 2312 
C 1344 2650 1088 2816 832 2816 
C 582 2816 454 2625 378 2484 
C 269 2254 173 1871 173 1839 
C 173 1814 198 1782 243 1782 
C 294 1782 301 1788 339 1935 
C 435 2318 557 2689 813 2689 
C 966 2689 1011 2580 1011 2395 
C 1011 2254 947 2005 902 1807 
L 723 1118 
C 698 996 627 709 595 594 
C 550 428 480 128 480 96 
C 480 6 550 -64 646 -64 
C 717 -64 838 -19 877 109 
C 896 160 1133 1124 1171 1271 
C 1203 1411 1242 1546 1274 1686 
C 1299 1775 1325 1878 1344 1961 
C 1363 2018 1536 2331 1696 2472 
C 1773 2542 1939 2689 2202 2689 
C 2304 2689 2406 2670 2490 2612 
z
" transform="scale(0.015625)"/>
        <path id="CMSY10-69" d="M 1747 1491 
C 1779 1568 1779 1581 1779 1600 
C 1779 1619 1779 1632 1747 1709 
L 627 4653 
C 589 4762 550 4800 480 4800 
C 410 4800 352 4742 352 4672 
C 352 4653 352 4640 384 4570 
L 1517 1600 
L 384 -1357 
C 352 -1427 352 -1440 352 -1472 
C 352 -1542 410 -1600 480 -1600 
C 563 -1600 589 -1536 614 -1472 
L 1747 1491 
z
" transform="scale(0.015625)"/>
        <path id="CMR17-43" d="M 3974 4289 
C 3974 4403 3968 4410 3930 4410 
C 3904 4410 3898 4403 3853 4327 
L 3571 3792 
C 3258 4187 2874 4416 2381 4416 
C 1286 4416 294 3456 294 2148 
C 294 826 1286 -128 2387 -128 
C 3366 -128 3974 730 3974 1461 
C 3974 1524 3974 1550 3917 1550 
C 3866 1550 3866 1531 3859 1474 
C 3808 585 3168 38 2477 38 
C 1824 38 781 495 781 2147 
C 781 3805 1843 4250 2464 4250 
C 3187 4250 3712 3628 3834 2745 
C 3846 2668 3846 2655 3904 2655 
C 3974 2655 3974 2668 3974 2783 
L 3974 4289 
z
" transform="scale(0.015625)"/>
        <path id="CMR17-73" d="M 1978 2697 
C 1978 2813 1971 2819 1933 2819 
C 1907 2819 1901 2813 1824 2717 
C 1805 2691 1747 2626 1728 2601 
C 1523 2819 1235 2819 1126 2819 
C 416 2819 160 2447 160 2076 
C 160 1498 813 1365 998 1325 
C 1402 1243 1542 1217 1677 1101 
C 1760 1025 1901 884 1901 654 
C 1901 384 1747 38 1158 38 
C 602 38 403 460 288 1021 
C 269 1110 269 1117 218 1117 
C 166 1117 160 1110 160 983 
L 160 63 
C 160 -51 166 -58 205 -58 
C 237 -58 243 -51 275 0 
C 314 57 410 211 448 276 
C 576 103 800 -64 1158 -64 
C 1792 -64 2131 283 2131 784 
C 2131 1112 1958 1285 1875 1362 
C 1683 1561 1459 1606 1190 1657 
C 838 1735 390 1825 390 2217 
C 390 2383 480 2737 1126 2737 
C 1811 2737 1850 2094 1862 1888 
C 1869 1856 1901 1849 1920 1849 
C 1978 1849 1978 1869 1978 1978 
L 1978 2697 
z
" transform="scale(0.015625)"/>
       </defs>
       <use xlink:href="#CMSY10-68" transform="scale(0.996264)"/>
       <use xlink:href="#CMMI12-72" transform="translate(38.743734 0) scale(0.996264)"/>
       <use xlink:href="#CMSY10-69" transform="translate(85.414346 0) scale(0.996264)"/>
       <use xlink:href="#CMR17-43" transform="translate(124.15808 -14.943915) scale(0.697382)"/>
       <use xlink:href="#CMR17-73" transform="translate(170.714785 -14.943915) scale(0.697382)"/>
      </g>
     </g>
    </g>
    <g id="xtick_3">
     <g id="line2d_3">
      <g>
       <use xlink:href="#m582f5908ce" x="154.901307" y="136.557248" style="stroke: #000000; stroke-width: 0.35"/>
      </g>
     </g>
     <g id="text_3">
      <!-- $\langle r\rangle_{\rm Ar}$ -->
      <g transform="translate(145.461912 146.534832) scale(0.08 -0.08)">
       <defs>
        <path id="CMR17-41" d="M 2323 4378 
C 2291 4461 2278 4480 2214 4480 
C 2150 4480 2138 4461 2106 4378 
L 749 566 
C 627 223 371 153 147 153 
L 147 -13 
C 262 0 518 0 640 0 
C 800 0 1056 0 1210 -13 
L 1210 153 
C 909 153 864 361 864 439 
C 864 497 877 530 890 569 
L 1229 1536 
L 2906 1536 
L 3290 442 
C 3322 365 3322 352 3322 327 
C 3322 153 3046 153 2925 153 
L 2925 0 
C 3110 0 3443 0 3642 0 
C 3808 0 4128 0 4282 -13 
L 4282 153 
C 3942 153 3827 153 3744 387 
L 2323 4378 
z
M 2067 3893 
L 2848 1702 
L 1286 1702 
L 2067 3893 
z
" transform="scale(0.015625)"/>
        <path id="CMR17-72" d="M 960 1497 
C 960 2112 1222 2688 1702 2688 
C 1747 2688 1792 2682 1837 2662 
C 1837 2662 1696 2617 1696 2452 
C 1696 2298 1818 2234 1914 2234 
C 1990 2234 2131 2279 2131 2458 
C 2131 2663 1926 2790 1709 2790 
C 1222 2790 1011 2317 947 2093 
L 941 2093 
L 941 2790 
L 198 2720 
L 198 2554 
C 576 2554 634 2515 634 2208 
L 634 428 
C 634 184 608 153 198 153 
L 198 -13 
C 352 0 646 0 813 0 
C 998 0 1325 0 1498 -13 
L 1498 153 
C 1037 153 960 153 960 440 
L 960 1497 
z
" transform="scale(0.015625)"/>
       </defs>
       <use xlink:href="#CMSY10-68" transform="scale(0.996264)"/>
       <use xlink:href="#CMMI12-72" transform="translate(38.743734 0) scale(0.996264)"/>
       <use xlink:href="#CMSY10-69" transform="translate(85.414346 0) scale(0.996264)"/>
       <use xlink:href="#CMR17-41" transform="translate(124.15808 -14.943915) scale(0.697382)"/>
       <use xlink:href="#CMR17-72" transform="translate(172.508565 -14.943915) scale(0.697382)"/>
      </g>
     </g>
    </g>
    <g id="xtick_4">
     <g id="line2d_4">
      <g>
       <use xlink:href="#m582f5908ce" x="113.122775" y="136.557248" style="stroke: #000000; stroke-width: 0.35"/>
      </g>
     </g>
     <g id="text_4">
      <!-- $r_0-2r_{\rm He}$ -->
      <g transform="translate(95.622125 146.09205) scale(0.08 -0.08)">
       <defs>
        <path id="CMSY10-0" d="M 4218 1472 
C 4326 1472 4442 1472 4442 1600 
C 4442 1728 4326 1728 4218 1728 
L 755 1728 
C 646 1728 531 1728 531 1600 
C 531 1472 646 1472 755 1472 
L 4218 1472 
z
" transform="scale(0.015625)"/>
        <path id="CMR17-32" d="M 2669 989 
L 2554 989 
C 2490 536 2438 459 2413 420 
C 2381 369 1920 369 1830 369 
L 602 369 
C 832 619 1280 1072 1824 1597 
C 2214 1967 2669 2402 2669 3035 
C 2669 3790 2067 4224 1395 4224 
C 691 4224 262 3604 262 3030 
C 262 2780 448 2748 525 2748 
C 589 2748 781 2787 781 3010 
C 781 3207 614 3264 525 3264 
C 486 3264 448 3258 422 3245 
C 544 3790 915 4058 1306 4058 
C 1862 4058 2227 3617 2227 3035 
C 2227 2479 1901 2000 1536 1584 
L 262 146 
L 262 0 
L 2515 0 
L 2669 989 
z
" transform="scale(0.015625)"/>
        <path id="CMR17-48" d="M 3590 3905 
C 3590 4192 3661 4192 4102 4192 
L 4102 4352 
C 3917 4352 3578 4352 3379 4352 
C 3181 4352 2842 4352 2656 4352 
L 2656 4192 
C 3098 4192 3168 4192 3168 3904 
L 3168 2341 
L 1261 2341 
L 1261 3904 
C 1261 4192 1331 4192 1773 4192 
L 1773 4352 
C 1587 4352 1248 4352 1050 4352 
C 851 4352 512 4352 326 4352 
L 326 4192 
C 768 4192 838 4192 838 3905 
L 838 447 
C 838 160 768 160 326 160 
L 326 0 
C 512 0 851 0 1050 0 
C 1248 0 1587 0 1773 0 
L 1773 160 
C 1331 160 1261 160 1261 446 
L 1261 2176 
L 3168 2176 
L 3168 446 
C 3168 160 3098 160 2656 160 
L 2656 0 
C 2842 0 3181 0 3379 0 
C 3578 0 3917 0 4102 0 
L 4102 160 
C 3661 160 3590 160 3590 447 
L 3590 3905 
z
" transform="scale(0.015625)"/>
        <path id="CMR17-65" d="M 2438 1472 
C 2464 1498 2464 1511 2464 1576 
C 2464 2238 2118 2816 1389 2816 
C 710 2816 173 2169 173 1383 
C 173 551 781 -64 1459 -64 
C 2176 -64 2458 607 2458 740 
C 2458 784 2419 784 2406 784 
C 2362 784 2355 771 2330 696 
C 2189 265 1837 51 1504 51 
C 1229 51 954 203 781 480 
C 582 803 582 1176 582 1472 
L 2438 1472 
z
M 589 1568 
C 634 2505 1126 2714 1382 2714 
C 1818 2714 2112 2297 2118 1568 
L 589 1568 
z
" transform="scale(0.015625)"/>
       </defs>
       <use xlink:href="#CMMI12-72" transform="scale(0.996264)"/>
       <use xlink:href="#CMR17-30" transform="translate(43.960894 -14.943915) scale(0.697382)"/>
       <use xlink:href="#CMSY10-0" transform="translate(98.581415 0) scale(0.996264)"/>
       <use xlink:href="#CMR17-32" transform="translate(198.20809 0) scale(0.996264)"/>
       <use xlink:href="#CMMI12-72" transform="translate(243.898567 0) scale(0.996264)"/>
       <use xlink:href="#CMR17-48" transform="translate(287.859461 -14.943915) scale(0.697382)"/>
       <use xlink:href="#CMR17-65" transform="translate(336.209946 -14.943915) scale(0.697382)"/>
      </g>
     </g>
    </g>
    <g id="xtick_5">
     <g id="line2d_5">
      <g>
       <use xlink:href="#m582f5908ce" x="198.610609" y="136.557248" style="stroke: #000000; stroke-width: 0.35"/>
      </g>
     </g>
     <g id="text_5">
      <!-- $r_0$ -->
      <g transform="translate(194.873471 146.09205) scale(0.08 -0.08)">
       <use xlink:href="#CMMI12-72" transform="scale(0.996264)"/>
       <use xlink:href="#CMR17-30" transform="translate(43.960894 -14.943915) scale(0.697382)"/>
      </g>
     </g>
    </g>
    <g id="xtick_6">
     <g id="line2d_6">
      <g>
       <use xlink:href="#m582f5908ce" x="240.621774" y="136.557248" style="stroke: #000000; stroke-width: 0.35"/>
      </g>
     </g>
     <g id="text_6">
      <!-- $R$ -->
      <g transform="translate(237.432827 146.09205) scale(0.08 -0.08)">
       <defs>
        <path id="CMMI12-52" d="M 2355 3924 
C 2413 4160 2438 4160 2688 4160 
L 3149 4160 
C 3699 4160 4109 3995 4109 3499 
C 4109 3175 3942 2240 2656 2240 
L 1933 2240 
L 2355 3924 
z
M 3245 2169 
C 4038 2341 4659 2851 4659 3398 
C 4659 3894 4154 4352 3264 4352 
L 1530 4352 
C 1402 4352 1344 4352 1344 4226 
C 1344 4160 1389 4160 1510 4160 
C 1894 4160 1894 4112 1894 4045 
C 1894 4033 1894 3994 1869 3899 
L 1005 479 
C 947 256 934 192 493 192 
C 346 192 301 192 301 71 
C 301 7 371 7 390 7 
C 506 7 640 7 762 7 
L 1517 7 
C 1632 7 1766 7 1882 7 
C 1933 7 2003 7 2003 128 
C 2003 192 1946 192 1850 192 
C 1459 192 1459 243 1459 306 
C 1459 313 1459 357 1472 407 
L 1901 2112 
L 2669 2112 
C 3277 2112 3392 1731 3392 1522 
C 3392 1427 3328 1179 3283 1014 
C 3213 723 3194 652 3194 532 
C 3194 82 3565 -128 3994 -128 
C 4512 -128 4736 501 4736 591 
C 4736 635 4704 654 4666 654 
C 4614 654 4602 616 4589 565 
C 4435 114 4173 0 4013 0 
C 3853 0 3750 70 3750 356 
C 3750 509 3827 1088 3834 1120 
C 3866 1355 3866 1380 3866 1432 
C 3866 1896 3488 2093 3245 2169 
z
" transform="scale(0.015625)"/>
       </defs>
       <use xlink:href="#CMMI12-52" transform="scale(0.996264)"/>
      </g>
     </g>
    </g>
   </g>
   <g id="matplotlib.axis_2"/>
   <g id="line2d_7">
    <path d="M 2.507623 71.694387 
L 35.544278 71.807085 
L 63.074824 72.112527 
L 84.48747 72.563067 
L 101.005798 73.125641 
L 113.853386 73.774058 
L 124.253814 74.507632 
L 132.818873 75.317661 
L 140.160352 76.221049 
L 146.278251 77.174766 
L 151.78436 78.240196 
L 156.678679 79.400435 
L 160.961209 80.624416 
L 165.243738 82.092203 
L 168.914478 83.58876 
L 172.585217 85.352584 
L 175.644167 87.063703 
L 178.703116 89.027954 
L 181.762066 91.274438 
L 184.821015 93.820022 
L 187.879965 96.648336 
L 195.221444 103.618643 
L 196.445023 104.45818 
L 197.668603 105.014898 
L 198.280393 105.145397 
L 198.892183 105.148802 
L 199.503973 104.998807 
L 200.115763 104.664285 
L 200.727553 104.108382 
L 201.339343 103.287413 
L 201.951133 102.149549 
L 202.562923 100.633215 
L 203.174712 98.665167 
L 203.786502 96.158149 
L 204.398292 93.008046 
L 205.010082 89.090416 
L 205.621872 84.256242 
L 206.233662 78.326741 
L 206.845452 71.086964 
L 207.457242 62.277914 
L 208.069032 51.586805 
L 208.680822 38.634964 
L 209.292612 22.962783 
L 210.038189 -1 
L 210.038189 -1 
" clip-path="url(#pf955a106c2)" style="fill: none; stroke: #000000; stroke-linecap: round"/>
   </g>
   <g id="line2d_8">
    <path d="M 2.477091 35.330443 
L 10.154249 35.304222 
L 38.223855 34.974681 
L 43.981722 35.230908 
L 51.898791 35.846449 
L 56.457103 36.356221 
L 59.575948 36.925423 
L 62.454882 37.68898 
L 66.29346 38.962521 
L 79.728486 43.810416 
L 82.847331 45.32119 
L 86.685909 47.43249 
L 93.163511 51.298903 
L 101.800312 56.41697 
L 109.47747 60.655718 
L 114.755515 63.364812 
L 118.594094 65.083045 
L 122.192761 66.430628 
L 125.791429 67.529914 
L 129.390096 68.394871 
L 133.228675 69.07985 
L 137.307164 69.567479 
L 141.865476 69.870999 
L 148.343078 70.048984 
L 159.858814 70.121537 
L 242.148342 70.119566 
L 242.148342 70.119566 
" clip-path="url(#pf955a106c2)" style="fill: none; stroke: #5e4fa2; stroke-linecap: round"/>
   </g>
   <g id="line2d_9">
    <path d="M 70.333191 136.557248 
L 70.333191 0.36 
" clip-path="url(#pf955a106c2)" style="fill: none; stroke-dasharray: 1.85,0.8; stroke-dashoffset: 0; stroke: #5e4fa2; stroke-width: 0.5; stroke-linecap: round"/>
   </g>
   <g id="line2d_10">
    <path d="M 2.477091 70.119566 
L 99.401201 70.01123 
L 107.798092 69.788718 
L 113.316048 69.422991 
L 117.87436 68.89963 
L 121.233117 68.319233 
L 123.872139 67.654802 
L 126.271251 66.823645 
L 128.430451 65.845189 
L 130.829563 64.496601 
L 133.468586 62.735105 
L 136.34752 60.535164 
L 139.466365 57.865005 
L 141.865476 55.530338 
L 144.024677 53.138585 
L 146.183877 50.403646 
L 148.582989 46.953252 
L 152.181656 41.773903 
L 153.861035 39.745414 
L 155.300502 38.3764 
L 156.500057 37.573817 
L 157.459702 37.178279 
L 158.419347 37.000293 
L 159.378991 37.036998 
L 160.338636 37.285531 
L 161.298281 37.743032 
L 162.497836 38.604407 
L 163.697392 39.782233 
L 164.896948 41.27092 
L 166.336415 43.457186 
L 168.015793 46.465268 
L 170.654816 51.73769 
L 173.773661 57.901401 
L 175.453039 60.774397 
L 176.892506 62.838218 
L 178.331973 64.552397 
L 179.77144 65.953468 
L 181.210907 67.077964 
L 182.890285 68.089055 
L 184.569663 68.831435 
L 186.488953 69.421219 
L 188.648153 69.825211 
L 191.047265 70.038788 
L 194.885843 70.111973 
L 221.755893 70.119638 
L 242.148342 70.119575 
L 242.148342 70.119575 
" clip-path="url(#pf955a106c2)" style="fill: none; stroke: #d7414e; stroke-linecap: round"/>
   </g>
   <g id="line2d_11">
    <path d="M 154.901307 136.557248 
L 154.901307 0.36 
" clip-path="url(#pf955a106c2)" style="fill: none; stroke-dasharray: 1.85,0.8; stroke-dashoffset: 0; stroke: #d7414e; stroke-width: 0.5; stroke-linecap: round"/>
   </g>
   <g id="line2d_12">
    <path d="M 198.610609 136.557248 
L 198.610609 0.36 
" clip-path="url(#pf955a106c2)" style="fill: none; stroke-dasharray: 1.85,0.8; stroke-dashoffset: 0; stroke: #000000; stroke-width: 0.5; stroke-linecap: round"/>
   </g>
   <g id="patch_4">
    <path d="M 2.477091 136.557248 
L 2.477091 0.36 
" style="fill: none; stroke: #000000; stroke-width: 0.35; stroke-linejoin: miter; stroke-linecap: square"/>
   </g>
   <g id="patch_5">
    <path d="M 240.621774 136.557248 
L 240.621774 0.36 
" style="fill: none; stroke: #000000; stroke-width: 0.35; stroke-linejoin: miter; stroke-linecap: square"/>
   </g>
   <g id="patch_6">
    <path d="M 2.477091 136.557248 
L 240.621774 136.557248 
" style="fill: none; stroke: #000000; stroke-width: 0.35; stroke-linejoin: miter; stroke-linecap: square"/>
   </g>
   <g id="patch_7">
    <path d="M 2.477091 0.36 
L 240.621774 0.36 
" style="fill: none; stroke: #000000; stroke-width: 0.35; stroke-linejoin: miter; stroke-linecap: square"/>
   </g>
   <g id="text_7">
    <!-- $\varrho(r)\rvert_{\rm Cs}$ -->
    <g style="fill: #5e4fa2" transform="translate(4.00366 31.760096) scale(0.09 -0.09)">
     <defs>
      <path id="CMMI12-25" d="M 794 653 
C 915 154 1242 -64 1594 -64 
C 2336 -64 3142 845 3142 1798 
C 3142 2483 2726 2822 2285 2822 
C 1773 2822 1062 2310 819 1363 
C 563 352 467 -173 467 -499 
C 467 -717 467 -1120 1331 -1120 
C 1555 -1120 1728 -1094 1946 -1094 
C 2080 -1094 2214 -1094 2240 -1146 
C 2246 -1158 2240 -1178 2246 -1178 
C 2246 -1222 2272 -1242 2310 -1242 
C 2349 -1242 2400 -1242 2400 -1075 
C 2400 -774 2118 -774 1498 -774 
C 787 -774 640 -710 640 -333 
C 640 -38 736 416 794 653 
z
M 1600 64 
C 1254 64 1126 422 1126 736 
C 1126 960 1235 1587 1466 2035 
C 1638 2381 1965 2694 2278 2694 
C 2566 2694 2726 2432 2726 2054 
C 2726 1728 2554 1094 2445 826 
C 2240 358 1894 64 1600 64 
z
" transform="scale(0.015625)"/>
      <path id="CMR17-28" d="M 1958 -1561 
C 1958 -1555 1958 -1542 1939 -1523 
C 1645 -1224 858 -407 858 1581 
C 858 3569 1632 4379 1946 4697 
C 1946 4704 1958 4717 1958 4736 
C 1958 4755 1939 4768 1914 4768 
C 1843 4768 1299 4296 986 3594 
C 666 2887 576 2199 576 1588 
C 576 1128 621 351 1005 -471 
C 1312 -1135 1837 -1600 1914 -1600 
C 1946 -1600 1958 -1587 1958 -1561 
z
" transform="scale(0.015625)"/>
      <path id="CMR17-29" d="M 1683 1581 
C 1683 2040 1638 2817 1254 3639 
C 947 4303 422 4768 346 4768 
C 326 4768 301 4761 301 4729 
C 301 4717 307 4710 314 4697 
C 621 4378 1402 3568 1402 1584 
C 1402 -407 627 -1217 314 -1537 
C 307 -1549 301 -1556 301 -1568 
C 301 -1600 326 -1600 346 -1600 
C 416 -1600 960 -1128 1274 -426 
C 1594 281 1683 969 1683 1581 
z
" transform="scale(0.015625)"/>
      <path id="CMSY10-6a" d="M 1018 4570 
C 1018 4685 1018 4800 890 4800 
C 762 4800 762 4685 762 4570 
L 762 -1370 
C 762 -1485 762 -1600 890 -1600 
C 1018 -1600 1018 -1485 1018 -1370 
L 1018 4570 
z
" transform="scale(0.015625)"/>
     </defs>
     <use xlink:href="#CMMI12-25" transform="scale(0.996264)"/>
     <use xlink:href="#CMR17-28" transform="translate(50.314373 0) scale(0.996264)"/>
     <use xlink:href="#CMMI12-72" transform="translate(85.595141 0) scale(0.996264)"/>
     <use xlink:href="#CMR17-29" transform="translate(132.265753 0) scale(0.996264)"/>
     <use xlink:href="#CMSY10-6a" transform="translate(167.54652 0) scale(0.996264)"/>
     <use xlink:href="#CMR17-43" transform="translate(195.220605 -14.943915) scale(0.697382)"/>
     <use xlink:href="#CMR17-73" transform="translate(241.77731 -14.943915) scale(0.697382)"/>
    </g>
   </g>
   <g id="text_8">
    <!-- $\varrho(r)\rvert_{\rm Ar}$ -->
    <g style="fill: #d7414e" transform="translate(4.00366 66.549218) scale(0.09 -0.09)">
     <use xlink:href="#CMMI12-25" transform="scale(0.996264)"/>
     <use xlink:href="#CMR17-28" transform="translate(50.314373 0) scale(0.996264)"/>
     <use xlink:href="#CMMI12-72" transform="translate(85.595141 0) scale(0.996264)"/>
     <use xlink:href="#CMR17-29" transform="translate(132.265753 0) scale(0.996264)"/>
     <use xlink:href="#CMSY10-6a" transform="translate(167.54652 0) scale(0.996264)"/>
     <use xlink:href="#CMR17-41" transform="translate(195.220605 -14.943915) scale(0.697382)"/>
     <use xlink:href="#CMR17-72" transform="translate(243.57109 -14.943915) scale(0.697382)"/>
    </g>
   </g>
   <g id="text_9">
    <!-- $U_{\rm pore}$ -->
    <g transform="translate(201.663746 110.7543) scale(0.09 -0.09)">
     <defs>
      <path id="CMMI12-55" d="M 3238 1474 
C 3014 581 2272 57 1670 57 
C 1210 57 896 363 896 891 
C 896 916 896 1107 966 1387 
L 1594 3887 
C 1651 4103 1664 4167 2118 4167 
C 2234 4167 2298 4167 2298 4282 
C 2298 4352 2240 4352 2202 4352 
C 2086 4352 1952 4352 1830 4352 
L 1075 4352 
C 954 4352 819 4352 698 4352 
C 653 4352 576 4352 576 4231 
C 576 4167 621 4167 742 4167 
C 1126 4167 1126 4116 1126 4046 
C 1126 4008 1082 3824 1050 3715 
L 493 1488 
C 474 1418 435 1246 435 1075 
C 435 374 941 -128 1638 -128 
C 2285 -128 3002 384 3328 1197 
C 3373 1305 3430 1530 3469 1702 
C 3533 1933 3667 2496 3712 2662 
L 3955 3623 
C 4038 3956 4090 4167 4653 4167 
C 4704 4173 4730 4224 4730 4282 
C 4730 4352 4672 4352 4646 4352 
C 4557 4352 4442 4352 4352 4352 
L 4051 4352 
C 3654 4352 3450 4352 3443 4352 
C 3405 4352 3328 4352 3328 4231 
C 3328 4167 3379 4167 3424 4167 
C 3808 4167 3834 4020 3834 3905 
C 3834 3848 3834 3828 3808 3739 
L 3238 1474 
z
" transform="scale(0.015625)"/>
      <path id="CMR17-70" d="M 1408 -1063 
C 998 -1063 973 -1037 973 -789 
L 973 402 
C 1158 134 1427 -38 1766 -38 
C 2406 -38 3053 523 3053 1388 
C 3053 2191 2496 2802 1837 2802 
C 1453 2802 1139 2592 960 2338 
L 960 2802 
L 198 2732 
L 198 2567 
C 576 2567 634 2528 634 2223 
L 634 -789 
C 634 -1031 608 -1063 198 -1063 
L 198 -1228 
C 352 -1216 634 -1216 800 -1216 
C 966 -1216 1254 -1216 1408 -1228 
L 1408 -1063 
z
M 973 2012 
C 973 2102 973 2235 1222 2471 
C 1254 2497 1472 2688 1792 2688 
C 2259 2688 2643 2108 2643 1382 
C 2643 656 2234 64 1728 64 
C 1498 64 1248 172 1056 472 
C 973 612 973 650 973 752 
L 973 2012 
z
" transform="scale(0.015625)"/>
      <path id="CMR17-6f" d="M 2758 1356 
C 2758 2176 2163 2816 1466 2816 
C 768 2816 173 2176 173 1356 
C 173 551 768 -64 1466 -64 
C 2163 -64 2758 551 2758 1356 
z
M 1466 51 
C 1165 51 909 230 762 480 
C 602 767 582 1126 582 1408 
C 582 1677 595 2010 762 2298 
C 890 2509 1139 2714 1466 2714 
C 1754 2714 1997 2554 2150 2330 
C 2349 2029 2349 1607 2349 1408 
C 2349 1158 2336 775 2163 467 
C 1984 173 1709 51 1466 51 
z
" transform="scale(0.015625)"/>
     </defs>
     <use xlink:href="#CMMI12-55" transform="scale(0.996264)"/>
     <use xlink:href="#CMR17-70" transform="translate(66.252119 -14.943915) scale(0.697382)"/>
     <use xlink:href="#CMR17-6f" transform="translate(103.700433 -14.943915) scale(0.697382)"/>
     <use xlink:href="#CMR17-72" transform="translate(135.683615 -14.943915) scale(0.697382)"/>
     <use xlink:href="#CMR17-65" transform="translate(160.380035 -14.943915) scale(0.697382)"/>
    </g>
   </g>
  </g>
 </g>
 <defs>
  <clipPath id="pf955a106c2">
   <rect x="2.477091" y="0.36" width="238.144682" height="136.197248"/>
  </clipPath>
 </defs>
</svg>
